<svg width="360" height="39" viewBox="0 0 360 39" fill="none" xmlns="http://www.w3.org/2000/svg">
<path d="M133.531 15.2246H140.369V17H130.842V15.5586L137.46 5.99609H130.886V4.20312H140.158V5.60938L133.531 15.2246ZM149.765 11.2871H144.509V15.2246H150.652V17H142.285V4.20312H150.591V5.99609H144.509V9.5293H149.765V11.2871ZM154.687 15.2246H160.496V17H152.463V4.20312H154.687V15.2246ZM169.681 11.2871H164.425V15.2246H170.568V17H162.201V4.20312H170.507V5.99609H164.425V9.5293H169.681V11.2871ZM179.067 13.7041C179.067 13.1416 178.868 12.708 178.47 12.4033C178.077 12.0986 177.365 11.791 176.334 11.4805C175.303 11.1699 174.482 10.8242 173.873 10.4434C172.707 9.71094 172.124 8.75586 172.124 7.57812C172.124 6.54688 172.543 5.69727 173.381 5.0293C174.225 4.36133 175.317 4.02734 176.659 4.02734C177.55 4.02734 178.344 4.19141 179.041 4.51953C179.738 4.84766 180.286 5.31641 180.685 5.92578C181.083 6.5293 181.282 7.2002 181.282 7.93848H179.067C179.067 7.27051 178.856 6.74902 178.435 6.37402C178.019 5.99316 177.421 5.80273 176.642 5.80273C175.915 5.80273 175.35 5.95801 174.945 6.26855C174.547 6.5791 174.348 7.0127 174.348 7.56934C174.348 8.03809 174.564 8.43066 174.998 8.74707C175.432 9.05762 176.146 9.3623 177.143 9.66113C178.139 9.9541 178.938 10.291 179.542 10.6719C180.146 11.0469 180.588 11.4805 180.869 11.9727C181.15 12.459 181.291 13.0303 181.291 13.6865C181.291 14.7529 180.881 15.6025 180.061 16.2354C179.246 16.8623 178.139 17.1758 176.738 17.1758C175.812 17.1758 174.96 17.0059 174.181 16.666C173.407 16.3203 172.804 15.8457 172.37 15.2422C171.942 14.6387 171.729 13.9355 171.729 13.1328H173.952C173.952 13.8594 174.192 14.4219 174.673 14.8203C175.153 15.2188 175.842 15.418 176.738 15.418C177.512 15.418 178.092 15.2627 178.479 14.9521C178.871 14.6357 179.067 14.2197 179.067 13.7041ZM189.931 13.7041C189.931 13.1416 189.731 12.708 189.333 12.4033C188.94 12.0986 188.229 11.791 187.197 11.4805C186.166 11.1699 185.346 10.8242 184.736 10.4434C183.57 9.71094 182.987 8.75586 182.987 7.57812C182.987 6.54688 183.406 5.69727 184.244 5.0293C185.088 4.36133 186.181 4.02734 187.522 4.02734C188.413 4.02734 189.207 4.19141 189.904 4.51953C190.602 4.84766 191.149 5.31641 191.548 5.92578C191.946 6.5293 192.146 7.2002 192.146 7.93848H189.931C189.931 7.27051 189.72 6.74902 189.298 6.37402C188.882 5.99316 188.284 5.80273 187.505 5.80273C186.778 5.80273 186.213 5.95801 185.809 6.26855C185.41 6.5791 185.211 7.0127 185.211 7.56934C185.211 8.03809 185.428 8.43066 185.861 8.74707C186.295 9.05762 187.01 9.3623 188.006 9.66113C189.002 9.9541 189.802 10.291 190.405 10.6719C191.009 11.0469 191.451 11.4805 191.732 11.9727C192.014 12.459 192.154 13.0303 192.154 13.6865C192.154 14.7529 191.744 15.6025 190.924 16.2354C190.109 16.8623 189.002 17.1758 187.602 17.1758C186.676 17.1758 185.823 17.0059 185.044 16.666C184.271 16.3203 183.667 15.8457 183.233 15.2422C182.806 14.6387 182.592 13.9355 182.592 13.1328H184.815C184.815 13.8594 185.056 14.4219 185.536 14.8203C186.017 15.2188 186.705 15.418 187.602 15.418C188.375 15.418 188.955 15.2627 189.342 14.9521C189.734 14.6357 189.931 14.2197 189.931 13.7041ZM201.585 11.2871H196.329V15.2246H202.473V17H194.105V4.20312H202.411V5.99609H196.329V9.5293H201.585V11.2871ZM203.747 10.5928C203.747 9.40918 204.02 8.31055 204.564 7.29688C205.115 6.2832 205.874 5.48633 206.841 4.90625C207.813 4.32031 208.862 4.02734 209.987 4.02734C211.112 4.02734 212.158 4.32031 213.125 4.90625C214.092 5.48633 214.848 6.2832 215.393 7.29688C215.943 8.31055 216.219 9.40918 216.219 10.5928C216.219 11.7764 215.943 12.875 215.393 13.8887C214.848 14.9023 214.095 15.7051 213.134 16.2969C212.173 16.8828 211.124 17.1758 209.987 17.1758C208.856 17.1758 207.808 16.8828 206.841 16.2969C205.88 15.7109 205.124 14.9111 204.573 13.8975C204.022 12.8838 203.747 11.7822 203.747 10.5928ZM215.146 10.5928C215.146 9.62012 214.927 8.71777 214.487 7.88574C214.048 7.04785 213.427 6.37988 212.624 5.88184C211.821 5.37793 210.942 5.12598 209.987 5.12598C209.056 5.12598 208.188 5.36621 207.386 5.84668C206.589 6.32715 205.962 6.98926 205.505 7.83301C205.048 8.67676 204.819 9.59668 204.819 10.5928C204.819 11.5889 205.045 12.5088 205.496 13.3525C205.953 14.1963 206.58 14.8643 207.377 15.3564C208.18 15.8428 209.05 16.0859 209.987 16.0859C210.925 16.0859 211.795 15.8369 212.598 15.3389C213.406 14.8408 214.033 14.1699 214.479 13.3262C214.924 12.4824 215.146 11.5713 215.146 10.5928ZM208.722 11.2607V14.2227H207.395V6.75195H209.864C210.761 6.75195 211.461 6.95117 211.965 7.34961C212.469 7.74219 212.721 8.30469 212.721 9.03711C212.721 9.72266 212.369 10.25 211.666 10.6191C212.047 10.7891 212.313 11.0381 212.466 11.3662C212.618 11.6885 212.694 12.0898 212.694 12.5703C212.694 13.0449 212.703 13.3818 212.721 13.5811C212.744 13.7803 212.785 13.9473 212.844 14.082V14.2227H211.481C211.405 14.0234 211.367 13.4551 211.367 12.5176C211.367 12.0723 211.271 11.7529 211.077 11.5596C210.884 11.3604 210.562 11.2607 210.11 11.2607H208.722ZM208.722 10.083H209.979C210.383 10.083 210.72 9.99219 210.989 9.81055C211.265 9.62891 211.402 9.37988 211.402 9.06348C211.402 8.65332 211.297 8.36328 211.086 8.19336C210.881 8.01758 210.506 7.92676 209.961 7.9209H208.722V10.083ZM219.462 14.75C219.86 14.75 220.168 14.8643 220.385 15.0928C220.602 15.3154 220.71 15.5967 220.71 15.9365C220.71 16.2705 220.602 16.5488 220.385 16.7715C220.168 16.9883 219.86 17.0967 219.462 17.0967C219.081 17.0967 218.779 16.9883 218.557 16.7715C218.334 16.5547 218.223 16.2764 218.223 15.9365C218.223 15.5967 218.331 15.3154 218.548 15.0928C218.765 14.8643 219.069 14.75 219.462 14.75ZM219.462 7.28809C219.86 7.28809 220.168 7.40234 220.385 7.63086C220.602 7.85352 220.71 8.13477 220.71 8.47461C220.71 8.80859 220.602 9.08691 220.385 9.30957C220.168 9.52637 219.86 9.63477 219.462 9.63477C219.081 9.63477 218.779 9.52637 218.557 9.30957C218.334 9.09277 218.223 8.81445 218.223 8.47461C218.223 8.13477 218.331 7.85352 218.548 7.63086C218.765 7.40234 219.069 7.28809 219.462 7.28809ZM59.0352 33.834C58.9062 35.1992 58.4023 36.2656 57.5234 37.0332C56.6445 37.7949 55.4756 38.1758 54.0166 38.1758C52.9971 38.1758 52.0977 37.9355 51.3184 37.4551C50.5449 36.9688 49.9473 36.2803 49.5254 35.3896C49.1035 34.499 48.8838 33.4648 48.8662 32.2871V31.0918C48.8662 29.8848 49.0801 28.8213 49.5078 27.9014C49.9355 26.9814 50.5479 26.2725 51.3447 25.7744C52.1475 25.2764 53.0732 25.0273 54.1221 25.0273C55.5342 25.0273 56.6709 25.4111 57.5322 26.1787C58.3936 26.9463 58.8945 28.0303 59.0352 29.4307H56.8203C56.7148 28.5107 56.4453 27.8486 56.0117 27.4443C55.584 27.0342 54.9541 26.8291 54.1221 26.8291C53.1553 26.8291 52.4111 27.1836 51.8896 27.8926C51.374 28.5957 51.1104 29.6299 51.0986 30.9951V32.1289C51.0986 33.5117 51.3447 34.5664 51.8369 35.293C52.335 36.0195 53.0615 36.3828 54.0166 36.3828C54.8896 36.3828 55.5459 36.1865 55.9854 35.7939C56.4248 35.4014 56.7031 34.748 56.8203 33.834H59.0352ZM63.2539 36.2246H69.0635V38H61.0303V25.2031H63.2539V36.2246ZM73.1152 38H70.9004V25.2031H73.1152V38ZM86 38H83.7764L78.0723 28.9209V38H75.8486V25.2031H78.0723L83.7939 34.3174V25.2031H86V38ZM90.9746 38H88.7598V25.2031H90.9746V38ZM103.473 33.834C103.344 35.1992 102.84 36.2656 101.961 37.0332C101.082 37.7949 99.9131 38.1758 98.4541 38.1758C97.4346 38.1758 96.5352 37.9355 95.7559 37.4551C94.9824 36.9688 94.3848 36.2803 93.9629 35.3896C93.541 34.499 93.3213 33.4648 93.3037 32.2871V31.0918C93.3037 29.8848 93.5176 28.8213 93.9453 27.9014C94.373 26.9814 94.9854 26.2725 95.7822 25.7744C96.585 25.2764 97.5107 25.0273 98.5596 25.0273C99.9717 25.0273 101.108 25.4111 101.97 26.1787C102.831 26.9463 103.332 28.0303 103.473 29.4307H101.258C101.152 28.5107 100.883 27.8486 100.449 27.4443C100.021 27.0342 99.3916 26.8291 98.5596 26.8291C97.5928 26.8291 96.8486 27.1836 96.3271 27.8926C95.8115 28.5957 95.5479 29.6299 95.5361 30.9951V32.1289C95.5361 33.5117 95.7822 34.5664 96.2744 35.293C96.7725 36.0195 97.499 36.3828 98.4541 36.3828C99.3271 36.3828 99.9834 36.1865 100.423 35.7939C100.862 35.4014 101.141 34.748 101.258 33.834H103.473ZM112.631 35.0205H107.674L106.637 38H104.325L109.159 25.2031H111.154L115.997 38H113.677L112.631 35.0205ZM108.298 33.2275H112.007L110.152 27.9189L108.298 33.2275ZM119.68 36.2246H125.489V38H117.456V25.2031H119.68V36.2246ZM129.418 36.2246H135.228V38H127.194V25.2031H129.418V36.2246ZM138.646 31.2676L141.591 25.2031H144.052L139.763 33.2891V38H137.53V33.2891L133.232 25.2031H135.702L138.646 31.2676ZM152.146 33.2451V38H149.923V25.2031H154.818C156.248 25.2031 157.382 25.5752 158.22 26.3193C159.063 27.0635 159.485 28.0479 159.485 29.2725C159.485 30.5264 159.072 31.502 158.246 32.1992C157.426 32.8965 156.274 33.2451 154.792 33.2451H152.146ZM152.146 31.4609H154.818C155.609 31.4609 156.213 31.2764 156.629 30.9072C157.045 30.5322 157.253 29.9932 157.253 29.29C157.253 28.5986 157.042 28.0479 156.62 27.6377C156.198 27.2217 155.618 27.0078 154.88 26.9961H152.146V31.4609ZM166.139 33.0693H163.66V38H161.437V25.2031H165.937C167.413 25.2031 168.553 25.5342 169.355 26.1963C170.158 26.8584 170.56 27.8164 170.56 29.0703C170.56 29.9258 170.352 30.6436 169.936 31.2236C169.525 31.7979 168.951 32.2402 168.213 32.5508L171.087 37.8857V38H168.705L166.139 33.0693ZM163.66 31.2852H165.945C166.695 31.2852 167.281 31.0977 167.703 30.7227C168.125 30.3418 168.336 29.8232 168.336 29.167C168.336 28.4814 168.14 27.9512 167.747 27.5762C167.36 27.2012 166.78 27.0078 166.007 26.9961H163.66V31.2852ZM182.882 31.9355C182.882 33.1895 182.665 34.291 182.231 35.2402C181.798 36.1836 181.177 36.9102 180.368 37.4199C179.565 37.9238 178.64 38.1758 177.591 38.1758C176.554 38.1758 175.628 37.9238 174.813 37.4199C174.005 36.9102 173.378 36.1865 172.933 35.249C172.493 34.3115 172.271 33.2305 172.265 32.0059V31.2852C172.265 30.0371 172.484 28.9355 172.924 27.9805C173.369 27.0254 173.993 26.2959 174.796 25.792C175.604 25.2822 176.53 25.0273 177.573 25.0273C178.616 25.0273 179.539 25.2793 180.342 25.7832C181.15 26.2812 181.774 27.002 182.214 27.9453C182.653 28.8828 182.876 29.9756 182.882 31.2236V31.9355ZM180.658 31.2676C180.658 29.8496 180.389 28.7627 179.85 28.0068C179.316 27.251 178.558 26.873 177.573 26.873C176.612 26.873 175.859 27.251 175.314 28.0068C174.775 28.7568 174.5 29.8203 174.488 31.1973V31.9355C174.488 33.3418 174.761 34.4287 175.306 35.1963C175.856 35.9639 176.618 36.3477 177.591 36.3477C178.575 36.3477 179.331 35.9727 179.858 35.2227C180.392 34.4727 180.658 33.377 180.658 31.9355V31.2676ZM189.412 35.2139L192.664 25.2031H195.107L190.502 38H188.349L183.761 25.2031H186.195L189.412 35.2139ZM204.037 32.2871H198.781V36.2246H204.925V38H196.558V25.2031H204.863V26.9961H198.781V30.5293H204.037V32.2871ZM216.887 38H214.663L208.959 28.9209V38H206.735V25.2031H208.959L214.681 34.3174V25.2031H216.887V38ZM231.477 32.2871H226.221V36.2246H232.364V38H223.997V25.2031H232.303V26.9961H226.221V30.5293H231.477V32.2871ZM241.549 32.5771H236.398V38H234.175V25.2031H242.305V26.9961H236.398V30.8018H241.549V32.5771ZM251.445 32.5771H246.295V38H244.071V25.2031H252.201V26.9961H246.295V30.8018H251.445V32.5771ZM256.314 38H254.1V25.2031H256.314V38ZM268.812 33.834C268.684 35.1992 268.18 36.2656 267.301 37.0332C266.422 37.7949 265.253 38.1758 263.794 38.1758C262.774 38.1758 261.875 37.9355 261.096 37.4551C260.322 36.9688 259.725 36.2803 259.303 35.3896C258.881 34.499 258.661 33.4648 258.644 32.2871V31.0918C258.644 29.8848 258.857 28.8213 259.285 27.9014C259.713 26.9814 260.325 26.2725 261.122 25.7744C261.925 25.2764 262.851 25.0273 263.899 25.0273C265.312 25.0273 266.448 25.4111 267.31 26.1787C268.171 26.9463 268.672 28.0303 268.812 29.4307H266.598C266.492 28.5107 266.223 27.8486 265.789 27.4443C265.361 27.0342 264.731 26.8291 263.899 26.8291C262.933 26.8291 262.188 27.1836 261.667 27.8926C261.151 28.5957 260.888 29.6299 260.876 30.9951V32.1289C260.876 33.5117 261.122 34.5664 261.614 35.293C262.112 36.0195 262.839 36.3828 263.794 36.3828C264.667 36.3828 265.323 36.1865 265.763 35.7939C266.202 35.4014 266.48 34.748 266.598 33.834H268.812ZM277.971 35.0205H273.014L271.977 38H269.665L274.499 25.2031H276.494L281.337 38H279.017L277.971 35.0205ZM273.638 33.2275H277.347L275.492 27.9189L273.638 33.2275ZM292.367 33.834C292.238 35.1992 291.734 36.2656 290.855 37.0332C289.977 37.7949 288.808 38.1758 287.349 38.1758C286.329 38.1758 285.43 37.9355 284.65 37.4551C283.877 36.9688 283.279 36.2803 282.857 35.3896C282.436 34.499 282.216 33.4648 282.198 32.2871V31.0918C282.198 29.8848 282.412 28.8213 282.84 27.9014C283.268 26.9814 283.88 26.2725 284.677 25.7744C285.479 25.2764 286.405 25.0273 287.454 25.0273C288.866 25.0273 290.003 25.4111 290.864 26.1787C291.726 26.9463 292.227 28.0303 292.367 29.4307H290.152C290.047 28.5107 289.777 27.8486 289.344 27.4443C288.916 27.0342 288.286 26.8291 287.454 26.8291C286.487 26.8291 285.743 27.1836 285.222 27.8926C284.706 28.5957 284.442 29.6299 284.431 30.9951V32.1289C284.431 33.5117 284.677 34.5664 285.169 35.293C285.667 36.0195 286.394 36.3828 287.349 36.3828C288.222 36.3828 288.878 36.1865 289.317 35.7939C289.757 35.4014 290.035 34.748 290.152 33.834H292.367ZM298.537 31.2676L301.481 25.2031H303.942L299.653 33.2891V38H297.421V33.2891L293.123 25.2031H295.593L298.537 31.2676Z" fill="#ED2771"/>
<path d="M121.075 11.5C121.586 11.5 122.075 11.2972 122.436 10.9362C122.797 10.5752 123 10.0855 123 9.575C123 9.10552 122.908 8.64065 122.728 8.20691C122.548 7.77317 122.285 7.37906 121.953 7.04709C121.621 6.71512 121.227 6.45179 120.793 6.27213C120.359 6.09247 119.894 6 119.425 6C118.914 6 118.425 6.20281 118.064 6.56382C117.703 6.92483 117.5 7.41446 117.5 7.925C117.5 7.41446 117.297 6.92483 116.936 6.56382C116.575 6.20281 116.086 6 115.575 6C114.627 6 113.718 6.37665 113.047 7.04709C112.377 7.71754 112 8.62685 112 9.575C112 10.0855 112.203 10.5752 112.564 10.9362C112.925 11.2972 113.414 11.5 113.925 11.5C113.414 11.5 112.925 11.7028 112.564 12.0638C112.203 12.4248 112 12.9145 112 13.425C112 13.8945 112.092 14.3594 112.272 14.7931C112.452 15.2268 112.715 15.6209 113.047 15.9529C113.718 16.6233 114.627 17 115.575 17C116.086 17 116.575 16.7972 116.936 16.4362C117.297 16.0752 117.5 15.5855 117.5 15.075C117.5 15.5855 117.703 16.0752 118.064 16.4362C118.425 16.7972 118.914 17 119.425 17C119.894 17 120.359 16.9075 120.793 16.7279C121.227 16.5482 121.621 16.2849 121.953 15.9529C122.285 15.6209 122.548 15.2268 122.728 14.7931C122.908 14.3594 123 13.8945 123 13.425C123 12.9145 122.797 12.4248 122.436 12.0638C122.075 11.7028 121.586 11.5 121.075 11.5ZM117.5 13.7C116.917 13.7 116.357 13.4682 115.944 13.0556C115.532 12.6431 115.3 12.0835 115.3 11.5C115.3 10.9165 115.532 10.3569 115.944 9.94437C116.357 9.53179 116.917 9.3 117.5 9.3C118.083 9.3 118.643 9.53179 119.056 9.94437C119.468 10.3569 119.7 10.9165 119.7 11.5C119.7 12.0835 119.468 12.6431 119.056 13.0556C118.643 13.4682 118.083 13.7 117.5 13.7ZM118.875 11.5C118.875 11.8647 118.73 12.2144 118.472 12.4723C118.214 12.7301 117.865 12.875 117.5 12.875C117.135 12.875 116.786 12.7301 116.528 12.4723C116.27 12.2144 116.125 11.8647 116.125 11.5C116.125 11.1353 116.27 10.7856 116.528 10.5277C116.786 10.2699 117.135 10.125 117.5 10.125C117.865 10.125 118.214 10.2699 118.472 10.5277C118.73 10.7856 118.875 11.1353 118.875 11.5Z" fill="#ED2771"/>
</svg>
