<svg width="282" height="32" viewBox="0 0 282 32" fill="none" xmlns="http://www.w3.org/2000/svg">
<path d="M9.075 11.5C9.58554 11.5 10.0752 11.2972 10.4362 10.9362C10.7972 10.5752 11 10.0855 11 9.575C11 9.10552 10.9075 8.64065 10.7279 8.20691C10.5482 7.77317 10.2849 7.37906 9.95291 7.04709C9.62094 6.71512 9.22683 6.45179 8.79309 6.27213C8.35935 6.09247 7.89448 6 7.425 6C6.91446 6 6.42483 6.20281 6.06382 6.56382C5.70281 6.92483 5.5 7.41446 5.5 7.925C5.5 7.41446 5.29719 6.92483 4.93618 6.56382C4.57517 6.20281 4.08554 6 3.575 6C2.62685 6 1.71754 6.37665 1.04709 7.04709C0.376651 7.71754 0 8.62685 0 9.575C0 10.0855 0.202812 10.5752 0.563819 10.9362C0.924827 11.2972 1.41446 11.5 1.925 11.5C1.41446 11.5 0.924827 11.7028 0.563819 12.0638C0.202812 12.4248 0 12.9145 0 13.425C0 13.8945 0.09247 14.3594 0.272131 14.7931C0.451791 15.2268 0.715124 15.6209 1.04709 15.9529C1.71754 16.6233 2.62685 17 3.575 17C4.08554 17 4.57517 16.7972 4.93618 16.4362C5.29719 16.0752 5.5 15.5855 5.5 15.075C5.5 15.5855 5.70281 16.0752 6.06382 16.4362C6.42483 16.7972 6.91446 17 7.425 17C7.89448 17 8.35935 16.9075 8.79309 16.7279C9.22683 16.5482 9.62094 16.2849 9.95291 15.9529C10.2849 15.6209 10.5482 15.2268 10.7279 14.7931C10.9075 14.3594 11 13.8945 11 13.425C11 12.9145 10.7972 12.4248 10.4362 12.0638C10.0752 11.7028 9.58554 11.5 9.075 11.5ZM5.5 13.7C4.91652 13.7 4.35695 13.4682 3.94437 13.0556C3.53179 12.6431 3.3 12.0835 3.3 11.5C3.3 10.9165 3.53179 10.3569 3.94437 9.94437C4.35695 9.53179 4.91652 9.3 5.5 9.3C6.08348 9.3 6.64305 9.53179 7.05563 9.94437C7.46821 10.3569 7.7 10.9165 7.7 11.5C7.7 12.0835 7.46821 12.6431 7.05563 13.0556C6.64305 13.4682 6.08348 13.7 5.5 13.7ZM6.875 11.5C6.875 11.8647 6.73013 12.2144 6.47227 12.4723C6.21441 12.7301 5.86467 12.875 5.5 12.875C5.13533 12.875 4.78559 12.7301 4.52773 12.4723C4.26987 12.2144 4.125 11.8647 4.125 11.5C4.125 11.1353 4.26987 10.7856 4.52773 10.5277C4.78559 10.2699 5.13533 10.125 5.5 10.125C5.86467 10.125 6.21441 10.2699 6.47227 10.5277C6.73013 10.7856 6.875 11.1353 6.875 11.5Z" fill="#ED2771"/>
<path d="M20.4502 10.7178H25.3887V12H18.5078V10.959L23.2876 4.05273H18.5396V2.75781H25.2363V3.77344L20.4502 10.7178ZM32.1743 7.87402H28.3784V10.7178H32.8154V12H26.7725V2.75781H32.771V4.05273H28.3784V6.60449H32.1743V7.87402ZM35.729 10.7178H39.9248V12H34.123V2.75781H35.729V10.7178ZM46.5581 7.87402H42.7622V10.7178H47.1992V12H41.1562V2.75781H47.1548V4.05273H42.7622V6.60449H46.5581V7.87402ZM53.3374 9.61963C53.3374 9.21338 53.1935 8.90023 52.9058 8.68018C52.6222 8.46012 52.1081 8.23796 51.3633 8.01367C50.6185 7.78939 50.026 7.53971 49.5859 7.26465C48.7438 6.73568 48.3228 6.0459 48.3228 5.19531C48.3228 4.45052 48.6253 3.83691 49.2305 3.35449C49.8398 2.87207 50.6291 2.63086 51.5981 2.63086C52.2414 2.63086 52.8148 2.74935 53.3184 2.98633C53.8219 3.22331 54.2176 3.56185 54.5054 4.00195C54.7931 4.43783 54.937 4.92236 54.937 5.45557H53.3374C53.3374 4.97314 53.1851 4.59652 52.8804 4.32568C52.5799 4.05062 52.1483 3.91309 51.5854 3.91309C51.0607 3.91309 50.6523 4.02523 50.3604 4.24951C50.0726 4.4738 49.9287 4.78695 49.9287 5.18896C49.9287 5.52751 50.0853 5.81104 50.3984 6.03955C50.7116 6.26383 51.2279 6.48389 51.9473 6.69971C52.6667 6.9113 53.2443 7.15462 53.6802 7.42969C54.116 7.70052 54.4355 8.01367 54.6387 8.36914C54.8418 8.72038 54.9434 9.13298 54.9434 9.60693C54.9434 10.3771 54.6471 10.9907 54.0547 11.4478C53.4665 11.9006 52.6667 12.127 51.6553 12.127C50.9867 12.127 50.3709 12.0042 49.8081 11.7588C49.2495 11.5091 48.8136 11.1663 48.5005 10.7305C48.1916 10.2946 48.0371 9.78678 48.0371 9.20703H49.6431C49.6431 9.73177 49.8166 10.138 50.1636 10.4258C50.5106 10.7135 51.0078 10.8574 51.6553 10.8574C52.2139 10.8574 52.6328 10.7453 52.9121 10.521C53.1956 10.2925 53.3374 9.99202 53.3374 9.61963ZM61.1831 9.61963C61.1831 9.21338 61.0392 8.90023 60.7515 8.68018C60.4679 8.46012 59.9538 8.23796 59.209 8.01367C58.4642 7.78939 57.8717 7.53971 57.4316 7.26465C56.5895 6.73568 56.1685 6.0459 56.1685 5.19531C56.1685 4.45052 56.471 3.83691 57.0762 3.35449C57.6855 2.87207 58.4748 2.63086 59.4438 2.63086C60.0871 2.63086 60.6605 2.74935 61.1641 2.98633C61.6676 3.22331 62.0633 3.56185 62.3511 4.00195C62.6388 4.43783 62.7827 4.92236 62.7827 5.45557H61.1831C61.1831 4.97314 61.0308 4.59652 60.7261 4.32568C60.4256 4.05062 59.994 3.91309 59.4312 3.91309C58.9064 3.91309 58.498 4.02523 58.2061 4.24951C57.9183 4.4738 57.7744 4.78695 57.7744 5.18896C57.7744 5.52751 57.931 5.81104 58.2441 6.03955C58.5573 6.26383 59.0736 6.48389 59.793 6.69971C60.5124 6.9113 61.09 7.15462 61.5259 7.42969C61.9618 7.70052 62.2812 8.01367 62.4844 8.36914C62.6875 8.72038 62.7891 9.13298 62.7891 9.60693C62.7891 10.3771 62.4928 10.9907 61.9004 11.4478C61.3122 11.9006 60.5124 12.127 59.501 12.127C58.8324 12.127 58.2166 12.0042 57.6538 11.7588C57.0952 11.5091 56.6593 11.1663 56.3462 10.7305C56.0373 10.2946 55.8828 9.78678 55.8828 9.20703H57.4888C57.4888 9.73177 57.6623 10.138 58.0093 10.4258C58.3563 10.7135 58.8535 10.8574 59.501 10.8574C60.0596 10.8574 60.4785 10.7453 60.7578 10.521C61.0413 10.2925 61.1831 9.99202 61.1831 9.61963ZM69.6001 7.87402H65.8042V10.7178H70.2412V12H64.1982V2.75781H70.1968V4.05273H65.8042V6.60449H69.6001V7.87402ZM71.1616 7.37256C71.1616 6.51774 71.3584 5.72428 71.752 4.99219C72.1497 4.26009 72.6978 3.68457 73.396 3.26562C74.0985 2.84245 74.856 2.63086 75.6685 2.63086C76.481 2.63086 77.2363 2.84245 77.9346 3.26562C78.6328 3.68457 79.1787 4.26009 79.5723 4.99219C79.9701 5.72428 80.1689 6.51774 80.1689 7.37256C80.1689 8.22738 79.9701 9.02083 79.5723 9.75293C79.1787 10.485 78.6349 11.0648 77.9409 11.4922C77.2469 11.9154 76.4894 12.127 75.6685 12.127C74.8517 12.127 74.0942 11.9154 73.396 11.4922C72.702 11.069 72.1561 10.4914 71.7583 9.75928C71.3605 9.02718 71.1616 8.23161 71.1616 7.37256ZM79.3945 7.37256C79.3945 6.67008 79.2358 6.01839 78.9185 5.41748C78.6011 4.81234 78.1525 4.32992 77.5728 3.97021C76.993 3.60628 76.3582 3.42432 75.6685 3.42432C74.9956 3.42432 74.3693 3.59782 73.7896 3.94482C73.214 4.29183 72.7612 4.77002 72.4312 5.37939C72.1011 5.98877 71.936 6.65316 71.936 7.37256C71.936 8.09196 72.099 8.75635 72.4248 9.36572C72.7549 9.9751 73.2077 10.4575 73.7832 10.813C74.363 11.1642 74.9914 11.3398 75.6685 11.3398C76.3455 11.3398 76.974 11.16 77.5537 10.8003C78.1377 10.4406 78.5905 9.95605 78.9121 9.34668C79.2337 8.7373 79.3945 8.07926 79.3945 7.37256ZM74.7544 7.85498V9.99414H73.7959V4.59863H75.5796C76.2271 4.59863 76.7327 4.74251 77.0967 5.03027C77.4606 5.3138 77.6426 5.72005 77.6426 6.24902C77.6426 6.74414 77.3887 7.125 76.8809 7.3916C77.1559 7.51432 77.3485 7.69417 77.4585 7.93115C77.5685 8.1639 77.6235 8.45378 77.6235 8.80078C77.6235 9.14355 77.6299 9.38688 77.6426 9.53076C77.6595 9.67464 77.6891 9.79525 77.7314 9.89258V9.99414H76.7476C76.6925 9.85026 76.665 9.43978 76.665 8.7627C76.665 8.44108 76.5952 8.21045 76.4556 8.0708C76.3159 7.92692 76.0832 7.85498 75.7573 7.85498H74.7544ZM74.7544 7.00439H75.6621C75.9541 7.00439 76.1974 6.9388 76.3921 6.80762C76.591 6.67643 76.6904 6.49658 76.6904 6.26807C76.6904 5.97184 76.6143 5.76237 76.4619 5.63965C76.3138 5.5127 76.043 5.4471 75.6494 5.44287H74.7544V7.00439ZM86.6626 12H85.063V2.75781H86.6626V12ZM93.4673 9.61963C93.4673 9.21338 93.3234 8.90023 93.0356 8.68018C92.7521 8.46012 92.238 8.23796 91.4932 8.01367C90.7484 7.78939 90.1559 7.53971 89.7158 7.26465C88.8737 6.73568 88.4526 6.0459 88.4526 5.19531C88.4526 4.45052 88.7552 3.83691 89.3604 3.35449C89.9697 2.87207 90.759 2.63086 91.728 2.63086C92.3713 2.63086 92.9447 2.74935 93.4482 2.98633C93.9518 3.22331 94.3475 3.56185 94.6353 4.00195C94.923 4.43783 95.0669 4.92236 95.0669 5.45557H93.4673C93.4673 4.97314 93.3149 4.59652 93.0103 4.32568C92.7098 4.05062 92.2782 3.91309 91.7153 3.91309C91.1906 3.91309 90.7822 4.02523 90.4902 4.24951C90.2025 4.4738 90.0586 4.78695 90.0586 5.18896C90.0586 5.52751 90.2152 5.81104 90.5283 6.03955C90.8415 6.26383 91.3577 6.48389 92.0771 6.69971C92.7965 6.9113 93.3742 7.15462 93.8101 7.42969C94.2459 7.70052 94.5654 8.01367 94.7686 8.36914C94.9717 8.72038 95.0732 9.13298 95.0732 9.60693C95.0732 10.3771 94.777 10.9907 94.1846 11.4478C93.5964 11.9006 92.7965 12.127 91.7852 12.127C91.1165 12.127 90.5008 12.0042 89.938 11.7588C89.3794 11.5091 88.9435 11.1663 88.6304 10.7305C88.3215 10.2946 88.167 9.78678 88.167 9.20703H89.7729C89.7729 9.73177 89.9465 10.138 90.2935 10.4258C90.6405 10.7135 91.1377 10.8574 91.7852 10.8574C92.3438 10.8574 92.7627 10.7453 93.042 10.521C93.3255 10.2925 93.4673 9.99202 93.4673 9.61963ZM105.122 7.87402H101.326V10.7178H105.763V12H99.7197V2.75781H105.718V4.05273H101.326V6.60449H105.122V7.87402ZM114.402 12H112.796L108.676 5.44287V12H107.07V2.75781H108.676L112.809 9.34033V2.75781H114.402V12ZM116.3 12V2.75781H119.029C119.846 2.75781 120.57 2.93978 121.2 3.30371C121.835 3.66764 122.326 4.18392 122.673 4.85254C123.02 5.52116 123.193 6.28711 123.193 7.15039V7.61377C123.193 8.48975 123.018 9.25993 122.667 9.92432C122.319 10.5887 121.822 11.1007 121.175 11.4604C120.532 11.8201 119.793 12 118.959 12H116.3ZM117.906 4.05273V10.7178H118.953C119.795 10.7178 120.441 10.4554 120.889 9.93066C121.342 9.40169 121.573 8.64421 121.581 7.6582V7.14404C121.581 6.14111 121.363 5.37516 120.927 4.84619C120.491 4.31722 119.859 4.05273 119.029 4.05273H117.906ZM132.169 7.62012C132.169 8.52572 132.012 9.32129 131.699 10.0068C131.386 10.6882 130.938 11.2129 130.354 11.5811C129.774 11.945 129.105 12.127 128.348 12.127C127.599 12.127 126.93 11.945 126.342 11.5811C125.758 11.2129 125.305 10.6903 124.983 10.0132C124.666 9.3361 124.505 8.55534 124.501 7.6709V7.15039C124.501 6.24902 124.66 5.45345 124.977 4.76367C125.299 4.07389 125.749 3.54704 126.329 3.18311C126.913 2.81494 127.582 2.63086 128.335 2.63086C129.088 2.63086 129.755 2.81283 130.334 3.17676C130.918 3.53646 131.369 4.05697 131.687 4.73828C132.004 5.41536 132.165 6.20459 132.169 7.10596V7.62012ZM130.563 7.1377C130.563 6.11361 130.368 5.32861 129.979 4.78271C129.594 4.23682 129.046 3.96387 128.335 3.96387C127.641 3.96387 127.097 4.23682 126.704 4.78271C126.314 5.32438 126.115 6.09245 126.107 7.08691V7.62012C126.107 8.63574 126.304 9.42074 126.697 9.9751C127.095 10.5295 127.645 10.8066 128.348 10.8066C129.059 10.8066 129.604 10.5358 129.985 9.99414C130.37 9.45247 130.563 8.66113 130.563 7.62012V7.1377ZM137.165 8.43896H135.375V12H133.769V2.75781H137.019C138.085 2.75781 138.908 2.99691 139.488 3.4751C140.068 3.95329 140.357 4.64518 140.357 5.55078C140.357 6.16862 140.207 6.68701 139.907 7.10596C139.611 7.52067 139.196 7.84017 138.663 8.06445L140.738 11.9175V12H139.018L137.165 8.43896ZM135.375 7.15039H137.025C137.567 7.15039 137.99 7.01497 138.294 6.74414C138.599 6.46908 138.751 6.09456 138.751 5.62061C138.751 5.12549 138.61 4.74251 138.326 4.47168C138.047 4.20085 137.628 4.0612 137.069 4.05273H135.375V7.15039ZM146.711 9.61963C146.711 9.21338 146.568 8.90023 146.28 8.68018C145.996 8.46012 145.482 8.23796 144.737 8.01367C143.993 7.78939 143.4 7.53971 142.96 7.26465C142.118 6.73568 141.697 6.0459 141.697 5.19531C141.697 4.45052 141.999 3.83691 142.604 3.35449C143.214 2.87207 144.003 2.63086 144.972 2.63086C145.615 2.63086 146.189 2.74935 146.692 2.98633C147.196 3.22331 147.592 3.56185 147.879 4.00195C148.167 4.43783 148.311 4.92236 148.311 5.45557H146.711C146.711 4.97314 146.559 4.59652 146.254 4.32568C145.954 4.05062 145.522 3.91309 144.959 3.91309C144.435 3.91309 144.026 4.02523 143.734 4.24951C143.447 4.4738 143.303 4.78695 143.303 5.18896C143.303 5.52751 143.459 5.81104 143.772 6.03955C144.086 6.26383 144.602 6.48389 145.321 6.69971C146.041 6.9113 146.618 7.15462 147.054 7.42969C147.49 7.70052 147.81 8.01367 148.013 8.36914C148.216 8.72038 148.317 9.13298 148.317 9.60693C148.317 10.3771 148.021 10.9907 147.429 11.4478C146.84 11.9006 146.041 12.127 145.029 12.127C144.361 12.127 143.745 12.0042 143.182 11.7588C142.624 11.5091 142.188 11.1663 141.875 10.7305C141.566 10.2946 141.411 9.78678 141.411 9.20703H143.017C143.017 9.73177 143.191 10.138 143.538 10.4258C143.885 10.7135 144.382 10.8574 145.029 10.8574C145.588 10.8574 146.007 10.7453 146.286 10.521C146.57 10.2925 146.711 9.99202 146.711 9.61963ZM155.128 7.87402H151.333V10.7178H155.77V12H149.727V2.75781H155.725V4.05273H151.333V6.60449H155.128V7.87402ZM157.077 12V2.75781H159.807C160.623 2.75781 161.347 2.93978 161.978 3.30371C162.612 3.66764 163.103 4.18392 163.45 4.85254C163.797 5.52116 163.971 6.28711 163.971 7.15039V7.61377C163.971 8.48975 163.795 9.25993 163.444 9.92432C163.097 10.5887 162.6 11.1007 161.952 11.4604C161.309 11.8201 160.57 12 159.737 12H157.077ZM158.683 4.05273V10.7178H159.73C160.573 10.7178 161.218 10.4554 161.667 9.93066C162.119 9.40169 162.35 8.64421 162.358 7.6582V7.14404C162.358 6.14111 162.14 5.37516 161.705 4.84619C161.269 4.31722 160.636 4.05273 159.807 4.05273H158.683ZM168.808 12V2.75781H171.975C173.02 2.75781 173.816 2.96729 174.362 3.38623C174.908 3.80518 175.181 4.42936 175.181 5.25879C175.181 5.68197 175.066 6.06283 174.838 6.40137C174.609 6.73991 174.275 7.00228 173.835 7.18848C174.334 7.32389 174.719 7.57992 174.99 7.95654C175.265 8.32894 175.403 8.77751 175.403 9.30225C175.403 10.1698 175.124 10.8363 174.565 11.3018C174.011 11.7673 173.215 12 172.178 12H168.808ZM170.414 7.82959V10.7178H172.197C172.701 10.7178 173.094 10.5929 173.378 10.3433C173.661 10.0936 173.803 9.74658 173.803 9.30225C173.803 8.34163 173.312 7.85075 172.331 7.82959H170.414ZM170.414 6.64893H171.988C172.487 6.64893 172.876 6.53678 173.156 6.3125C173.439 6.08398 173.581 5.76237 173.581 5.34766C173.581 4.89062 173.45 4.56055 173.188 4.35742C172.929 4.1543 172.525 4.05273 171.975 4.05273H170.414V6.64893ZM179.668 7.1377L181.795 2.75781H183.572L180.475 8.59766V12H178.862V8.59766L175.758 2.75781H177.542L179.668 7.1377ZM20.5454 23.5659V27H18.9395V17.7578H22.4751C23.5076 17.7578 24.3265 18.0265 24.9316 18.564C25.541 19.1014 25.8457 19.8123 25.8457 20.6968C25.8457 21.6024 25.5474 22.307 24.9507 22.8105C24.3582 23.3141 23.5267 23.5659 22.4561 23.5659H20.5454ZM20.5454 22.2773H22.4751C23.0464 22.2773 23.4823 22.144 23.7827 21.8774C24.0832 21.6066 24.2334 21.2173 24.2334 20.7095C24.2334 20.2101 24.0811 19.8123 23.7764 19.5161C23.4717 19.2157 23.0527 19.0612 22.5195 19.0527H20.5454V22.2773ZM31.2983 24.8481H27.7183L26.9692 27H25.2998L28.791 17.7578H30.2319L33.7295 27H32.0537L31.2983 24.8481ZM28.1689 23.5532H30.8477L29.5083 19.7192L28.1689 23.5532ZM40.6992 19.0527H37.8174V27H36.2241V19.0527H33.3677V17.7578H40.6992V19.0527ZM43.6128 27H42.0132V17.7578H43.6128V27ZM50.9888 22.874H47.1929V25.7178H51.6299V27H45.5869V17.7578H51.5854V19.0527H47.1929V21.6045H50.9888V22.874ZM60.269 27H58.6631L54.5435 20.4429V27H52.9375V17.7578H54.5435L58.6758 24.3403V17.7578H60.269V27ZM68.6543 19.0527H65.7725V27H64.1792V19.0527H61.3228V17.7578H68.6543V19.0527ZM74.6021 24.6196C74.6021 24.2134 74.4582 23.9002 74.1704 23.6802C73.8869 23.4601 73.3727 23.238 72.6279 23.0137C71.8831 22.7894 71.2907 22.5397 70.8506 22.2646C70.0085 21.7357 69.5874 21.0459 69.5874 20.1953C69.5874 19.4505 69.89 18.8369 70.4951 18.3545C71.1045 17.8721 71.8937 17.6309 72.8628 17.6309C73.506 17.6309 74.0794 17.7493 74.583 17.9863C75.0866 18.2233 75.4823 18.5618 75.77 19.002C76.0578 19.4378 76.2017 19.9224 76.2017 20.4556H74.6021C74.6021 19.9731 74.4497 19.5965 74.145 19.3257C73.8446 19.0506 73.4129 18.9131 72.8501 18.9131C72.3254 18.9131 71.917 19.0252 71.625 19.2495C71.3372 19.4738 71.1934 19.7869 71.1934 20.189C71.1934 20.5275 71.3499 20.811 71.6631 21.0396C71.9762 21.2638 72.4925 21.4839 73.2119 21.6997C73.9313 21.9113 74.509 22.1546 74.9448 22.4297C75.3807 22.7005 75.7002 23.0137 75.9033 23.3691C76.1064 23.7204 76.208 24.133 76.208 24.6069C76.208 25.3771 75.9118 25.9907 75.3193 26.4478C74.7311 26.9006 73.9313 27.127 72.9199 27.127C72.2513 27.127 71.6356 27.0042 71.0728 26.7588C70.5142 26.5091 70.0783 26.1663 69.7651 25.7305C69.4562 25.2946 69.3018 24.7868 69.3018 24.207H70.9077C70.9077 24.7318 71.0812 25.138 71.4282 25.4258C71.7752 25.7135 72.2725 25.8574 72.9199 25.8574C73.4785 25.8574 73.8975 25.7453 74.1768 25.521C74.4603 25.2925 74.6021 24.992 74.6021 24.6196ZM80.4609 24.5054C80.4609 24.078 80.5773 23.6865 80.8101 23.3311C81.0428 22.9714 81.502 22.5461 82.1875 22.0552C81.8278 21.6024 81.576 21.2173 81.4321 20.8999C81.2925 20.5825 81.2227 20.2757 81.2227 19.9795C81.2227 19.2559 81.4427 18.6846 81.8828 18.2656C82.3229 17.8424 82.9154 17.6309 83.6602 17.6309C84.333 17.6309 84.8831 17.8298 85.3105 18.2275C85.7422 18.6211 85.958 19.1099 85.958 19.6938C85.958 20.0789 85.8607 20.4344 85.666 20.7603C85.4714 21.0819 85.1519 21.4035 84.7075 21.7251L84.0791 22.1821L85.8628 24.2896C86.1209 23.7817 86.25 23.2168 86.25 22.5947H87.5894C87.5894 23.7331 87.3228 24.6662 86.7896 25.394L88.1479 27H86.3579L85.8374 26.3843C85.1772 26.8794 84.3901 27.127 83.4761 27.127C82.562 27.127 81.8299 26.8857 81.2798 26.4033C80.7339 25.9167 80.4609 25.284 80.4609 24.5054ZM83.5205 25.8955C84.041 25.8955 84.5277 25.722 84.9805 25.375L82.9619 22.9946L82.7651 23.1343C82.2573 23.5194 82.0034 23.9595 82.0034 24.4546C82.0034 24.882 82.141 25.229 82.416 25.4956C82.6911 25.7622 83.0592 25.8955 83.5205 25.8955ZM82.6699 19.9414C82.6699 20.2969 82.8879 20.7433 83.3237 21.2808L84.0283 20.7983L84.2251 20.6396C84.4875 20.4069 84.6187 20.1086 84.6187 19.7446C84.6187 19.5034 84.5277 19.2982 84.3457 19.1289C84.1637 18.9554 83.9331 18.8687 83.6538 18.8687C83.3534 18.8687 83.1143 18.9702 82.9365 19.1733C82.7588 19.3765 82.6699 19.6325 82.6699 19.9414ZM97.8091 22.874H94.0132V25.7178H98.4502V27H92.4072V17.7578H98.4058V19.0527H94.0132V21.6045H97.8091V22.874ZM106.518 17.7578V23.9341C106.518 24.9159 106.203 25.6945 105.572 26.27C104.946 26.8413 104.11 27.127 103.065 27.127C102.007 27.127 101.167 26.8455 100.545 26.2827C99.9229 25.7157 99.6118 24.9307 99.6118 23.9277V17.7578H101.211V23.9404C101.211 24.5583 101.368 25.0301 101.681 25.356C101.994 25.6818 102.456 25.8447 103.065 25.8447C104.301 25.8447 104.918 25.193 104.918 23.8896V17.7578H106.518ZM111.634 23.439H109.844V27H108.238V17.7578H111.488C112.555 17.7578 113.378 17.9969 113.958 18.4751C114.537 18.9533 114.827 19.6452 114.827 20.5508C114.827 21.1686 114.677 21.687 114.376 22.106C114.08 22.5207 113.666 22.8402 113.132 23.0645L115.208 26.9175V27H113.488L111.634 23.439ZM109.844 22.1504H111.495C112.036 22.1504 112.459 22.015 112.764 21.7441C113.069 21.4691 113.221 21.0946 113.221 20.6206C113.221 20.1255 113.079 19.7425 112.796 19.4717C112.517 19.2008 112.098 19.0612 111.539 19.0527H109.844V22.1504ZM123.727 22.6201C123.727 23.5257 123.57 24.3213 123.257 25.0068C122.944 25.6882 122.495 26.2129 121.911 26.5811C121.331 26.945 120.663 27.127 119.905 27.127C119.156 27.127 118.488 26.945 117.899 26.5811C117.315 26.2129 116.863 25.6903 116.541 25.0132C116.224 24.3361 116.063 23.5553 116.059 22.6709V22.1504C116.059 21.249 116.217 20.4535 116.535 19.7637C116.856 19.0739 117.307 18.547 117.887 18.1831C118.471 17.8149 119.139 17.6309 119.893 17.6309C120.646 17.6309 121.312 17.8128 121.892 18.1768C122.476 18.5365 122.927 19.057 123.244 19.7383C123.562 20.4154 123.722 21.2046 123.727 22.106V22.6201ZM122.121 22.1377C122.121 21.1136 121.926 20.3286 121.537 19.7827C121.152 19.2368 120.604 18.9639 119.893 18.9639C119.199 18.9639 118.655 19.2368 118.261 19.7827C117.872 20.3244 117.673 21.0924 117.665 22.0869V22.6201C117.665 23.6357 117.861 24.4207 118.255 24.9751C118.653 25.5295 119.203 25.8066 119.905 25.8066C120.616 25.8066 121.162 25.5358 121.543 24.9941C121.928 24.4525 122.121 23.6611 122.121 22.6201V22.1377ZM126.932 23.5659V27H125.326V17.7578H128.862C129.894 17.7578 130.713 18.0265 131.318 18.564C131.928 19.1014 132.232 19.8123 132.232 20.6968C132.232 21.6024 131.934 22.307 131.337 22.8105C130.745 23.3141 129.913 23.5659 128.843 23.5659H126.932ZM126.932 22.2773H128.862C129.433 22.2773 129.869 22.144 130.169 21.8774C130.47 21.6066 130.62 21.2173 130.62 20.7095C130.62 20.2101 130.468 19.8123 130.163 19.5161C129.858 19.2157 129.439 19.0612 128.906 19.0527H126.932V22.2773ZM139.043 22.874H135.248V25.7178H139.685V27H133.642V17.7578H139.64V19.0527H135.248V21.6045H139.043V22.874ZM146.166 24.8481H142.585L141.836 27H140.167L143.658 17.7578H145.099L148.597 27H146.921L146.166 24.8481ZM143.036 23.5532H145.715L144.375 19.7192L143.036 23.5532ZM156.982 27H155.376L151.256 20.4429V27H149.65V17.7578H151.256L155.389 24.3403V17.7578H156.982V27ZM169.201 25.8003C168.867 26.2362 168.403 26.5662 167.811 26.7905C167.219 27.0148 166.546 27.127 165.792 27.127C165.018 27.127 164.333 26.9513 163.736 26.6001C163.139 26.2489 162.678 25.7474 162.352 25.0957C162.03 24.4398 161.863 23.6759 161.851 22.8042V22.0806C161.851 20.6841 162.185 19.5944 162.854 18.8115C163.522 18.0244 164.455 17.6309 165.653 17.6309C166.681 17.6309 167.498 17.8848 168.103 18.3926C168.708 18.9004 169.072 19.6325 169.195 20.5889H167.621C167.443 19.4759 166.798 18.9194 165.685 18.9194C164.965 18.9194 164.417 19.1797 164.041 19.7002C163.668 20.2165 163.476 20.9761 163.463 21.979V22.6899C163.463 23.6886 163.672 24.4652 164.091 25.0195C164.514 25.5697 165.101 25.8447 165.85 25.8447C166.671 25.8447 167.255 25.6585 167.602 25.2861V23.4771H165.697V22.2583H169.201V25.8003ZM173.981 22.1377L176.107 17.7578H177.885L174.787 23.5977V27H173.175V23.5977L170.071 17.7578H171.854L173.981 22.1377ZM186.219 27H184.613L180.494 20.4429V27H178.888V17.7578H180.494L184.626 24.3403V17.7578H186.219V27ZM193.519 22.874H189.723V25.7178H194.16V27H188.117V17.7578H194.116V19.0527H189.723V21.6045H193.519V22.874ZM202.52 23.9912C202.427 24.9772 202.063 25.7474 201.428 26.3018C200.793 26.8519 199.949 27.127 198.896 27.127C198.159 27.127 197.51 26.9535 196.947 26.6064C196.388 26.2552 195.957 25.758 195.652 25.1147C195.347 24.4715 195.188 23.7246 195.176 22.874V22.0107C195.176 21.139 195.33 20.3709 195.639 19.7065C195.948 19.0422 196.39 18.5301 196.966 18.1704C197.546 17.8107 198.214 17.6309 198.972 17.6309C199.992 17.6309 200.812 17.908 201.435 18.4624C202.057 19.0168 202.418 19.7996 202.52 20.811H200.92C200.844 20.1466 200.65 19.6685 200.336 19.3765C200.028 19.0802 199.573 18.9321 198.972 18.9321C198.273 18.9321 197.736 19.1882 197.359 19.7002C196.987 20.208 196.797 20.9549 196.788 21.9409V22.7598C196.788 23.7585 196.966 24.5202 197.321 25.0449C197.681 25.5697 198.206 25.832 198.896 25.832C199.526 25.832 200 25.6903 200.317 25.4067C200.635 25.1232 200.836 24.6514 200.92 23.9912H202.52ZM211.337 22.6201C211.337 23.5257 211.18 24.3213 210.867 25.0068C210.554 25.6882 210.105 26.2129 209.521 26.5811C208.942 26.945 208.273 27.127 207.516 27.127C206.767 27.127 206.098 26.945 205.51 26.5811C204.926 26.2129 204.473 25.6903 204.151 25.0132C203.834 24.3361 203.673 23.5553 203.669 22.6709V22.1504C203.669 21.249 203.828 20.4535 204.145 19.7637C204.467 19.0739 204.917 18.547 205.497 18.1831C206.081 17.8149 206.75 17.6309 207.503 17.6309C208.256 17.6309 208.923 17.8128 209.502 18.1768C210.086 18.5365 210.537 19.057 210.854 19.7383C211.172 20.4154 211.333 21.2046 211.337 22.106V22.6201ZM209.731 22.1377C209.731 21.1136 209.536 20.3286 209.147 19.7827C208.762 19.2368 208.214 18.9639 207.503 18.9639C206.809 18.9639 206.265 19.2368 205.872 19.7827C205.482 20.3244 205.283 21.0924 205.275 22.0869V22.6201C205.275 23.6357 205.472 24.4207 205.865 24.9751C206.263 25.5295 206.813 25.8066 207.516 25.8066C208.227 25.8066 208.772 25.5358 209.153 24.9941C209.538 24.4525 209.731 23.6611 209.731 22.6201V22.1377ZM214.542 25.7178H218.738V27H212.937V17.7578H214.542V25.7178ZM226.939 22.6201C226.939 23.5257 226.783 24.3213 226.47 25.0068C226.157 25.6882 225.708 26.2129 225.124 26.5811C224.544 26.945 223.876 27.127 223.118 27.127C222.369 27.127 221.701 26.945 221.112 26.5811C220.528 26.2129 220.076 25.6903 219.754 25.0132C219.437 24.3361 219.276 23.5553 219.271 22.6709V22.1504C219.271 21.249 219.43 20.4535 219.748 19.7637C220.069 19.0739 220.52 18.547 221.1 18.1831C221.684 17.8149 222.352 17.6309 223.105 17.6309C223.859 17.6309 224.525 17.8128 225.105 18.1768C225.689 18.5365 226.14 19.057 226.457 19.7383C226.774 20.4154 226.935 21.2046 226.939 22.106V22.6201ZM225.333 22.1377C225.333 21.1136 225.139 20.3286 224.75 19.7827C224.364 19.2368 223.816 18.9639 223.105 18.9639C222.411 18.9639 221.868 19.2368 221.474 19.7827C221.085 20.3244 220.886 21.0924 220.877 22.0869V22.6201C220.877 23.6357 221.074 24.4207 221.468 24.9751C221.866 25.5295 222.416 25.8066 223.118 25.8066C223.829 25.8066 224.375 25.5358 224.756 24.9941C225.141 24.4525 225.333 23.6611 225.333 22.6201V22.1377ZM235.623 25.8003C235.289 26.2362 234.825 26.5662 234.233 26.7905C233.64 27.0148 232.968 27.127 232.214 27.127C231.44 27.127 230.754 26.9513 230.158 26.6001C229.561 26.2489 229.1 25.7474 228.774 25.0957C228.452 24.4398 228.285 23.6759 228.272 22.8042V22.0806C228.272 20.6841 228.607 19.5944 229.275 18.8115C229.944 18.0244 230.877 17.6309 232.075 17.6309C233.103 17.6309 233.92 17.8848 234.525 18.3926C235.13 18.9004 235.494 19.6325 235.617 20.5889H234.042C233.865 19.4759 233.219 18.9194 232.106 18.9194C231.387 18.9194 230.839 19.1797 230.462 19.7002C230.09 20.2165 229.897 20.9761 229.885 21.979V22.6899C229.885 23.6886 230.094 24.4652 230.513 25.0195C230.936 25.5697 231.522 25.8447 232.271 25.8447C233.092 25.8447 233.676 25.6585 234.023 25.2861V23.4771H232.119V22.2583H235.623V25.8003ZM239.083 27H237.483V17.7578H239.083V27ZM245.887 24.6196C245.887 24.2134 245.743 23.9002 245.456 23.6802C245.172 23.4601 244.658 23.238 243.913 23.0137C243.168 22.7894 242.576 22.5397 242.136 22.2646C241.294 21.7357 240.873 21.0459 240.873 20.1953C240.873 19.4505 241.175 18.8369 241.78 18.3545C242.39 17.8721 243.179 17.6309 244.148 17.6309C244.791 17.6309 245.365 17.7493 245.868 17.9863C246.372 18.2233 246.767 18.5618 247.055 19.002C247.343 19.4378 247.487 19.9224 247.487 20.4556H245.887C245.887 19.9731 245.735 19.5965 245.43 19.3257C245.13 19.0506 244.698 18.9131 244.135 18.9131C243.611 18.9131 243.202 19.0252 242.91 19.2495C242.622 19.4738 242.479 19.7869 242.479 20.189C242.479 20.5275 242.635 20.811 242.948 21.0396C243.261 21.2638 243.778 21.4839 244.497 21.6997C245.216 21.9113 245.794 22.1546 246.23 22.4297C246.666 22.7005 246.985 23.0137 247.188 23.3691C247.392 23.7204 247.493 24.133 247.493 24.6069C247.493 25.3771 247.197 25.9907 246.604 26.4478C246.016 26.9006 245.216 27.127 244.205 27.127C243.536 27.127 242.921 27.0042 242.358 26.7588C241.799 26.5091 241.363 26.1663 241.05 25.7305C240.741 25.2946 240.587 24.7868 240.587 24.207H242.193C242.193 24.7318 242.366 25.138 242.713 25.4258C243.06 25.7135 243.558 25.8574 244.205 25.8574C244.764 25.8574 245.183 25.7453 245.462 25.521C245.745 25.2925 245.887 24.992 245.887 24.6196ZM255.58 19.0527H252.698V27H251.105V19.0527H248.249V17.7578H255.58V19.0527ZM261.528 24.6196C261.528 24.2134 261.384 23.9002 261.096 23.6802C260.813 23.4601 260.299 23.238 259.554 23.0137C258.809 22.7894 258.216 22.5397 257.776 22.2646C256.934 21.7357 256.513 21.0459 256.513 20.1953C256.513 19.4505 256.816 18.8369 257.421 18.3545C258.03 17.8721 258.819 17.6309 259.789 17.6309C260.432 17.6309 261.005 17.7493 261.509 17.9863C262.012 18.2233 262.408 18.5618 262.696 19.002C262.984 19.4378 263.127 19.9224 263.127 20.4556H261.528C261.528 19.9731 261.375 19.5965 261.071 19.3257C260.77 19.0506 260.339 18.9131 259.776 18.9131C259.251 18.9131 258.843 19.0252 258.551 19.2495C258.263 19.4738 258.119 19.7869 258.119 20.189C258.119 20.5275 258.276 20.811 258.589 21.0396C258.902 21.2638 259.418 21.4839 260.138 21.6997C260.857 21.9113 261.435 22.1546 261.871 22.4297C262.306 22.7005 262.626 23.0137 262.829 23.3691C263.032 23.7204 263.134 24.133 263.134 24.6069C263.134 25.3771 262.838 25.9907 262.245 26.4478C261.657 26.9006 260.857 27.127 259.846 27.127C259.177 27.127 258.561 27.0042 257.999 26.7588C257.44 26.5091 257.004 26.1663 256.691 25.7305C256.382 25.2946 256.228 24.7868 256.228 24.207H257.833C257.833 24.7318 258.007 25.138 258.354 25.4258C258.701 25.7135 259.198 25.8574 259.846 25.8574C260.404 25.8574 260.823 25.7453 261.103 25.521C261.386 25.2925 261.528 24.992 261.528 24.6196Z" fill="#ED2771"/>
</svg>
