<svg width="315" height="43" viewBox="0 0 315 43" fill="none" xmlns="http://www.w3.org/2000/svg">
<path d="M19.7891 8.98486C19.5062 9.35368 19.1141 9.63298 18.6128 9.82275C18.1115 10.0125 17.5422 10.1074 16.9048 10.1074C16.2495 10.1074 15.6694 9.95882 15.1646 9.66162C14.6597 9.36442 14.2694 8.9401 13.9937 8.38867C13.7215 7.83366 13.5801 7.18734 13.5693 6.44971V5.8374C13.5693 4.65576 13.8522 3.73372 14.418 3.07129C14.9837 2.40527 15.7733 2.07227 16.7866 2.07227C17.6567 2.07227 18.3478 2.28711 18.8599 2.7168C19.3719 3.14648 19.6799 3.76595 19.7837 4.5752H18.4517C18.3013 3.63346 17.7552 3.1626 16.8135 3.1626C16.2048 3.1626 15.741 3.38281 15.4224 3.82324C15.1073 4.26009 14.9443 4.90283 14.9336 5.75146V6.35303C14.9336 7.19808 15.1108 7.85514 15.4653 8.32422C15.8234 8.78971 16.3193 9.02246 16.9531 9.02246C17.6478 9.02246 18.1419 8.86491 18.4355 8.5498V7.01904H16.8242V5.98779H19.7891V8.98486ZM23.189 8.13086L24.3706 4.18848H25.7617L23.4521 10.8809C23.0977 11.8584 22.4961 12.3472 21.6475 12.3472C21.4577 12.3472 21.2482 12.3149 21.019 12.2505V11.2407L21.2661 11.2568C21.5955 11.2568 21.8426 11.196 22.0073 11.0742C22.1756 10.9561 22.3081 10.7555 22.4048 10.4727L22.5928 9.97314L20.5518 4.18848H21.959L23.189 8.13086ZM27.7275 4.18848L27.7651 4.85986C28.1948 4.34066 28.7588 4.08105 29.457 4.08105C30.6673 4.08105 31.2832 4.77393 31.3047 6.15967V10H29.9995V6.23486C29.9995 5.86605 29.9189 5.59391 29.7578 5.41846C29.6003 5.23942 29.3407 5.1499 28.979 5.1499C28.4526 5.1499 28.0605 5.38802 27.8027 5.86426V10H26.4976V4.18848H27.7275ZM35.1987 10.1074C34.3716 10.1074 33.7002 9.84782 33.1846 9.32861C32.6725 8.80583 32.4165 8.11117 32.4165 7.24463V7.0835C32.4165 6.50342 32.5275 5.986 32.7495 5.53125C32.9751 5.07292 33.2902 4.71663 33.6948 4.4624C34.0994 4.20817 34.5506 4.08105 35.0483 4.08105C35.8397 4.08105 36.4502 4.3335 36.8799 4.83838C37.3132 5.34326 37.5298 6.05762 37.5298 6.98145V7.50781H33.7324C33.7718 7.98763 33.9312 8.36719 34.2104 8.64648C34.4933 8.92578 34.8478 9.06543 35.2739 9.06543C35.8719 9.06543 36.3589 8.82373 36.7349 8.34033L37.4385 9.01172C37.2057 9.35905 36.8942 9.62939 36.5039 9.82275C36.1172 10.0125 35.6821 10.1074 35.1987 10.1074ZM35.043 5.12842C34.6849 5.12842 34.3949 5.25374 34.1729 5.50439C33.9544 5.75505 33.8148 6.10417 33.7539 6.55176H36.2407V6.45508C36.2121 6.01823 36.0957 5.6888 35.8916 5.4668C35.6875 5.24121 35.4046 5.12842 35.043 5.12842ZM40.9351 9.06543C41.2609 9.06543 41.5312 8.97054 41.7461 8.78076C41.9609 8.59098 42.0755 8.35645 42.0898 8.07715H43.3198C43.3055 8.4388 43.1927 8.77718 42.9814 9.09229C42.7702 9.40381 42.4837 9.65088 42.1221 9.8335C41.7604 10.0161 41.3701 10.1074 40.9512 10.1074C40.1383 10.1074 39.4938 9.84424 39.0176 9.31787C38.5413 8.7915 38.3032 8.06462 38.3032 7.13721V7.00293C38.3032 6.11849 38.5396 5.4113 39.0122 4.88135C39.4849 4.34782 40.1294 4.08105 40.9458 4.08105C41.6369 4.08105 42.1991 4.28337 42.6323 4.68799C43.0692 5.08903 43.2983 5.61719 43.3198 6.27246H42.0898C42.0755 5.93945 41.9609 5.66553 41.7461 5.45068C41.5348 5.23584 41.2645 5.12842 40.9351 5.12842C40.5125 5.12842 40.1867 5.28239 39.9575 5.59033C39.7284 5.89469 39.612 6.3584 39.6084 6.98145V7.19092C39.6084 7.82113 39.7212 8.29199 39.9468 8.60352C40.1759 8.91146 40.5054 9.06543 40.9351 9.06543ZM44.061 7.04053C44.061 6.47119 44.1738 5.95915 44.3994 5.50439C44.625 5.04606 44.9419 4.69515 45.3501 4.45166C45.7583 4.20459 46.2274 4.08105 46.7573 4.08105C47.5415 4.08105 48.1771 4.3335 48.6641 4.83838C49.1546 5.34326 49.4196 6.01286 49.459 6.84717L49.4644 7.15332C49.4644 7.72624 49.3534 8.23828 49.1313 8.68945C48.9129 9.14062 48.5978 9.48975 48.186 9.73682C47.7778 9.98389 47.3052 10.1074 46.7681 10.1074C45.9481 10.1074 45.291 9.83529 44.7969 9.29102C44.3063 8.74316 44.061 8.01449 44.061 7.10498V7.04053ZM45.3662 7.15332C45.3662 7.7513 45.4897 8.22038 45.7368 8.56055C45.9839 8.89714 46.3276 9.06543 46.7681 9.06543C47.2085 9.06543 47.5505 8.89355 47.7939 8.5498C48.041 8.20605 48.1646 7.70296 48.1646 7.04053C48.1646 6.45329 48.0374 5.98779 47.7832 5.64404C47.5326 5.30029 47.1906 5.12842 46.7573 5.12842C46.3312 5.12842 45.9928 5.2985 45.7422 5.63867C45.4915 5.97526 45.3662 6.48014 45.3662 7.15332ZM51.9565 10H50.6514V1.75H51.9565V10ZM53.1382 7.04053C53.1382 6.47119 53.251 5.95915 53.4766 5.50439C53.7021 5.04606 54.019 4.69515 54.4272 4.45166C54.8354 4.20459 55.3045 4.08105 55.8345 4.08105C56.6187 4.08105 57.2542 4.3335 57.7412 4.83838C58.2318 5.34326 58.4967 6.01286 58.5361 6.84717L58.5415 7.15332C58.5415 7.72624 58.4305 8.23828 58.2085 8.68945C57.9901 9.14062 57.675 9.48975 57.2632 9.73682C56.855 9.98389 56.3823 10.1074 55.8452 10.1074C55.0252 10.1074 54.3682 9.83529 53.874 9.29102C53.3835 8.74316 53.1382 8.01449 53.1382 7.10498V7.04053ZM54.4434 7.15332C54.4434 7.7513 54.5669 8.22038 54.814 8.56055C55.061 8.89714 55.4048 9.06543 55.8452 9.06543C56.2856 9.06543 56.6276 8.89355 56.8711 8.5498C57.1182 8.20605 57.2417 7.70296 57.2417 7.04053C57.2417 6.45329 57.1146 5.98779 56.8604 5.64404C56.6097 5.30029 56.2677 5.12842 55.8345 5.12842C55.4084 5.12842 55.07 5.2985 54.8193 5.63867C54.5687 5.97526 54.4434 6.48014 54.4434 7.15332ZM59.417 7.05127C59.417 6.14893 59.6283 5.4292 60.0508 4.89209C60.4769 4.3514 61.0409 4.08105 61.7427 4.08105C62.4051 4.08105 62.9261 4.31201 63.3057 4.77393L63.3647 4.18848H64.541V9.82275C64.541 10.5854 64.3029 11.187 63.8267 11.6274C63.354 12.0679 62.7148 12.2881 61.9092 12.2881C61.4831 12.2881 61.0659 12.1986 60.6577 12.0195C60.2531 11.8441 59.9451 11.6131 59.7339 11.3267L60.3516 10.5425C60.7526 11.0187 61.2467 11.2568 61.834 11.2568C62.2673 11.2568 62.6092 11.1387 62.8599 10.9023C63.1105 10.6696 63.2358 10.3258 63.2358 9.87109V9.479C62.8599 9.89795 62.3586 10.1074 61.7319 10.1074C61.0516 10.1074 60.4948 9.83708 60.0615 9.29639C59.6318 8.7557 59.417 8.00732 59.417 7.05127ZM60.7168 7.16406C60.7168 7.74772 60.835 8.20785 61.0713 8.54443C61.3112 8.87744 61.6424 9.04395 62.0649 9.04395C62.5913 9.04395 62.9816 8.81836 63.2358 8.36719V5.81055C62.9888 5.37012 62.6021 5.1499 62.0757 5.1499C61.646 5.1499 61.3112 5.31999 61.0713 5.66016C60.835 6.00033 60.7168 6.50163 60.7168 7.16406ZM67.2749 10H65.9697V4.18848H67.2749V10ZM65.8892 2.6792C65.8892 2.47868 65.9518 2.31217 66.0771 2.17969C66.2061 2.0472 66.3887 1.98096 66.625 1.98096C66.8613 1.98096 67.0439 2.0472 67.1729 2.17969C67.3018 2.31217 67.3662 2.47868 67.3662 2.6792C67.3662 2.87614 67.3018 3.04085 67.1729 3.17334C67.0439 3.30225 66.8613 3.3667 66.625 3.3667C66.3887 3.3667 66.2061 3.30225 66.0771 3.17334C65.9518 3.04085 65.8892 2.87614 65.8892 2.6792ZM71.9585 8.4209C71.9585 8.18815 71.8618 8.0109 71.6685 7.88916C71.4787 7.76742 71.1618 7.65999 70.7178 7.56689C70.2738 7.4738 69.9032 7.35563 69.606 7.2124C68.9543 6.8973 68.6284 6.44076 68.6284 5.84277C68.6284 5.34147 68.8397 4.92253 69.2622 4.58594C69.6847 4.24935 70.2218 4.08105 70.8735 4.08105C71.5682 4.08105 72.1286 4.25293 72.5547 4.59668C72.9844 4.94043 73.1992 5.38623 73.1992 5.93408H71.894C71.894 5.68343 71.8009 5.47575 71.6147 5.31104C71.4285 5.14274 71.1815 5.05859 70.8735 5.05859C70.5871 5.05859 70.3525 5.12484 70.1699 5.25732C69.9909 5.38981 69.9014 5.56706 69.9014 5.78906C69.9014 5.98958 69.9855 6.14535 70.1538 6.25635C70.3221 6.36735 70.6623 6.48014 71.1743 6.59473C71.6864 6.70573 72.0874 6.84001 72.3774 6.99756C72.6711 7.15153 72.8877 7.33773 73.0273 7.55615C73.1706 7.77458 73.2422 8.03955 73.2422 8.35107C73.2422 8.87386 73.0256 9.29818 72.5923 9.62402C72.159 9.94629 71.5915 10.1074 70.8896 10.1074C70.4134 10.1074 69.9891 10.0215 69.6167 9.84961C69.2443 9.67773 68.9543 9.44141 68.7466 9.14062C68.5389 8.83984 68.4351 8.51579 68.4351 8.16846H69.7026C69.7205 8.4764 69.8369 8.71452 70.0518 8.88281C70.2666 9.04753 70.5513 9.12988 70.9058 9.12988C71.2495 9.12988 71.5109 9.06543 71.6899 8.93652C71.869 8.80404 71.9585 8.63216 71.9585 8.4209ZM76.019 2.77588V4.18848H77.0449V5.15527H76.019V8.39941C76.019 8.62142 76.062 8.78255 76.1479 8.88281C76.2375 8.97949 76.395 9.02783 76.6206 9.02783C76.771 9.02783 76.9232 9.00993 77.0771 8.97412V9.98389C76.7799 10.0662 76.4935 10.1074 76.2178 10.1074C75.2152 10.1074 74.7139 9.5542 74.7139 8.44775V5.15527H73.7578V4.18848H74.7139V2.77588H76.019ZM81.3042 8.4209C81.3042 8.18815 81.2075 8.0109 81.0142 7.88916C80.8244 7.76742 80.5075 7.65999 80.0635 7.56689C79.6195 7.4738 79.2489 7.35563 78.9517 7.2124C78.3 6.8973 77.9741 6.44076 77.9741 5.84277C77.9741 5.34147 78.1854 4.92253 78.6079 4.58594C79.0304 4.24935 79.5675 4.08105 80.2192 4.08105C80.9139 4.08105 81.4743 4.25293 81.9004 4.59668C82.3301 4.94043 82.5449 5.38623 82.5449 5.93408H81.2397C81.2397 5.68343 81.1466 5.47575 80.9604 5.31104C80.7743 5.14274 80.5272 5.05859 80.2192 5.05859C79.9328 5.05859 79.6982 5.12484 79.5156 5.25732C79.3366 5.38981 79.2471 5.56706 79.2471 5.78906C79.2471 5.98958 79.3312 6.14535 79.4995 6.25635C79.6678 6.36735 80.008 6.48014 80.52 6.59473C81.0321 6.70573 81.4331 6.84001 81.7231 6.99756C82.0168 7.15153 82.2334 7.33773 82.373 7.55615C82.5163 7.77458 82.5879 8.03955 82.5879 8.35107C82.5879 8.87386 82.3713 9.29818 81.938 9.62402C81.5047 9.94629 80.9372 10.1074 80.2354 10.1074C79.7591 10.1074 79.3348 10.0215 78.9624 9.84961C78.59 9.67773 78.3 9.44141 78.0923 9.14062C77.8846 8.83984 77.7808 8.51579 77.7808 8.16846H79.0483C79.0662 8.4764 79.1826 8.71452 79.3975 8.88281C79.6123 9.04753 79.897 9.12988 80.2515 9.12988C80.5952 9.12988 80.8566 9.06543 81.0356 8.93652C81.2147 8.80404 81.3042 8.63216 81.3042 8.4209ZM88.9043 10H83.646V9.10303L86.251 6.26172C86.627 5.84277 86.8937 5.49365 87.0513 5.21436C87.2124 4.93148 87.293 4.6486 87.293 4.36572C87.293 3.99333 87.1873 3.69255 86.9761 3.46338C86.7684 3.23421 86.4873 3.11963 86.1328 3.11963C85.7103 3.11963 85.3826 3.24854 85.1499 3.50635C84.9172 3.76416 84.8008 4.11686 84.8008 4.56445H83.4956C83.4956 4.08822 83.603 3.66032 83.8179 3.28076C84.0363 2.89762 84.346 2.60042 84.7471 2.38916C85.1517 2.1779 85.6172 2.07227 86.1436 2.07227C86.9027 2.07227 87.5007 2.26383 87.9375 2.64697C88.3779 3.02653 88.5981 3.5529 88.5981 4.22607C88.5981 4.61637 88.4871 5.02637 88.2651 5.45605C88.0467 5.88216 87.6868 6.36735 87.1855 6.91162L85.2734 8.95801H88.9043V10Z" fill="#ED2771"/>
<path d="M17.2617 20.8906L19.3125 26.3398L21.3584 20.8906H22.9551V28H21.7246V25.6562L21.8467 22.5215L19.7471 28H18.8633L16.7686 22.5264L16.8906 25.6562V28H15.6602V20.8906H17.2617ZM24.083 25.3096C24.083 24.792 24.1855 24.3265 24.3906 23.9131C24.5957 23.4964 24.8838 23.1774 25.2549 22.9561C25.626 22.7314 26.0524 22.6191 26.5342 22.6191C27.2471 22.6191 27.8249 22.8486 28.2676 23.3076C28.7135 23.7666 28.9544 24.3753 28.9902 25.1338L28.9951 25.4121C28.9951 25.9329 28.8942 26.3984 28.6924 26.8086C28.4938 27.2188 28.2074 27.5361 27.833 27.7607C27.4619 27.9854 27.0322 28.0977 26.5439 28.0977C25.7985 28.0977 25.2012 27.8503 24.752 27.3555C24.306 26.8574 24.083 26.195 24.083 25.3682V25.3096ZM25.2695 25.4121C25.2695 25.9557 25.3818 26.3822 25.6064 26.6914C25.8311 26.9974 26.1436 27.1504 26.5439 27.1504C26.9443 27.1504 27.2552 26.9941 27.4766 26.6816C27.7012 26.3691 27.8135 25.9118 27.8135 25.3096C27.8135 24.7757 27.6979 24.3525 27.4668 24.04C27.2389 23.7275 26.9281 23.5713 26.5342 23.5713C26.1468 23.5713 25.8392 23.7259 25.6113 24.0352C25.3835 24.3411 25.2695 24.8001 25.2695 25.4121ZM32.7646 23.8008C32.6084 23.7747 32.4473 23.7617 32.2812 23.7617C31.7376 23.7617 31.3714 23.9701 31.1826 24.3867V28H29.9961V22.7168H31.1289L31.1582 23.3076C31.4447 22.8486 31.8418 22.6191 32.3496 22.6191C32.5189 22.6191 32.6589 22.6419 32.7695 22.6875L32.7646 23.8008ZM35.7432 28.0977C34.9912 28.0977 34.3809 27.8617 33.9121 27.3896C33.4466 26.9144 33.2139 26.2829 33.2139 25.4951V25.3486C33.2139 24.8213 33.3148 24.3509 33.5166 23.9375C33.7217 23.5208 34.0081 23.1969 34.376 22.9658C34.7438 22.7347 35.154 22.6191 35.6064 22.6191C36.3258 22.6191 36.8809 22.8486 37.2715 23.3076C37.6654 23.7666 37.8623 24.416 37.8623 25.2559V25.7344H34.4102C34.446 26.1706 34.5908 26.5156 34.8447 26.7695C35.1019 27.0234 35.4242 27.1504 35.8115 27.1504C36.3551 27.1504 36.7979 26.9307 37.1396 26.4912L37.7793 27.1016C37.5677 27.4173 37.2845 27.6631 36.9297 27.8389C36.5781 28.0114 36.1826 28.0977 35.7432 28.0977ZM35.6016 23.5713C35.276 23.5713 35.0124 23.6852 34.8105 23.9131C34.612 24.141 34.485 24.4583 34.4297 24.8652H36.6904V24.7773C36.6644 24.3802 36.5586 24.0807 36.373 23.8789C36.1875 23.6738 35.9303 23.5713 35.6016 23.5713ZM42.7646 21.4326V22.7168H43.6973V23.5957H42.7646V26.5449C42.7646 26.7467 42.8037 26.8932 42.8818 26.9844C42.9632 27.0723 43.1064 27.1162 43.3115 27.1162C43.4482 27.1162 43.5866 27.0999 43.7266 27.0674V27.9854C43.4564 28.0602 43.196 28.0977 42.9453 28.0977C42.0339 28.0977 41.5781 27.5947 41.5781 26.5889V23.5957H40.709V22.7168H41.5781V21.4326H42.7646ZM45.7773 23.293C46.1647 22.8438 46.6546 22.6191 47.2471 22.6191C48.3734 22.6191 48.9447 23.262 48.9609 24.5479V28H47.7744V24.5918C47.7744 24.2272 47.6947 23.9701 47.5352 23.8203C47.3789 23.6673 47.1478 23.5908 46.8418 23.5908C46.3665 23.5908 46.0117 23.8024 45.7773 24.2256V28H44.5908V20.5H45.7773V23.293ZM53.3213 28C53.2692 27.8991 53.2236 27.7347 53.1846 27.5068C52.807 27.9007 52.3447 28.0977 51.7979 28.0977C51.2673 28.0977 50.8343 27.9463 50.499 27.6436C50.1637 27.3408 49.9961 26.9665 49.9961 26.5205C49.9961 25.9574 50.2044 25.526 50.6211 25.2266C51.041 24.9238 51.64 24.7725 52.418 24.7725H53.1455V24.4258C53.1455 24.1523 53.069 23.9342 52.916 23.7715C52.763 23.6055 52.5303 23.5225 52.2178 23.5225C51.9476 23.5225 51.7262 23.5908 51.5537 23.7275C51.3812 23.861 51.2949 24.0319 51.2949 24.2402H50.1084C50.1084 23.9505 50.2044 23.6803 50.3965 23.4297C50.5885 23.1758 50.849 22.9772 51.1777 22.834C51.5098 22.6908 51.8792 22.6191 52.2861 22.6191C52.9046 22.6191 53.3978 22.7754 53.7656 23.0879C54.1335 23.3971 54.3223 23.8333 54.332 24.3965V26.7793C54.332 27.2546 54.3988 27.6338 54.5322 27.917V28H53.3213ZM52.0176 27.1455C52.252 27.1455 52.4717 27.0885 52.6768 26.9746C52.8851 26.8607 53.0413 26.7077 53.1455 26.5156V25.5195H52.5059C52.0664 25.5195 51.736 25.596 51.5146 25.749C51.2933 25.902 51.1826 26.1185 51.1826 26.3984C51.1826 26.6263 51.2575 26.8086 51.4072 26.9453C51.5602 27.0788 51.7637 27.1455 52.0176 27.1455ZM56.6758 22.7168L56.71 23.3271C57.1006 22.8551 57.6133 22.6191 58.248 22.6191C59.3483 22.6191 59.9082 23.249 59.9277 24.5088V28H58.7412V24.5771C58.7412 24.2419 58.668 23.9945 58.5215 23.835C58.3783 23.6722 58.1423 23.5908 57.8135 23.5908C57.335 23.5908 56.9785 23.8073 56.7441 24.2402V28H55.5576V22.7168H56.6758ZM66.9199 25.0264C66.5228 25.4463 66.0589 25.6562 65.5283 25.6562C64.9033 25.6562 64.4053 25.4382 64.0342 25.002C63.6631 24.5625 63.4775 23.9863 63.4775 23.2734C63.4775 22.8047 63.5719 22.3799 63.7607 21.999C63.9495 21.6182 64.2181 21.3219 64.5664 21.1104C64.9147 20.8988 65.3184 20.793 65.7773 20.793C66.4935 20.793 67.0615 21.0599 67.4814 21.5938C67.9014 22.1276 68.1113 22.8421 68.1113 23.7373V24.0693C68.1113 25.3519 67.8216 26.3301 67.2422 27.0039C66.6628 27.6777 65.7985 28.0195 64.6494 28.0293H64.5078V27.0479H64.6787C65.3786 27.0381 65.9157 26.8704 66.29 26.5449C66.6644 26.2161 66.8743 25.71 66.9199 25.0264ZM65.7773 24.7285C66.015 24.7285 66.238 24.6602 66.4463 24.5234C66.6546 24.3867 66.8158 24.1979 66.9297 23.957V23.4932C66.9297 22.9691 66.8223 22.5475 66.6074 22.2285C66.3926 21.9095 66.1143 21.75 65.7725 21.75C65.4307 21.75 65.1572 21.8916 64.9521 22.1748C64.7503 22.4548 64.6494 22.8096 64.6494 23.2393C64.6494 23.6852 64.752 24.0449 64.957 24.3184C65.1621 24.5918 65.4355 24.7285 65.7773 24.7285ZM70.6113 23.9033H71.334C71.6986 23.9001 71.9867 23.8057 72.1982 23.6201C72.4131 23.4346 72.5205 23.166 72.5205 22.8145C72.5205 22.4759 72.431 22.2139 72.252 22.0283C72.0762 21.8395 71.806 21.7451 71.4414 21.7451C71.1224 21.7451 70.8604 21.8379 70.6553 22.0234C70.4502 22.2057 70.3477 22.445 70.3477 22.7412H69.1611C69.1611 22.3766 69.2572 22.0446 69.4492 21.7451C69.6445 21.4456 69.9147 21.2129 70.2598 21.0469C70.6081 20.8776 70.9971 20.793 71.4268 20.793C72.1364 20.793 72.693 20.972 73.0967 21.3301C73.5036 21.6849 73.707 22.1797 73.707 22.8145C73.707 23.1335 73.6045 23.4346 73.3994 23.7178C73.1976 23.9977 72.9355 24.2093 72.6133 24.3525C73.0039 24.486 73.3001 24.696 73.502 24.9824C73.707 25.2689 73.8096 25.6107 73.8096 26.0078C73.8096 26.6458 73.5898 27.1536 73.1504 27.5312C72.7142 27.9089 72.1396 28.0977 71.4268 28.0977C70.7432 28.0977 70.1833 27.9154 69.7471 27.5508C69.3109 27.1862 69.0928 26.7012 69.0928 26.0957H70.2793C70.2793 26.4082 70.3835 26.6621 70.5918 26.8574C70.8034 27.0527 71.0866 27.1504 71.4414 27.1504C71.8092 27.1504 72.099 27.0527 72.3105 26.8574C72.5221 26.6621 72.6279 26.3789 72.6279 26.0078C72.6279 25.6335 72.5173 25.3454 72.2959 25.1436C72.0745 24.9417 71.7458 24.8408 71.3096 24.8408H70.6113V23.9033ZM74.874 22.2578C74.874 21.8281 75.0124 21.4766 75.2891 21.2031C75.5658 20.9264 75.9287 20.7881 76.3779 20.7881C76.8337 20.7881 77.1982 20.9264 77.4717 21.2031C77.7484 21.4766 77.8867 21.8363 77.8867 22.2822V22.6338C77.8867 23.0602 77.7484 23.4102 77.4717 23.6836C77.1982 23.957 76.8369 24.0938 76.3877 24.0938C75.9482 24.0938 75.5853 23.9603 75.2988 23.6934C75.0156 23.4232 74.874 23.0602 74.874 22.6045V22.2578ZM75.7041 22.6338C75.7041 22.8584 75.766 23.0407 75.8896 23.1807C76.0166 23.3174 76.1826 23.3857 76.3877 23.3857C76.5895 23.3857 76.7523 23.3174 76.876 23.1807C76.9997 23.0407 77.0615 22.8519 77.0615 22.6143V22.2578C77.0615 22.0332 76.998 21.8509 76.8711 21.7109C76.7474 21.571 76.583 21.501 76.3779 21.501C76.1729 21.501 76.0085 21.5726 75.8848 21.7158C75.7643 21.8558 75.7041 22.0413 75.7041 22.2725V22.6338ZM78.292 26.2568C78.292 25.8206 78.4336 25.4674 78.7168 25.1973C79 24.9271 79.3613 24.792 79.8008 24.792C80.2435 24.792 80.6048 24.9271 80.8848 25.1973C81.168 25.4674 81.3096 25.832 81.3096 26.291V26.6377C81.3096 27.0609 81.1729 27.4108 80.8994 27.6875C80.6292 27.9609 80.2663 28.0977 79.8105 28.0977C79.3548 28.0977 78.987 27.9626 78.707 27.6924C78.4303 27.4189 78.292 27.0592 78.292 26.6133V26.2568ZM79.1221 26.6377C79.1221 26.859 79.1855 27.0413 79.3125 27.1846C79.4427 27.3245 79.6087 27.3945 79.8105 27.3945C80.0189 27.3945 80.1816 27.3278 80.2988 27.1943C80.4193 27.0576 80.4795 26.8672 80.4795 26.623V26.2568C80.4795 26.029 80.416 25.8467 80.2891 25.71C80.1621 25.5732 79.9993 25.5049 79.8008 25.5049C79.599 25.5049 79.4346 25.5732 79.3076 25.71C79.1839 25.8467 79.1221 26.0355 79.1221 26.2764V26.6377ZM76.6318 27.4678L76.0215 27.1162L79.4932 21.5596L80.1035 21.9111L76.6318 27.4678ZM84.6104 25.3096C84.6104 24.792 84.7129 24.3265 84.918 23.9131C85.123 23.4964 85.4111 23.1774 85.7822 22.9561C86.1533 22.7314 86.5798 22.6191 87.0615 22.6191C87.7744 22.6191 88.3522 22.8486 88.7949 23.3076C89.2409 23.7666 89.4818 24.3753 89.5176 25.1338L89.5225 25.4121C89.5225 25.9329 89.4215 26.3984 89.2197 26.8086C89.0212 27.2188 88.7347 27.5361 88.3604 27.7607C87.9893 27.9854 87.5596 28.0977 87.0713 28.0977C86.3258 28.0977 85.7285 27.8503 85.2793 27.3555C84.8333 26.8574 84.6104 26.195 84.6104 25.3682V25.3096ZM85.7969 25.4121C85.7969 25.9557 85.9092 26.3822 86.1338 26.6914C86.3584 26.9974 86.6709 27.1504 87.0713 27.1504C87.4717 27.1504 87.7826 26.9941 88.0039 26.6816C88.2285 26.3691 88.3408 25.9118 88.3408 25.3096C88.3408 24.7757 88.2253 24.3525 87.9941 24.04C87.7663 23.7275 87.4554 23.5713 87.0615 23.5713C86.6742 23.5713 86.3665 23.7259 86.1387 24.0352C85.9108 24.3411 85.7969 24.8001 85.7969 25.4121ZM90.9434 28V23.5957H90.1377V22.7168H90.9434V22.2334C90.9434 21.6475 91.1061 21.195 91.4316 20.876C91.7572 20.557 92.2129 20.3975 92.7988 20.3975C93.0072 20.3975 93.2285 20.4268 93.4629 20.4854L93.4336 21.4131C93.3034 21.387 93.152 21.374 92.9795 21.374C92.4131 21.374 92.1299 21.6654 92.1299 22.248V22.7168H93.2041V23.5957H92.1299V28H90.9434ZM96.3535 25.3193C96.3535 24.499 96.5456 23.8447 96.9297 23.3564C97.3171 22.8649 97.8298 22.6191 98.4678 22.6191C99.07 22.6191 99.5436 22.8291 99.8887 23.249L99.9424 22.7168H101.012V27.8389C101.012 28.5322 100.795 29.0791 100.362 29.4795C99.9326 29.8799 99.3516 30.0801 98.6191 30.0801C98.2318 30.0801 97.8525 29.9987 97.4814 29.8359C97.1136 29.6764 96.8337 29.4665 96.6416 29.2061L97.2031 28.4932C97.5677 28.9261 98.0169 29.1426 98.5508 29.1426C98.9447 29.1426 99.2555 29.0352 99.4834 28.8203C99.7113 28.6087 99.8252 28.2962 99.8252 27.8828V27.5264C99.4834 27.9072 99.0277 28.0977 98.458 28.0977C97.8395 28.0977 97.3333 27.8519 96.9395 27.3604C96.5488 26.8688 96.3535 26.1885 96.3535 25.3193ZM97.5352 25.4219C97.5352 25.9525 97.6426 26.3708 97.8574 26.6768C98.0755 26.9795 98.3766 27.1309 98.7607 27.1309C99.2393 27.1309 99.5941 26.9258 99.8252 26.5156V24.1914C99.6006 23.791 99.249 23.5908 98.7705 23.5908C98.3799 23.5908 98.0755 23.7454 97.8574 24.0547C97.6426 24.3639 97.5352 24.8197 97.5352 25.4219ZM104.083 26.3008L105.157 22.7168H106.422L104.322 28.8008C104 29.6895 103.453 30.1338 102.682 30.1338C102.509 30.1338 102.319 30.1045 102.11 30.0459V29.1279L102.335 29.1426C102.634 29.1426 102.859 29.0872 103.009 28.9766C103.162 28.8691 103.282 28.6868 103.37 28.4297L103.541 27.9756L101.686 22.7168H102.965L104.083 26.3008ZM108.209 22.7168L108.243 23.3271C108.634 22.8551 109.146 22.6191 109.781 22.6191C110.882 22.6191 111.441 23.249 111.461 24.5088V28H110.274V24.5771C110.274 24.2419 110.201 23.9945 110.055 23.835C109.911 23.6722 109.675 23.5908 109.347 23.5908C108.868 23.5908 108.512 23.8073 108.277 24.2402V28H107.091V22.7168H108.209ZM115.001 28.0977C114.249 28.0977 113.639 27.8617 113.17 27.3896C112.704 26.9144 112.472 26.2829 112.472 25.4951V25.3486C112.472 24.8213 112.573 24.3509 112.774 23.9375C112.979 23.5208 113.266 23.1969 113.634 22.9658C114.002 22.7347 114.412 22.6191 114.864 22.6191C115.584 22.6191 116.139 22.8486 116.529 23.3076C116.923 23.7666 117.12 24.416 117.12 25.2559V25.7344H113.668C113.704 26.1706 113.849 26.5156 114.103 26.7695C114.36 27.0234 114.682 27.1504 115.069 27.1504C115.613 27.1504 116.056 26.9307 116.397 26.4912L117.037 27.1016C116.826 27.4173 116.542 27.6631 116.188 27.8389C115.836 28.0114 115.44 28.0977 115.001 28.0977ZM114.859 23.5713C114.534 23.5713 114.27 23.6852 114.068 23.9131C113.87 24.141 113.743 24.4583 113.688 24.8652H115.948V24.7773C115.922 24.3802 115.816 24.0807 115.631 23.8789C115.445 23.6738 115.188 23.5713 114.859 23.5713ZM120.216 27.1504C120.512 27.1504 120.758 27.0641 120.953 26.8916C121.148 26.7191 121.253 26.5059 121.266 26.252H122.384C122.371 26.5807 122.268 26.8883 122.076 27.1748C121.884 27.458 121.624 27.6826 121.295 27.8486C120.966 28.0146 120.611 28.0977 120.23 28.0977C119.492 28.0977 118.906 27.8584 118.473 27.3799C118.04 26.9014 117.823 26.2406 117.823 25.3975V25.2754C117.823 24.4714 118.038 23.8285 118.468 23.3467C118.897 22.8617 119.483 22.6191 120.226 22.6191C120.854 22.6191 121.365 22.8031 121.759 23.1709C122.156 23.5355 122.364 24.0156 122.384 24.6113H121.266C121.253 24.3086 121.148 24.0596 120.953 23.8643C120.761 23.6689 120.515 23.5713 120.216 23.5713C119.832 23.5713 119.535 23.7113 119.327 23.9912C119.119 24.2679 119.013 24.6895 119.01 25.2559V25.4463C119.01 26.0192 119.112 26.4473 119.317 26.7305C119.526 27.0104 119.825 27.1504 120.216 27.1504ZM123.058 25.3096C123.058 24.792 123.16 24.3265 123.365 23.9131C123.57 23.4964 123.858 23.1774 124.229 22.9561C124.601 22.7314 125.027 22.6191 125.509 22.6191C126.222 22.6191 126.799 22.8486 127.242 23.3076C127.688 23.7666 127.929 24.3753 127.965 25.1338L127.97 25.4121C127.97 25.9329 127.869 26.3984 127.667 26.8086C127.468 27.2188 127.182 27.5361 126.808 27.7607C126.437 27.9854 126.007 28.0977 125.519 28.0977C124.773 28.0977 124.176 27.8503 123.727 27.3555C123.281 26.8574 123.058 26.195 123.058 25.3682V25.3096ZM124.244 25.4121C124.244 25.9557 124.356 26.3822 124.581 26.6914C124.806 26.9974 125.118 27.1504 125.519 27.1504C125.919 27.1504 126.23 26.9941 126.451 26.6816C126.676 26.3691 126.788 25.9118 126.788 25.3096C126.788 24.7757 126.673 24.3525 126.441 24.04C126.214 23.7275 125.903 23.5713 125.509 23.5713C125.121 23.5713 124.814 23.7259 124.586 24.0352C124.358 24.3411 124.244 24.8001 124.244 25.4121ZM130.235 28H129.049V20.5H130.235V28ZM131.31 25.3096C131.31 24.792 131.412 24.3265 131.617 23.9131C131.822 23.4964 132.11 23.1774 132.481 22.9561C132.853 22.7314 133.279 22.6191 133.761 22.6191C134.474 22.6191 135.051 22.8486 135.494 23.3076C135.94 23.7666 136.181 24.3753 136.217 25.1338L136.222 25.4121C136.222 25.9329 136.121 26.3984 135.919 26.8086C135.72 27.2188 135.434 27.5361 135.06 27.7607C134.688 27.9854 134.259 28.0977 133.771 28.0977C133.025 28.0977 132.428 27.8503 131.979 27.3555C131.533 26.8574 131.31 26.195 131.31 25.3682V25.3096ZM132.496 25.4121C132.496 25.9557 132.608 26.3822 132.833 26.6914C133.058 26.9974 133.37 27.1504 133.771 27.1504C134.171 27.1504 134.482 26.9941 134.703 26.6816C134.928 26.3691 135.04 25.9118 135.04 25.3096C135.04 24.7757 134.924 24.3525 134.693 24.04C134.465 23.7275 134.155 23.5713 133.761 23.5713C133.373 23.5713 133.066 23.7259 132.838 24.0352C132.61 24.3411 132.496 24.8001 132.496 25.4121ZM137.018 25.3193C137.018 24.499 137.21 23.8447 137.594 23.3564C137.981 22.8649 138.494 22.6191 139.132 22.6191C139.734 22.6191 140.208 22.8291 140.553 23.249L140.606 22.7168H141.676V27.8389C141.676 28.5322 141.459 29.0791 141.026 29.4795C140.597 29.8799 140.016 30.0801 139.283 30.0801C138.896 30.0801 138.517 29.9987 138.146 29.8359C137.778 29.6764 137.498 29.4665 137.306 29.2061L137.867 28.4932C138.232 28.9261 138.681 29.1426 139.215 29.1426C139.609 29.1426 139.92 29.0352 140.147 28.8203C140.375 28.6087 140.489 28.2962 140.489 27.8828V27.5264C140.147 27.9072 139.692 28.0977 139.122 28.0977C138.504 28.0977 137.997 27.8519 137.604 27.3604C137.213 26.8688 137.018 26.1885 137.018 25.3193ZM138.199 25.4219C138.199 25.9525 138.307 26.3708 138.521 26.6768C138.74 26.9795 139.041 27.1309 139.425 27.1309C139.903 27.1309 140.258 26.9258 140.489 26.5156V24.1914C140.265 23.791 139.913 23.5908 139.435 23.5908C139.044 23.5908 138.74 23.7454 138.521 24.0547C138.307 24.3639 138.199 24.8197 138.199 25.4219ZM144.161 28H142.975V22.7168H144.161V28ZM142.901 21.3447C142.901 21.1624 142.958 21.0111 143.072 20.8906C143.189 20.7702 143.355 20.71 143.57 20.71C143.785 20.71 143.951 20.7702 144.068 20.8906C144.186 21.0111 144.244 21.1624 144.244 21.3447C144.244 21.5238 144.186 21.6735 144.068 21.7939C143.951 21.9111 143.785 21.9697 143.57 21.9697C143.355 21.9697 143.189 21.9111 143.072 21.7939C142.958 21.6735 142.901 21.5238 142.901 21.3447ZM148.419 26.5645C148.419 26.3529 148.331 26.1917 148.155 26.0811C147.983 25.9704 147.695 25.8727 147.291 25.7881C146.887 25.7035 146.55 25.596 146.28 25.4658C145.688 25.1794 145.392 24.7643 145.392 24.2207C145.392 23.765 145.584 23.3841 145.968 23.0781C146.352 22.7721 146.84 22.6191 147.433 22.6191C148.064 22.6191 148.574 22.7754 148.961 23.0879C149.352 23.4004 149.547 23.8057 149.547 24.3037H148.36C148.36 24.0758 148.276 23.887 148.106 23.7373C147.937 23.5843 147.713 23.5078 147.433 23.5078C147.172 23.5078 146.959 23.568 146.793 23.6885C146.63 23.8089 146.549 23.9701 146.549 24.1719C146.549 24.3542 146.625 24.4958 146.778 24.5967C146.931 24.6976 147.241 24.8001 147.706 24.9043C148.172 25.0052 148.536 25.1273 148.8 25.2705C149.067 25.4105 149.264 25.5798 149.391 25.7783C149.521 25.9769 149.586 26.2178 149.586 26.501C149.586 26.9762 149.389 27.362 148.995 27.6582C148.601 27.9512 148.085 28.0977 147.447 28.0977C147.014 28.0977 146.629 28.0195 146.29 27.8633C145.951 27.707 145.688 27.4922 145.499 27.2188C145.31 26.9453 145.216 26.6507 145.216 26.335H146.368C146.384 26.6149 146.49 26.8314 146.686 26.9844C146.881 27.1341 147.14 27.209 147.462 27.209C147.774 27.209 148.012 27.1504 148.175 27.0332C148.338 26.9128 148.419 26.7565 148.419 26.5645ZM152.11 21.4326V22.7168H153.043V23.5957H152.11V26.5449C152.11 26.7467 152.149 26.8932 152.228 26.9844C152.309 27.0723 152.452 27.1162 152.657 27.1162C152.794 27.1162 152.932 27.0999 153.072 27.0674V27.9854C152.802 28.0602 152.542 28.0977 152.291 28.0977C151.38 28.0977 150.924 27.5947 150.924 26.5889V23.5957H150.055V22.7168H150.924V21.4326H152.11ZM156.915 26.5645C156.915 26.3529 156.827 26.1917 156.651 26.0811C156.479 25.9704 156.191 25.8727 155.787 25.7881C155.383 25.7035 155.047 25.596 154.776 25.4658C154.184 25.1794 153.888 24.7643 153.888 24.2207C153.888 23.765 154.08 23.3841 154.464 23.0781C154.848 22.7721 155.336 22.6191 155.929 22.6191C156.56 22.6191 157.07 22.7754 157.457 23.0879C157.848 23.4004 158.043 23.8057 158.043 24.3037H156.856C156.856 24.0758 156.772 23.887 156.603 23.7373C156.433 23.5843 156.209 23.5078 155.929 23.5078C155.668 23.5078 155.455 23.568 155.289 23.6885C155.126 23.8089 155.045 23.9701 155.045 24.1719C155.045 24.3542 155.121 24.4958 155.274 24.5967C155.427 24.6976 155.737 24.8001 156.202 24.9043C156.668 25.0052 157.032 25.1273 157.296 25.2705C157.563 25.4105 157.76 25.5798 157.887 25.7783C158.017 25.9769 158.082 26.2178 158.082 26.501C158.082 26.9762 157.885 27.362 157.491 27.6582C157.097 27.9512 156.581 28.0977 155.943 28.0977C155.51 28.0977 155.125 28.0195 154.786 27.8633C154.448 27.707 154.184 27.4922 153.995 27.2188C153.806 26.9453 153.712 26.6507 153.712 26.335H154.864C154.881 26.6149 154.986 26.8314 155.182 26.9844C155.377 27.1341 155.636 27.209 155.958 27.209C156.271 27.209 156.508 27.1504 156.671 27.0332C156.834 26.9128 156.915 26.7565 156.915 26.5645ZM163.78 27.1504C164.076 27.1504 164.322 27.0641 164.518 26.8916C164.713 26.7191 164.817 26.5059 164.83 26.252H165.948C165.935 26.5807 165.833 26.8883 165.641 27.1748C165.449 27.458 165.188 27.6826 164.859 27.8486C164.531 28.0146 164.176 28.0977 163.795 28.0977C163.056 28.0977 162.47 27.8584 162.037 27.3799C161.604 26.9014 161.388 26.2406 161.388 25.3975V25.2754C161.388 24.4714 161.603 23.8285 162.032 23.3467C162.462 22.8617 163.048 22.6191 163.79 22.6191C164.418 22.6191 164.929 22.8031 165.323 23.1709C165.72 23.5355 165.929 24.0156 165.948 24.6113H164.83C164.817 24.3086 164.713 24.0596 164.518 23.8643C164.326 23.6689 164.08 23.5713 163.78 23.5713C163.396 23.5713 163.1 23.7113 162.892 23.9912C162.683 24.2679 162.577 24.6895 162.574 25.2559V25.4463C162.574 26.0192 162.677 26.4473 162.882 26.7305C163.09 27.0104 163.39 27.1504 163.78 27.1504ZM166.622 25.3096C166.622 24.792 166.725 24.3265 166.93 23.9131C167.135 23.4964 167.423 23.1774 167.794 22.9561C168.165 22.7314 168.591 22.6191 169.073 22.6191C169.786 22.6191 170.364 22.8486 170.807 23.3076C171.253 23.7666 171.493 24.3753 171.529 25.1338L171.534 25.4121C171.534 25.9329 171.433 26.3984 171.231 26.8086C171.033 27.2188 170.746 27.5361 170.372 27.7607C170.001 27.9854 169.571 28.0977 169.083 28.0977C168.338 28.0977 167.74 27.8503 167.291 27.3555C166.845 26.8574 166.622 26.195 166.622 25.3682V25.3096ZM167.809 25.4121C167.809 25.9557 167.921 26.3822 168.146 26.6914C168.37 26.9974 168.683 27.1504 169.083 27.1504C169.483 27.1504 169.794 26.9941 170.016 26.6816C170.24 26.3691 170.353 25.9118 170.353 25.3096C170.353 24.7757 170.237 24.3525 170.006 24.04C169.778 23.7275 169.467 23.5713 169.073 23.5713C168.686 23.5713 168.378 23.7259 168.15 24.0352C167.923 24.3411 167.809 24.8001 167.809 25.4121ZM173.639 22.7168L173.673 23.3271C174.063 22.8551 174.576 22.6191 175.211 22.6191C176.311 22.6191 176.871 23.249 176.891 24.5088V28H175.704V24.5771C175.704 24.2419 175.631 23.9945 175.484 23.835C175.341 23.6722 175.105 23.5908 174.776 23.5908C174.298 23.5908 173.941 23.8073 173.707 24.2402V28H172.521V22.7168H173.639ZM178.419 28V23.5957H177.613V22.7168H178.419V22.3555C178.422 21.9421 178.51 21.5872 178.683 21.291C178.855 20.9948 179.099 20.7718 179.415 20.6221C179.731 20.4723 180.11 20.3975 180.553 20.3975C180.813 20.3975 181.062 20.4251 181.3 20.4805C181.541 20.5358 181.79 20.6058 182.047 20.6904L181.866 21.6719C181.417 21.5156 181.007 21.4375 180.636 21.4375C180.274 21.4375 180.012 21.5173 179.85 21.6768C179.687 21.833 179.605 22.069 179.605 22.3848V22.7168H180.646V23.5957H179.605V28H178.419ZM182.608 28H181.422V22.7168H182.608V28ZM186.69 23.8008C186.534 23.7747 186.373 23.7617 186.207 23.7617C185.663 23.7617 185.297 23.9701 185.108 24.3867V28H183.922V22.7168H185.055L185.084 23.3076C185.37 22.8486 185.768 22.6191 186.275 22.6191C186.445 22.6191 186.585 22.6419 186.695 22.6875L186.69 23.8008ZM188.556 22.7168L188.59 23.2686C188.961 22.8356 189.469 22.6191 190.113 22.6191C190.82 22.6191 191.303 22.8893 191.563 23.4297C191.948 22.8893 192.488 22.6191 193.185 22.6191C193.767 22.6191 194.2 22.7803 194.483 23.1025C194.77 23.4248 194.916 23.9001 194.923 24.5283V28H193.736V24.5625C193.736 24.2272 193.663 23.9814 193.517 23.8252C193.37 23.6689 193.128 23.5908 192.789 23.5908C192.519 23.5908 192.298 23.6641 192.125 23.8105C191.956 23.9538 191.837 24.1426 191.769 24.377L191.773 28H190.587V24.5234C190.571 23.9017 190.253 23.5908 189.635 23.5908C189.16 23.5908 188.823 23.7845 188.624 24.1719V28H187.438V22.7168H188.556ZM198.468 28.0977C197.716 28.0977 197.105 27.8617 196.637 27.3896C196.171 26.9144 195.938 26.2829 195.938 25.4951V25.3486C195.938 24.8213 196.039 24.3509 196.241 23.9375C196.446 23.5208 196.733 23.1969 197.101 22.9658C197.468 22.7347 197.879 22.6191 198.331 22.6191C199.05 22.6191 199.605 22.8486 199.996 23.3076C200.39 23.7666 200.587 24.416 200.587 25.2559V25.7344H197.135C197.171 26.1706 197.315 26.5156 197.569 26.7695C197.826 27.0234 198.149 27.1504 198.536 27.1504C199.08 27.1504 199.522 26.9307 199.864 26.4912L200.504 27.1016C200.292 27.4173 200.009 27.6631 199.654 27.8389C199.303 28.0114 198.907 28.0977 198.468 28.0977ZM198.326 23.5713C198.001 23.5713 197.737 23.6852 197.535 23.9131C197.337 24.141 197.21 24.4583 197.154 24.8652H199.415V24.7773C199.389 24.3802 199.283 24.0807 199.098 23.8789C198.912 23.6738 198.655 23.5713 198.326 23.5713ZM201.29 25.3193C201.29 24.5055 201.479 23.8529 201.856 23.3613C202.234 22.8665 202.74 22.6191 203.375 22.6191C203.935 22.6191 204.387 22.8145 204.732 23.2051V20.5H205.919V28H204.845L204.786 27.4531C204.431 27.8828 203.958 28.0977 203.365 28.0977C202.747 28.0977 202.245 27.8486 201.861 27.3506C201.48 26.8525 201.29 26.1755 201.29 25.3193ZM202.477 25.4219C202.477 25.959 202.579 26.3789 202.784 26.6816C202.993 26.9811 203.287 27.1309 203.668 27.1309C204.153 27.1309 204.508 26.9144 204.732 26.4814V24.2256C204.514 23.8024 204.163 23.5908 203.678 23.5908C203.294 23.5908 202.997 23.7438 202.789 24.0498C202.581 24.3525 202.477 24.8099 202.477 25.4219ZM211.134 21.4326V22.7168H212.066V23.5957H211.134V26.5449C211.134 26.7467 211.173 26.8932 211.251 26.9844C211.332 27.0723 211.476 27.1162 211.681 27.1162C211.817 27.1162 211.956 27.0999 212.096 27.0674V27.9854C211.826 28.0602 211.565 28.0977 211.314 28.0977C210.403 28.0977 209.947 27.5947 209.947 26.5889V23.5957H209.078V22.7168H209.947V21.4326H211.134ZM214.146 23.293C214.534 22.8438 215.024 22.6191 215.616 22.6191C216.743 22.6191 217.314 23.262 217.33 24.5479V28H216.144V24.5918C216.144 24.2272 216.064 23.9701 215.904 23.8203C215.748 23.6673 215.517 23.5908 215.211 23.5908C214.736 23.5908 214.381 23.8024 214.146 24.2256V28H212.96V20.5H214.146V23.293ZM221.69 28C221.638 27.8991 221.593 27.7347 221.554 27.5068C221.176 27.9007 220.714 28.0977 220.167 28.0977C219.636 28.0977 219.203 27.9463 218.868 27.6436C218.533 27.3408 218.365 26.9665 218.365 26.5205C218.365 25.9574 218.574 25.526 218.99 25.2266C219.41 24.9238 220.009 24.7725 220.787 24.7725H221.515V24.4258C221.515 24.1523 221.438 23.9342 221.285 23.7715C221.132 23.6055 220.899 23.5225 220.587 23.5225C220.317 23.5225 220.095 23.5908 219.923 23.7275C219.75 23.861 219.664 24.0319 219.664 24.2402H218.478C218.478 23.9505 218.574 23.6803 218.766 23.4297C218.958 23.1758 219.218 22.9772 219.547 22.834C219.879 22.6908 220.248 22.6191 220.655 22.6191C221.274 22.6191 221.767 22.7754 222.135 23.0879C222.503 23.3971 222.691 23.8333 222.701 24.3965V26.7793C222.701 27.2546 222.768 27.6338 222.901 27.917V28H221.69ZM220.387 27.1455C220.621 27.1455 220.841 27.0885 221.046 26.9746C221.254 26.8607 221.41 26.7077 221.515 26.5156V25.5195H220.875C220.436 25.5195 220.105 25.596 219.884 25.749C219.662 25.902 219.552 26.1185 219.552 26.3984C219.552 26.6263 219.627 26.8086 219.776 26.9453C219.929 27.0788 220.133 27.1455 220.387 27.1455ZM225.431 21.4326V22.7168H226.363V23.5957H225.431V26.5449C225.431 26.7467 225.47 26.8932 225.548 26.9844C225.629 27.0723 225.772 27.1162 225.978 27.1162C226.114 27.1162 226.253 27.0999 226.393 27.0674V27.9854C226.122 28.0602 225.862 28.0977 225.611 28.0977C224.7 28.0977 224.244 27.5947 224.244 26.5889V23.5957H223.375V22.7168H224.244V21.4326H225.431ZM231.041 27.0137H234.84V28H229.547V27.1992L233.224 21.8867H229.571V20.8906H234.723V21.6719L231.041 27.0137ZM240.06 24.8262H237.14V27.0137H240.553V28H235.904V20.8906H240.519V21.8867H237.14V23.8496H240.06V24.8262ZM242.794 27.0137H246.021V28H241.559V20.8906H242.794V27.0137ZM251.124 24.8262H248.204V27.0137H251.617V28H246.969V20.8906H251.583V21.8867H248.204V23.8496H251.124V24.8262ZM256.339 26.1689C256.339 25.8564 256.228 25.6156 256.007 25.4463C255.789 25.277 255.393 25.1061 254.82 24.9336C254.247 24.7611 253.792 24.569 253.453 24.3574C252.805 23.9505 252.481 23.4199 252.481 22.7656C252.481 22.1927 252.714 21.7207 253.18 21.3496C253.648 20.9785 254.256 20.793 255.001 20.793C255.496 20.793 255.937 20.8841 256.324 21.0664C256.712 21.2487 257.016 21.5091 257.237 21.8477C257.459 22.1829 257.569 22.5557 257.569 22.9658H256.339C256.339 22.5947 256.222 22.305 255.987 22.0967C255.756 21.8851 255.424 21.7793 254.991 21.7793C254.588 21.7793 254.273 21.8656 254.049 22.0381C253.827 22.2106 253.717 22.4515 253.717 22.7607C253.717 23.0212 253.837 23.2393 254.078 23.415C254.319 23.5876 254.716 23.7568 255.27 23.9229C255.823 24.0856 256.267 24.2728 256.603 24.4844C256.938 24.6927 257.184 24.9336 257.34 25.207C257.496 25.4772 257.574 25.7946 257.574 26.1592C257.574 26.7516 257.346 27.2236 256.891 27.5752C256.438 27.9235 255.823 28.0977 255.045 28.0977C254.531 28.0977 254.057 28.0033 253.624 27.8145C253.194 27.6224 252.859 27.3587 252.618 27.0234C252.381 26.6882 252.262 26.2975 252.262 25.8516H253.497C253.497 26.2552 253.631 26.5677 253.897 26.7891C254.164 27.0104 254.547 27.1211 255.045 27.1211C255.475 27.1211 255.797 27.0348 256.012 26.8623C256.23 26.6865 256.339 26.4554 256.339 26.1689ZM262.374 26.1689C262.374 25.8564 262.263 25.6156 262.042 25.4463C261.824 25.277 261.428 25.1061 260.855 24.9336C260.283 24.7611 259.827 24.569 259.488 24.3574C258.84 23.9505 258.517 23.4199 258.517 22.7656C258.517 22.1927 258.749 21.7207 259.215 21.3496C259.684 20.9785 260.291 20.793 261.036 20.793C261.531 20.793 261.972 20.8841 262.359 21.0664C262.747 21.2487 263.051 21.5091 263.272 21.8477C263.494 22.1829 263.604 22.5557 263.604 22.9658H262.374C262.374 22.5947 262.257 22.305 262.022 22.0967C261.791 21.8851 261.459 21.7793 261.026 21.7793C260.623 21.7793 260.309 21.8656 260.084 22.0381C259.863 22.2106 259.752 22.4515 259.752 22.7607C259.752 23.0212 259.872 23.2393 260.113 23.415C260.354 23.5876 260.751 23.7568 261.305 23.9229C261.858 24.0856 262.302 24.2728 262.638 24.4844C262.973 24.6927 263.219 24.9336 263.375 25.207C263.531 25.4772 263.609 25.7946 263.609 26.1592C263.609 26.7516 263.382 27.2236 262.926 27.5752C262.473 27.9235 261.858 28.0977 261.08 28.0977C260.566 28.0977 260.092 28.0033 259.659 27.8145C259.229 27.6224 258.894 27.3587 258.653 27.0234C258.416 26.6882 258.297 26.2975 258.297 25.8516H259.532C259.532 26.2552 259.666 26.5677 259.933 26.7891C260.2 27.0104 260.582 27.1211 261.08 27.1211C261.51 27.1211 261.832 27.0348 262.047 26.8623C262.265 26.6865 262.374 26.4554 262.374 26.1689ZM268.849 24.8262H265.929V27.0137H269.342V28H264.693V20.8906H269.308V21.8867H265.929V23.8496H268.849V24.8262ZM270.05 24.4404C270.05 23.7829 270.201 23.1725 270.504 22.6094C270.81 22.0462 271.231 21.6035 271.769 21.2812C272.309 20.9557 272.892 20.793 273.517 20.793C274.142 20.793 274.723 20.9557 275.26 21.2812C275.797 21.6035 276.217 22.0462 276.52 22.6094C276.826 23.1725 276.979 23.7829 276.979 24.4404C276.979 25.098 276.826 25.7083 276.52 26.2715C276.217 26.8346 275.799 27.2806 275.265 27.6094C274.731 27.9349 274.148 28.0977 273.517 28.0977C272.888 28.0977 272.306 27.9349 271.769 27.6094C271.235 27.2839 270.815 26.8395 270.509 26.2764C270.203 25.7132 270.05 25.1012 270.05 24.4404ZM276.383 24.4404C276.383 23.9001 276.261 23.3988 276.017 22.9365C275.772 22.471 275.427 22.0999 274.981 21.8232C274.535 21.5433 274.047 21.4033 273.517 21.4033C272.999 21.4033 272.517 21.5368 272.071 21.8037C271.629 22.0706 271.28 22.4385 271.026 22.9072C270.772 23.376 270.646 23.887 270.646 24.4404C270.646 24.9938 270.771 25.5049 271.021 25.9736C271.275 26.4424 271.624 26.8135 272.066 27.0869C272.512 27.3571 272.996 27.4922 273.517 27.4922C274.037 27.4922 274.521 27.3538 274.967 27.0771C275.416 26.8005 275.764 26.4277 276.012 25.959C276.259 25.4902 276.383 24.984 276.383 24.4404ZM272.813 24.8115V26.457H272.076V22.3066H273.448C273.946 22.3066 274.335 22.4173 274.615 22.6387C274.895 22.8568 275.035 23.1693 275.035 23.5762C275.035 23.957 274.84 24.25 274.449 24.4551C274.661 24.5495 274.809 24.6878 274.894 24.8701C274.978 25.0492 275.021 25.2721 275.021 25.5391C275.021 25.8027 275.025 25.9899 275.035 26.1006C275.048 26.2113 275.071 26.304 275.104 26.3789V26.457H274.347C274.304 26.3464 274.283 26.0306 274.283 25.5098C274.283 25.2624 274.229 25.085 274.122 24.9775C274.015 24.8669 273.836 24.8115 273.585 24.8115H272.813ZM272.813 24.1572H273.512C273.736 24.1572 273.924 24.1068 274.073 24.0059C274.226 23.9049 274.303 23.7666 274.303 23.5908C274.303 23.363 274.244 23.2018 274.127 23.1074C274.013 23.0098 273.805 22.9593 273.502 22.9561H272.813V24.1572ZM285.191 25.4121C285.191 26.2324 285.007 26.8851 284.64 27.3701C284.275 27.8551 283.772 28.0977 283.131 28.0977C282.512 28.0977 282.031 27.8747 281.686 27.4287L281.627 28H280.553V20.5H281.739V23.2246C282.081 22.821 282.542 22.6191 283.121 22.6191C283.766 22.6191 284.272 22.8584 284.64 23.3369C285.007 23.8154 285.191 24.4844 285.191 25.3438V25.4121ZM284.005 25.3096C284.005 24.7367 283.904 24.307 283.702 24.0205C283.5 23.734 283.207 23.5908 282.823 23.5908C282.309 23.5908 281.948 23.8154 281.739 24.2646V26.4424C281.951 26.9014 282.315 27.1309 282.833 27.1309C283.204 27.1309 283.491 26.9925 283.692 26.7158C283.894 26.4391 283.998 26.0208 284.005 25.4609V25.3096ZM288.956 23.8008C288.8 23.7747 288.639 23.7617 288.473 23.7617C287.929 23.7617 287.563 23.9701 287.374 24.3867V28H286.188V22.7168H287.32L287.35 23.3076C287.636 22.8486 288.033 22.6191 288.541 22.6191C288.71 22.6191 288.85 22.6419 288.961 22.6875L288.956 23.8008ZM290.968 28H289.781V22.7168H290.968V28ZM289.708 21.3447C289.708 21.1624 289.765 21.0111 289.879 20.8906C289.996 20.7702 290.162 20.71 290.377 20.71C290.592 20.71 290.758 20.7702 290.875 20.8906C290.992 21.0111 291.051 21.1624 291.051 21.3447C291.051 21.5238 290.992 21.6735 290.875 21.7939C290.758 21.9111 290.592 21.9697 290.377 21.9697C290.162 21.9697 289.996 21.9111 289.879 21.7939C289.765 21.6735 289.708 21.5238 289.708 21.3447ZM293.365 22.7168L293.399 23.3271C293.79 22.8551 294.303 22.6191 294.938 22.6191C296.038 22.6191 296.598 23.249 296.617 24.5088V28H295.431V24.5771C295.431 24.2419 295.357 23.9945 295.211 23.835C295.068 23.6722 294.832 23.5908 294.503 23.5908C294.024 23.5908 293.668 23.8073 293.434 24.2402V28H292.247V22.7168H293.365ZM297.623 25.3193C297.623 24.499 297.815 23.8447 298.199 23.3564C298.587 22.8649 299.099 22.6191 299.737 22.6191C300.34 22.6191 300.813 22.8291 301.158 23.249L301.212 22.7168H302.281V27.8389C302.281 28.5322 302.065 29.0791 301.632 29.4795C301.202 29.8799 300.621 30.0801 299.889 30.0801C299.501 30.0801 299.122 29.9987 298.751 29.8359C298.383 29.6764 298.103 29.4665 297.911 29.2061L298.473 28.4932C298.837 28.9261 299.286 29.1426 299.82 29.1426C300.214 29.1426 300.525 29.0352 300.753 28.8203C300.981 28.6087 301.095 28.2962 301.095 27.8828V27.5264C300.753 27.9072 300.297 28.0977 299.728 28.0977C299.109 28.0977 298.603 27.8519 298.209 27.3604C297.818 26.8688 297.623 26.1885 297.623 25.3193ZM298.805 25.4219C298.805 25.9525 298.912 26.3708 299.127 26.6768C299.345 26.9795 299.646 27.1309 300.03 27.1309C300.509 27.1309 300.864 26.9258 301.095 26.5156V24.1914C300.87 23.791 300.519 23.5908 300.04 23.5908C299.649 23.5908 299.345 23.7454 299.127 24.0547C298.912 24.3639 298.805 24.8197 298.805 25.4219ZM306.466 26.5645C306.466 26.3529 306.378 26.1917 306.202 26.0811C306.03 25.9704 305.742 25.8727 305.338 25.7881C304.934 25.7035 304.597 25.596 304.327 25.4658C303.735 25.1794 303.438 24.7643 303.438 24.2207C303.438 23.765 303.631 23.3841 304.015 23.0781C304.399 22.7721 304.887 22.6191 305.479 22.6191C306.111 22.6191 306.62 22.7754 307.008 23.0879C307.398 23.4004 307.594 23.8057 307.594 24.3037H306.407C306.407 24.0758 306.323 23.887 306.153 23.7373C305.984 23.5843 305.759 23.5078 305.479 23.5078C305.219 23.5078 305.006 23.568 304.84 23.6885C304.677 23.8089 304.596 23.9701 304.596 24.1719C304.596 24.3542 304.672 24.4958 304.825 24.5967C304.978 24.6976 305.287 24.8001 305.753 24.9043C306.218 25.0052 306.583 25.1273 306.847 25.2705C307.114 25.4105 307.311 25.5798 307.438 25.7783C307.568 25.9769 307.633 26.2178 307.633 26.501C307.633 26.9762 307.436 27.362 307.042 27.6582C306.648 27.9512 306.132 28.0977 305.494 28.0977C305.061 28.0977 304.675 28.0195 304.337 27.8633C303.998 27.707 303.735 27.4922 303.546 27.2188C303.357 26.9453 303.263 26.6507 303.263 26.335H304.415C304.431 26.6149 304.537 26.8314 304.732 26.9844C304.928 27.1341 305.187 27.209 305.509 27.209C305.821 27.209 306.059 27.1504 306.222 27.0332C306.384 26.9128 306.466 26.7565 306.466 26.5645ZM21.4512 40C21.3991 39.8991 21.3535 39.7347 21.3145 39.5068C20.9368 39.9007 20.4746 40.0977 19.9277 40.0977C19.3971 40.0977 18.9642 39.9463 18.6289 39.6436C18.2936 39.3408 18.126 38.9665 18.126 38.5205C18.126 37.9574 18.3343 37.526 18.751 37.2266C19.1709 36.9238 19.7699 36.7725 20.5479 36.7725H21.2754V36.4258C21.2754 36.1523 21.1989 35.9342 21.0459 35.7715C20.8929 35.6055 20.6602 35.5225 20.3477 35.5225C20.0775 35.5225 19.8561 35.5908 19.6836 35.7275C19.5111 35.861 19.4248 36.0319 19.4248 36.2402H18.2383C18.2383 35.9505 18.3343 35.6803 18.5264 35.4297C18.7184 35.1758 18.9788 34.9772 19.3076 34.834C19.6396 34.6908 20.0091 34.6191 20.416 34.6191C21.0345 34.6191 21.5277 34.7754 21.8955 35.0879C22.2633 35.3971 22.4521 35.8333 22.4619 36.3965V38.7793C22.4619 39.2546 22.5286 39.6338 22.6621 39.917V40H21.4512ZM20.1475 39.1455C20.3818 39.1455 20.6016 39.0885 20.8066 38.9746C21.015 38.8607 21.1712 38.7077 21.2754 38.5156V37.5195H20.6357C20.1963 37.5195 19.8659 37.596 19.6445 37.749C19.4232 37.902 19.3125 38.1185 19.3125 38.3984C19.3125 38.6263 19.3874 38.8086 19.5371 38.9453C19.6901 39.0788 19.8936 39.1455 20.1475 39.1455ZM28.3652 39.1504C28.6615 39.1504 28.9072 39.0641 29.1025 38.8916C29.2979 38.7191 29.402 38.5059 29.415 38.252H30.5332C30.5202 38.5807 30.4176 38.8883 30.2256 39.1748C30.0335 39.458 29.7731 39.6826 29.4443 39.8486C29.1156 40.0146 28.7607 40.0977 28.3799 40.0977C27.641 40.0977 27.055 39.8584 26.6221 39.3799C26.1891 38.9014 25.9727 38.2406 25.9727 37.3975V37.2754C25.9727 36.4714 26.1875 35.8285 26.6172 35.3467C27.0469 34.8617 27.6328 34.6191 28.375 34.6191C29.0033 34.6191 29.5143 34.8031 29.9082 35.1709C30.3053 35.5355 30.5137 36.0156 30.5332 36.6113H29.415C29.402 36.3086 29.2979 36.0596 29.1025 35.8643C28.9105 35.6689 28.6647 35.5713 28.3652 35.5713C27.9811 35.5713 27.6849 35.7113 27.4766 35.9912C27.2682 36.2679 27.1624 36.6895 27.1592 37.2559V37.4463C27.1592 38.0192 27.2617 38.4473 27.4668 38.7305C27.6751 39.0104 27.9746 39.1504 28.3652 39.1504ZM31.207 37.3096C31.207 36.792 31.3096 36.3265 31.5146 35.9131C31.7197 35.4964 32.0078 35.1774 32.3789 34.9561C32.75 34.7314 33.1764 34.6191 33.6582 34.6191C34.3711 34.6191 34.9489 34.8486 35.3916 35.3076C35.8376 35.7666 36.0785 36.3753 36.1143 37.1338L36.1191 37.4121C36.1191 37.9329 36.0182 38.3984 35.8164 38.8086C35.6178 39.2188 35.3314 39.5361 34.957 39.7607C34.5859 39.9854 34.1562 40.0977 33.668 40.0977C32.9225 40.0977 32.3252 39.8503 31.876 39.3555C31.43 38.8574 31.207 38.195 31.207 37.3682V37.3096ZM32.3936 37.4121C32.3936 37.9557 32.5059 38.3822 32.7305 38.6914C32.9551 38.9974 33.2676 39.1504 33.668 39.1504C34.0684 39.1504 34.3792 38.9941 34.6006 38.6816C34.8252 38.3691 34.9375 37.9118 34.9375 37.3096C34.9375 36.7757 34.8219 36.3525 34.5908 36.04C34.363 35.7275 34.0521 35.5713 33.6582 35.5713C33.2708 35.5713 32.9632 35.7259 32.7354 36.0352C32.5075 36.3411 32.3936 36.8001 32.3936 37.4121ZM38.2236 34.7168L38.2578 35.3271C38.6484 34.8551 39.1611 34.6191 39.7959 34.6191C40.8962 34.6191 41.4561 35.249 41.4756 36.5088V40H40.2891V36.5771C40.2891 36.2419 40.2158 35.9945 40.0693 35.835C39.9261 35.6722 39.6901 35.5908 39.3613 35.5908C38.8828 35.5908 38.5264 35.8073 38.292 36.2402V40H37.1055V34.7168H38.2236ZM44.1758 33.4326V34.7168H45.1084V35.5957H44.1758V38.5449C44.1758 38.7467 44.2148 38.8932 44.293 38.9844C44.3743 39.0723 44.5176 39.1162 44.7227 39.1162C44.8594 39.1162 44.9977 39.0999 45.1377 39.0674V39.9854C44.8675 40.0602 44.6071 40.0977 44.3564 40.0977C43.445 40.0977 42.9893 39.5947 42.9893 38.5889V35.5957H42.1201V34.7168H42.9893V33.4326H44.1758ZM48.7852 35.8008C48.6289 35.7747 48.4678 35.7617 48.3018 35.7617C47.7581 35.7617 47.3919 35.9701 47.2031 36.3867V40H46.0166V34.7168H47.1494L47.1787 35.3076C47.4652 34.8486 47.8623 34.6191 48.3701 34.6191C48.5394 34.6191 48.6794 34.6419 48.79 34.6875L48.7852 35.8008ZM50.7969 40H49.6104V34.7168H50.7969V40ZM49.5371 33.3447C49.5371 33.1624 49.5941 33.0111 49.708 32.8906C49.8252 32.7702 49.9912 32.71 50.2061 32.71C50.4209 32.71 50.5869 32.7702 50.7041 32.8906C50.8213 33.0111 50.8799 33.1624 50.8799 33.3447C50.8799 33.5238 50.8213 33.6735 50.7041 33.7939C50.5869 33.9111 50.4209 33.9697 50.2061 33.9697C49.9912 33.9697 49.8252 33.9111 49.708 33.7939C49.5941 33.6735 49.5371 33.5238 49.5371 33.3447ZM56.7295 37.4121C56.7295 38.2324 56.5456 38.8851 56.1777 39.3701C55.8132 39.8551 55.3102 40.0977 54.6689 40.0977C54.0505 40.0977 53.5687 39.8747 53.2236 39.4287L53.165 40H52.0908V32.5H53.2773V35.2246C53.6191 34.821 54.0798 34.6191 54.6592 34.6191C55.3037 34.6191 55.8099 34.8584 56.1777 35.3369C56.5456 35.8154 56.7295 36.4844 56.7295 37.3438V37.4121ZM55.543 37.3096C55.543 36.7367 55.4421 36.307 55.2402 36.0205C55.0384 35.734 54.7454 35.5908 54.3613 35.5908C53.847 35.5908 53.4857 35.8154 53.2773 36.2646V38.4424C53.4889 38.9014 53.8535 39.1309 54.3711 39.1309C54.7422 39.1309 55.0286 38.9925 55.2305 38.7158C55.4323 38.4391 55.5365 38.0208 55.543 37.4609V37.3096ZM60.9287 39.4824C60.5804 39.8926 60.0856 40.0977 59.4443 40.0977C58.8714 40.0977 58.4368 39.93 58.1406 39.5947C57.8477 39.2594 57.7012 38.7744 57.7012 38.1396V34.7168H58.8877V38.125C58.8877 38.7956 59.166 39.1309 59.7227 39.1309C60.2988 39.1309 60.6878 38.9242 60.8896 38.5107V34.7168H62.0762V40H60.958L60.9287 39.4824ZM64.7715 33.4326V34.7168H65.7041V35.5957H64.7715V38.5449C64.7715 38.7467 64.8105 38.8932 64.8887 38.9844C64.9701 39.0723 65.1133 39.1162 65.3184 39.1162C65.4551 39.1162 65.5934 39.0999 65.7334 39.0674V39.9854C65.4632 40.0602 65.2028 40.0977 64.9521 40.0977C64.0407 40.0977 63.585 39.5947 63.585 38.5889V35.5957H62.7158V34.7168H63.585V33.4326H64.7715ZM67.877 40H66.6904V34.7168H67.877V40ZM66.6172 33.3447C66.6172 33.1624 66.6742 33.0111 66.7881 32.8906C66.9053 32.7702 67.0713 32.71 67.2861 32.71C67.501 32.71 67.667 32.7702 67.7842 32.8906C67.9014 33.0111 67.96 33.1624 67.96 33.3447C67.96 33.5238 67.9014 33.6735 67.7842 33.7939C67.667 33.9111 67.501 33.9697 67.2861 33.9697C67.0713 33.9697 66.9053 33.9111 66.7881 33.7939C66.6742 33.6735 66.6172 33.5238 66.6172 33.3447ZM68.9512 37.3096C68.9512 36.792 69.0537 36.3265 69.2588 35.9131C69.4639 35.4964 69.752 35.1774 70.123 34.9561C70.4941 34.7314 70.9206 34.6191 71.4023 34.6191C72.1152 34.6191 72.693 34.8486 73.1357 35.3076C73.5817 35.7666 73.8226 36.3753 73.8584 37.1338L73.8633 37.4121C73.8633 37.9329 73.7624 38.3984 73.5605 38.8086C73.362 39.2188 73.0755 39.5361 72.7012 39.7607C72.3301 39.9854 71.9004 40.0977 71.4121 40.0977C70.6667 40.0977 70.0693 39.8503 69.6201 39.3555C69.1742 38.8574 68.9512 38.195 68.9512 37.3682V37.3096ZM70.1377 37.4121C70.1377 37.9557 70.25 38.3822 70.4746 38.6914C70.6992 38.9974 71.0117 39.1504 71.4121 39.1504C71.8125 39.1504 72.1234 38.9941 72.3447 38.6816C72.5693 38.3691 72.6816 37.9118 72.6816 37.3096C72.6816 36.7757 72.5661 36.3525 72.335 36.04C72.1071 35.7275 71.7962 35.5713 71.4023 35.5713C71.015 35.5713 70.7074 35.7259 70.4795 36.0352C70.2516 36.3411 70.1377 36.8001 70.1377 37.4121ZM75.9678 34.7168L76.002 35.3271C76.3926 34.8551 76.9053 34.6191 77.54 34.6191C78.6403 34.6191 79.2002 35.249 79.2197 36.5088V40H78.0332V36.5771C78.0332 36.2419 77.96 35.9945 77.8135 35.835C77.6702 35.6722 77.4342 35.5908 77.1055 35.5908C76.627 35.5908 76.2705 35.8073 76.0361 36.2402V40H74.8496V34.7168H75.9678ZM82.7012 37.3096C82.7012 36.792 82.8037 36.3265 83.0088 35.9131C83.2139 35.4964 83.502 35.1774 83.873 34.9561C84.2441 34.7314 84.6706 34.6191 85.1523 34.6191C85.8652 34.6191 86.443 34.8486 86.8857 35.3076C87.3317 35.7666 87.5726 36.3753 87.6084 37.1338L87.6133 37.4121C87.6133 37.9329 87.5124 38.3984 87.3105 38.8086C87.112 39.2188 86.8255 39.5361 86.4512 39.7607C86.0801 39.9854 85.6504 40.0977 85.1621 40.0977C84.4167 40.0977 83.8193 39.8503 83.3701 39.3555C82.9242 38.8574 82.7012 38.195 82.7012 37.3682V37.3096ZM83.8877 37.4121C83.8877 37.9557 84 38.3822 84.2246 38.6914C84.4492 38.9974 84.7617 39.1504 85.1621 39.1504C85.5625 39.1504 85.8734 38.9941 86.0947 38.6816C86.3193 38.3691 86.4316 37.9118 86.4316 37.3096C86.4316 36.7757 86.3161 36.3525 86.085 36.04C85.8571 35.7275 85.5462 35.5713 85.1523 35.5713C84.765 35.5713 84.4574 35.7259 84.2295 36.0352C84.0016 36.3411 83.8877 36.8001 83.8877 37.4121ZM91.3828 35.8008C91.2266 35.7747 91.0654 35.7617 90.8994 35.7617C90.3558 35.7617 89.9896 35.9701 89.8008 36.3867V40H88.6143V34.7168H89.7471L89.7764 35.3076C90.0628 34.8486 90.46 34.6191 90.9678 34.6191C91.137 34.6191 91.277 34.6419 91.3877 34.6875L91.3828 35.8008ZM97.7793 40C97.7272 39.8991 97.6816 39.7347 97.6426 39.5068C97.265 39.9007 96.8027 40.0977 96.2559 40.0977C95.7253 40.0977 95.2923 39.9463 94.957 39.6436C94.6217 39.3408 94.4541 38.9665 94.4541 38.5205C94.4541 37.9574 94.6624 37.526 95.0791 37.2266C95.499 36.9238 96.098 36.7725 96.876 36.7725H97.6035V36.4258C97.6035 36.1523 97.527 35.9342 97.374 35.7715C97.221 35.6055 96.9883 35.5225 96.6758 35.5225C96.4056 35.5225 96.1842 35.5908 96.0117 35.7275C95.8392 35.861 95.7529 36.0319 95.7529 36.2402H94.5664C94.5664 35.9505 94.6624 35.6803 94.8545 35.4297C95.0465 35.1758 95.307 34.9772 95.6357 34.834C95.9678 34.6908 96.3372 34.6191 96.7441 34.6191C97.3626 34.6191 97.8558 34.7754 98.2236 35.0879C98.5915 35.3971 98.7803 35.8333 98.79 36.3965V38.7793C98.79 39.2546 98.8568 39.6338 98.9902 39.917V40H97.7793ZM96.4756 39.1455C96.71 39.1455 96.9297 39.0885 97.1348 38.9746C97.3431 38.8607 97.4993 38.7077 97.6035 38.5156V37.5195H96.9639C96.5244 37.5195 96.194 37.596 95.9727 37.749C95.7513 37.902 95.6406 38.1185 95.6406 38.3984C95.6406 38.6263 95.7155 38.8086 95.8652 38.9453C96.0182 39.0788 96.2217 39.1455 96.4756 39.1455ZM102.315 37.3193C102.315 36.499 102.507 35.8447 102.892 35.3564C103.279 34.8649 103.792 34.6191 104.43 34.6191C105.032 34.6191 105.506 34.8291 105.851 35.249L105.904 34.7168H106.974V39.8389C106.974 40.5322 106.757 41.0791 106.324 41.4795C105.895 41.8799 105.313 42.0801 104.581 42.0801C104.194 42.0801 103.814 41.9987 103.443 41.8359C103.076 41.6764 102.796 41.4665 102.604 41.2061L103.165 40.4932C103.53 40.9261 103.979 41.1426 104.513 41.1426C104.907 41.1426 105.217 41.0352 105.445 40.8203C105.673 40.6087 105.787 40.2962 105.787 39.8828V39.5264C105.445 39.9072 104.99 40.0977 104.42 40.0977C103.801 40.0977 103.295 39.8519 102.901 39.3604C102.511 38.8688 102.315 38.1885 102.315 37.3193ZM103.497 37.4219C103.497 37.9525 103.604 38.3708 103.819 38.6768C104.037 38.9795 104.339 39.1309 104.723 39.1309C105.201 39.1309 105.556 38.9258 105.787 38.5156V36.1914C105.562 35.791 105.211 35.5908 104.732 35.5908C104.342 35.5908 104.037 35.7454 103.819 36.0547C103.604 36.3639 103.497 36.8197 103.497 37.4219ZM110.963 35.8008C110.807 35.7747 110.646 35.7617 110.479 35.7617C109.936 35.7617 109.57 35.9701 109.381 36.3867V40H108.194V34.7168H109.327L109.356 35.3076C109.643 34.8486 110.04 34.6191 110.548 34.6191C110.717 34.6191 110.857 34.6419 110.968 34.6875L110.963 35.8008ZM113.941 40.0977C113.189 40.0977 112.579 39.8617 112.11 39.3896C111.645 38.9144 111.412 38.2829 111.412 37.4951V37.3486C111.412 36.8213 111.513 36.3509 111.715 35.9375C111.92 35.5208 112.206 35.1969 112.574 34.9658C112.942 34.7347 113.352 34.6191 113.805 34.6191C114.524 34.6191 115.079 34.8486 115.47 35.3076C115.864 35.7666 116.061 36.416 116.061 37.2559V37.7344H112.608C112.644 38.1706 112.789 38.5156 113.043 38.7695C113.3 39.0234 113.622 39.1504 114.01 39.1504C114.553 39.1504 114.996 38.9307 115.338 38.4912L115.978 39.1016C115.766 39.4173 115.483 39.6631 115.128 39.8389C114.776 40.0114 114.381 40.0977 113.941 40.0977ZM113.8 35.5713C113.474 35.5713 113.211 35.6852 113.009 35.9131C112.81 36.141 112.683 36.4583 112.628 36.8652H114.889V36.7773C114.863 36.3802 114.757 36.0807 114.571 35.8789C114.386 35.6738 114.129 35.5713 113.8 35.5713ZM120.143 40C120.09 39.8991 120.045 39.7347 120.006 39.5068C119.628 39.9007 119.166 40.0977 118.619 40.0977C118.089 40.0977 117.656 39.9463 117.32 39.6436C116.985 39.3408 116.817 38.9665 116.817 38.5205C116.817 37.9574 117.026 37.526 117.442 37.2266C117.862 36.9238 118.461 36.7725 119.239 36.7725H119.967V36.4258C119.967 36.1523 119.89 35.9342 119.737 35.7715C119.584 35.6055 119.352 35.5225 119.039 35.5225C118.769 35.5225 118.548 35.5908 118.375 35.7275C118.202 35.861 118.116 36.0319 118.116 36.2402H116.93C116.93 35.9505 117.026 35.6803 117.218 35.4297C117.41 35.1758 117.67 34.9772 117.999 34.834C118.331 34.6908 118.701 34.6191 119.107 34.6191C119.726 34.6191 120.219 34.7754 120.587 35.0879C120.955 35.3971 121.144 35.8333 121.153 36.3965V38.7793C121.153 39.2546 121.22 39.6338 121.354 39.917V40H120.143ZM118.839 39.1455C119.073 39.1455 119.293 39.0885 119.498 38.9746C119.706 38.8607 119.863 38.7077 119.967 38.5156V37.5195H119.327C118.888 37.5195 118.557 37.596 118.336 37.749C118.115 37.902 118.004 38.1185 118.004 38.3984C118.004 38.6263 118.079 38.8086 118.229 38.9453C118.382 39.0788 118.585 39.1455 118.839 39.1455ZM123.883 33.4326V34.7168H124.815V35.5957H123.883V38.5449C123.883 38.7467 123.922 38.8932 124 38.9844C124.081 39.0723 124.225 39.1162 124.43 39.1162C124.566 39.1162 124.705 39.0999 124.845 39.0674V39.9854C124.575 40.0602 124.314 40.0977 124.063 40.0977C123.152 40.0977 122.696 39.5947 122.696 38.5889V35.5957H121.827V34.7168H122.696V33.4326H123.883ZM130.387 39.1504C130.683 39.1504 130.929 39.0641 131.124 38.8916C131.319 38.7191 131.424 38.5059 131.437 38.252H132.555C132.542 38.5807 132.439 38.8883 132.247 39.1748C132.055 39.458 131.795 39.6826 131.466 39.8486C131.137 40.0146 130.782 40.0977 130.401 40.0977C129.662 40.0977 129.076 39.8584 128.644 39.3799C128.211 38.9014 127.994 38.2406 127.994 37.3975V37.2754C127.994 36.4714 128.209 35.8285 128.639 35.3467C129.068 34.8617 129.654 34.6191 130.396 34.6191C131.025 34.6191 131.536 34.8031 131.93 35.1709C132.327 35.5355 132.535 36.0156 132.555 36.6113H131.437C131.424 36.3086 131.319 36.0596 131.124 35.8643C130.932 35.6689 130.686 35.5713 130.387 35.5713C130.003 35.5713 129.706 35.7113 129.498 35.9912C129.29 36.2679 129.184 36.6895 129.181 37.2559V37.4463C129.181 38.0192 129.283 38.4473 129.488 38.7305C129.697 39.0104 129.996 39.1504 130.387 39.1504ZM133.229 37.3096C133.229 36.792 133.331 36.3265 133.536 35.9131C133.741 35.4964 134.029 35.1774 134.4 34.9561C134.771 34.7314 135.198 34.6191 135.68 34.6191C136.393 34.6191 136.97 34.8486 137.413 35.3076C137.859 35.7666 138.1 36.3753 138.136 37.1338L138.141 37.4121C138.141 37.9329 138.04 38.3984 137.838 38.8086C137.639 39.2188 137.353 39.5361 136.979 39.7607C136.607 39.9854 136.178 40.0977 135.689 40.0977C134.944 40.0977 134.347 39.8503 133.897 39.3555C133.451 38.8574 133.229 38.195 133.229 37.3682V37.3096ZM134.415 37.4121C134.415 37.9557 134.527 38.3822 134.752 38.6914C134.977 38.9974 135.289 39.1504 135.689 39.1504C136.09 39.1504 136.401 38.9941 136.622 38.6816C136.847 38.3691 136.959 37.9118 136.959 37.3096C136.959 36.7757 136.843 36.3525 136.612 36.04C136.384 35.7275 136.074 35.5713 135.68 35.5713C135.292 35.5713 134.985 35.7259 134.757 36.0352C134.529 36.3411 134.415 36.8001 134.415 37.4121ZM140.245 34.7168L140.279 35.3271C140.67 34.8551 141.183 34.6191 141.817 34.6191C142.918 34.6191 143.478 35.249 143.497 36.5088V40H142.311V36.5771C142.311 36.2419 142.237 35.9945 142.091 35.835C141.948 35.6722 141.712 35.5908 141.383 35.5908C140.904 35.5908 140.548 35.8073 140.313 36.2402V40H139.127V34.7168H140.245ZM146.197 33.4326V34.7168H147.13V35.5957H146.197V38.5449C146.197 38.7467 146.236 38.8932 146.314 38.9844C146.396 39.0723 146.539 39.1162 146.744 39.1162C146.881 39.1162 147.019 39.0999 147.159 39.0674V39.9854C146.889 40.0602 146.629 40.0977 146.378 40.0977C145.466 40.0977 145.011 39.5947 145.011 38.5889V35.5957H144.142V34.7168H145.011V33.4326H146.197ZM150.807 35.8008C150.65 35.7747 150.489 35.7617 150.323 35.7617C149.78 35.7617 149.413 35.9701 149.225 36.3867V40H148.038V34.7168H149.171L149.2 35.3076C149.487 34.8486 149.884 34.6191 150.392 34.6191C150.561 34.6191 150.701 34.6419 150.812 34.6875L150.807 35.8008ZM152.818 40H151.632V34.7168H152.818V40ZM151.559 33.3447C151.559 33.1624 151.616 33.0111 151.729 32.8906C151.847 32.7702 152.013 32.71 152.228 32.71C152.442 32.71 152.608 32.7702 152.726 32.8906C152.843 33.0111 152.901 33.1624 152.901 33.3447C152.901 33.5238 152.843 33.6735 152.726 33.7939C152.608 33.9111 152.442 33.9697 152.228 33.9697C152.013 33.9697 151.847 33.9111 151.729 33.7939C151.616 33.6735 151.559 33.5238 151.559 33.3447ZM158.751 37.4121C158.751 38.2324 158.567 38.8851 158.199 39.3701C157.835 39.8551 157.332 40.0977 156.69 40.0977C156.072 40.0977 155.59 39.8747 155.245 39.4287L155.187 40H154.112V32.5H155.299V35.2246C155.641 34.821 156.101 34.6191 156.681 34.6191C157.325 34.6191 157.831 34.8584 158.199 35.3369C158.567 35.8154 158.751 36.4844 158.751 37.3438V37.4121ZM157.564 37.3096C157.564 36.7367 157.464 36.307 157.262 36.0205C157.06 35.734 156.767 35.5908 156.383 35.5908C155.868 35.5908 155.507 35.8154 155.299 36.2646V38.4424C155.51 38.9014 155.875 39.1309 156.393 39.1309C156.764 39.1309 157.05 38.9925 157.252 38.7158C157.454 38.4391 157.558 38.0208 157.564 37.4609V37.3096ZM162.95 39.4824C162.602 39.8926 162.107 40.0977 161.466 40.0977C160.893 40.0977 160.458 39.93 160.162 39.5947C159.869 39.2594 159.723 38.7744 159.723 38.1396V34.7168H160.909V38.125C160.909 38.7956 161.188 39.1309 161.744 39.1309C162.32 39.1309 162.709 38.9242 162.911 38.5107V34.7168H164.098V40H162.979L162.95 39.4824ZM166.793 33.4326V34.7168H167.726V35.5957H166.793V38.5449C166.793 38.7467 166.832 38.8932 166.91 38.9844C166.992 39.0723 167.135 39.1162 167.34 39.1162C167.477 39.1162 167.615 39.0999 167.755 39.0674V39.9854C167.485 40.0602 167.224 40.0977 166.974 40.0977C166.062 40.0977 165.606 39.5947 165.606 38.5889V35.5957H164.737V34.7168H165.606V33.4326H166.793ZM169.898 40H168.712V34.7168H169.898V40ZM168.639 33.3447C168.639 33.1624 168.696 33.0111 168.81 32.8906C168.927 32.7702 169.093 32.71 169.308 32.71C169.522 32.71 169.688 32.7702 169.806 32.8906C169.923 33.0111 169.981 33.1624 169.981 33.3447C169.981 33.5238 169.923 33.6735 169.806 33.7939C169.688 33.9111 169.522 33.9697 169.308 33.9697C169.093 33.9697 168.927 33.9111 168.81 33.7939C168.696 33.6735 168.639 33.5238 168.639 33.3447ZM170.973 37.3096C170.973 36.792 171.075 36.3265 171.28 35.9131C171.485 35.4964 171.773 35.1774 172.145 34.9561C172.516 34.7314 172.942 34.6191 173.424 34.6191C174.137 34.6191 174.715 34.8486 175.157 35.3076C175.603 35.7666 175.844 36.3753 175.88 37.1338L175.885 37.4121C175.885 37.9329 175.784 38.3984 175.582 38.8086C175.383 39.2188 175.097 39.5361 174.723 39.7607C174.352 39.9854 173.922 40.0977 173.434 40.0977C172.688 40.0977 172.091 39.8503 171.642 39.3555C171.196 38.8574 170.973 38.195 170.973 37.3682V37.3096ZM172.159 37.4121C172.159 37.9557 172.271 38.3822 172.496 38.6914C172.721 38.9974 173.033 39.1504 173.434 39.1504C173.834 39.1504 174.145 38.9941 174.366 38.6816C174.591 38.3691 174.703 37.9118 174.703 37.3096C174.703 36.7757 174.588 36.3525 174.356 36.04C174.129 35.7275 173.818 35.5713 173.424 35.5713C173.036 35.5713 172.729 35.7259 172.501 36.0352C172.273 36.3411 172.159 36.8001 172.159 37.4121ZM177.989 34.7168L178.023 35.3271C178.414 34.8551 178.927 34.6191 179.562 34.6191C180.662 34.6191 181.222 35.249 181.241 36.5088V40H180.055V36.5771C180.055 36.2419 179.981 35.9945 179.835 35.835C179.692 35.6722 179.456 35.5908 179.127 35.5908C178.648 35.5908 178.292 35.8073 178.058 36.2402V40H176.871V34.7168H177.989ZM186.207 40H185.021V34.7168H186.207V40ZM184.947 33.3447C184.947 33.1624 185.004 33.0111 185.118 32.8906C185.235 32.7702 185.401 32.71 185.616 32.71C185.831 32.71 185.997 32.7702 186.114 32.8906C186.231 33.0111 186.29 33.1624 186.29 33.3447C186.29 33.5238 186.231 33.6735 186.114 33.7939C185.997 33.9111 185.831 33.9697 185.616 33.9697C185.401 33.9697 185.235 33.9111 185.118 33.7939C185.004 33.6735 184.947 33.5238 184.947 33.3447ZM188.604 34.7168L188.639 35.3271C189.029 34.8551 189.542 34.6191 190.177 34.6191C191.277 34.6191 191.837 35.249 191.856 36.5088V40H190.67V36.5771C190.67 36.2419 190.597 35.9945 190.45 35.835C190.307 35.6722 190.071 35.5908 189.742 35.5908C189.264 35.5908 188.907 35.8073 188.673 36.2402V40H187.486V34.7168H188.604ZM197.423 38.4961L198.541 34.7168H199.767L197.936 40H196.905L195.06 34.7168H196.29L197.423 38.4961ZM203.712 39.4824C203.364 39.8926 202.869 40.0977 202.228 40.0977C201.655 40.0977 201.22 39.93 200.924 39.5947C200.631 39.2594 200.484 38.7744 200.484 38.1396V34.7168H201.671V38.125C201.671 38.7956 201.949 39.1309 202.506 39.1309C203.082 39.1309 203.471 38.9242 203.673 38.5107V34.7168H204.859V40H203.741L203.712 39.4824ZM207.33 40H206.144V32.5H207.33V40ZM210.489 38.4961L211.607 34.7168H212.833L211.002 40H209.972L208.126 34.7168H209.356L210.489 38.4961ZM213.277 37.3096C213.277 36.792 213.38 36.3265 213.585 35.9131C213.79 35.4964 214.078 35.1774 214.449 34.9561C214.82 34.7314 215.247 34.6191 215.729 34.6191C216.441 34.6191 217.019 34.8486 217.462 35.3076C217.908 35.7666 218.149 36.3753 218.185 37.1338L218.189 37.4121C218.189 37.9329 218.089 38.3984 217.887 38.8086C217.688 39.2188 217.402 39.5361 217.027 39.7607C216.656 39.9854 216.227 40.0977 215.738 40.0977C214.993 40.0977 214.396 39.8503 213.946 39.3555C213.5 38.8574 213.277 38.195 213.277 37.3682V37.3096ZM214.464 37.4121C214.464 37.9557 214.576 38.3822 214.801 38.6914C215.025 38.9974 215.338 39.1504 215.738 39.1504C216.139 39.1504 216.45 38.9941 216.671 38.6816C216.896 38.3691 217.008 37.9118 217.008 37.3096C217.008 36.7757 216.892 36.3525 216.661 36.04C216.433 35.7275 216.122 35.5713 215.729 35.5713C215.341 35.5713 215.034 35.7259 214.806 36.0352C214.578 36.3411 214.464 36.8001 214.464 37.4121ZM220.978 38.4961L222.096 34.7168H223.321L221.49 40H220.46L218.614 34.7168H219.845L220.978 38.4961ZM227.145 40C227.092 39.8991 227.047 39.7347 227.008 39.5068C226.63 39.9007 226.168 40.0977 225.621 40.0977C225.09 40.0977 224.658 39.9463 224.322 39.6436C223.987 39.3408 223.819 38.9665 223.819 38.5205C223.819 37.9574 224.028 37.526 224.444 37.2266C224.864 36.9238 225.463 36.7725 226.241 36.7725H226.969V36.4258C226.969 36.1523 226.892 35.9342 226.739 35.7715C226.586 35.6055 226.354 35.5225 226.041 35.5225C225.771 35.5225 225.549 35.5908 225.377 35.7275C225.204 35.861 225.118 36.0319 225.118 36.2402H223.932C223.932 35.9505 224.028 35.6803 224.22 35.4297C224.412 35.1758 224.672 34.9772 225.001 34.834C225.333 34.6908 225.702 34.6191 226.109 34.6191C226.728 34.6191 227.221 34.7754 227.589 35.0879C227.957 35.3971 228.146 35.8333 228.155 36.3965V38.7793C228.155 39.2546 228.222 39.6338 228.355 39.917V40H227.145ZM225.841 39.1455C226.075 39.1455 226.295 39.0885 226.5 38.9746C226.708 38.8607 226.865 38.7077 226.969 38.5156V37.5195H226.329C225.89 37.5195 225.559 37.596 225.338 37.749C225.117 37.902 225.006 38.1185 225.006 38.3984C225.006 38.6263 225.081 38.8086 225.23 38.9453C225.383 39.0788 225.587 39.1455 225.841 39.1455ZM229.19 37.3193C229.19 36.499 229.382 35.8447 229.767 35.3564C230.154 34.8649 230.667 34.6191 231.305 34.6191C231.907 34.6191 232.381 34.8291 232.726 35.249L232.779 34.7168H233.849V39.8389C233.849 40.5322 233.632 41.0791 233.199 41.4795C232.77 41.8799 232.188 42.0801 231.456 42.0801C231.069 42.0801 230.689 41.9987 230.318 41.8359C229.951 41.6764 229.671 41.4665 229.479 41.2061L230.04 40.4932C230.405 40.9261 230.854 41.1426 231.388 41.1426C231.782 41.1426 232.092 41.0352 232.32 40.8203C232.548 40.6087 232.662 40.2962 232.662 39.8828V39.5264C232.32 39.9072 231.865 40.0977 231.295 40.0977C230.676 40.0977 230.17 39.8519 229.776 39.3604C229.386 38.8688 229.19 38.1885 229.19 37.3193ZM230.372 37.4219C230.372 37.9525 230.479 38.3708 230.694 38.6768C230.912 38.9795 231.214 39.1309 231.598 39.1309C232.076 39.1309 232.431 38.9258 232.662 38.5156V36.1914C232.438 35.791 232.086 35.5908 231.607 35.5908C231.217 35.5908 230.912 35.7454 230.694 36.0547C230.479 36.3639 230.372 36.8197 230.372 37.4219ZM236.334 40H235.147V34.7168H236.334V40ZM235.074 33.3447C235.074 33.1624 235.131 33.0111 235.245 32.8906C235.362 32.7702 235.528 32.71 235.743 32.71C235.958 32.71 236.124 32.7702 236.241 32.8906C236.358 33.0111 236.417 33.1624 236.417 33.3447C236.417 33.5238 236.358 33.6735 236.241 33.7939C236.124 33.9111 235.958 33.9697 235.743 33.9697C235.528 33.9697 235.362 33.9111 235.245 33.7939C235.131 33.6735 235.074 33.5238 235.074 33.3447ZM238.731 34.7168L238.766 35.3271C239.156 34.8551 239.669 34.6191 240.304 34.6191C241.404 34.6191 241.964 35.249 241.983 36.5088V40H240.797V36.5771C240.797 36.2419 240.724 35.9945 240.577 35.835C240.434 35.6722 240.198 35.5908 239.869 35.5908C239.391 35.5908 239.034 35.8073 238.8 36.2402V40H237.613V34.7168H238.731ZM244.459 40H243.272V34.7168H244.459V40ZM243.199 33.3447C243.199 33.1624 243.256 33.0111 243.37 32.8906C243.487 32.7702 243.653 32.71 243.868 32.71C244.083 32.71 244.249 32.7702 244.366 32.8906C244.483 33.0111 244.542 33.1624 244.542 33.3447C244.542 33.5238 244.483 33.6735 244.366 33.7939C244.249 33.9111 244.083 33.9697 243.868 33.9697C243.653 33.9697 243.487 33.9111 243.37 33.7939C243.256 33.6735 243.199 33.5238 243.199 33.3447ZM247.242 33.4326V34.7168H248.175V35.5957H247.242V38.5449C247.242 38.7467 247.281 38.8932 247.359 38.9844C247.441 39.0723 247.584 39.1162 247.789 39.1162C247.926 39.1162 248.064 39.0999 248.204 39.0674V39.9854C247.934 40.0602 247.674 40.0977 247.423 40.0977C246.511 40.0977 246.056 39.5947 246.056 38.5889V35.5957H245.187V34.7168H246.056V33.4326H247.242ZM250.348 40H249.161V34.7168H250.348V40ZM249.088 33.3447C249.088 33.1624 249.145 33.0111 249.259 32.8906C249.376 32.7702 249.542 32.71 249.757 32.71C249.972 32.71 250.138 32.7702 250.255 32.8906C250.372 33.0111 250.431 33.1624 250.431 33.3447C250.431 33.5238 250.372 33.6735 250.255 33.7939C250.138 33.9111 249.972 33.9697 249.757 33.9697C249.542 33.9697 249.376 33.9111 249.259 33.7939C249.145 33.6735 249.088 33.5238 249.088 33.3447ZM254.605 38.5645C254.605 38.3529 254.518 38.1917 254.342 38.0811C254.169 37.9704 253.881 37.8727 253.478 37.7881C253.074 37.7035 252.737 37.596 252.467 37.4658C251.874 37.1794 251.578 36.7643 251.578 36.2207C251.578 35.765 251.77 35.3841 252.154 35.0781C252.538 34.7721 253.027 34.6191 253.619 34.6191C254.251 34.6191 254.76 34.7754 255.147 35.0879C255.538 35.4004 255.733 35.8057 255.733 36.3037H254.547C254.547 36.0758 254.462 35.887 254.293 35.7373C254.124 35.5843 253.899 35.5078 253.619 35.5078C253.359 35.5078 253.146 35.568 252.979 35.6885C252.817 35.8089 252.735 35.9701 252.735 36.1719C252.735 36.3542 252.812 36.4958 252.965 36.5967C253.118 36.6976 253.427 36.8001 253.893 36.9043C254.358 37.0052 254.723 37.1273 254.986 37.2705C255.253 37.4105 255.45 37.5798 255.577 37.7783C255.707 37.9769 255.772 38.2178 255.772 38.501C255.772 38.9762 255.576 39.362 255.182 39.6582C254.788 39.9512 254.272 40.0977 253.634 40.0977C253.201 40.0977 252.815 40.0195 252.477 39.8633C252.138 39.707 251.874 39.4922 251.686 39.2188C251.497 38.9453 251.402 38.6507 251.402 38.335H252.555C252.571 38.6149 252.677 38.8314 252.872 38.9844C253.067 39.1341 253.326 39.209 253.648 39.209C253.961 39.209 254.199 39.1504 254.361 39.0332C254.524 38.9128 254.605 38.7565 254.605 38.5645ZM260.787 33.4326V34.7168H261.72V35.5957H260.787V38.5449C260.787 38.7467 260.826 38.8932 260.904 38.9844C260.986 39.0723 261.129 39.1162 261.334 39.1162C261.471 39.1162 261.609 39.0999 261.749 39.0674V39.9854C261.479 40.0602 261.218 40.0977 260.968 40.0977C260.056 40.0977 259.601 39.5947 259.601 38.5889V35.5957H258.731V34.7168H259.601V33.4326H260.787ZM265.396 35.8008C265.24 35.7747 265.079 35.7617 264.913 35.7617C264.369 35.7617 264.003 35.9701 263.814 36.3867V40H262.628V34.7168H263.761L263.79 35.3076C264.076 34.8486 264.474 34.6191 264.981 34.6191C265.151 34.6191 265.291 34.6419 265.401 34.6875L265.396 35.8008ZM268.375 40.0977C267.623 40.0977 267.013 39.8617 266.544 39.3896C266.078 38.9144 265.846 38.2829 265.846 37.4951V37.3486C265.846 36.8213 265.947 36.3509 266.148 35.9375C266.354 35.5208 266.64 35.1969 267.008 34.9658C267.376 34.7347 267.786 34.6191 268.238 34.6191C268.958 34.6191 269.513 34.8486 269.903 35.3076C270.297 35.7666 270.494 36.416 270.494 37.2559V37.7344H267.042C267.078 38.1706 267.223 38.5156 267.477 38.7695C267.734 39.0234 268.056 39.1504 268.443 39.1504C268.987 39.1504 269.43 38.9307 269.771 38.4912L270.411 39.1016C270.2 39.4173 269.916 39.6631 269.562 39.8389C269.21 40.0114 268.814 40.0977 268.375 40.0977ZM268.233 35.5713C267.908 35.5713 267.644 35.6852 267.442 35.9131C267.244 36.141 267.117 36.4583 267.062 36.8652H269.322V36.7773C269.296 36.3802 269.19 36.0807 269.005 35.8789C268.819 35.6738 268.562 35.5713 268.233 35.5713ZM274.576 40C274.524 39.8991 274.479 39.7347 274.439 39.5068C274.062 39.9007 273.6 40.0977 273.053 40.0977C272.522 40.0977 272.089 39.9463 271.754 39.6436C271.419 39.3408 271.251 38.9665 271.251 38.5205C271.251 37.9574 271.459 37.526 271.876 37.2266C272.296 36.9238 272.895 36.7725 273.673 36.7725H274.4V36.4258C274.4 36.1523 274.324 35.9342 274.171 35.7715C274.018 35.6055 273.785 35.5225 273.473 35.5225C273.202 35.5225 272.981 35.5908 272.809 35.7275C272.636 35.861 272.55 36.0319 272.55 36.2402H271.363C271.363 35.9505 271.459 35.6803 271.651 35.4297C271.843 35.1758 272.104 34.9772 272.433 34.834C272.765 34.6908 273.134 34.6191 273.541 34.6191C274.16 34.6191 274.653 34.7754 275.021 35.0879C275.388 35.3971 275.577 35.8333 275.587 36.3965V38.7793C275.587 39.2546 275.654 39.6338 275.787 39.917V40H274.576ZM273.272 39.1455C273.507 39.1455 273.727 39.0885 273.932 38.9746C274.14 38.8607 274.296 38.7077 274.4 38.5156V37.5195H273.761C273.321 37.5195 272.991 37.596 272.77 37.749C272.548 37.902 272.438 38.1185 272.438 38.3984C272.438 38.6263 272.512 38.8086 272.662 38.9453C272.815 39.0788 273.019 39.1455 273.272 39.1455ZM278.316 33.4326V34.7168H279.249V35.5957H278.316V38.5449C278.316 38.7467 278.355 38.8932 278.434 38.9844C278.515 39.0723 278.658 39.1162 278.863 39.1162C279 39.1162 279.138 39.0999 279.278 39.0674V39.9854C279.008 40.0602 278.748 40.0977 278.497 40.0977C277.586 40.0977 277.13 39.5947 277.13 38.5889V35.5957H276.261V34.7168H277.13V33.4326H278.316ZM281.275 34.7168L281.31 35.2686C281.681 34.8356 282.188 34.6191 282.833 34.6191C283.539 34.6191 284.023 34.8893 284.283 35.4297C284.667 34.8893 285.208 34.6191 285.904 34.6191C286.487 34.6191 286.92 34.7803 287.203 35.1025C287.49 35.4248 287.636 35.9001 287.643 36.5283V40H286.456V36.5625C286.456 36.2272 286.383 35.9814 286.236 35.8252C286.09 35.6689 285.847 35.5908 285.509 35.5908C285.239 35.5908 285.017 35.6641 284.845 35.8105C284.675 35.9538 284.557 36.1426 284.488 36.377L284.493 40H283.307V36.5234C283.29 35.9017 282.973 35.5908 282.354 35.5908C281.879 35.5908 281.542 35.7845 281.344 36.1719V40H280.157V34.7168H281.275ZM291.188 40.0977C290.436 40.0977 289.825 39.8617 289.356 39.3896C288.891 38.9144 288.658 38.2829 288.658 37.4951V37.3486C288.658 36.8213 288.759 36.3509 288.961 35.9375C289.166 35.5208 289.452 35.1969 289.82 34.9658C290.188 34.7347 290.598 34.6191 291.051 34.6191C291.77 34.6191 292.325 34.8486 292.716 35.3076C293.11 35.7666 293.307 36.416 293.307 37.2559V37.7344H289.854C289.89 38.1706 290.035 38.5156 290.289 38.7695C290.546 39.0234 290.868 39.1504 291.256 39.1504C291.799 39.1504 292.242 38.9307 292.584 38.4912L293.224 39.1016C293.012 39.4173 292.729 39.6631 292.374 39.8389C292.022 40.0114 291.627 40.0977 291.188 40.0977ZM291.046 35.5713C290.72 35.5713 290.457 35.6852 290.255 35.9131C290.056 36.141 289.929 36.4583 289.874 36.8652H292.135V36.7773C292.109 36.3802 292.003 36.0807 291.817 35.8789C291.632 35.6738 291.375 35.5713 291.046 35.5713ZM295.333 34.7168L295.367 35.3271C295.758 34.8551 296.271 34.6191 296.905 34.6191C298.006 34.6191 298.565 35.249 298.585 36.5088V40H297.398V36.5771C297.398 36.2419 297.325 35.9945 297.179 35.835C297.035 35.6722 296.799 35.5908 296.471 35.5908C295.992 35.5908 295.636 35.8073 295.401 36.2402V40H294.215V34.7168H295.333ZM301.285 33.4326V34.7168H302.218V35.5957H301.285V38.5449C301.285 38.7467 301.324 38.8932 301.402 38.9844C301.484 39.0723 301.627 39.1162 301.832 39.1162C301.969 39.1162 302.107 39.0999 302.247 39.0674V39.9854C301.977 40.0602 301.716 40.0977 301.466 40.0977C300.554 40.0977 300.099 39.5947 300.099 38.5889V35.5957H299.229V34.7168H300.099V33.4326H301.285ZM303.868 38.75C304.09 38.75 304.26 38.8135 304.381 38.9404C304.501 39.0641 304.562 39.2204 304.562 39.4092C304.562 39.5947 304.501 39.7493 304.381 39.873C304.26 39.9935 304.09 40.0537 303.868 40.0537C303.657 40.0537 303.489 39.9935 303.365 39.873C303.242 39.7526 303.18 39.598 303.18 39.4092C303.18 39.2204 303.24 39.0641 303.36 38.9404C303.481 38.8135 303.65 38.75 303.868 38.75Z" fill="#F180B2"/>
<path d="M8.45411 6.22594C8.9372 6.51046 9.31562 6.90377 9.58937 7.40586C9.86312 7.90795 10 8.43515 10 8.98745C9.53301 9.27197 9.02576 9.41841 8.47826 9.42678C7.93076 9.43515 7.40741 9.2887 6.90821 8.98745C6.76328 8.90377 6.62641 8.81172 6.49758 8.7113C6.52979 8.87866 6.54589 9.04603 6.54589 9.21339C6.54589 9.79916 6.40499 10.3389 6.12319 10.8326C5.84138 11.3264 5.46699 11.7155 5 12C4.53301 11.7155 4.15862 11.3264 3.87681 10.8326C3.59501 10.3389 3.45411 9.79916 3.45411 9.21339C3.45411 9.04603 3.47021 8.87866 3.50242 8.7113C3.35749 8.82845 3.22061 8.9205 3.09179 8.98745C2.59259 9.27197 2.06924 9.41423 1.52174 9.41423C0.974235 9.41423 0.466989 9.27197 0 8.98745C0 8.41841 0.136876 7.88703 0.410628 7.39331C0.68438 6.89958 1.0628 6.50209 1.54589 6.20084C1.67472 6.13389 1.81965 6.06695 1.98068 6C1.81965 5.93305 1.67472 5.85774 1.54589 5.77406C1.0628 5.48954 0.68438 5.09623 0.410628 4.59414C0.136876 4.09205 0 3.56485 0 3.01255C0.466989 2.72803 0.974235 2.58159 1.52174 2.57322C2.06924 2.56485 2.59259 2.7113 3.09179 3.01255C3.22061 3.0795 3.35749 3.17155 3.50242 3.2887C3.47021 3.12134 3.45411 2.95397 3.45411 2.78661C3.45411 2.20084 3.59501 1.66109 3.87681 1.16736C4.15862 0.67364 4.53301 0.284519 5 0C5.46699 0.284519 5.84138 0.67364 6.12319 1.16736C6.40499 1.66109 6.54589 2.20084 6.54589 2.78661C6.54589 2.95397 6.52979 3.12134 6.49758 3.2887C6.64251 3.17155 6.77939 3.0795 6.90821 3.01255C7.40741 2.7113 7.93076 2.56485 8.47826 2.57322C9.02576 2.58159 9.53301 2.72803 10 3.01255C10 3.56485 9.86312 4.09205 9.58937 4.59414C9.31562 5.09623 8.9372 5.48954 8.45411 5.77406C8.32528 5.85774 8.18035 5.93305 8.01932 6C8.18035 6.06695 8.32528 6.14226 8.45411 6.22594ZM5 8.13389C5.56361 8.13389 6.0467 7.92469 6.44928 7.50628C6.85185 7.08787 7.05314 6.58577 7.05314 6C7.05314 5.41423 6.85185 4.91213 6.44928 4.49372C6.0467 4.07531 5.56361 3.86611 5 3.86611C4.43639 3.86611 3.9533 4.07531 3.55072 4.49372C3.14815 4.91213 2.94686 5.41423 2.94686 6C2.94686 6.58577 3.14815 7.08787 3.55072 7.50628C3.9533 7.92469 4.43639 8.13389 5 8.13389Z" fill="#ED2771"/>
</svg>
