<svg width="235" height="22" viewBox="0 0 235 22" fill="none" xmlns="http://www.w3.org/2000/svg">
<path d="M34.5137 15.2246H41.3516V17H31.8242V15.5586L38.4424 5.99609H31.8682V4.20312H41.1406V5.60938L34.5137 15.2246ZM50.7471 11.2871H45.4912V15.2246H51.6348V17H43.2676V4.20312H51.5732V5.99609H45.4912V9.5293H50.7471V11.2871ZM55.6689 15.2246H61.4785V17H53.4453V4.20312H55.6689V15.2246ZM70.6631 11.2871H65.4072V15.2246H71.5508V17H63.1836V4.20312H71.4893V5.99609H65.4072V9.5293H70.6631V11.2871ZM80.0498 13.7041C80.0498 13.1416 79.8506 12.708 79.4521 12.4033C79.0596 12.0986 78.3477 11.791 77.3164 11.4805C76.2852 11.1699 75.4648 10.8242 74.8555 10.4434C73.6895 9.71094 73.1064 8.75586 73.1064 7.57812C73.1064 6.54688 73.5254 5.69727 74.3633 5.0293C75.207 4.36133 76.2998 4.02734 77.6416 4.02734C78.5322 4.02734 79.3262 4.19141 80.0234 4.51953C80.7207 4.84766 81.2686 5.31641 81.667 5.92578C82.0654 6.5293 82.2646 7.2002 82.2646 7.93848H80.0498C80.0498 7.27051 79.8389 6.74902 79.417 6.37402C79.001 5.99316 78.4033 5.80273 77.624 5.80273C76.8975 5.80273 76.332 5.95801 75.9277 6.26855C75.5293 6.5791 75.3301 7.0127 75.3301 7.56934C75.3301 8.03809 75.5469 8.43066 75.9805 8.74707C76.4141 9.05762 77.1289 9.3623 78.125 9.66113C79.1211 9.9541 79.9209 10.291 80.5244 10.6719C81.1279 11.0469 81.5703 11.4805 81.8516 11.9727C82.1328 12.459 82.2734 13.0303 82.2734 13.6865C82.2734 14.7529 81.8633 15.6025 81.043 16.2354C80.2285 16.8623 79.1211 17.1758 77.7207 17.1758C76.7949 17.1758 75.9424 17.0059 75.1631 16.666C74.3896 16.3203 73.7861 15.8457 73.3525 15.2422C72.9248 14.6387 72.7109 13.9355 72.7109 13.1328H74.9346C74.9346 13.8594 75.1748 14.4219 75.6553 14.8203C76.1357 15.2188 76.8242 15.418 77.7207 15.418C78.4941 15.418 79.0742 15.2627 79.4609 14.9521C79.8535 14.6357 80.0498 14.2197 80.0498 13.7041ZM90.9131 13.7041C90.9131 13.1416 90.7139 12.708 90.3154 12.4033C89.9229 12.0986 89.2109 11.791 88.1797 11.4805C87.1484 11.1699 86.3281 10.8242 85.7188 10.4434C84.5527 9.71094 83.9697 8.75586 83.9697 7.57812C83.9697 6.54688 84.3887 5.69727 85.2266 5.0293C86.0703 4.36133 87.1631 4.02734 88.5049 4.02734C89.3955 4.02734 90.1895 4.19141 90.8867 4.51953C91.584 4.84766 92.1318 5.31641 92.5303 5.92578C92.9287 6.5293 93.1279 7.2002 93.1279 7.93848H90.9131C90.9131 7.27051 90.7021 6.74902 90.2803 6.37402C89.8643 5.99316 89.2666 5.80273 88.4873 5.80273C87.7607 5.80273 87.1953 5.95801 86.791 6.26855C86.3926 6.5791 86.1934 7.0127 86.1934 7.56934C86.1934 8.03809 86.4102 8.43066 86.8438 8.74707C87.2773 9.05762 87.9922 9.3623 88.9883 9.66113C89.9844 9.9541 90.7842 10.291 91.3877 10.6719C91.9912 11.0469 92.4336 11.4805 92.7148 11.9727C92.9961 12.459 93.1367 13.0303 93.1367 13.6865C93.1367 14.7529 92.7266 15.6025 91.9062 16.2354C91.0918 16.8623 89.9844 17.1758 88.584 17.1758C87.6582 17.1758 86.8057 17.0059 86.0264 16.666C85.2529 16.3203 84.6494 15.8457 84.2158 15.2422C83.7881 14.6387 83.5742 13.9355 83.5742 13.1328H85.7979C85.7979 13.8594 86.0381 14.4219 86.5186 14.8203C86.999 15.2188 87.6875 15.418 88.584 15.418C89.3574 15.418 89.9375 15.2627 90.3242 14.9521C90.7168 14.6357 90.9131 14.2197 90.9131 13.7041ZM102.567 11.2871H97.3115V15.2246H103.455V17H95.0879V4.20312H103.394V5.99609H97.3115V9.5293H102.567V11.2871ZM104.729 10.5928C104.729 9.40918 105.002 8.31055 105.547 7.29688C106.098 6.2832 106.856 5.48633 107.823 4.90625C108.796 4.32031 109.845 4.02734 110.97 4.02734C112.095 4.02734 113.141 4.32031 114.107 4.90625C115.074 5.48633 115.83 6.2832 116.375 7.29688C116.926 8.31055 117.201 9.40918 117.201 10.5928C117.201 11.7764 116.926 12.875 116.375 13.8887C115.83 14.9023 115.077 15.7051 114.116 16.2969C113.155 16.8828 112.106 17.1758 110.97 17.1758C109.839 17.1758 108.79 16.8828 107.823 16.2969C106.862 15.7109 106.106 14.9111 105.556 13.8975C105.005 12.8838 104.729 11.7822 104.729 10.5928ZM116.129 10.5928C116.129 9.62012 115.909 8.71777 115.47 7.88574C115.03 7.04785 114.409 6.37988 113.606 5.88184C112.804 5.37793 111.925 5.12598 110.97 5.12598C110.038 5.12598 109.171 5.36621 108.368 5.84668C107.571 6.32715 106.944 6.98926 106.487 7.83301C106.03 8.67676 105.802 9.59668 105.802 10.5928C105.802 11.5889 106.027 12.5088 106.479 13.3525C106.936 14.1963 107.562 14.8643 108.359 15.3564C109.162 15.8428 110.032 16.0859 110.97 16.0859C111.907 16.0859 112.777 15.8369 113.58 15.3389C114.389 14.8408 115.016 14.1699 115.461 13.3262C115.906 12.4824 116.129 11.5713 116.129 10.5928ZM109.704 11.2607V14.2227H108.377V6.75195H110.847C111.743 6.75195 112.443 6.95117 112.947 7.34961C113.451 7.74219 113.703 8.30469 113.703 9.03711C113.703 9.72266 113.352 10.25 112.648 10.6191C113.029 10.7891 113.296 11.0381 113.448 11.3662C113.601 11.6885 113.677 12.0898 113.677 12.5703C113.677 13.0449 113.686 13.3818 113.703 13.5811C113.727 13.7803 113.768 13.9473 113.826 14.082V14.2227H112.464C112.388 14.0234 112.35 13.4551 112.35 12.5176C112.35 12.0723 112.253 11.7529 112.06 11.5596C111.866 11.3604 111.544 11.2607 111.093 11.2607H109.704ZM109.704 10.083H110.961C111.365 10.083 111.702 9.99219 111.972 9.81055C112.247 9.62891 112.385 9.37988 112.385 9.06348C112.385 8.65332 112.279 8.36328 112.068 8.19336C111.863 8.01758 111.488 7.92676 110.943 7.9209H109.704V10.083ZM131.325 11.2871H126.069V15.2246H132.213V17H123.846V4.20312H132.151V5.99609H126.069V9.5293H131.325V11.2871ZM141.397 11.5771H136.247V17H134.023V4.20312H142.153V5.99609H136.247V9.80176H141.397V11.5771ZM151.294 11.5771H146.144V17H143.92V4.20312H152.05V5.99609H146.144V9.80176H151.294V11.5771ZM156.163 17H153.948V4.20312H156.163V17ZM168.661 12.834C168.532 14.1992 168.028 15.2656 167.149 16.0332C166.271 16.7949 165.102 17.1758 163.643 17.1758C162.623 17.1758 161.724 16.9355 160.944 16.4551C160.171 15.9688 159.573 15.2803 159.151 14.3896C158.729 13.499 158.51 12.4648 158.492 11.2871V10.0918C158.492 8.88477 158.706 7.82129 159.134 6.90137C159.562 5.98145 160.174 5.27246 160.971 4.77441C161.773 4.27637 162.699 4.02734 163.748 4.02734C165.16 4.02734 166.297 4.41113 167.158 5.17871C168.02 5.94629 168.521 7.03027 168.661 8.43066H166.446C166.341 7.51074 166.071 6.84863 165.638 6.44434C165.21 6.03418 164.58 5.8291 163.748 5.8291C162.781 5.8291 162.037 6.18359 161.516 6.89258C161 7.5957 160.736 8.62988 160.725 9.99512V11.1289C160.725 12.5117 160.971 13.5664 161.463 14.293C161.961 15.0195 162.688 15.3828 163.643 15.3828C164.516 15.3828 165.172 15.1865 165.611 14.7939C166.051 14.4014 166.329 13.748 166.446 12.834H168.661ZM177.819 14.0205H172.862L171.825 17H169.514L174.348 4.20312H176.343L181.186 17H178.865L177.819 14.0205ZM173.486 12.2275H177.195L175.341 6.91895L173.486 12.2275ZM192.216 12.834C192.087 14.1992 191.583 15.2656 190.704 16.0332C189.825 16.7949 188.656 17.1758 187.197 17.1758C186.178 17.1758 185.278 16.9355 184.499 16.4551C183.726 15.9688 183.128 15.2803 182.706 14.3896C182.284 13.499 182.064 12.4648 182.047 11.2871V10.0918C182.047 8.88477 182.261 7.82129 182.688 6.90137C183.116 5.98145 183.729 5.27246 184.525 4.77441C185.328 4.27637 186.254 4.02734 187.303 4.02734C188.715 4.02734 189.852 4.41113 190.713 5.17871C191.574 5.94629 192.075 7.03027 192.216 8.43066H190.001C189.896 7.51074 189.626 6.84863 189.192 6.44434C188.765 6.03418 188.135 5.8291 187.303 5.8291C186.336 5.8291 185.592 6.18359 185.07 6.89258C184.555 7.5957 184.291 8.62988 184.279 9.99512V11.1289C184.279 12.5117 184.525 13.5664 185.018 14.293C185.516 15.0195 186.242 15.3828 187.197 15.3828C188.07 15.3828 188.727 15.1865 189.166 14.7939C189.605 14.4014 189.884 13.748 190.001 12.834H192.216ZM198.386 10.2676L201.33 4.20312H203.791L199.502 12.2891V17H197.27V12.2891L192.972 4.20312H195.441L198.386 10.2676Z" fill="#ED2771"/>
<path d="M25.075 11.5C25.5855 11.5 26.0752 11.2972 26.4362 10.9362C26.7972 10.5752 27 10.0855 27 9.575C27 9.10552 26.9075 8.64065 26.7279 8.20691C26.5482 7.77317 26.2849 7.37906 25.9529 7.04709C25.6209 6.71512 25.2268 6.45179 24.7931 6.27213C24.3594 6.09247 23.8945 6 23.425 6C22.9145 6 22.4248 6.20281 22.0638 6.56382C21.7028 6.92483 21.5 7.41446 21.5 7.925C21.5 7.41446 21.2972 6.92483 20.9362 6.56382C20.5752 6.20281 20.0855 6 19.575 6C18.6269 6 17.7175 6.37665 17.0471 7.04709C16.3767 7.71754 16 8.62685 16 9.575C16 10.0855 16.2028 10.5752 16.5638 10.9362C16.9248 11.2972 17.4145 11.5 17.925 11.5C17.4145 11.5 16.9248 11.7028 16.5638 12.0638C16.2028 12.4248 16 12.9145 16 13.425C16 13.8945 16.0925 14.3594 16.2721 14.7931C16.4518 15.2268 16.7151 15.6209 17.0471 15.9529C17.7175 16.6233 18.6269 17 19.575 17C20.0855 17 20.5752 16.7972 20.9362 16.4362C21.2972 16.0752 21.5 15.5855 21.5 15.075C21.5 15.5855 21.7028 16.0752 22.0638 16.4362C22.4248 16.7972 22.9145 17 23.425 17C23.8945 17 24.3594 16.9075 24.7931 16.7279C25.2268 16.5482 25.6209 16.2849 25.9529 15.9529C26.2849 15.6209 26.5482 15.2268 26.7279 14.7931C26.9075 14.3594 27 13.8945 27 13.425C27 12.9145 26.7972 12.4248 26.4362 12.0638C26.0752 11.7028 25.5855 11.5 25.075 11.5V11.5ZM21.5 13.7C20.9165 13.7 20.3569 13.4682 19.9444 13.0556C19.5318 12.6431 19.3 12.0835 19.3 11.5C19.3 10.9165 19.5318 10.3569 19.9444 9.94437C20.3569 9.53179 20.9165 9.3 21.5 9.3C22.0835 9.3 22.6431 9.53179 23.0556 9.94437C23.4682 10.3569 23.7 10.9165 23.7 11.5C23.7 12.0835 23.4682 12.6431 23.0556 13.0556C22.6431 13.4682 22.0835 13.7 21.5 13.7ZM22.875 11.5C22.875 11.8647 22.7301 12.2144 22.4723 12.4723C22.2144 12.7301 21.8647 12.875 21.5 12.875C21.1353 12.875 20.7856 12.7301 20.5277 12.4723C20.2699 12.2144 20.125 11.8647 20.125 11.5C20.125 11.1353 20.2699 10.7856 20.5277 10.5277C20.7856 10.2699 21.1353 10.125 21.5 10.125C21.8647 10.125 22.2144 10.2699 22.4723 10.5277C22.7301 10.7856 22.875 11.1353 22.875 11.5V11.5Z" fill="#ED2771"/>
</svg>
