<svg width="308" height="15" viewBox="0 0 308 15" fill="none" xmlns="http://www.w3.org/2000/svg">
<path d="M9.075 7.5C9.58554 7.5 10.0752 7.29719 10.4362 6.93618C10.7972 6.57517 11 6.08554 11 5.575C11 5.10552 10.9075 4.64065 10.7279 4.20691C10.5482 3.77317 10.2849 3.37906 9.95291 3.04709C9.62094 2.71512 9.22683 2.45179 8.79309 2.27213C8.35935 2.09247 7.89448 2 7.425 2C6.91446 2 6.42483 2.20281 6.06382 2.56382C5.70281 2.92483 5.5 3.41446 5.5 3.925C5.5 3.41446 5.29719 2.92483 4.93618 2.56382C4.57517 2.20281 4.08554 2 3.575 2C2.62685 2 1.71754 2.37665 1.04709 3.04709C0.376651 3.71754 0 4.62685 0 5.575C0 6.08554 0.202812 6.57517 0.563819 6.93618C0.924827 7.29719 1.41446 7.5 1.925 7.5C1.41446 7.5 0.924827 7.70281 0.563819 8.06382C0.202812 8.42483 0 8.91446 0 9.425C0 9.89448 0.09247 10.3594 0.272131 10.7931C0.451791 11.2268 0.715124 11.6209 1.04709 11.9529C1.71754 12.6233 2.62685 13 3.575 13C4.08554 13 4.57517 12.7972 4.93618 12.4362C5.29719 12.0752 5.5 11.5855 5.5 11.075C5.5 11.5855 5.70281 12.0752 6.06382 12.4362C6.42483 12.7972 6.91446 13 7.425 13C7.89448 13 8.35935 12.9075 8.79309 12.7279C9.22683 12.5482 9.62094 12.2849 9.95291 11.9529C10.2849 11.6209 10.5482 11.2268 10.7279 10.7931C10.9075 10.3594 11 9.89448 11 9.425C11 8.91446 10.7972 8.42483 10.4362 8.06382C10.0752 7.70281 9.58554 7.5 9.075 7.5V7.5ZM5.5 9.7C4.91652 9.7 4.35695 9.46822 3.94437 9.05564C3.53179 8.64306 3.3 8.08348 3.3 7.5C3.3 6.91652 3.53179 6.35695 3.94437 5.94437C4.35695 5.53179 4.91652 5.3 5.5 5.3C6.08348 5.3 6.64306 5.53179 7.05564 5.94437C7.46822 6.35695 7.7 6.91652 7.7 7.5C7.7 8.08348 7.46822 8.64306 7.05564 9.05564C6.64306 9.46822 6.08348 9.7 5.5 9.7ZM6.875 7.5C6.875 7.86467 6.73013 8.21441 6.47227 8.47227C6.21441 8.73013 5.86467 8.875 5.5 8.875C5.13533 8.875 4.78559 8.73013 4.52773 8.47227C4.26987 8.21441 4.125 7.86467 4.125 7.5C4.125 7.13533 4.26987 6.78559 4.52773 6.52773C4.78559 6.26987 5.13533 6.125 5.5 6.125C5.86467 6.125 6.21441 6.26987 6.47227 6.52773C6.73013 6.78559 6.875 7.13533 6.875 7.5V7.5Z" fill="#ED2771"/>
<path d="M20.4502 10.7178H25.3887V12H18.5078V10.959L23.2876 4.05273H18.5396V2.75781H25.2363V3.77344L20.4502 10.7178ZM32.1743 7.87402H28.3784V10.7178H32.8154V12H26.7725V2.75781H32.771V4.05273H28.3784V6.60449H32.1743V7.87402ZM35.729 10.7178H39.9248V12H34.123V2.75781H35.729V10.7178ZM46.5581 7.87402H42.7622V10.7178H47.1992V12H41.1562V2.75781H47.1548V4.05273H42.7622V6.60449H46.5581V7.87402ZM53.3374 9.61963C53.3374 9.21338 53.1935 8.90023 52.9058 8.68018C52.6222 8.46012 52.1081 8.23796 51.3633 8.01367C50.6185 7.78939 50.026 7.53971 49.5859 7.26465C48.7438 6.73568 48.3228 6.0459 48.3228 5.19531C48.3228 4.45052 48.6253 3.83691 49.2305 3.35449C49.8398 2.87207 50.6291 2.63086 51.5981 2.63086C52.2414 2.63086 52.8148 2.74935 53.3184 2.98633C53.8219 3.22331 54.2176 3.56185 54.5054 4.00195C54.7931 4.43783 54.937 4.92236 54.937 5.45557H53.3374C53.3374 4.97314 53.1851 4.59652 52.8804 4.32568C52.5799 4.05062 52.1483 3.91309 51.5854 3.91309C51.0607 3.91309 50.6523 4.02523 50.3604 4.24951C50.0726 4.4738 49.9287 4.78695 49.9287 5.18896C49.9287 5.52751 50.0853 5.81104 50.3984 6.03955C50.7116 6.26383 51.2279 6.48389 51.9473 6.69971C52.6667 6.9113 53.2443 7.15462 53.6802 7.42969C54.116 7.70052 54.4355 8.01367 54.6387 8.36914C54.8418 8.72038 54.9434 9.13298 54.9434 9.60693C54.9434 10.3771 54.6471 10.9907 54.0547 11.4478C53.4665 11.9006 52.6667 12.127 51.6553 12.127C50.9867 12.127 50.3709 12.0042 49.8081 11.7588C49.2495 11.5091 48.8136 11.1663 48.5005 10.7305C48.1916 10.2946 48.0371 9.78678 48.0371 9.20703H49.6431C49.6431 9.73177 49.8166 10.138 50.1636 10.4258C50.5106 10.7135 51.0078 10.8574 51.6553 10.8574C52.2139 10.8574 52.6328 10.7453 52.9121 10.521C53.1956 10.2925 53.3374 9.99202 53.3374 9.61963ZM61.1831 9.61963C61.1831 9.21338 61.0392 8.90023 60.7515 8.68018C60.4679 8.46012 59.9538 8.23796 59.209 8.01367C58.4642 7.78939 57.8717 7.53971 57.4316 7.26465C56.5895 6.73568 56.1685 6.0459 56.1685 5.19531C56.1685 4.45052 56.471 3.83691 57.0762 3.35449C57.6855 2.87207 58.4748 2.63086 59.4438 2.63086C60.0871 2.63086 60.6605 2.74935 61.1641 2.98633C61.6676 3.22331 62.0633 3.56185 62.3511 4.00195C62.6388 4.43783 62.7827 4.92236 62.7827 5.45557H61.1831C61.1831 4.97314 61.0308 4.59652 60.7261 4.32568C60.4256 4.05062 59.994 3.91309 59.4312 3.91309C58.9064 3.91309 58.498 4.02523 58.2061 4.24951C57.9183 4.4738 57.7744 4.78695 57.7744 5.18896C57.7744 5.52751 57.931 5.81104 58.2441 6.03955C58.5573 6.26383 59.0736 6.48389 59.793 6.69971C60.5124 6.9113 61.09 7.15462 61.5259 7.42969C61.9618 7.70052 62.2812 8.01367 62.4844 8.36914C62.6875 8.72038 62.7891 9.13298 62.7891 9.60693C62.7891 10.3771 62.4928 10.9907 61.9004 11.4478C61.3122 11.9006 60.5124 12.127 59.501 12.127C58.8324 12.127 58.2166 12.0042 57.6538 11.7588C57.0952 11.5091 56.6593 11.1663 56.3462 10.7305C56.0373 10.2946 55.8828 9.78678 55.8828 9.20703H57.4888C57.4888 9.73177 57.6623 10.138 58.0093 10.4258C58.3563 10.7135 58.8535 10.8574 59.501 10.8574C60.0596 10.8574 60.4785 10.7453 60.7578 10.521C61.0413 10.2925 61.1831 9.99202 61.1831 9.61963ZM69.6001 7.87402H65.8042V10.7178H70.2412V12H64.1982V2.75781H70.1968V4.05273H65.8042V6.60449H69.6001V7.87402ZM71.1616 7.37256C71.1616 6.51774 71.3584 5.72428 71.752 4.99219C72.1497 4.26009 72.6978 3.68457 73.396 3.26562C74.0985 2.84245 74.856 2.63086 75.6685 2.63086C76.481 2.63086 77.2363 2.84245 77.9346 3.26562C78.6328 3.68457 79.1787 4.26009 79.5723 4.99219C79.9701 5.72428 80.1689 6.51774 80.1689 7.37256C80.1689 8.22738 79.9701 9.02083 79.5723 9.75293C79.1787 10.485 78.6349 11.0648 77.9409 11.4922C77.2469 11.9154 76.4894 12.127 75.6685 12.127C74.8517 12.127 74.0942 11.9154 73.396 11.4922C72.702 11.069 72.1561 10.4914 71.7583 9.75928C71.3605 9.02718 71.1616 8.23161 71.1616 7.37256ZM79.3945 7.37256C79.3945 6.67008 79.2358 6.01839 78.9185 5.41748C78.6011 4.81234 78.1525 4.32992 77.5728 3.97021C76.993 3.60628 76.3582 3.42432 75.6685 3.42432C74.9956 3.42432 74.3693 3.59782 73.7896 3.94482C73.214 4.29183 72.7612 4.77002 72.4312 5.37939C72.1011 5.98877 71.936 6.65316 71.936 7.37256C71.936 8.09196 72.099 8.75635 72.4248 9.36572C72.7549 9.9751 73.2077 10.4575 73.7832 10.813C74.363 11.1642 74.9914 11.3398 75.6685 11.3398C76.3455 11.3398 76.974 11.16 77.5537 10.8003C78.1377 10.4406 78.5905 9.95605 78.9121 9.34668C79.2337 8.7373 79.3945 8.07926 79.3945 7.37256ZM74.7544 7.85498V9.99414H73.7959V4.59863H75.5796C76.2271 4.59863 76.7327 4.74251 77.0967 5.03027C77.4606 5.3138 77.6426 5.72005 77.6426 6.24902C77.6426 6.74414 77.3887 7.125 76.8809 7.3916C77.1559 7.51432 77.3485 7.69417 77.4585 7.93115C77.5685 8.1639 77.6235 8.45378 77.6235 8.80078C77.6235 9.14355 77.6299 9.38688 77.6426 9.53076C77.6595 9.67464 77.6891 9.79525 77.7314 9.89258V9.99414H76.7476C76.6925 9.85026 76.665 9.43978 76.665 8.7627C76.665 8.44108 76.5952 8.21045 76.4556 8.0708C76.3159 7.92692 76.0832 7.85498 75.7573 7.85498H74.7544ZM74.7544 7.00439H75.6621C75.9541 7.00439 76.1974 6.9388 76.3921 6.80762C76.591 6.67643 76.6904 6.49658 76.6904 6.26807C76.6904 5.97184 76.6143 5.76237 76.4619 5.63965C76.3138 5.5127 76.043 5.4471 75.6494 5.44287H74.7544V7.00439ZM86.6626 12H85.063V2.75781H86.6626V12ZM93.4673 9.61963C93.4673 9.21338 93.3234 8.90023 93.0356 8.68018C92.7521 8.46012 92.238 8.23796 91.4932 8.01367C90.7484 7.78939 90.1559 7.53971 89.7158 7.26465C88.8737 6.73568 88.4526 6.0459 88.4526 5.19531C88.4526 4.45052 88.7552 3.83691 89.3604 3.35449C89.9697 2.87207 90.759 2.63086 91.728 2.63086C92.3713 2.63086 92.9447 2.74935 93.4482 2.98633C93.9518 3.22331 94.3475 3.56185 94.6353 4.00195C94.923 4.43783 95.0669 4.92236 95.0669 5.45557H93.4673C93.4673 4.97314 93.3149 4.59652 93.0103 4.32568C92.7098 4.05062 92.2782 3.91309 91.7153 3.91309C91.1906 3.91309 90.7822 4.02523 90.4902 4.24951C90.2025 4.4738 90.0586 4.78695 90.0586 5.18896C90.0586 5.52751 90.2152 5.81104 90.5283 6.03955C90.8415 6.26383 91.3577 6.48389 92.0771 6.69971C92.7965 6.9113 93.3742 7.15462 93.8101 7.42969C94.2459 7.70052 94.5654 8.01367 94.7686 8.36914C94.9717 8.72038 95.0732 9.13298 95.0732 9.60693C95.0732 10.3771 94.777 10.9907 94.1846 11.4478C93.5964 11.9006 92.7965 12.127 91.7852 12.127C91.1165 12.127 90.5008 12.0042 89.938 11.7588C89.3794 11.5091 88.9435 11.1663 88.6304 10.7305C88.3215 10.2946 88.167 9.78678 88.167 9.20703H89.7729C89.7729 9.73177 89.9465 10.138 90.2935 10.4258C90.6405 10.7135 91.1377 10.8574 91.7852 10.8574C92.3438 10.8574 92.7627 10.7453 93.042 10.521C93.3255 10.2925 93.4673 9.99202 93.4673 9.61963ZM105.122 7.87402H101.326V10.7178H105.763V12H99.7197V2.75781H105.718V4.05273H101.326V6.60449H105.122V7.87402ZM112.396 8.0835H108.676V12H107.07V2.75781H112.942V4.05273H108.676V6.80127H112.396V8.0835ZM119.543 8.0835H115.824V12H114.218V2.75781H120.089V4.05273H115.824V6.80127H119.543V8.0835ZM126.767 7.87402H122.971V10.7178H127.408V12H121.365V2.75781H127.364V4.05273H122.971V6.60449H126.767V7.87402ZM135.768 8.99121C135.675 9.97721 135.311 10.7474 134.676 11.3018C134.042 11.8519 133.197 12.127 132.144 12.127C131.407 12.127 130.758 11.9535 130.195 11.6064C129.636 11.2552 129.205 10.758 128.9 10.1147C128.595 9.47152 128.437 8.72461 128.424 7.87402V7.01074C128.424 6.139 128.578 5.37093 128.887 4.70654C129.196 4.04215 129.638 3.53011 130.214 3.17041C130.794 2.81071 131.462 2.63086 132.22 2.63086C133.24 2.63086 134.061 2.90804 134.683 3.4624C135.305 4.01676 135.667 4.79964 135.768 5.81104H134.168C134.092 5.14665 133.898 4.66846 133.584 4.37646C133.276 4.08024 132.821 3.93213 132.22 3.93213C131.521 3.93213 130.984 4.18815 130.607 4.7002C130.235 5.20801 130.045 5.95492 130.036 6.94092V7.75977C130.036 8.75846 130.214 9.52018 130.569 10.0449C130.929 10.5697 131.454 10.832 132.144 10.832C132.774 10.832 133.248 10.6903 133.565 10.4067C133.883 10.1232 134.084 9.65137 134.168 8.99121H135.768ZM143.696 4.05273H140.814V12H139.221V4.05273H136.365V2.75781H143.696V4.05273ZM146.61 12H145.01V2.75781H146.61V12ZM151.84 9.98779L154.189 2.75781H155.954L152.627 12H151.072L147.759 2.75781H149.517L151.84 9.98779ZM162.403 7.87402H158.607V10.7178H163.044V12H157.001V2.75781H163V4.05273H158.607V6.60449H162.403V7.87402ZM174.965 7.62012C174.965 8.52572 174.808 9.32129 174.495 10.0068C174.182 10.6882 173.733 11.2129 173.149 11.5811C172.57 11.945 171.901 12.127 171.144 12.127C170.395 12.127 169.726 11.945 169.138 11.5811C168.554 11.2129 168.101 10.6903 167.779 10.0132C167.462 9.3361 167.301 8.55534 167.297 7.6709V7.15039C167.297 6.24902 167.456 5.45345 167.773 4.76367C168.095 4.07389 168.545 3.54704 169.125 3.18311C169.709 2.81494 170.378 2.63086 171.131 2.63086C171.884 2.63086 172.551 2.81283 173.13 3.17676C173.714 3.53646 174.165 4.05697 174.482 4.73828C174.8 5.41536 174.961 6.20459 174.965 7.10596V7.62012ZM173.359 7.1377C173.359 6.11361 173.164 5.32861 172.775 4.78271C172.39 4.23682 171.842 3.96387 171.131 3.96387C170.437 3.96387 169.893 4.23682 169.5 4.78271C169.11 5.32438 168.911 6.09245 168.903 7.08691V7.62012C168.903 8.63574 169.1 9.42074 169.493 9.9751C169.891 10.5295 170.441 10.8066 171.144 10.8066C171.854 10.8066 172.4 10.5358 172.781 9.99414C173.166 9.45247 173.359 8.66113 173.359 7.62012V7.1377ZM183.896 12H182.29L178.17 5.44287V12H176.564V2.75781H178.17L182.303 9.34033V2.75781H183.896V12ZM194.205 9.84814H190.625L189.875 12H188.206L191.697 2.75781H193.138L196.636 12H194.96L194.205 9.84814ZM191.075 8.55322H193.754L192.415 4.71924L191.075 8.55322ZM199.295 10.7178H203.491V12H197.689V2.75781H199.295V10.7178ZM206.329 10.7178H210.524V12H204.723V2.75781H206.329V10.7178ZM219.824 9.61963C219.824 9.21338 219.68 8.90023 219.392 8.68018C219.109 8.46012 218.594 8.23796 217.85 8.01367C217.105 7.78939 216.512 7.53971 216.072 7.26465C215.23 6.73568 214.809 6.0459 214.809 5.19531C214.809 4.45052 215.112 3.83691 215.717 3.35449C216.326 2.87207 217.115 2.63086 218.084 2.63086C218.728 2.63086 219.301 2.74935 219.805 2.98633C220.308 3.22331 220.704 3.56185 220.992 4.00195C221.279 4.43783 221.423 4.92236 221.423 5.45557H219.824C219.824 4.97314 219.671 4.59652 219.367 4.32568C219.066 4.05062 218.635 3.91309 218.072 3.91309C217.547 3.91309 217.139 4.02523 216.847 4.24951C216.559 4.4738 216.415 4.78695 216.415 5.18896C216.415 5.52751 216.572 5.81104 216.885 6.03955C217.198 6.26383 217.714 6.48389 218.434 6.69971C219.153 6.9113 219.731 7.15462 220.167 7.42969C220.602 7.70052 220.922 8.01367 221.125 8.36914C221.328 8.72038 221.43 9.13298 221.43 9.60693C221.43 10.3771 221.133 10.9907 220.541 11.4478C219.953 11.9006 219.153 12.127 218.142 12.127C217.473 12.127 216.857 12.0042 216.294 11.7588C215.736 11.5091 215.3 11.1663 214.987 10.7305C214.678 10.2946 214.523 9.78678 214.523 9.20703H216.129C216.129 9.73177 216.303 10.138 216.65 10.4258C216.997 10.7135 217.494 10.8574 218.142 10.8574C218.7 10.8574 219.119 10.7453 219.398 10.521C219.682 10.2925 219.824 9.99202 219.824 9.61963ZM225.854 7.1377L227.98 2.75781H229.758L226.66 8.59766V12H225.048V8.59766L221.944 2.75781H223.728L225.854 7.1377ZM232.843 2.75781L235.509 9.8418L238.168 2.75781H240.244V12H238.645V8.95312L238.803 4.87793L236.074 12H234.925L232.202 4.88428L232.36 8.95312V12H230.761V2.75781H232.843ZM243.754 8.56592V12H242.148V2.75781H245.684C246.717 2.75781 247.535 3.02653 248.141 3.56396C248.75 4.1014 249.055 4.81234 249.055 5.69678C249.055 6.60238 248.756 7.30697 248.16 7.81055C247.567 8.31413 246.736 8.56592 245.665 8.56592H243.754ZM243.754 7.27734H245.684C246.255 7.27734 246.691 7.14404 246.992 6.87744C247.292 6.60661 247.442 6.21729 247.442 5.70947C247.442 5.21012 247.29 4.81234 246.985 4.51611C246.681 4.21566 246.262 4.0612 245.729 4.05273H243.754V7.27734ZM257.142 4.05273H254.26V12H252.667V4.05273H249.81V2.75781H257.142V4.05273ZM265.559 7.62012C265.559 8.52572 265.402 9.32129 265.089 10.0068C264.776 10.6882 264.327 11.2129 263.743 11.5811C263.163 11.945 262.495 12.127 261.737 12.127C260.988 12.127 260.32 11.945 259.731 11.5811C259.147 11.2129 258.695 10.6903 258.373 10.0132C258.056 9.3361 257.895 8.55534 257.891 7.6709V7.15039C257.891 6.24902 258.049 5.45345 258.367 4.76367C258.688 4.07389 259.139 3.54704 259.719 3.18311C260.303 2.81494 260.971 2.63086 261.725 2.63086C262.478 2.63086 263.144 2.81283 263.724 3.17676C264.308 3.53646 264.759 4.05697 265.076 4.73828C265.394 5.41536 265.554 6.20459 265.559 7.10596V7.62012ZM263.953 7.1377C263.953 6.11361 263.758 5.32861 263.369 4.78271C262.984 4.23682 262.436 3.96387 261.725 3.96387C261.031 3.96387 260.487 4.23682 260.093 4.78271C259.704 5.32438 259.505 6.09245 259.497 7.08691V7.62012C259.497 8.63574 259.693 9.42074 260.087 9.9751C260.485 10.5295 261.035 10.8066 261.737 10.8066C262.448 10.8066 262.994 10.5358 263.375 9.99414C263.76 9.45247 263.953 8.66113 263.953 7.62012V7.1377ZM269.24 2.75781L271.906 9.8418L274.566 2.75781H276.642V12H275.042V8.95312L275.201 4.87793L272.471 12H271.322L268.599 4.88428L268.758 8.95312V12H267.158V2.75781H269.24ZM283.376 9.61963C283.376 9.21338 283.233 8.90023 282.945 8.68018C282.661 8.46012 282.147 8.23796 281.402 8.01367C280.658 7.78939 280.065 7.53971 279.625 7.26465C278.783 6.73568 278.362 6.0459 278.362 5.19531C278.362 4.45052 278.664 3.83691 279.27 3.35449C279.879 2.87207 280.668 2.63086 281.637 2.63086C282.28 2.63086 282.854 2.74935 283.357 2.98633C283.861 3.22331 284.257 3.56185 284.544 4.00195C284.832 4.43783 284.976 4.92236 284.976 5.45557H283.376C283.376 4.97314 283.224 4.59652 282.919 4.32568C282.619 4.05062 282.187 3.91309 281.625 3.91309C281.1 3.91309 280.691 4.02523 280.399 4.24951C280.112 4.4738 279.968 4.78695 279.968 5.18896C279.968 5.52751 280.124 5.81104 280.438 6.03955C280.751 6.26383 281.267 6.48389 281.986 6.69971C282.706 6.9113 283.283 7.15462 283.719 7.42969C284.155 7.70052 284.475 8.01367 284.678 8.36914C284.881 8.72038 284.982 9.13298 284.982 9.60693C284.982 10.3771 284.686 10.9907 284.094 11.4478C283.506 11.9006 282.706 12.127 281.694 12.127C281.026 12.127 280.41 12.0042 279.847 11.7588C279.289 11.5091 278.853 11.1663 278.54 10.7305C278.231 10.2946 278.076 9.78678 278.076 9.20703H279.682C279.682 9.73177 279.856 10.138 280.203 10.4258C280.55 10.7135 281.047 10.8574 281.694 10.8574C282.253 10.8574 282.672 10.7453 282.951 10.521C283.235 10.2925 283.376 9.99202 283.376 9.61963Z" fill="#ED2771"/>
</svg>
