<svg width="213" height="67" viewBox="0 0 213 67" fill="none" xmlns="http://www.w3.org/2000/svg">
<path d="M59.8887 1.33594L62.9648 9.50977L66.0337 1.33594H68.4287V12H66.583V8.48438L66.7661 3.78223L63.6167 12H62.291L59.1489 3.78955L59.332 8.48438V12H57.4863V1.33594H59.8887ZM70.1206 7.96436C70.1206 7.18799 70.2744 6.48975 70.582 5.86963C70.8896 5.24463 71.3218 4.76611 71.8784 4.43408C72.4351 4.09717 73.0747 3.92871 73.7974 3.92871C74.8667 3.92871 75.7334 4.27295 76.3975 4.96143C77.0664 5.6499 77.4277 6.56299 77.4814 7.70068L77.4888 8.11816C77.4888 8.89941 77.3374 9.59766 77.0347 10.2129C76.7368 10.8281 76.3071 11.3042 75.7456 11.6411C75.189 11.978 74.5444 12.1465 73.812 12.1465C72.6938 12.1465 71.7979 11.7754 71.124 11.0332C70.4551 10.2861 70.1206 9.29248 70.1206 8.05225V7.96436ZM71.9004 8.11816C71.9004 8.93359 72.0688 9.57324 72.4058 10.0371C72.7427 10.4961 73.2114 10.7256 73.812 10.7256C74.4126 10.7256 74.8789 10.4912 75.2109 10.0225C75.5479 9.55371 75.7163 8.86768 75.7163 7.96436C75.7163 7.16357 75.543 6.52881 75.1963 6.06006C74.8545 5.59131 74.3882 5.35693 73.7974 5.35693C73.2163 5.35693 72.7549 5.58887 72.4131 6.05273C72.0713 6.51172 71.9004 7.2002 71.9004 8.11816ZM83.1431 5.70117C82.9087 5.66211 82.667 5.64258 82.418 5.64258C81.6025 5.64258 81.0532 5.95508 80.77 6.58008V12H78.9902V4.0752H80.6895L80.7334 4.96143C81.1631 4.27295 81.7588 3.92871 82.5205 3.92871C82.7744 3.92871 82.9844 3.96289 83.1504 4.03125L83.1431 5.70117ZM87.6108 12.1465C86.4829 12.1465 85.5674 11.7925 84.8643 11.0845C84.166 10.3716 83.8169 9.42432 83.8169 8.24268V8.02295C83.8169 7.23193 83.9683 6.52637 84.271 5.90625C84.5786 5.28125 85.0083 4.79541 85.5601 4.44873C86.1118 4.10205 86.7271 3.92871 87.4058 3.92871C88.4849 3.92871 89.3174 4.27295 89.9033 4.96143C90.4941 5.6499 90.7896 6.62402 90.7896 7.88379V8.60156H85.6113C85.665 9.25586 85.8823 9.77344 86.2632 10.1543C86.6489 10.5352 87.1323 10.7256 87.7134 10.7256C88.5288 10.7256 89.1929 10.396 89.7056 9.73682L90.665 10.6523C90.3477 11.126 89.9229 11.4946 89.3906 11.7583C88.8633 12.0171 88.27 12.1465 87.6108 12.1465ZM87.3984 5.35693C86.9102 5.35693 86.5146 5.52783 86.2119 5.86963C85.9141 6.21143 85.7236 6.6875 85.6406 7.29785H89.0317V7.16602C88.9927 6.57031 88.834 6.12109 88.5557 5.81836C88.2773 5.51074 87.8916 5.35693 87.3984 5.35693ZM98.1431 2.14893V4.0752H99.542V5.39355H98.1431V9.81738C98.1431 10.1201 98.2017 10.3398 98.3188 10.4766C98.4409 10.6084 98.6558 10.6743 98.9634 10.6743C99.1685 10.6743 99.376 10.6499 99.5859 10.6011V11.978C99.1807 12.0903 98.79 12.1465 98.4141 12.1465C97.0469 12.1465 96.3633 11.3921 96.3633 9.8833V5.39355H95.0596V4.0752H96.3633V2.14893H98.1431ZM102.662 4.93945C103.243 4.26562 103.978 3.92871 104.867 3.92871C106.556 3.92871 107.413 4.89307 107.438 6.82178V12H105.658V6.8877C105.658 6.34082 105.538 5.95508 105.299 5.73047C105.064 5.50098 104.718 5.38623 104.259 5.38623C103.546 5.38623 103.014 5.70361 102.662 6.33838V12H100.882V0.75H102.662V4.93945ZM113.978 12C113.9 11.8486 113.832 11.6021 113.773 11.2603C113.207 11.8511 112.513 12.1465 111.693 12.1465C110.897 12.1465 110.248 11.9194 109.745 11.4653C109.242 11.0112 108.99 10.4497 108.99 9.78076C108.99 8.93604 109.303 8.28906 109.928 7.83984C110.558 7.38574 111.456 7.15869 112.623 7.15869H113.714V6.63867C113.714 6.22852 113.6 5.90137 113.37 5.65723C113.141 5.4082 112.792 5.28369 112.323 5.28369C111.917 5.28369 111.585 5.38623 111.327 5.59131C111.068 5.7915 110.938 6.04785 110.938 6.36035H109.159C109.159 5.92578 109.303 5.52051 109.591 5.14453C109.879 4.76367 110.27 4.46582 110.763 4.25098C111.261 4.03613 111.815 3.92871 112.425 3.92871C113.353 3.92871 114.093 4.16309 114.645 4.63184C115.196 5.0957 115.479 5.75 115.494 6.59473V10.1689C115.494 10.8818 115.594 11.4507 115.794 11.8755V12H113.978ZM112.022 10.7183C112.374 10.7183 112.704 10.6328 113.011 10.4619C113.324 10.291 113.558 10.0615 113.714 9.77344V8.2793H112.755C112.096 8.2793 111.6 8.39404 111.268 8.62354C110.936 8.85303 110.77 9.17773 110.77 9.59766C110.77 9.93945 110.882 10.2129 111.107 10.418C111.336 10.6182 111.642 10.7183 112.022 10.7183ZM119.01 4.0752L119.061 4.99072C119.647 4.28271 120.416 3.92871 121.368 3.92871C123.019 3.92871 123.858 4.87354 123.888 6.76318V12H122.108V6.86572C122.108 6.36279 121.998 5.9917 121.778 5.75244C121.563 5.5083 121.209 5.38623 120.716 5.38623C119.999 5.38623 119.464 5.71094 119.112 6.36035V12H117.333V4.0752H119.01ZM134.376 7.53955C133.78 8.16943 133.084 8.48438 132.289 8.48438C131.351 8.48438 130.604 8.15723 130.047 7.50293C129.491 6.84375 129.212 5.97949 129.212 4.91016C129.212 4.20703 129.354 3.56982 129.637 2.99854C129.92 2.42725 130.323 1.98291 130.846 1.66553C131.368 1.34814 131.974 1.18945 132.662 1.18945C133.736 1.18945 134.588 1.58984 135.218 2.39062C135.848 3.19141 136.163 4.26318 136.163 5.60596V6.104C136.163 8.02783 135.729 9.49512 134.859 10.5059C133.99 11.5166 132.694 12.0293 130.97 12.0439H130.758V10.5718H131.014C132.064 10.5571 132.87 10.3057 133.431 9.81738C133.993 9.32422 134.308 8.56494 134.376 7.53955ZM132.662 7.09277C133.019 7.09277 133.353 6.99023 133.666 6.78516C133.978 6.58008 134.22 6.29688 134.391 5.93555V5.23975C134.391 4.45361 134.229 3.82129 133.907 3.34277C133.585 2.86426 133.167 2.625 132.655 2.625C132.142 2.625 131.732 2.8374 131.424 3.26221C131.122 3.68213 130.97 4.21436 130.97 4.85889C130.97 5.52783 131.124 6.06738 131.432 6.47754C131.739 6.8877 132.149 7.09277 132.662 7.09277ZM144.806 7.51025C144.806 9.04346 144.518 10.2007 143.941 10.9819C143.37 11.7583 142.499 12.1465 141.327 12.1465C140.174 12.1465 139.305 11.7681 138.719 11.0112C138.138 10.2495 137.84 9.12402 137.826 7.63477V5.78906C137.826 4.25586 138.111 3.10596 138.683 2.33936C139.259 1.57275 140.135 1.18945 141.312 1.18945C142.479 1.18945 143.348 1.56299 143.919 2.31006C144.496 3.05713 144.791 4.17529 144.806 5.66455V7.51025ZM143.026 5.51807C143.026 4.51709 142.889 3.78467 142.616 3.3208C142.342 2.85205 141.908 2.61768 141.312 2.61768C140.731 2.61768 140.304 2.83984 140.03 3.28418C139.757 3.72363 139.613 4.41211 139.598 5.34961V7.7666C139.598 8.7627 139.737 9.50488 140.016 9.99316C140.294 10.4814 140.731 10.7256 141.327 10.7256C141.898 10.7256 142.32 10.501 142.594 10.0518C142.867 9.59766 143.011 8.88965 143.026 7.92773V5.51807ZM146.307 3.38672C146.307 2.74219 146.515 2.21484 146.93 1.80469C147.345 1.38965 147.889 1.18213 148.563 1.18213C149.247 1.18213 149.793 1.38965 150.204 1.80469C150.619 2.21484 150.826 2.75439 150.826 3.42334V3.95068C150.826 4.59033 150.619 5.11523 150.204 5.52539C149.793 5.93555 149.251 6.14062 148.578 6.14062C147.918 6.14062 147.374 5.94043 146.944 5.54004C146.52 5.13477 146.307 4.59033 146.307 3.90674V3.38672ZM147.552 3.95068C147.552 4.2876 147.645 4.56104 147.831 4.771C148.021 4.97607 148.27 5.07861 148.578 5.07861C148.88 5.07861 149.125 4.97607 149.31 4.771C149.496 4.56104 149.588 4.27783 149.588 3.92139V3.38672C149.588 3.0498 149.493 2.77637 149.303 2.56641C149.117 2.35645 148.871 2.25146 148.563 2.25146C148.255 2.25146 148.009 2.35889 147.823 2.57373C147.643 2.78369 147.552 3.06201 147.552 3.40869V3.95068ZM151.434 9.38525C151.434 8.73096 151.646 8.20117 152.071 7.7959C152.496 7.39062 153.038 7.18799 153.697 7.18799C154.361 7.18799 154.903 7.39062 155.323 7.7959C155.748 8.20117 155.96 8.74805 155.96 9.43652V9.95654C155.96 10.5913 155.755 11.1162 155.345 11.5312C154.94 11.9414 154.396 12.1465 153.712 12.1465C153.028 12.1465 152.477 11.9438 152.057 11.5386C151.642 11.1284 151.434 10.5889 151.434 9.91992V9.38525ZM152.679 9.95654C152.679 10.2886 152.774 10.562 152.965 10.7769C153.16 10.9868 153.409 11.0918 153.712 11.0918C154.024 11.0918 154.269 10.9917 154.444 10.7915C154.625 10.5864 154.715 10.3008 154.715 9.93457V9.38525C154.715 9.04346 154.62 8.77002 154.43 8.56494C154.239 8.35986 153.995 8.25732 153.697 8.25732C153.395 8.25732 153.148 8.35986 152.958 8.56494C152.772 8.77002 152.679 9.05322 152.679 9.41455V9.95654ZM148.944 11.2017L148.028 10.6743L153.236 2.33936L154.151 2.8667L148.944 11.2017ZM0.28418 25.9644C0.28418 25.188 0.437988 24.4897 0.745605 23.8696C1.05322 23.2446 1.48535 22.7661 2.04199 22.4341C2.59863 22.0972 3.23828 21.9287 3.96094 21.9287C5.03027 21.9287 5.89697 22.2729 6.56104 22.9614C7.22998 23.6499 7.59131 24.563 7.64502 25.7007L7.65234 26.1182C7.65234 26.8994 7.50098 27.5977 7.19824 28.2129C6.90039 28.8281 6.4707 29.3042 5.90918 29.6411C5.35254 29.978 4.70801 30.1465 3.97559 30.1465C2.85742 30.1465 1.96143 29.7754 1.2876 29.0332C0.618652 28.2861 0.28418 27.2925 0.28418 26.0522V25.9644ZM2.06396 26.1182C2.06396 26.9336 2.23242 27.5732 2.56934 28.0371C2.90625 28.4961 3.375 28.7256 3.97559 28.7256C4.57617 28.7256 5.04248 28.4912 5.37451 28.0225C5.71143 27.5537 5.87988 26.8677 5.87988 25.9644C5.87988 25.1636 5.70654 24.5288 5.35986 24.0601C5.01807 23.5913 4.55176 23.3569 3.96094 23.3569C3.37988 23.3569 2.91846 23.5889 2.57666 24.0527C2.23486 24.5117 2.06396 25.2002 2.06396 26.1182ZM9.78369 30V23.3936H8.5752V22.0752H9.78369V21.3501C9.78369 20.4712 10.0278 19.7925 10.5161 19.314C11.0044 18.8354 11.688 18.5962 12.5669 18.5962C12.8794 18.5962 13.2114 18.6401 13.563 18.728L13.519 20.1196C13.3237 20.0806 13.0967 20.061 12.8379 20.061C11.9883 20.061 11.5635 20.498 11.5635 21.3721V22.0752H13.1748V23.3936H11.5635V30H9.78369ZM21.7002 30.1465C20.5723 30.1465 19.6567 29.7925 18.9536 29.0845C18.2554 28.3716 17.9062 27.4243 17.9062 26.2427V26.0229C17.9062 25.2319 18.0576 24.5264 18.3604 23.9062C18.668 23.2812 19.0977 22.7954 19.6494 22.4487C20.2012 22.1021 20.8164 21.9287 21.4951 21.9287C22.5742 21.9287 23.4067 22.2729 23.9927 22.9614C24.5835 23.6499 24.8789 24.624 24.8789 25.8838V26.6016H19.7007C19.7544 27.2559 19.9717 27.7734 20.3525 28.1543C20.7383 28.5352 21.2217 28.7256 21.8027 28.7256C22.6182 28.7256 23.2822 28.396 23.7949 27.7368L24.7544 28.6523C24.437 29.126 24.0122 29.4946 23.48 29.7583C22.9526 30.0171 22.3594 30.1465 21.7002 30.1465ZM21.4878 23.3569C20.9995 23.3569 20.604 23.5278 20.3013 23.8696C20.0034 24.2114 19.813 24.6875 19.73 25.2979H23.1211V25.166C23.082 24.5703 22.9233 24.1211 22.645 23.8184C22.3667 23.5107 21.981 23.3569 21.4878 23.3569ZM26.8931 30V23.3936H25.6846V22.0752H26.8931V21.3501C26.8931 20.4712 27.1372 19.7925 27.6255 19.314C28.1138 18.8354 28.7974 18.5962 29.6763 18.5962C29.9888 18.5962 30.3208 18.6401 30.6724 18.728L30.6284 20.1196C30.4331 20.0806 30.2061 20.061 29.9473 20.061C29.0977 20.061 28.6729 20.498 28.6729 21.3721V22.0752H31.3975V21.5332C31.4023 20.9131 31.5342 20.3809 31.793 19.9365C32.0518 19.4922 32.418 19.1577 32.8916 18.9331C33.3652 18.7085 33.9341 18.5962 34.5981 18.5962C34.9888 18.5962 35.3623 18.6377 35.7188 18.7207C36.0801 18.8037 36.4536 18.9087 36.8394 19.0356L36.561 20.5078C35.897 20.2734 35.2842 20.1562 34.7227 20.1562C34.1807 20.1562 33.7876 20.2759 33.5435 20.5151C33.2993 20.7495 33.1772 21.1035 33.1772 21.5771V22.0752H34.7373V23.3936H33.1772V30H31.3975V23.3936H28.6729V30H26.8931ZM37.6816 30H35.9019V22.0752H37.6816V30ZM42.9111 28.7256C43.3555 28.7256 43.7241 28.5962 44.0171 28.3374C44.3101 28.0786 44.4663 27.7588 44.4858 27.3779H46.1631C46.1436 27.8711 45.9897 28.3325 45.7017 28.7622C45.4136 29.187 45.0229 29.5239 44.5298 29.7729C44.0366 30.022 43.5044 30.1465 42.9331 30.1465C41.8247 30.1465 40.9458 29.7876 40.2964 29.0698C39.647 28.3521 39.3223 27.3608 39.3223 26.0962V25.9131C39.3223 24.707 39.6445 23.7427 40.2891 23.02C40.9336 22.2925 41.8125 21.9287 42.9258 21.9287C43.8682 21.9287 44.6348 22.2046 45.2256 22.7563C45.8213 23.3032 46.1338 24.0234 46.1631 24.917H44.4858C44.4663 24.4629 44.3101 24.0894 44.0171 23.7964C43.729 23.5034 43.3604 23.3569 42.9111 23.3569C42.335 23.3569 41.8906 23.5669 41.5781 23.9868C41.2656 24.4019 41.1069 25.0342 41.1021 25.8838V26.1694C41.1021 27.0288 41.2559 27.6709 41.5635 28.0957C41.876 28.5156 42.3252 28.7256 42.9111 28.7256ZM52.2422 30C52.1641 29.8486 52.0957 29.6021 52.0371 29.2603C51.4707 29.8511 50.7773 30.1465 49.957 30.1465C49.1611 30.1465 48.5117 29.9194 48.0088 29.4653C47.5059 29.0112 47.2544 28.4497 47.2544 27.7808C47.2544 26.936 47.5669 26.2891 48.1919 25.8398C48.8218 25.3857 49.7202 25.1587 50.8872 25.1587H51.9785V24.6387C51.9785 24.2285 51.8638 23.9014 51.6343 23.6572C51.4048 23.4082 51.0557 23.2837 50.5869 23.2837C50.1816 23.2837 49.8496 23.3862 49.5908 23.5913C49.332 23.7915 49.2026 24.0479 49.2026 24.3604H47.4229C47.4229 23.9258 47.5669 23.5205 47.855 23.1445C48.1431 22.7637 48.5337 22.4658 49.0269 22.251C49.5249 22.0361 50.0791 21.9287 50.6895 21.9287C51.6172 21.9287 52.3569 22.1631 52.9087 22.6318C53.4604 23.0957 53.7437 23.75 53.7583 24.5947V28.1689C53.7583 28.8818 53.8584 29.4507 54.0586 29.8755V30H52.2422ZM50.2866 28.7183C50.6382 28.7183 50.9678 28.6328 51.2754 28.4619C51.5879 28.291 51.8223 28.0615 51.9785 27.7734V26.2793H51.019C50.3599 26.2793 49.8643 26.394 49.5322 26.6235C49.2002 26.853 49.0342 27.1777 49.0342 27.5977C49.0342 27.9395 49.1465 28.2129 49.3711 28.418C49.6006 28.6182 49.9058 28.7183 50.2866 28.7183ZM58.8779 28.7256C59.3223 28.7256 59.6909 28.5962 59.9839 28.3374C60.2769 28.0786 60.4331 27.7588 60.4526 27.3779H62.1299C62.1104 27.8711 61.9565 28.3325 61.6685 28.7622C61.3804 29.187 60.9897 29.5239 60.4966 29.7729C60.0034 30.022 59.4712 30.1465 58.8999 30.1465C57.7915 30.1465 56.9126 29.7876 56.2632 29.0698C55.6138 28.3521 55.2891 27.3608 55.2891 26.0962V25.9131C55.2891 24.707 55.6113 23.7427 56.2559 23.02C56.9004 22.2925 57.7793 21.9287 58.8926 21.9287C59.835 21.9287 60.6016 22.2046 61.1924 22.7563C61.7881 23.3032 62.1006 24.0234 62.1299 24.917H60.4526C60.4331 24.4629 60.2769 24.0894 59.9839 23.7964C59.6958 23.5034 59.3271 23.3569 58.8779 23.3569C58.3018 23.3569 57.8574 23.5669 57.5449 23.9868C57.2324 24.4019 57.0737 25.0342 57.0688 25.8838V26.1694C57.0688 27.0288 57.2227 27.6709 57.5303 28.0957C57.8428 28.5156 58.292 28.7256 58.8779 28.7256ZM66.2461 27.4512L67.8574 22.0752H69.7544L66.605 31.2012C66.1216 32.5342 65.3013 33.2007 64.144 33.2007C63.8853 33.2007 63.5996 33.1567 63.2871 33.0688V31.6919L63.624 31.7139C64.0732 31.7139 64.4102 31.6309 64.6348 31.4648C64.8643 31.3037 65.0449 31.0303 65.1768 30.6445L65.4331 29.9634L62.6499 22.0752H64.5688L66.2461 27.4512ZM74.1855 25.9644C74.1855 25.188 74.3394 24.4897 74.647 23.8696C74.9546 23.2446 75.3867 22.7661 75.9434 22.4341C76.5 22.0972 77.1396 21.9287 77.8623 21.9287C78.9316 21.9287 79.7983 22.2729 80.4624 22.9614C81.1313 23.6499 81.4927 24.563 81.5464 25.7007L81.5537 26.1182C81.5537 26.8994 81.4023 27.5977 81.0996 28.2129C80.8018 28.8281 80.3721 29.3042 79.8105 29.6411C79.2539 29.978 78.6094 30.1465 77.877 30.1465C76.7588 30.1465 75.8628 29.7754 75.189 29.0332C74.52 28.2861 74.1855 27.2925 74.1855 26.0522V25.9644ZM75.9653 26.1182C75.9653 26.9336 76.1338 27.5732 76.4707 28.0371C76.8076 28.4961 77.2764 28.7256 77.877 28.7256C78.4775 28.7256 78.9438 28.4912 79.2759 28.0225C79.6128 27.5537 79.7812 26.8677 79.7812 25.9644C79.7812 25.1636 79.6079 24.5288 79.2612 24.0601C78.9194 23.5913 78.4531 23.3569 77.8623 23.3569C77.2812 23.3569 76.8198 23.5889 76.478 24.0527C76.1362 24.5117 75.9653 25.2002 75.9653 26.1182ZM84.7104 22.0752L84.7617 22.9907C85.3477 22.2827 86.1167 21.9287 87.0688 21.9287C88.7192 21.9287 89.5591 22.8735 89.5884 24.7632V30H87.8086V24.8657C87.8086 24.3628 87.6987 23.9917 87.479 23.7524C87.2642 23.5083 86.9102 23.3862 86.417 23.3862C85.6992 23.3862 85.1646 23.7109 84.813 24.3604V30H83.0332V22.0752H84.7104ZM94.8105 25.9644C94.8105 25.188 94.9644 24.4897 95.272 23.8696C95.5796 23.2446 96.0117 22.7661 96.5684 22.4341C97.125 22.0972 97.7646 21.9287 98.4873 21.9287C99.5566 21.9287 100.423 22.2729 101.087 22.9614C101.756 23.6499 102.118 24.563 102.171 25.7007L102.179 26.1182C102.179 26.8994 102.027 27.5977 101.725 28.2129C101.427 28.8281 100.997 29.3042 100.436 29.6411C99.8789 29.978 99.2344 30.1465 98.502 30.1465C97.3838 30.1465 96.4878 29.7754 95.814 29.0332C95.145 28.2861 94.8105 27.2925 94.8105 26.0522V25.9644ZM96.5903 26.1182C96.5903 26.9336 96.7588 27.5732 97.0957 28.0371C97.4326 28.4961 97.9014 28.7256 98.502 28.7256C99.1025 28.7256 99.5688 28.4912 99.9009 28.0225C100.238 27.5537 100.406 26.8677 100.406 25.9644C100.406 25.1636 100.233 24.5288 99.8862 24.0601C99.5444 23.5913 99.0781 23.3569 98.4873 23.3569C97.9062 23.3569 97.4448 23.5889 97.103 24.0527C96.7612 24.5117 96.5903 25.2002 96.5903 26.1182ZM106.361 27.7441L108.038 22.0752H109.876L107.13 30H105.584L102.816 22.0752H104.662L106.361 27.7441ZM114.381 30.1465C113.253 30.1465 112.337 29.7925 111.634 29.0845C110.936 28.3716 110.587 27.4243 110.587 26.2427V26.0229C110.587 25.2319 110.738 24.5264 111.041 23.9062C111.349 23.2812 111.778 22.7954 112.33 22.4487C112.882 22.1021 113.497 21.9287 114.176 21.9287C115.255 21.9287 116.087 22.2729 116.673 22.9614C117.264 23.6499 117.56 24.624 117.56 25.8838V26.6016H112.381C112.435 27.2559 112.652 27.7734 113.033 28.1543C113.419 28.5352 113.902 28.7256 114.483 28.7256C115.299 28.7256 115.963 28.396 116.476 27.7368L117.435 28.6523C117.118 29.126 116.693 29.4946 116.161 29.7583C115.633 30.0171 115.04 30.1465 114.381 30.1465ZM114.168 23.3569C113.68 23.3569 113.285 23.5278 112.982 23.8696C112.684 24.2114 112.494 24.6875 112.411 25.2979H115.802V25.166C115.763 24.5703 115.604 24.1211 115.326 23.8184C115.047 23.5107 114.662 23.3569 114.168 23.3569ZM123.097 23.7012C122.862 23.6621 122.621 23.6426 122.372 23.6426C121.556 23.6426 121.007 23.9551 120.724 24.5801V30H118.944V22.0752H120.643L120.687 22.9614C121.117 22.2729 121.712 21.9287 122.474 21.9287C122.728 21.9287 122.938 21.9629 123.104 22.0312L123.097 23.7012ZM128.736 30C128.658 29.8486 128.59 29.6021 128.531 29.2603C127.965 29.8511 127.271 30.1465 126.451 30.1465C125.655 30.1465 125.006 29.9194 124.503 29.4653C124 29.0112 123.749 28.4497 123.749 27.7808C123.749 26.936 124.061 26.2891 124.686 25.8398C125.316 25.3857 126.214 25.1587 127.381 25.1587H128.473V24.6387C128.473 24.2285 128.358 23.9014 128.128 23.6572C127.899 23.4082 127.55 23.2837 127.081 23.2837C126.676 23.2837 126.344 23.3862 126.085 23.5913C125.826 23.7915 125.697 24.0479 125.697 24.3604H123.917C123.917 23.9258 124.061 23.5205 124.349 23.1445C124.637 22.7637 125.028 22.4658 125.521 22.251C126.019 22.0361 126.573 21.9287 127.184 21.9287C128.111 21.9287 128.851 22.1631 129.403 22.6318C129.955 23.0957 130.238 23.75 130.252 24.5947V28.1689C130.252 28.8818 130.353 29.4507 130.553 29.8755V30H128.736ZM126.781 28.7183C127.132 28.7183 127.462 28.6328 127.77 28.4619C128.082 28.291 128.316 28.0615 128.473 27.7734V26.2793H127.513C126.854 26.2793 126.358 26.394 126.026 26.6235C125.694 26.853 125.528 27.1777 125.528 27.5977C125.528 27.9395 125.641 28.2129 125.865 28.418C126.095 28.6182 126.4 28.7183 126.781 28.7183ZM134.01 30H132.23V18.75H134.01V30ZM137.848 30H136.068V18.75H137.848V30ZM147.97 27.8467C147.97 27.5293 147.838 27.2876 147.574 27.1216C147.315 26.9556 146.883 26.8091 146.278 26.6821C145.672 26.5552 145.167 26.394 144.762 26.1987C143.873 25.769 143.429 25.1465 143.429 24.3311C143.429 23.6475 143.717 23.0762 144.293 22.6172C144.869 22.1582 145.602 21.9287 146.49 21.9287C147.438 21.9287 148.202 22.1631 148.783 22.6318C149.369 23.1006 149.662 23.7085 149.662 24.4556H147.882C147.882 24.1138 147.755 23.8306 147.501 23.606C147.247 23.3765 146.91 23.2617 146.49 23.2617C146.1 23.2617 145.78 23.3521 145.531 23.5327C145.287 23.7134 145.165 23.9551 145.165 24.2578C145.165 24.5312 145.279 24.7437 145.509 24.895C145.738 25.0464 146.202 25.2002 146.9 25.3564C147.599 25.5078 148.146 25.6909 148.541 25.9058C148.941 26.1157 149.237 26.3696 149.427 26.6675C149.623 26.9653 149.72 27.3267 149.72 27.7515C149.72 28.4644 149.425 29.043 148.834 29.4873C148.243 29.9268 147.469 30.1465 146.512 30.1465C145.863 30.1465 145.284 30.0293 144.776 29.7949C144.269 29.5605 143.873 29.2383 143.59 28.8281C143.307 28.418 143.165 27.9761 143.165 27.5024H144.894C144.918 27.9224 145.077 28.2471 145.37 28.4766C145.663 28.7012 146.051 28.8135 146.534 28.8135C147.003 28.8135 147.359 28.7256 147.604 28.5498C147.848 28.3691 147.97 28.1348 147.97 27.8467ZM154.049 27.4512L155.66 22.0752H157.557L154.408 31.2012C153.924 32.5342 153.104 33.2007 151.947 33.2007C151.688 33.2007 151.402 33.1567 151.09 33.0688V31.6919L151.427 31.7139C151.876 31.7139 152.213 31.6309 152.438 31.4648C152.667 31.3037 152.848 31.0303 152.979 30.6445L153.236 29.9634L150.453 22.0752H152.372L154.049 27.4512ZM160.26 22.0752L160.311 22.9028C160.868 22.2534 161.629 21.9287 162.596 21.9287C163.656 21.9287 164.381 22.334 164.771 23.1445C165.348 22.334 166.158 21.9287 167.203 21.9287C168.077 21.9287 168.727 22.1704 169.151 22.6538C169.581 23.1372 169.801 23.8501 169.811 24.7925V30H168.031V24.8438C168.031 24.3408 167.921 23.9722 167.701 23.7378C167.481 23.5034 167.118 23.3862 166.61 23.3862C166.205 23.3862 165.873 23.4961 165.614 23.7158C165.36 23.9307 165.182 24.2139 165.079 24.5654L165.086 30H163.307V24.7852C163.282 23.8525 162.806 23.3862 161.878 23.3862C161.166 23.3862 160.66 23.6768 160.362 24.2578V30H158.583V22.0752H160.26ZM178.578 26.1182C178.578 27.3438 178.299 28.3228 177.743 29.0552C177.186 29.7827 176.439 30.1465 175.501 30.1465C174.632 30.1465 173.937 29.8608 173.414 29.2896V33.0469H171.634V22.0752H173.275L173.348 22.8809C173.871 22.2461 174.581 21.9287 175.479 21.9287C176.446 21.9287 177.203 22.29 177.75 23.0127C178.302 23.7305 178.578 24.729 178.578 26.0083V26.1182ZM176.805 25.9644C176.805 25.1733 176.646 24.5459 176.329 24.082C176.017 23.6182 175.567 23.3862 174.981 23.3862C174.254 23.3862 173.731 23.6865 173.414 24.2871V27.8027C173.736 28.418 174.264 28.7256 174.996 28.7256C175.562 28.7256 176.004 28.4985 176.322 28.0444C176.644 27.5854 176.805 26.8921 176.805 25.9644ZM182.32 20.1489V22.0752H183.719V23.3936H182.32V27.8174C182.32 28.1201 182.379 28.3398 182.496 28.4766C182.618 28.6084 182.833 28.6743 183.141 28.6743C183.346 28.6743 183.553 28.6499 183.763 28.6011V29.978C183.358 30.0903 182.967 30.1465 182.591 30.1465C181.224 30.1465 180.541 29.3921 180.541 27.8833V23.3936H179.237V22.0752H180.541V20.1489H182.32ZM184.532 25.9644C184.532 25.188 184.686 24.4897 184.994 23.8696C185.301 23.2446 185.733 22.7661 186.29 22.4341C186.847 22.0972 187.486 21.9287 188.209 21.9287C189.278 21.9287 190.145 22.2729 190.809 22.9614C191.478 23.6499 191.839 24.563 191.893 25.7007L191.9 26.1182C191.9 26.8994 191.749 27.5977 191.446 28.2129C191.148 28.8281 190.719 29.3042 190.157 29.6411C189.601 29.978 188.956 30.1465 188.224 30.1465C187.105 30.1465 186.209 29.7754 185.536 29.0332C184.867 28.2861 184.532 27.2925 184.532 26.0522V25.9644ZM186.312 26.1182C186.312 26.9336 186.48 27.5732 186.817 28.0371C187.154 28.4961 187.623 28.7256 188.224 28.7256C188.824 28.7256 189.291 28.4912 189.623 28.0225C189.959 27.5537 190.128 26.8677 190.128 25.9644C190.128 25.1636 189.955 24.5288 189.608 24.0601C189.266 23.5913 188.8 23.3569 188.209 23.3569C187.628 23.3569 187.167 23.5889 186.825 24.0527C186.483 24.5117 186.312 25.2002 186.312 26.1182ZM195.079 22.0752L195.13 22.9028C195.687 22.2534 196.449 21.9287 197.416 21.9287C198.475 21.9287 199.2 22.334 199.591 23.1445C200.167 22.334 200.978 21.9287 202.022 21.9287C202.896 21.9287 203.546 22.1704 203.971 22.6538C204.4 23.1372 204.62 23.8501 204.63 24.7925V30H202.85V24.8438C202.85 24.3408 202.74 23.9722 202.521 23.7378C202.301 23.5034 201.937 23.3862 201.429 23.3862C201.024 23.3862 200.692 23.4961 200.433 23.7158C200.179 23.9307 200.001 24.2139 199.898 24.5654L199.906 30H198.126V24.7852C198.102 23.8525 197.625 23.3862 196.698 23.3862C195.985 23.3862 195.479 23.6768 195.182 24.2578V30H193.402V22.0752H195.079ZM210.899 27.8467C210.899 27.5293 210.768 27.2876 210.504 27.1216C210.245 26.9556 209.813 26.8091 209.208 26.6821C208.602 26.5552 208.097 26.394 207.691 26.1987C206.803 25.769 206.358 25.1465 206.358 24.3311C206.358 23.6475 206.646 23.0762 207.223 22.6172C207.799 22.1582 208.531 21.9287 209.42 21.9287C210.367 21.9287 211.131 22.1631 211.712 22.6318C212.298 23.1006 212.591 23.7085 212.591 24.4556H210.812C210.812 24.1138 210.685 23.8306 210.431 23.606C210.177 23.3765 209.84 23.2617 209.42 23.2617C209.029 23.2617 208.709 23.3521 208.46 23.5327C208.216 23.7134 208.094 23.9551 208.094 24.2578C208.094 24.5312 208.209 24.7437 208.438 24.895C208.668 25.0464 209.132 25.2002 209.83 25.3564C210.528 25.5078 211.075 25.6909 211.471 25.9058C211.871 26.1157 212.167 26.3696 212.357 26.6675C212.552 26.9653 212.65 27.3267 212.65 27.7515C212.65 28.4644 212.354 29.043 211.764 29.4873C211.173 29.9268 210.399 30.1465 209.442 30.1465C208.792 30.1465 208.214 30.0293 207.706 29.7949C207.198 29.5605 206.803 29.2383 206.52 28.8281C206.236 28.418 206.095 27.9761 206.095 27.5024H207.823C207.848 27.9224 208.006 28.2471 208.299 28.4766C208.592 28.7012 208.98 28.8135 209.464 28.8135C209.933 28.8135 210.289 28.7256 210.533 28.5498C210.777 28.3691 210.899 28.1348 210.899 27.8467ZM8.71436 45.5464L9.97412 40.0752H11.71L9.54932 48H8.08447L6.38525 42.5581L4.71533 48H3.25049L1.08252 40.0752H2.81836L4.1001 45.4878L5.72607 40.0752H7.06641L8.71436 45.5464ZM14.7935 48H13.0137V40.0752H14.7935V48ZM12.9038 38.0171C12.9038 37.7437 12.9893 37.5166 13.1602 37.3359C13.3359 37.1553 13.585 37.0649 13.9072 37.0649C14.2295 37.0649 14.4785 37.1553 14.6543 37.3359C14.8301 37.5166 14.918 37.7437 14.918 38.0171C14.918 38.2856 14.8301 38.5103 14.6543 38.6909C14.4785 38.8667 14.2295 38.9546 13.9072 38.9546C13.585 38.9546 13.3359 38.8667 13.1602 38.6909C12.9893 38.5103 12.9038 38.2856 12.9038 38.0171ZM18.9683 38.1489V40.0752H20.3672V41.3936H18.9683V45.8174C18.9683 46.1201 19.0269 46.3398 19.144 46.4766C19.2661 46.6084 19.481 46.6743 19.7886 46.6743C19.9937 46.6743 20.2012 46.6499 20.4111 46.6011V47.978C20.0059 48.0903 19.6152 48.1465 19.2393 48.1465C17.8721 48.1465 17.1885 47.3921 17.1885 45.8833V41.3936H15.8848V40.0752H17.1885V38.1489H18.9683ZM23.4873 40.9395C24.0684 40.2656 24.8032 39.9287 25.6919 39.9287C27.3813 39.9287 28.2383 40.8931 28.2627 42.8218V48H26.4829V42.8877C26.4829 42.3408 26.3633 41.9551 26.124 41.7305C25.8896 41.501 25.543 41.3862 25.084 41.3862C24.3711 41.3862 23.8389 41.7036 23.4873 42.3384V48H21.7075V36.75H23.4873V40.9395ZM35.7188 46.5205H41.417V48H33.4775V46.7988L38.9927 38.8301H33.5142V37.3359H41.2412V38.5078L35.7188 46.5205ZM49.2466 43.2393H44.8667V46.5205H49.9863V48H43.0137V37.3359H49.9351V38.8301H44.8667V41.7744H49.2466V43.2393ZM53.3481 46.5205H58.1895V48H51.4951V37.3359H53.3481V46.5205ZM65.8433 43.2393H61.4634V46.5205H66.583V48H59.6104V37.3359H66.5317V38.8301H61.4634V41.7744H65.8433V43.2393ZM73.6655 45.2534C73.6655 44.7847 73.4995 44.4233 73.1675 44.1694C72.8403 43.9155 72.2471 43.6592 71.3877 43.4004C70.5283 43.1416 69.8447 42.8535 69.3369 42.5361C68.3652 41.9258 67.8794 41.1299 67.8794 40.1484C67.8794 39.2891 68.2285 38.5811 68.9268 38.0244C69.6299 37.4678 70.5405 37.1895 71.6587 37.1895C72.4009 37.1895 73.0625 37.3262 73.6436 37.5996C74.2246 37.873 74.6812 38.2637 75.0132 38.7715C75.3452 39.2744 75.5112 39.8335 75.5112 40.4487H73.6655C73.6655 39.8921 73.4897 39.4575 73.1382 39.145C72.7915 38.8276 72.2935 38.6689 71.644 38.6689C71.0386 38.6689 70.5674 38.7983 70.2305 39.0571C69.8984 39.3159 69.7324 39.6772 69.7324 40.1411C69.7324 40.5317 69.9131 40.8589 70.2744 41.1226C70.6357 41.3813 71.2314 41.6353 72.0615 41.8843C72.8916 42.1284 73.5581 42.4092 74.061 42.7266C74.564 43.0391 74.9326 43.4004 75.167 43.8105C75.4014 44.2158 75.5186 44.6919 75.5186 45.2388C75.5186 46.1274 75.1768 46.8354 74.4932 47.3628C73.8145 47.8853 72.8916 48.1465 71.7246 48.1465C70.9531 48.1465 70.2427 48.0049 69.5933 47.7217C68.9487 47.4336 68.4458 47.0381 68.0845 46.5352C67.728 46.0322 67.5498 45.4463 67.5498 44.7773H69.4028C69.4028 45.3828 69.603 45.8516 70.0034 46.1836C70.4038 46.5156 70.9775 46.6816 71.7246 46.6816C72.3691 46.6816 72.8525 46.5522 73.1748 46.2935C73.502 46.0298 73.6655 45.6831 73.6655 45.2534ZM82.7183 45.2534C82.7183 44.7847 82.5522 44.4233 82.2202 44.1694C81.8931 43.9155 81.2998 43.6592 80.4404 43.4004C79.5811 43.1416 78.8975 42.8535 78.3896 42.5361C77.418 41.9258 76.9321 41.1299 76.9321 40.1484C76.9321 39.2891 77.2812 38.5811 77.9795 38.0244C78.6826 37.4678 79.5933 37.1895 80.7114 37.1895C81.4536 37.1895 82.1152 37.3262 82.6963 37.5996C83.2773 37.873 83.7339 38.2637 84.0659 38.7715C84.3979 39.2744 84.564 39.8335 84.564 40.4487H82.7183C82.7183 39.8921 82.5425 39.4575 82.1909 39.145C81.8442 38.8276 81.3462 38.6689 80.6968 38.6689C80.0913 38.6689 79.6201 38.7983 79.2832 39.0571C78.9512 39.3159 78.7852 39.6772 78.7852 40.1411C78.7852 40.5317 78.9658 40.8589 79.3271 41.1226C79.6885 41.3813 80.2842 41.6353 81.1143 41.8843C81.9443 42.1284 82.6108 42.4092 83.1138 42.7266C83.6167 43.0391 83.9854 43.4004 84.2197 43.8105C84.4541 44.2158 84.5713 44.6919 84.5713 45.2388C84.5713 46.1274 84.2295 46.8354 83.5459 47.3628C82.8672 47.8853 81.9443 48.1465 80.7773 48.1465C80.0059 48.1465 79.2954 48.0049 78.646 47.7217C78.0015 47.4336 77.4985 47.0381 77.1372 46.5352C76.7808 46.0322 76.6025 45.4463 76.6025 44.7773H78.4556C78.4556 45.3828 78.6558 45.8516 79.0562 46.1836C79.4565 46.5156 80.0303 46.6816 80.7773 46.6816C81.4219 46.6816 81.9053 46.5522 82.2275 46.2935C82.5547 46.0298 82.7183 45.6831 82.7183 45.2534ZM92.4302 43.2393H88.0503V46.5205H93.1699V48H86.1973V37.3359H93.1187V38.8301H88.0503V41.7744H92.4302V43.2393ZM94.2319 42.6606C94.2319 41.6743 94.459 40.7588 94.9131 39.9141C95.3721 39.0693 96.0044 38.4053 96.8101 37.9219C97.6206 37.4336 98.4946 37.1895 99.4321 37.1895C100.37 37.1895 101.241 37.4336 102.047 37.9219C102.853 38.4053 103.482 39.0693 103.937 39.9141C104.396 40.7588 104.625 41.6743 104.625 42.6606C104.625 43.647 104.396 44.5625 103.937 45.4072C103.482 46.252 102.855 46.9209 102.054 47.4141C101.253 47.9023 100.379 48.1465 99.4321 48.1465C98.4897 48.1465 97.6157 47.9023 96.8101 47.4141C96.0093 46.9258 95.3794 46.2593 94.9204 45.4146C94.4614 44.5698 94.2319 43.6519 94.2319 42.6606ZM103.731 42.6606C103.731 41.8501 103.548 41.0981 103.182 40.4048C102.816 39.7065 102.298 39.1499 101.629 38.7349C100.96 38.3149 100.228 38.105 99.4321 38.105C98.6558 38.105 97.9331 38.3052 97.2642 38.7056C96.6001 39.106 96.0776 39.6577 95.6968 40.3608C95.3159 41.064 95.1255 41.8306 95.1255 42.6606C95.1255 43.4907 95.3135 44.2573 95.6895 44.9604C96.0703 45.6636 96.5928 46.2202 97.2568 46.6304C97.9258 47.0356 98.6509 47.2383 99.4321 47.2383C100.213 47.2383 100.938 47.0308 101.607 46.6157C102.281 46.2007 102.804 45.6416 103.175 44.9385C103.546 44.2354 103.731 43.4761 103.731 42.6606ZM98.3774 43.2173V45.6855H97.2715V39.46H99.3296C100.077 39.46 100.66 39.626 101.08 39.958C101.5 40.2852 101.71 40.7539 101.71 41.3643C101.71 41.9355 101.417 42.375 100.831 42.6826C101.148 42.8242 101.371 43.0317 101.498 43.3052C101.625 43.5737 101.688 43.9082 101.688 44.3086C101.688 44.7041 101.695 44.9849 101.71 45.1509C101.729 45.3169 101.764 45.4561 101.812 45.5684V45.6855H100.677C100.614 45.5195 100.582 45.0459 100.582 44.2646C100.582 43.8936 100.501 43.6274 100.34 43.4663C100.179 43.3003 99.9106 43.2173 99.5347 43.2173H98.3774ZM98.3774 42.2358H99.4248C99.7617 42.2358 100.042 42.1602 100.267 42.0088C100.497 41.8574 100.611 41.6499 100.611 41.3862C100.611 41.0444 100.523 40.8027 100.348 40.6611C100.177 40.5146 99.8643 40.439 99.4102 40.4341H98.3774V42.2358ZM106.507 50.4023L105.548 49.8311C105.831 49.3867 106.024 48.9985 106.126 48.6665C106.234 48.3394 106.29 48.0049 106.295 47.6631V46.2788H107.899L107.892 47.5605C107.887 48.0781 107.755 48.5957 107.496 49.1133C107.242 49.6357 106.913 50.0654 106.507 50.4023ZM120.248 45.5464L121.507 40.0752H123.243L121.083 48H119.618L117.918 42.5581L116.249 48H114.784L112.616 40.0752H114.352L115.633 45.4878L117.259 40.0752H118.6L120.248 45.5464ZM126.327 48H124.547V40.0752H126.327V48ZM124.437 38.0171C124.437 37.7437 124.522 37.5166 124.693 37.3359C124.869 37.1553 125.118 37.0649 125.44 37.0649C125.763 37.0649 126.012 37.1553 126.188 37.3359C126.363 37.5166 126.451 37.7437 126.451 38.0171C126.451 38.2856 126.363 38.5103 126.188 38.6909C126.012 38.8667 125.763 38.9546 125.44 38.9546C125.118 38.9546 124.869 38.8667 124.693 38.6909C124.522 38.5103 124.437 38.2856 124.437 38.0171ZM130.501 38.1489V40.0752H131.9V41.3936H130.501V45.8174C130.501 46.1201 130.56 46.3398 130.677 46.4766C130.799 46.6084 131.014 46.6743 131.322 46.6743C131.527 46.6743 131.734 46.6499 131.944 46.6011V47.978C131.539 48.0903 131.148 48.1465 130.772 48.1465C129.405 48.1465 128.722 47.3921 128.722 45.8833V41.3936H127.418V40.0752H128.722V38.1489H130.501ZM135.021 40.9395C135.602 40.2656 136.336 39.9287 137.225 39.9287C138.915 39.9287 139.771 40.8931 139.796 42.8218V48H138.016V42.8877C138.016 42.3408 137.896 41.9551 137.657 41.7305C137.423 41.501 137.076 41.3862 136.617 41.3862C135.904 41.3862 135.372 41.7036 135.021 42.3384V48H133.241V36.75H135.021V40.9395ZM145.003 43.9644C145.003 43.188 145.157 42.4897 145.465 41.8696C145.772 41.2446 146.205 40.7661 146.761 40.4341C147.318 40.0972 147.958 39.9287 148.68 39.9287C149.75 39.9287 150.616 40.2729 151.28 40.9614C151.949 41.6499 152.311 42.563 152.364 43.7007L152.372 44.1182C152.372 44.8994 152.22 45.5977 151.917 46.2129C151.62 46.8281 151.19 47.3042 150.628 47.6411C150.072 47.978 149.427 48.1465 148.695 48.1465C147.577 48.1465 146.681 47.7754 146.007 47.0332C145.338 46.2861 145.003 45.2925 145.003 44.0522V43.9644ZM146.783 44.1182C146.783 44.9336 146.952 45.5732 147.289 46.0371C147.625 46.4961 148.094 46.7256 148.695 46.7256C149.295 46.7256 149.762 46.4912 150.094 46.0225C150.431 45.5537 150.599 44.8677 150.599 43.9644C150.599 43.1636 150.426 42.5288 150.079 42.0601C149.737 41.5913 149.271 41.3569 148.68 41.3569C148.099 41.3569 147.638 41.5889 147.296 42.0527C146.954 42.5117 146.783 43.2002 146.783 44.1182ZM158.026 41.7012C157.792 41.6621 157.55 41.6426 157.301 41.6426C156.485 41.6426 155.936 41.9551 155.653 42.5801V48H153.873V40.0752H155.572L155.616 40.9614C156.046 40.2729 156.642 39.9287 157.403 39.9287C157.657 39.9287 157.867 39.9629 158.033 40.0312L158.026 41.7012ZM169.847 45.5464L171.107 40.0752H172.843L170.682 48H169.217L167.518 42.5581L165.848 48H164.383L162.215 40.0752H163.951L165.233 45.4878L166.859 40.0752H168.199L169.847 45.5464ZM175.926 48H174.146V40.0752H175.926V48ZM174.037 38.0171C174.037 37.7437 174.122 37.5166 174.293 37.3359C174.469 37.1553 174.718 37.0649 175.04 37.0649C175.362 37.0649 175.611 37.1553 175.787 37.3359C175.963 37.5166 176.051 37.7437 176.051 38.0171C176.051 38.2856 175.963 38.5103 175.787 38.6909C175.611 38.8667 175.362 38.9546 175.04 38.9546C174.718 38.9546 174.469 38.8667 174.293 38.6909C174.122 38.5103 174.037 38.2856 174.037 38.0171ZM180.101 38.1489V40.0752H181.5V41.3936H180.101V45.8174C180.101 46.1201 180.16 46.3398 180.277 46.4766C180.399 46.6084 180.614 46.6743 180.921 46.6743C181.126 46.6743 181.334 46.6499 181.544 46.6011V47.978C181.139 48.0903 180.748 48.1465 180.372 48.1465C179.005 48.1465 178.321 47.3921 178.321 45.8833V41.3936H177.018V40.0752H178.321V38.1489H180.101ZM184.62 40.9395C185.201 40.2656 185.936 39.9287 186.825 39.9287C188.514 39.9287 189.371 40.8931 189.396 42.8218V48H187.616V42.8877C187.616 42.3408 187.496 41.9551 187.257 41.7305C187.022 41.501 186.676 41.3862 186.217 41.3862C185.504 41.3862 184.972 41.7036 184.62 42.3384V48H182.84V36.75H184.62V40.9395ZM190.868 43.9644C190.868 43.188 191.021 42.4897 191.329 41.8696C191.637 41.2446 192.069 40.7661 192.625 40.4341C193.182 40.0972 193.822 39.9287 194.544 39.9287C195.614 39.9287 196.48 40.2729 197.145 40.9614C197.813 41.6499 198.175 42.563 198.229 43.7007L198.236 44.1182C198.236 44.8994 198.084 45.5977 197.782 46.2129C197.484 46.8281 197.054 47.3042 196.493 47.6411C195.936 47.978 195.292 48.1465 194.559 48.1465C193.441 48.1465 192.545 47.7754 191.871 47.0332C191.202 46.2861 190.868 45.2925 190.868 44.0522V43.9644ZM192.647 44.1182C192.647 44.9336 192.816 45.5732 193.153 46.0371C193.49 46.4961 193.958 46.7256 194.559 46.7256C195.16 46.7256 195.626 46.4912 195.958 46.0225C196.295 45.5537 196.463 44.8677 196.463 43.9644C196.463 43.1636 196.29 42.5288 195.943 42.0601C195.602 41.5913 195.135 41.3569 194.544 41.3569C193.963 41.3569 193.502 41.5889 193.16 42.0527C192.818 42.5117 192.647 43.2002 192.647 44.1182ZM204.542 47.2236C204.02 47.8389 203.277 48.1465 202.315 48.1465C201.456 48.1465 200.804 47.895 200.36 47.3921C199.92 46.8892 199.701 46.1616 199.701 45.2095V40.0752H201.48V45.1875C201.48 46.1934 201.898 46.6963 202.733 46.6963C203.597 46.6963 204.181 46.3862 204.483 45.7661V40.0752H206.263V48H204.586L204.542 47.2236ZM210.306 38.1489V40.0752H211.705V41.3936H210.306V45.8174C210.306 46.1201 210.365 46.3398 210.482 46.4766C210.604 46.6084 210.819 46.6743 211.126 46.6743C211.332 46.6743 211.539 46.6499 211.749 46.6011V47.978C211.344 48.0903 210.953 48.1465 210.577 48.1465C209.21 48.1465 208.526 47.3921 208.526 45.8833V41.3936H207.223V40.0752H208.526V38.1489H210.306ZM46.1851 61.9644C46.1851 61.188 46.3389 60.4897 46.6465 59.8696C46.9541 59.2446 47.3862 58.7661 47.9429 58.4341C48.4995 58.0972 49.1392 57.9287 49.8618 57.9287C50.9312 57.9287 51.7979 58.2729 52.4619 58.9614C53.1309 59.6499 53.4922 60.563 53.5459 61.7007L53.5532 62.1182C53.5532 62.8994 53.4019 63.5977 53.0991 64.2129C52.8013 64.8281 52.3716 65.3042 51.8101 65.6411C51.2534 65.978 50.6089 66.1465 49.8765 66.1465C48.7583 66.1465 47.8623 65.7754 47.1885 65.0332C46.5195 64.2861 46.1851 63.2925 46.1851 62.0522V61.9644ZM47.9648 62.1182C47.9648 62.9336 48.1333 63.5732 48.4702 64.0371C48.8071 64.4961 49.2759 64.7256 49.8765 64.7256C50.4771 64.7256 50.9434 64.4912 51.2754 64.0225C51.6123 63.5537 51.7808 62.8677 51.7808 61.9644C51.7808 61.1636 51.6074 60.5288 51.2607 60.0601C50.9189 59.5913 50.4526 59.3569 49.8618 59.3569C49.2808 59.3569 48.8193 59.5889 48.4775 60.0527C48.1357 60.5117 47.9648 61.2002 47.9648 62.1182ZM57.2886 56.1489V58.0752H58.6875V59.3936H57.2886V63.8174C57.2886 64.1201 57.3472 64.3398 57.4644 64.4766C57.5864 64.6084 57.8013 64.6743 58.1089 64.6743C58.314 64.6743 58.5215 64.6499 58.7314 64.6011V65.978C58.3262 66.0903 57.9355 66.1465 57.5596 66.1465C56.1924 66.1465 55.5088 65.3921 55.5088 63.8833V59.3936H54.2051V58.0752H55.5088V56.1489H57.2886ZM61.8076 58.9395C62.3887 58.2656 63.1235 57.9287 64.0122 57.9287C65.7017 57.9287 66.5586 58.8931 66.583 60.8218V66H64.8032V60.8877C64.8032 60.3408 64.6836 59.9551 64.4443 59.7305C64.21 59.501 63.8633 59.3862 63.4043 59.3862C62.6914 59.3862 62.1592 59.7036 61.8076 60.3384V66H60.0278V54.75H61.8076V58.9395ZM71.8784 66.1465C70.7505 66.1465 69.835 65.7925 69.1318 65.0845C68.4336 64.3716 68.0845 63.4243 68.0845 62.2427V62.0229C68.0845 61.2319 68.2358 60.5264 68.5386 59.9062C68.8462 59.2812 69.2759 58.7954 69.8276 58.4487C70.3794 58.1021 70.9946 57.9287 71.6733 57.9287C72.7524 57.9287 73.585 58.2729 74.1709 58.9614C74.7617 59.6499 75.0571 60.624 75.0571 61.8838V62.6016H69.8789C69.9326 63.2559 70.1499 63.7734 70.5308 64.1543C70.9165 64.5352 71.3999 64.7256 71.981 64.7256C72.7964 64.7256 73.4604 64.396 73.9731 63.7368L74.9326 64.6523C74.6152 65.126 74.1904 65.4946 73.6582 65.7583C73.1309 66.0171 72.5376 66.1465 71.8784 66.1465ZM71.666 59.3569C71.1777 59.3569 70.7822 59.5278 70.4795 59.8696C70.1816 60.2114 69.9912 60.6875 69.9082 61.2979H73.2993V61.166C73.2603 60.5703 73.1016 60.1211 72.8232 59.8184C72.5449 59.5107 72.1592 59.3569 71.666 59.3569ZM80.5942 59.7012C80.3599 59.6621 80.1182 59.6426 79.8691 59.6426C79.0537 59.6426 78.5044 59.9551 78.2212 60.5801V66H76.4414V58.0752H78.1406L78.1846 58.9614C78.6143 58.2729 79.21 57.9287 79.9717 57.9287C80.2256 57.9287 80.4355 57.9629 80.6016 58.0312L80.5942 59.7012ZM87.1274 58.0752L87.1787 58.9028C87.7354 58.2534 88.4971 57.9287 89.4639 57.9287C90.5234 57.9287 91.2485 58.334 91.6392 59.1445C92.2153 58.334 93.0259 57.9287 94.0708 57.9287C94.9448 57.9287 95.5942 58.1704 96.019 58.6538C96.4487 59.1372 96.6685 59.8501 96.6782 60.7925V66H94.8984V60.8438C94.8984 60.3408 94.7886 59.9722 94.5688 59.7378C94.3491 59.5034 93.9854 59.3862 93.4775 59.3862C93.0723 59.3862 92.7402 59.4961 92.4814 59.7158C92.2275 59.9307 92.0493 60.2139 91.9468 60.5654L91.9541 66H90.1743V60.7852C90.1499 59.8525 89.6738 59.3862 88.7461 59.3862C88.0332 59.3862 87.5278 59.6768 87.23 60.2578V66H85.4502V58.0752H87.1274ZM101.996 66.1465C100.868 66.1465 99.9521 65.7925 99.249 65.0845C98.5508 64.3716 98.2017 63.4243 98.2017 62.2427V62.0229C98.2017 61.2319 98.353 60.5264 98.6558 59.9062C98.9634 59.2812 99.3931 58.7954 99.9448 58.4487C100.497 58.1021 101.112 57.9287 101.791 57.9287C102.87 57.9287 103.702 58.2729 104.288 58.9614C104.879 59.6499 105.174 60.624 105.174 61.8838V62.6016H99.9961C100.05 63.2559 100.267 63.7734 100.648 64.1543C101.034 64.5352 101.517 64.7256 102.098 64.7256C102.914 64.7256 103.578 64.396 104.09 63.7368L105.05 64.6523C104.732 65.126 104.308 65.4946 103.775 65.7583C103.248 66.0171 102.655 66.1465 101.996 66.1465ZM101.783 59.3569C101.295 59.3569 100.899 59.5278 100.597 59.8696C100.299 60.2114 100.108 60.6875 100.025 61.2979H103.417V61.166C103.377 60.5703 103.219 60.1211 102.94 59.8184C102.662 59.5107 102.276 59.3569 101.783 59.3569ZM106.229 61.979C106.229 60.7583 106.512 59.7793 107.079 59.042C107.645 58.2998 108.404 57.9287 109.356 57.9287C110.196 57.9287 110.875 58.2217 111.393 58.8076V54.75H113.172V66H111.561L111.473 65.1797C110.941 65.8242 110.23 66.1465 109.342 66.1465C108.414 66.1465 107.662 65.7729 107.086 65.0259C106.515 64.2788 106.229 63.2632 106.229 61.979ZM108.009 62.1328C108.009 62.9385 108.163 63.5684 108.47 64.0225C108.783 64.4717 109.225 64.6963 109.796 64.6963C110.523 64.6963 111.056 64.3716 111.393 63.7222V60.3384C111.065 59.7036 110.538 59.3862 109.811 59.3862C109.234 59.3862 108.79 59.6157 108.478 60.0747C108.165 60.5288 108.009 61.2148 108.009 62.1328ZM116.922 66H115.143V58.0752H116.922V66ZM115.033 56.0171C115.033 55.7437 115.118 55.5166 115.289 55.3359C115.465 55.1553 115.714 55.0649 116.036 55.0649C116.358 55.0649 116.607 55.1553 116.783 55.3359C116.959 55.5166 117.047 55.7437 117.047 56.0171C117.047 56.2856 116.959 56.5103 116.783 56.6909C116.607 56.8667 116.358 56.9546 116.036 56.9546C115.714 56.9546 115.465 56.8667 115.289 56.6909C115.118 56.5103 115.033 56.2856 115.033 56.0171ZM122.123 64.7256C122.567 64.7256 122.936 64.5962 123.229 64.3374C123.521 64.0786 123.678 63.7588 123.697 63.3779H125.375C125.355 63.8711 125.201 64.3325 124.913 64.7622C124.625 65.187 124.234 65.5239 123.741 65.7729C123.248 66.022 122.716 66.1465 122.145 66.1465C121.036 66.1465 120.157 65.7876 119.508 65.0698C118.858 64.3521 118.534 63.3608 118.534 62.0962V61.9131C118.534 60.707 118.856 59.7427 119.5 59.02C120.145 58.2925 121.024 57.9287 122.137 57.9287C123.08 57.9287 123.846 58.2046 124.437 58.7563C125.033 59.3032 125.345 60.0234 125.375 60.917H123.697C123.678 60.4629 123.521 60.0894 123.229 59.7964C122.94 59.5034 122.572 59.3569 122.123 59.3569C121.546 59.3569 121.102 59.5669 120.79 59.9868C120.477 60.4019 120.318 61.0342 120.313 61.8838V62.1694C120.313 63.0288 120.467 63.6709 120.775 64.0957C121.087 64.5156 121.537 64.7256 122.123 64.7256ZM131.454 66C131.375 65.8486 131.307 65.6021 131.249 65.2603C130.682 65.8511 129.989 66.1465 129.168 66.1465C128.373 66.1465 127.723 65.9194 127.22 65.4653C126.717 65.0112 126.466 64.4497 126.466 63.7808C126.466 62.936 126.778 62.2891 127.403 61.8398C128.033 61.3857 128.932 61.1587 130.099 61.1587H131.19V60.6387C131.19 60.2285 131.075 59.9014 130.846 59.6572C130.616 59.4082 130.267 59.2837 129.798 59.2837C129.393 59.2837 129.061 59.3862 128.802 59.5913C128.543 59.7915 128.414 60.0479 128.414 60.3604H126.634C126.634 59.9258 126.778 59.5205 127.066 59.1445C127.354 58.7637 127.745 58.4658 128.238 58.251C128.736 58.0361 129.291 57.9287 129.901 57.9287C130.829 57.9287 131.568 58.1631 132.12 58.6318C132.672 59.0957 132.955 59.75 132.97 60.5947V64.1689C132.97 64.8818 133.07 65.4507 133.27 65.8755V66H131.454ZM129.498 64.7183C129.85 64.7183 130.179 64.6328 130.487 64.4619C130.799 64.291 131.034 64.0615 131.19 63.7734V62.2793H130.23C129.571 62.2793 129.076 62.394 128.744 62.6235C128.412 62.853 128.246 63.1777 128.246 63.5977C128.246 63.9395 128.358 64.2129 128.583 64.418C128.812 64.6182 129.117 64.7183 129.498 64.7183ZM137.064 56.1489V58.0752H138.463V59.3936H137.064V63.8174C137.064 64.1201 137.123 64.3398 137.24 64.4766C137.362 64.6084 137.577 64.6743 137.884 64.6743C138.089 64.6743 138.297 64.6499 138.507 64.6011V65.978C138.102 66.0903 137.711 66.1465 137.335 66.1465C135.968 66.1465 135.284 65.3921 135.284 63.8833V59.3936H133.98V58.0752H135.284V56.1489H137.064ZM141.722 66H139.942V58.0752H141.722V66ZM139.833 56.0171C139.833 55.7437 139.918 55.5166 140.089 55.3359C140.265 55.1553 140.514 55.0649 140.836 55.0649C141.158 55.0649 141.407 55.1553 141.583 55.3359C141.759 55.5166 141.847 55.7437 141.847 56.0171C141.847 56.2856 141.759 56.5103 141.583 56.6909C141.407 56.8667 141.158 56.9546 140.836 56.9546C140.514 56.9546 140.265 56.8667 140.089 56.6909C139.918 56.5103 139.833 56.2856 139.833 56.0171ZM143.333 61.9644C143.333 61.188 143.487 60.4897 143.795 59.8696C144.103 59.2446 144.535 58.7661 145.091 58.4341C145.648 58.0972 146.288 57.9287 147.01 57.9287C148.08 57.9287 148.946 58.2729 149.61 58.9614C150.279 59.6499 150.641 60.563 150.694 61.7007L150.702 62.1182C150.702 62.8994 150.55 63.5977 150.248 64.2129C149.95 64.8281 149.52 65.3042 148.958 65.6411C148.402 65.978 147.757 66.1465 147.025 66.1465C145.907 66.1465 145.011 65.7754 144.337 65.0332C143.668 64.2861 143.333 63.2925 143.333 62.0522V61.9644ZM145.113 62.1182C145.113 62.9336 145.282 63.5732 145.619 64.0371C145.956 64.4961 146.424 64.7256 147.025 64.7256C147.625 64.7256 148.092 64.4912 148.424 64.0225C148.761 63.5537 148.929 62.8677 148.929 61.9644C148.929 61.1636 148.756 60.5288 148.409 60.0601C148.067 59.5913 147.601 59.3569 147.01 59.3569C146.429 59.3569 145.968 59.5889 145.626 60.0527C145.284 60.5117 145.113 61.2002 145.113 62.1182ZM153.858 58.0752L153.91 58.9907C154.496 58.2827 155.265 57.9287 156.217 57.9287C157.867 57.9287 158.707 58.8735 158.736 60.7632V66H156.957V60.8657C156.957 60.3628 156.847 59.9917 156.627 59.7524C156.412 59.5083 156.058 59.3862 155.565 59.3862C154.847 59.3862 154.312 59.7109 153.961 60.3604V66H152.181V58.0752H153.858ZM164.999 63.8467C164.999 63.5293 164.867 63.2876 164.603 63.1216C164.344 62.9556 163.912 62.8091 163.307 62.6821C162.701 62.5552 162.196 62.394 161.791 62.1987C160.902 61.769 160.458 61.1465 160.458 60.3311C160.458 59.6475 160.746 59.0762 161.322 58.6172C161.898 58.1582 162.63 57.9287 163.519 57.9287C164.466 57.9287 165.23 58.1631 165.812 58.6318C166.397 59.1006 166.69 59.7085 166.69 60.4556H164.911C164.911 60.1138 164.784 59.8306 164.53 59.606C164.276 59.3765 163.939 59.2617 163.519 59.2617C163.128 59.2617 162.809 59.3521 162.56 59.5327C162.315 59.7134 162.193 59.9551 162.193 60.2578C162.193 60.5312 162.308 60.7437 162.538 60.895C162.767 61.0464 163.231 61.2002 163.929 61.3564C164.627 61.5078 165.174 61.6909 165.57 61.9058C165.97 62.1157 166.266 62.3696 166.456 62.6675C166.651 62.9653 166.749 63.3267 166.749 63.7515C166.749 64.4644 166.454 65.043 165.863 65.4873C165.272 65.9268 164.498 66.1465 163.541 66.1465C162.892 66.1465 162.313 66.0293 161.805 65.7949C161.297 65.5605 160.902 65.2383 160.619 64.8281C160.335 64.418 160.194 63.9761 160.194 63.5024H161.922C161.947 63.9224 162.105 64.2471 162.398 64.4766C162.691 64.7012 163.08 64.8135 163.563 64.8135C164.032 64.8135 164.388 64.7256 164.632 64.5498C164.876 64.3691 164.999 64.1348 164.999 63.8467Z" fill="#ED2771"/>
</svg>
