<svg xmlns="http://www.w3.org/2000/svg" width="503.481" height="503.089" viewBox="0 0 503.481 503.089"><g transform="matrix(0.695, 0.719, -0.719, 0.695, 294.984, -587.16)"><path d="M735.465,489.524s-69.618-18.639-110.236,14.759a76.215,76.215,0,0,0-12.193,12.795,77.027,77.027,0,0,0-4.27-17.214C589.992,450.52,520.4,431.781,520.4,431.781s-39.154,61.262-20.383,110.608a76.247,76.247,0,0,0,8.239,15.662,74.613,74.613,0,0,0-17.511-1.178c-52.217,2.9-91.46,64.11-91.46,64.11s45.418,56.5,97.638,53.6a74.8,74.8,0,0,0,17.284-3.114,77.1,77.1,0,0,0-6.552,16.485c-13.5,51.139,31.842,107.707,31.842,107.707s67.228-26.344,80.726-77.483a77.169,77.169,0,0,0,2.445-17.589,75.4,75.4,0,0,0,13.462,11.368c43.874,28.7,111.139,2.458,111.139,2.458s-3.87-72.784-47.746-101.486a74.765,74.765,0,0,0-15.772-7.756,75.4,75.4,0,0,0,14.869-9.46c40.616-33.4,36.848-106.187,36.848-106.187" transform="translate(0 0)" fill="#fffcfe"/><path d="M455.217,588.361a.229.229,0,0,1-.139.34l-2.655,1.126a.229.229,0,0,1-.34-.136l-1.208-2.848a.785.785,0,0,1-.022-.582l1.405-3.138a.6.6,0,0,1,.3-.355q.237-.1.351.162Zm9.209-12.886a.228.228,0,0,1,.136-.34l2.873-1.221a.229.229,0,0,1,.338.139l1.555,3.659a1.358,1.358,0,0,0,.916.728,2.317,2.317,0,0,0,1.449-.208l.455-.193a.9.9,0,0,1,.86.03,2.106,2.106,0,0,1,.708,1q.617,1.462-.338,1.867a6.1,6.1,0,0,1-1.336.411,2.071,2.071,0,0,1-1.252-.188l.091.214a6.957,6.957,0,0,1,.626,2.77,5.088,5.088,0,0,1-.535,2.289,5.638,5.638,0,0,1-1.5,1.819,9.555,9.555,0,0,1-4.727,2.007,5.885,5.885,0,0,1-2.371-.18,5.157,5.157,0,0,1-2.077-1.206,6.856,6.856,0,0,1-1.592-2.388,10.147,10.147,0,0,1-.7-2.611,9.272,9.272,0,0,1,0-2.683c.022-.123.132-.2.327-.223l2.938-.26a.2.2,0,0,1,.188.076.326.326,0,0,1,.039.195,13.537,13.537,0,0,0,.02,1.769,6.317,6.317,0,0,0,.513,2.012,3.984,3.984,0,0,0,.84,1.31,2.775,2.775,0,0,0,1.029.665,2.578,2.578,0,0,0,1.1.139,3.524,3.524,0,0,0,1.059-.266,2.839,2.839,0,0,0,1.624-1.494,3.2,3.2,0,0,0-.225-2.46Zm-4.556-.494a.231.231,0,0,1-.342-.139l-.994-2.343a.232.232,0,0,1,.136-.342l2.967-1.258a.229.229,0,0,1,.34.136l1,2.345a.229.229,0,0,1-.139.34Zm13.256-5.543a.229.229,0,0,1,.136-.34l2.873-1.219a.23.23,0,0,1,.34.139l2.395,5.643a1.358,1.358,0,0,0,.916.727,2.335,2.335,0,0,0,1.451-.206l.55-.234a.891.891,0,0,1,.86.03,2.109,2.109,0,0,1,.706,1q.62,1.458-.338,1.864a5.6,5.6,0,0,1-1.669.455,2.216,2.216,0,0,1-1.537-.5,1.935,1.935,0,0,1-.712,1.459,8.434,8.434,0,0,1-1.964,1.089l-2.464,1.046a.94.94,0,0,1-.844,0,2.029,2.029,0,0,1-.71-1.009,2.314,2.314,0,0,1-.26-1.245.887.887,0,0,1,.587-.645l1.483-.63c.509-.216.767-.5.769-.849a4.573,4.573,0,0,0-.455-1.6Zm4.749,15.374a.231.231,0,0,1-.342-.138l-.994-2.343a.231.231,0,0,1,.136-.342l2.393-1.016a.229.229,0,0,1,.34.139l1,2.345a.229.229,0,0,1-.139.34Zm3.683-1.563a.231.231,0,0,1-.342-.139l-.994-2.343a.232.232,0,0,1,.136-.342l2.417-1.024a.228.228,0,0,1,.34.136l1,2.345a.229.229,0,0,1-.139.34Zm2.679-6.925a1.368,1.368,0,0,1-.79.139c-.206-.045-.381-.234-.522-.57a4.082,4.082,0,0,1-.214-.671,4.233,4.233,0,0,1-.117-.741,1.779,1.779,0,0,1,.063-.648.6.6,0,0,1,.351-.4l.838-.357a1.294,1.294,0,0,0,.756-.645,1.518,1.518,0,0,0-.145-1.109l-2.408-5.669a.229.229,0,0,1,.139-.34l2.919-1.239a.228.228,0,0,1,.34.136l2.893,6.817a3.688,3.688,0,0,1,.325,2.559,2.992,2.992,0,0,1-1.843,1.644Zm3.937,4.088a.231.231,0,0,1-.342-.139l-.994-2.343a.232.232,0,0,1,.136-.342l2.967-1.258a.231.231,0,0,1,.342.139l.994,2.343a.229.229,0,0,1-.139.34Zm8.757-9.759a.227.227,0,0,1-.134.34l-2.873,1.221a.23.23,0,0,1-.34-.139l-6.7-15.787a.23.23,0,0,1,.136-.34l2.873-1.219a.229.229,0,0,1,.34.139Zm5.125,3.893a.229.229,0,0,1-.34-.137l-1.026-2.417a.229.229,0,0,1,.139-.34l.526-.223a1.886,1.886,0,0,0,1.187-1.1,2.568,2.568,0,0,0-.232-1.709l-4.162-9.807a.227.227,0,0,1,.136-.34l2.919-1.239a.23.23,0,0,1,.34.139l4.214,9.926a5.447,5.447,0,0,1,.394,4.123,5.1,5.1,0,0,1-2.995,2.655Zm.851-25.06a.229.229,0,0,1,.136-.34l2.873-1.221a.231.231,0,0,1,.34.139l5.037,11.864a1.518,1.518,0,0,0,.7.877,1.3,1.3,0,0,0,.99-.1l.647-.273a.883.883,0,0,1,.864.041,2.307,2.307,0,0,1,.732,1.059,2.03,2.03,0,0,1,.249,1.221.982.982,0,0,1-.617.572l-2.365,1a2.958,2.958,0,0,1-2.447.178,3.7,3.7,0,0,1-1.611-2.012Zm17.778,9.956a2.093,2.093,0,0,1-.715,1.444,7.52,7.52,0,0,1-1.912,1.081l-1.914.812a1.423,1.423,0,0,1-.782.149c-.2-.037-.381-.229-.53-.58a5.587,5.587,0,0,1-.236-.691,3.216,3.216,0,0,1-.117-.741,1.738,1.738,0,0,1,.093-.645.692.692,0,0,1,.392-.407l.79-.333q.741-.315.767-.821a4.143,4.143,0,0,0-.431-1.581l-2.133-5.024c-.054-.128.03-.249.256-.362s.424-.21.6-.284l2.2-.933a.231.231,0,0,1,.342.136l2.395,5.645a1.358,1.358,0,0,0,.916.728,2.325,2.325,0,0,0,1.451-.208l.55-.234a.9.9,0,0,1,.86.03,2.117,2.117,0,0,1,.706,1q.62,1.458-.338,1.864a5.6,5.6,0,0,1-1.669.455A2.243,2.243,0,0,1,520.684,559.442Zm-.292,7.293a.229.229,0,0,1-.34-.139l-1-2.343a.231.231,0,0,1,.139-.342l2.966-1.258a.229.229,0,0,1,.34.139l.994,2.343a.228.228,0,0,1-.136.34Zm4.6-7.713a1.359,1.359,0,0,1-.788.139c-.206-.046-.381-.234-.522-.569a4.019,4.019,0,0,1-.214-.671,4.227,4.227,0,0,1-.117-.741,1.788,1.788,0,0,1,.063-.647.6.6,0,0,1,.351-.4l.838-.355a1.3,1.3,0,0,0,.756-.647,1.51,1.51,0,0,0-.147-1.109l-5.034-11.864a.23.23,0,0,1,.137-.34l2.919-1.239a.229.229,0,0,1,.34.137l5.524,13.014a3.683,3.683,0,0,1,.325,2.557,3,3,0,0,1-1.845,1.644Zm12.7-5.671a.227.227,0,0,1-.134.34l-2.876,1.221a.228.228,0,0,1-.338-.139l-6.7-15.787a.23.23,0,0,1,.136-.34l2.873-1.219a.23.23,0,0,1,.34.139Zm16.073-15.8a.229.229,0,0,1,.136-.34l2.873-1.221a.231.231,0,0,1,.34.139l1.553,3.659a1.358,1.358,0,0,0,.916.728,2.337,2.337,0,0,0,1.451-.206l.455-.195a.9.9,0,0,1,.86.03,2.116,2.116,0,0,1,.706,1q.62,1.459-.338,1.864a6.083,6.083,0,0,1-1.336.411,2.063,2.063,0,0,1-1.249-.188l.091.214a6.962,6.962,0,0,1,.626,2.769,5.087,5.087,0,0,1-.537,2.289,5.694,5.694,0,0,1-1.494,1.821,9.21,9.21,0,0,1-2.239,1.33,9.065,9.065,0,0,1-2.488.676,5.938,5.938,0,0,1-2.373-.178,5.165,5.165,0,0,1-2.074-1.208,6.837,6.837,0,0,1-1.591-2.388,10.155,10.155,0,0,1-.7-2.609,9.363,9.363,0,0,1,0-2.685c.024-.121.132-.2.329-.223l2.938-.26a.193.193,0,0,1,.186.076.326.326,0,0,1,.041.195,13.209,13.209,0,0,0,.017,1.771,6.283,6.283,0,0,0,.515,2.012,3.964,3.964,0,0,0,.838,1.308,2.787,2.787,0,0,0,1.031.665,2.569,2.569,0,0,0,1.1.139,3.522,3.522,0,0,0,1.059-.266,2.827,2.827,0,0,0,1.624-1.494,3.172,3.172,0,0,0-.225-2.458Zm-4.556-.494a.229.229,0,0,1-.34-.139l-1-2.343a.231.231,0,0,1,.138-.342l2.967-1.258a.229.229,0,0,1,.34.139l.994,2.343a.228.228,0,0,1-.136.34Zm22.249,2.44a8.73,8.73,0,0,1-2.475.669,4.123,4.123,0,0,1-2.267-.379,2.614,2.614,0,0,1-.47,1.061,4.662,4.662,0,0,1-.734.764,4.328,4.328,0,0,1-.821.531c-.279.139-.531.253-.753.349a.926.926,0,0,1-.851-.007,2.027,2.027,0,0,1-.706-1,2.32,2.32,0,0,1-.264-1.258.9.9,0,0,1,.591-.632l.7-.294a1.481,1.481,0,0,0,.786-.87,2.761,2.761,0,0,0-.219-1.91l-.2-.479a6.108,6.108,0,0,1-.563-2.557,4.46,4.46,0,0,1,.526-2.029,4.855,4.855,0,0,1,1.332-1.527,8.814,8.814,0,0,1,1.877-1.078,8.178,8.178,0,0,1,2.124-.591,4.729,4.729,0,0,1,2.066.167A4.657,4.657,0,0,1,573,529.6a7.454,7.454,0,0,1,1.544,2.436,7.078,7.078,0,0,1,.637,2.638,4.494,4.494,0,0,1-.429,2.087,4.578,4.578,0,0,1-1.308,1.585A8.7,8.7,0,0,1,571.455,539.5Zm-.314-6.163q-1.026-2.413-2.986-1.583-1.988.845-.961,3.259a3.038,3.038,0,0,0,1.31,1.689,2.091,2.091,0,0,0,1.711-.093,2.046,2.046,0,0,0,1.256-1.167,3.143,3.143,0,0,0-.329-2.1Zm13.1,4.322a.229.229,0,0,1-.34-.139l-.214-.5a.23.23,0,0,1,.139-.34L589.9,534.1a.23.23,0,0,1,.34.136l.214.5a.231.231,0,0,1-.139.342Zm.7,1.65a.231.231,0,0,1-.342-.139l-.2-.479a.229.229,0,0,1,.136-.34l6.076-2.579a.229.229,0,0,1,.34.139l.2.476a.231.231,0,0,1-.136.342Zm2.144-12.908c.022-.121.132-.2.327-.223l2.938-.26a.2.2,0,0,1,.188.076.31.31,0,0,1,.039.195,13.624,13.624,0,0,0,.02,1.771,6.287,6.287,0,0,0,.515,2.012,3.964,3.964,0,0,0,.838,1.308,2.78,2.78,0,0,0,1.028.665,2.58,2.58,0,0,0,1.1.139,3.526,3.526,0,0,0,1.059-.266,2.808,2.808,0,0,0,1.617-1.5,3.192,3.192,0,0,0-.219-2.447l-6.52-15.357a.229.229,0,0,1,.136-.34l2.873-1.219a.229.229,0,0,1,.34.139l6.578,15.5a6.963,6.963,0,0,1,.626,2.77,5.083,5.083,0,0,1-.535,2.289,5.638,5.638,0,0,1-1.5,1.819,9.554,9.554,0,0,1-4.727,2.007,5.92,5.92,0,0,1-2.371-.178,5.185,5.185,0,0,1-2.076-1.208,6.838,6.838,0,0,1-1.592-2.388,10.155,10.155,0,0,1-.7-2.611A9.271,9.271,0,0,1,587.082,526.4Zm10.376-17.05a.228.228,0,0,1,.134-.34l2.876-1.221a.229.229,0,0,1,.338.139l5.036,11.864a1.525,1.525,0,0,0,.7.877,1.3,1.3,0,0,0,.992-.1l.645-.275a.883.883,0,0,1,.864.041,2.3,2.3,0,0,1,.732,1.059,2.013,2.013,0,0,1,.249,1.221.989.989,0,0,1-.617.574l-2.365,1a2.949,2.949,0,0,1-2.447.178,3.7,3.7,0,0,1-1.611-2.012Zm13.165,13.324a.907.907,0,0,1-.855-.017,2.034,2.034,0,0,1-.7-.987,2.35,2.35,0,0,1-.256-1.232.881.881,0,0,1,.583-.656l5.933-2.518a4.565,4.565,0,0,0,.9-.481,1.086,1.086,0,0,0,.424-.561,1.539,1.539,0,0,0,.019-.756,5.619,5.619,0,0,0-.349-1.052,4.282,4.282,0,0,0-.531-.918,2.485,2.485,0,0,0-.762-.665,2.293,2.293,0,0,0-1.007-.277,2.874,2.874,0,0,0-1.256.264,3.3,3.3,0,0,0-1.239.879,5.307,5.307,0,0,0-.78,1.219.238.238,0,0,1-.325.167l-2.133-1.1c-.2-.085-.277-.193-.223-.329a8.539,8.539,0,0,1,1.334-2.176,6.442,6.442,0,0,1,2.471-1.7,7.278,7.278,0,0,1,2.8-.652,5.1,5.1,0,0,1,2.263.478,5.03,5.03,0,0,1,1.73,1.384,8.38,8.38,0,0,1,1.223,2.048,9.608,9.608,0,0,1,.76,2.557,3.823,3.823,0,0,1-.165,1.806,2.813,2.813,0,0,1-.957,1.267,7.539,7.539,0,0,1-1.628.918Zm-1.081-14.248a.232.232,0,0,1-.342-.136l-.994-2.345a.229.229,0,0,1,.139-.34l2.964-1.26a.231.231,0,0,1,.342.139l.994,2.343a.231.231,0,0,1-.138.342Z" transform="translate(60.045 84.528)" fill="#db0055"/><path d="M469.656,593.227a1.337,1.337,0,0,0,.78-.656,1.52,1.52,0,0,0-.147-1.109l-2.406-5.669a.231.231,0,0,1,.139-.342l2.917-1.239a.231.231,0,0,1,.342.139l2.893,6.817a3.673,3.673,0,0,1,.323,2.559,3.057,3.057,0,0,1-1.89,1.663l-12.414,5.268a2.981,2.981,0,0,1-2.462.184,3.668,3.668,0,0,1-1.615-2.009l-2.243-5.286a.229.229,0,0,1,.136-.34l2.919-1.238a.228.228,0,0,1,.34.136l1.758,4.138a1.517,1.517,0,0,0,.7.877,1.3,1.3,0,0,0,.99-.1l8.947-3.8Zm-11.009-4.982a.23.23,0,0,1-.34-.136l-.994-2.345a.227.227,0,0,1,.136-.34l2.393-1.016a.23.23,0,0,1,.34.136l1,2.345a.229.229,0,0,1-.139.34Zm3.685-1.563a.231.231,0,0,1-.342-.139L461,584.2a.228.228,0,0,1,.137-.34l2.416-1.026a.229.229,0,0,1,.34.139l1,2.343a.229.229,0,0,1-.139.34Zm10.145-10.149a.227.227,0,0,1,.134-.34l2.876-1.221a.229.229,0,0,1,.338.139l5.037,11.864a1.524,1.524,0,0,0,.7.877,1.3,1.3,0,0,0,.99-.1l.648-.275a.888.888,0,0,1,.864.041,2.306,2.306,0,0,1,.732,1.059,2.029,2.029,0,0,1,.249,1.221.988.988,0,0,1-.617.574l-2.365,1a2.949,2.949,0,0,1-2.447.178A3.7,3.7,0,0,1,478,589.543Zm10.136-.126a.229.229,0,0,1-.34-.139l-1-2.343a.231.231,0,0,1,.139-.342l2.966-1.258a.229.229,0,0,1,.34.139l1,2.343a.231.231,0,0,1-.139.342Zm3.1,13.419a1.369,1.369,0,0,1-.79.138c-.206-.046-.381-.234-.522-.569a4.014,4.014,0,0,1-.214-.671,4.234,4.234,0,0,1-.117-.741,1.79,1.79,0,0,1,.063-.647.6.6,0,0,1,.351-.4l.838-.355a1.3,1.3,0,0,0,.756-.645,1.522,1.522,0,0,0-.145-1.111l-2.408-5.669a.229.229,0,0,1,.139-.34l2.917-1.239a.231.231,0,0,1,.342.136l2.893,6.819a3.681,3.681,0,0,1,.325,2.557,3,3,0,0,1-1.843,1.643Zm13.2.184a.23.23,0,0,1-.34-.139l-1.026-2.417a.229.229,0,0,1,.139-.34l2.75-1.167a4.686,4.686,0,0,0,.862-.466,1.626,1.626,0,0,0,.53-.578,1.468,1.468,0,0,0,.147-.782,3.243,3.243,0,0,0-.288-1.078l-2.3.974a5.667,5.667,0,0,1-4.077.4q-1.731-.591-2.891-3.317a7.239,7.239,0,0,1-.652-2.771,5.037,5.037,0,0,1,.453-2.2,4.88,4.88,0,0,1,1.282-1.646,7.258,7.258,0,0,1,1.834-1.115,8.149,8.149,0,0,1,2.124-.591,4.669,4.669,0,0,1,2.048.16,4.516,4.516,0,0,1,1.841,1.167,7.49,7.49,0,0,1,1.509,2.393l.944,2.224,1.628-.691q.955-.406,1.566,1.031a2.219,2.219,0,0,1,.275,1.28.973.973,0,0,1-.613.585l-1.626.691.193.455a4.83,4.83,0,0,1,.277,3.833,5.425,5.425,0,0,1-3.1,2.616Zm.561-12.18q-1-2.368-2.9-1.566a1.9,1.9,0,0,0-1.187,1.295,3.161,3.161,0,0,0,.258,2.035q.559,1.316,1.308,1.52a2.5,2.5,0,0,0,1.659-.182l1.843-.782-.985-2.321Zm3.545-14.263a.227.227,0,0,1,.136-.34l2.919-1.239a.23.23,0,0,1,.34.136l5.026,11.84a1.356,1.356,0,0,0,.909.745,2.391,2.391,0,0,0,1.457-.225l.55-.234a.9.9,0,0,1,.86.03,2.118,2.118,0,0,1,.706,1q.62,1.459-.338,1.864a5.593,5.593,0,0,1-1.669.455,2.24,2.24,0,0,1-1.54-.5,2.05,2.05,0,0,1-.641,1.386,6.005,6.005,0,0,1-1.747,1.037l-2.152.914a1.36,1.36,0,0,1-.788.139c-.206-.046-.381-.234-.524-.57a4.548,4.548,0,0,1-.214-.671,4.68,4.68,0,0,1-.117-.741,1.819,1.819,0,0,1,.065-.647.6.6,0,0,1,.351-.4l.838-.357a1.366,1.366,0,0,0,.585-.416.906.906,0,0,0,.169-.567,2.439,2.439,0,0,0-.158-.736c-.1-.279-.223-.593-.372-.944Zm21.255,10.088a8.736,8.736,0,0,1-2.473.669,4.117,4.117,0,0,1-2.267-.379,2.22,2.22,0,0,1-.4.987,3.771,3.771,0,0,1-.73.775,5.019,5.019,0,0,1-.849.559c-.292.154-.559.279-.8.381a.914.914,0,0,1-.849-.007,2.026,2.026,0,0,1-.706-1,2.449,2.449,0,0,1-.273-1.238.88.88,0,0,1,.6-.65l.693-.295a1.473,1.473,0,0,0,.8-.877,2.825,2.825,0,0,0-.232-1.906l-.2-.478a5.194,5.194,0,0,1-.193-4.253,5.984,5.984,0,0,1,3.365-2.938,5.878,5.878,0,0,1,4.432-.286,5.808,5.808,0,0,1,3.17,3.467c.048.113.089.221.126.329s.074.208.115.3a1.772,1.772,0,0,0,.946.968,1.6,1.6,0,0,0,1.187-.065l.693-.294a.892.892,0,0,1,.86.03,2.11,2.11,0,0,1,.706,1q.62,1.458-.338,1.864c-.286.121-.587.236-.9.34a4.037,4.037,0,0,1-.959.2,3.284,3.284,0,0,1-.994-.074,2.709,2.709,0,0,1-1-.465,4.131,4.131,0,0,1-1.3,1.975A8.483,8.483,0,0,1,524.276,573.654Zm-.31-6.163q-1.026-2.417-2.988-1.585t-.935,3.25a3.1,3.1,0,0,0,1.3,1.693A2.5,2.5,0,0,0,524.3,569.6a3.14,3.14,0,0,0-.329-2.1Zm8.843,2.343a1.347,1.347,0,0,1-.79.136c-.206-.043-.381-.232-.522-.567a4.094,4.094,0,0,1-.214-.671,4.234,4.234,0,0,1-.117-.741,1.78,1.78,0,0,1,.063-.647.606.606,0,0,1,.351-.4l.838-.355a1.3,1.3,0,0,0,.756-.645,1.51,1.51,0,0,0-.147-1.109l-5.034-11.864a.229.229,0,0,1,.136-.34l2.919-1.239a.228.228,0,0,1,.34.136l5.524,13.012a3.689,3.689,0,0,1,.325,2.559,3,3,0,0,1-1.843,1.644Zm12.693-5.671a.227.227,0,0,1-.134.34l-2.875,1.219a.228.228,0,0,1-.338-.138l-6.7-15.785a.23.23,0,0,1,.137-.34l2.873-1.219a.229.229,0,0,1,.34.139Zm16.073-15.8a.229.229,0,0,1,.136-.34l2.873-1.221a.231.231,0,0,1,.34.138l1.552,3.659a1.358,1.358,0,0,0,.916.728,2.323,2.323,0,0,0,1.451-.208l.455-.193a.9.9,0,0,1,.86.03,2.121,2.121,0,0,1,.706,1q.62,1.462-.338,1.867a6.081,6.081,0,0,1-1.336.411,2.064,2.064,0,0,1-1.249-.188l.091.214a6.956,6.956,0,0,1,.626,2.769,5.093,5.093,0,0,1-.537,2.289,5.659,5.659,0,0,1-1.494,1.819,9.576,9.576,0,0,1-4.727,2.007,5.935,5.935,0,0,1-2.373-.18,5.135,5.135,0,0,1-2.074-1.206,6.858,6.858,0,0,1-1.592-2.389,10.145,10.145,0,0,1-.7-2.611,9.35,9.35,0,0,1,0-2.683c.024-.123.132-.2.329-.223l2.938-.26a.193.193,0,0,1,.186.076.326.326,0,0,1,.041.195,13.186,13.186,0,0,0,.017,1.769,6.27,6.27,0,0,0,.515,2.012,3.952,3.952,0,0,0,.838,1.31,2.791,2.791,0,0,0,1.031.665,2.571,2.571,0,0,0,1.1.139,3.585,3.585,0,0,0,1.059-.266A2.833,2.833,0,0,0,564.849,558a3.176,3.176,0,0,0-.225-2.46Zm-4.556-.494a.229.229,0,0,1-.34-.139l-1-2.343a.231.231,0,0,1,.139-.342l2.967-1.258a.23.23,0,0,1,.34.136l.994,2.345a.228.228,0,0,1-.136.34Zm22.249,2.438a8.732,8.732,0,0,1-2.475.671,4.144,4.144,0,0,1-2.267-.379,2.625,2.625,0,0,1-.47,1.061,4.559,4.559,0,0,1-.734.762,4.349,4.349,0,0,1-.821.533c-.279.136-.531.253-.754.349a.931.931,0,0,1-.851-.007,2.046,2.046,0,0,1-.706-1,2.313,2.313,0,0,1-.264-1.256.905.905,0,0,1,.591-.632l.7-.294a1.493,1.493,0,0,0,.786-.871,2.768,2.768,0,0,0-.219-1.912l-.2-.478a6.1,6.1,0,0,1-.563-2.555,4.452,4.452,0,0,1,.526-2.029,4.832,4.832,0,0,1,1.332-1.527,8.809,8.809,0,0,1,1.877-1.078,8.179,8.179,0,0,1,2.124-.591,4.511,4.511,0,0,1,3.935,1.336,7.458,7.458,0,0,1,1.544,2.436,7.08,7.08,0,0,1,.637,2.635,4.5,4.5,0,0,1-.429,2.09,4.577,4.577,0,0,1-1.308,1.585A8.615,8.615,0,0,1,579.27,550.309Zm-.314-6.16q-1.026-2.417-2.986-1.583-1.988.841-.961,3.259a3.039,3.039,0,0,0,1.31,1.687,2.1,2.1,0,0,0,1.711-.091,2.046,2.046,0,0,0,1.256-1.167,3.144,3.144,0,0,0-.329-2.1Zm13.1,4.32a.229.229,0,0,1-.34-.137l-.212-.5a.23.23,0,0,1,.136-.342l6.076-2.579a.229.229,0,0,1,.34.139l.214.5a.229.229,0,0,1-.139.34Zm.7,1.652a.23.23,0,0,1-.34-.139l-.2-.479a.228.228,0,0,1,.136-.34l6.076-2.579a.228.228,0,0,1,.34.136l.2.479a.232.232,0,0,1-.136.342Zm2.144-12.908c.022-.123.132-.2.327-.225l2.938-.258a.2.2,0,0,1,.188.076.327.327,0,0,1,.039.195,13.554,13.554,0,0,0,.019,1.769,6.326,6.326,0,0,0,.513,2.011,3.991,3.991,0,0,0,.84,1.31,2.781,2.781,0,0,0,1.029.665,2.616,2.616,0,0,0,1.1.139,3.657,3.657,0,0,0,1.059-.266,2.81,2.81,0,0,0,1.617-1.507,3.193,3.193,0,0,0-.219-2.447l-6.52-15.355a.229.229,0,0,1,.136-.34l2.873-1.221a.23.23,0,0,1,.34.139l6.578,15.5a6.956,6.956,0,0,1,.626,2.77,5.09,5.09,0,0,1-.535,2.289,5.637,5.637,0,0,1-1.5,1.819,9.556,9.556,0,0,1-4.727,2.007,5.922,5.922,0,0,1-2.371-.18,5.155,5.155,0,0,1-2.077-1.206,6.857,6.857,0,0,1-1.592-2.388,10.144,10.144,0,0,1-.7-2.611A9.269,9.269,0,0,1,594.9,537.214Zm10.377-17.052a.227.227,0,0,1,.134-.338l2.876-1.221a.229.229,0,0,1,.338.139l5.037,11.864a1.514,1.514,0,0,0,.7.875,1.3,1.3,0,0,0,.992-.1l.645-.273a.882.882,0,0,1,.864.041,2.3,2.3,0,0,1,.732,1.059,2.012,2.012,0,0,1,.249,1.221.981.981,0,0,1-.617.572l-2.365,1a2.957,2.957,0,0,1-2.447.177,3.7,3.7,0,0,1-1.611-2.012Zm13.165,13.326a.907.907,0,0,1-.855-.017,2.047,2.047,0,0,1-.7-.987,2.352,2.352,0,0,1-.255-1.232.877.877,0,0,1,.582-.656l5.933-2.518a4.56,4.56,0,0,0,.9-.481,1.085,1.085,0,0,0,.424-.561,1.539,1.539,0,0,0,.019-.756,5.627,5.627,0,0,0-.349-1.052,4.206,4.206,0,0,0-.531-.918,2.484,2.484,0,0,0-.762-.665,2.293,2.293,0,0,0-1.007-.277,2.877,2.877,0,0,0-1.256.264,3.254,3.254,0,0,0-1.239.879,5.307,5.307,0,0,0-.78,1.219.24.24,0,0,1-.325.167l-2.133-1.1c-.2-.082-.277-.19-.223-.327a8.534,8.534,0,0,1,1.334-2.176,6.443,6.443,0,0,1,2.471-1.7,7.28,7.28,0,0,1,2.8-.652,5.1,5.1,0,0,1,2.263.479,5.046,5.046,0,0,1,1.73,1.381,8.439,8.439,0,0,1,1.223,2.051,9.612,9.612,0,0,1,.76,2.557,3.823,3.823,0,0,1-.165,1.806,2.814,2.814,0,0,1-.957,1.267,7.539,7.539,0,0,1-1.628.918Zm-1.08-14.248a.231.231,0,0,1-.342-.139l-.994-2.343a.232.232,0,0,1,.139-.342l2.964-1.258a.231.231,0,0,1,.342.139l.994,2.343a.229.229,0,0,1-.136.34Z" transform="translate(63.578 97.127)" fill="#db0055"/><path d="M457.359,607.846c.024-.121.132-.2.329-.223l2.938-.26a.194.194,0,0,1,.186.076.331.331,0,0,1,.041.195,13.2,13.2,0,0,0,.017,1.771,6.341,6.341,0,0,0,.515,2.012,3.975,3.975,0,0,0,.838,1.31,2.81,2.81,0,0,0,1.031.663,2.572,2.572,0,0,0,1.1.139,3.524,3.524,0,0,0,1.059-.266,2.8,2.8,0,0,0,1.62-1.5,3.185,3.185,0,0,0-.221-2.447l-3.044-7.176a.227.227,0,0,1,.134-.34l2.876-1.219a.227.227,0,0,1,.338.139l3.107,7.319a6.953,6.953,0,0,1,.626,2.767,5.084,5.084,0,0,1-.537,2.289,5.686,5.686,0,0,1-1.494,1.821,9.205,9.205,0,0,1-2.239,1.33,8.992,8.992,0,0,1-2.488.676,5.934,5.934,0,0,1-2.373-.178,5.179,5.179,0,0,1-2.074-1.208,6.835,6.835,0,0,1-1.592-2.388,10.154,10.154,0,0,1-.7-2.609A9.361,9.361,0,0,1,457.359,607.846Zm1.854-6.206a.229.229,0,0,1-.34-.139l-1-2.343a.229.229,0,0,1,.139-.34l2.966-1.26a.229.229,0,0,1,.34.139l.994,2.343a.231.231,0,0,1-.136.342Zm19.274,9.294a.231.231,0,0,1-.342-.138l-1.024-2.417a.228.228,0,0,1,.136-.34l2.752-1.167a4.665,4.665,0,0,0,.86-.466,1.629,1.629,0,0,0,.531-.578,1.491,1.491,0,0,0,.149-.782,3.348,3.348,0,0,0-.288-1.078l-2.3.974a5.668,5.668,0,0,1-4.077.4q-1.731-.591-2.889-3.317a7.235,7.235,0,0,1-.654-2.772,5,5,0,0,1,.455-2.2,4.852,4.852,0,0,1,1.282-1.646,7.248,7.248,0,0,1,1.832-1.115,8.207,8.207,0,0,1,2.124-.591,4.7,4.7,0,0,1,2.048.16,4.486,4.486,0,0,1,1.84,1.167,7.49,7.49,0,0,1,1.511,2.393l.944,2.224,1.626-.691c.636-.271,1.16.074,1.565,1.031a2.218,2.218,0,0,1,.275,1.28.967.967,0,0,1-.613.585l-1.626.691.193.455a4.826,4.826,0,0,1,.277,3.835,5.432,5.432,0,0,1-3.1,2.614Zm.561-12.18q-1.007-2.368-2.9-1.566a1.891,1.891,0,0,0-1.186,1.295,3.146,3.146,0,0,0,.258,2.035q.555,1.316,1.308,1.52a2.5,2.5,0,0,0,1.659-.182l1.841-.782-.983-2.321Zm8.36,2.6a1.369,1.369,0,0,1-.79.139c-.206-.045-.381-.234-.522-.569a4.108,4.108,0,0,1-.214-.671,4.241,4.241,0,0,1-.117-.741,1.785,1.785,0,0,1,.063-.647.6.6,0,0,1,.351-.4l.838-.355a1.3,1.3,0,0,0,.756-.648,1.517,1.517,0,0,0-.145-1.109l-2.408-5.669a.229.229,0,0,1,.139-.34l2.919-1.239a.23.23,0,0,1,.34.136l2.893,6.819a3.681,3.681,0,0,1,.325,2.557,2.992,2.992,0,0,1-1.843,1.644Zm3.937,4.088a.231.231,0,0,1-.342-.139l-.994-2.343a.229.229,0,0,1,.136-.34l2.967-1.26a.231.231,0,0,1,.342.139l.994,2.343a.231.231,0,0,1-.139.342Zm-1.293-24.124a.23.23,0,0,1,.136-.34l2.873-1.219a.229.229,0,0,1,.34.139l5.037,11.864a1.5,1.5,0,0,0,.695.875,1.3,1.3,0,0,0,.99-.1l.645-.275a.892.892,0,0,1,.866.043,2.321,2.321,0,0,1,.732,1.059,2.029,2.029,0,0,1,.249,1.221,1,1,0,0,1-.617.572l-2.365,1a2.95,2.95,0,0,1-2.447.18,3.693,3.693,0,0,1-1.611-2.014ZM500.9,583.8a.229.229,0,0,1,.136-.34l2.873-1.221a.231.231,0,0,1,.34.139l.3.719a18.651,18.651,0,0,1,2.048-1.843,11.3,11.3,0,0,1,2.562-1.5,6.874,6.874,0,0,1,5.021-.5q2.1.747,3.369,3.735l.121.288a1.535,1.535,0,0,1,.089.273,1.319,1.319,0,0,0,.916.7,2.389,2.389,0,0,0,1.464-.21l.526-.225a.9.9,0,0,1,.86.03,2.116,2.116,0,0,1,.706,1q.62,1.459-.338,1.864a5.223,5.223,0,0,1-1.908.457,2.44,2.44,0,0,1-1.7-.706,2.765,2.765,0,0,1-1.007,1.853,10.141,10.141,0,0,1-2.516,1.421l-4.614,1.96c-.24.1-.494.206-.76.307a8.008,8.008,0,0,1-.777.26,3.7,3.7,0,0,1-.708.132.792.792,0,0,1-.528-.115,2.07,2.07,0,0,1-.756.814,9.432,9.432,0,0,1-1.28.643l-2.129.9a.948.948,0,0,1-.845.007,2.1,2.1,0,0,1-.721-1.035,2.331,2.331,0,0,1-.288-1.275.972.972,0,0,1,.626-.591l.957-.4a.991.991,0,0,0,.5-.394.9.9,0,0,0,.108-.541,2.846,2.846,0,0,0-.167-.691q-.136-.393-.331-.847Zm8.848-.877a9.307,9.307,0,0,0-2.222,1.338,18.967,18.967,0,0,0-1.784,1.633l1.137,2.679c.076.175.141.342.2.5s.106.308.152.459l4.751-2.018c.591-.251,1.07-.472,1.431-.663a2.176,2.176,0,0,0,.773-.613,1.033,1.033,0,0,0,.167-.775,4.962,4.962,0,0,0-.368-1.169,4.533,4.533,0,0,0-.632-1.087,2.086,2.086,0,0,0-.851-.641,2.312,2.312,0,0,0-1.167-.113A6.29,6.29,0,0,0,509.748,582.928Zm13.347,3.285a1.381,1.381,0,0,1-.79.136c-.206-.043-.381-.234-.522-.569a4.008,4.008,0,0,1-.214-.671,4.232,4.232,0,0,1-.117-.74,1.79,1.79,0,0,1,.063-.648.6.6,0,0,1,.351-.4l.838-.355a1.3,1.3,0,0,0,.756-.645,1.522,1.522,0,0,0-.145-1.111l-5.037-11.864a.229.229,0,0,1,.138-.34l2.917-1.239a.231.231,0,0,1,.342.139l5.522,13.012a3.682,3.682,0,0,1,.325,2.557,2.992,2.992,0,0,1-1.843,1.643Zm12.693-5.673a.227.227,0,0,1-.134.34L532.78,582.1a.229.229,0,0,1-.34-.139l-6.7-15.788a.228.228,0,0,1,.136-.338l2.873-1.221a.231.231,0,0,1,.34.139Zm16.076-15.8a.227.227,0,0,1,.134-.34l2.876-1.219a.227.227,0,0,1,.338.139l1.555,3.659a1.346,1.346,0,0,0,.914.725,2.335,2.335,0,0,0,1.451-.206l.455-.193a.891.891,0,0,1,.86.03,2.107,2.107,0,0,1,.706,1q.62,1.458-.338,1.864a6.1,6.1,0,0,1-1.334.411,2.069,2.069,0,0,1-1.252-.188l.091.216a6.956,6.956,0,0,1,.626,2.767,5.084,5.084,0,0,1-.537,2.289,5.66,5.66,0,0,1-1.494,1.821,9.208,9.208,0,0,1-2.239,1.33,8.985,8.985,0,0,1-2.488.675,5.92,5.92,0,0,1-2.371-.177,5.172,5.172,0,0,1-2.077-1.208,6.834,6.834,0,0,1-1.592-2.388,10.151,10.151,0,0,1-.7-2.609,9.356,9.356,0,0,1,0-2.685c.024-.121.132-.2.329-.223l2.938-.26a.2.2,0,0,1,.188.076.349.349,0,0,1,.039.195,13.231,13.231,0,0,0,.017,1.771,6.342,6.342,0,0,0,.515,2.011,4.047,4.047,0,0,0,.838,1.31,2.811,2.811,0,0,0,1.031.662,2.57,2.57,0,0,0,1.1.139,3.507,3.507,0,0,0,1.059-.266,2.826,2.826,0,0,0,1.624-1.494,3.171,3.171,0,0,0-.225-2.458Zm-4.558-.494a.23.23,0,0,1-.34-.137l-1-2.345a.229.229,0,0,1,.138-.34l2.967-1.26a.229.229,0,0,1,.34.139l1,2.343a.232.232,0,0,1-.139.342Zm22.249,2.44a8.739,8.739,0,0,1-2.473.669,4.13,4.13,0,0,1-2.269-.379,2.6,2.6,0,0,1-.47,1.061,4.577,4.577,0,0,1-.734.764,4.29,4.29,0,0,1-.818.531c-.281.138-.533.253-.756.349a.919.919,0,0,1-.851-.007,2.027,2.027,0,0,1-.706-1,2.314,2.314,0,0,1-.264-1.256.9.9,0,0,1,.591-.632l.7-.295a1.494,1.494,0,0,0,.788-.872,2.786,2.786,0,0,0-.219-1.91l-.2-.479a6.109,6.109,0,0,1-.563-2.557,4.459,4.459,0,0,1,.526-2.029,4.826,4.826,0,0,1,1.332-1.525,8.788,8.788,0,0,1,1.877-1.08,8.37,8.37,0,0,1,2.124-.591,4.729,4.729,0,0,1,2.066.169,4.651,4.651,0,0,1,1.869,1.167,7.456,7.456,0,0,1,1.544,2.436,7.14,7.14,0,0,1,.639,2.637,4.521,4.521,0,0,1-.431,2.087,4.594,4.594,0,0,1-1.306,1.585A8.686,8.686,0,0,1,569.555,566.688Zm-.314-6.162q-1.026-2.414-2.986-1.583-1.988.845-.961,3.259a3.037,3.037,0,0,0,1.31,1.689,2.1,2.1,0,0,0,1.713-.091,2.05,2.05,0,0,0,1.254-1.169,3.143,3.143,0,0,0-.329-2.1Zm13.1,4.322a.229.229,0,0,1-.34-.139l-.212-.5a.229.229,0,0,1,.137-.34L588,561.287a.229.229,0,0,1,.34.139l.214.5a.231.231,0,0,1-.139.342Zm.7,1.65a.229.229,0,0,1-.34-.139l-.2-.479a.23.23,0,0,1,.136-.34l6.076-2.579a.229.229,0,0,1,.34.138l.2.479a.23.23,0,0,1-.136.34Zm2.144-12.908c.022-.121.132-.2.327-.223l2.938-.26a.2.2,0,0,1,.188.076.325.325,0,0,1,.041.195,13.2,13.2,0,0,0,.017,1.771,6.285,6.285,0,0,0,.515,2.012,3.972,3.972,0,0,0,.838,1.31,2.8,2.8,0,0,0,1.029.663,2.583,2.583,0,0,0,1.1.139,3.525,3.525,0,0,0,1.059-.266,2.807,2.807,0,0,0,1.617-1.5,3.193,3.193,0,0,0-.219-2.447L588.12,539.7a.228.228,0,0,1,.134-.34l2.876-1.219a.227.227,0,0,1,.338.139l6.578,15.5a6.917,6.917,0,0,1,.626,2.767,5.085,5.085,0,0,1-.535,2.289,5.669,5.669,0,0,1-1.5,1.821,9.194,9.194,0,0,1-2.237,1.33,8.986,8.986,0,0,1-2.488.676,5.93,5.93,0,0,1-2.373-.178,5.183,5.183,0,0,1-2.077-1.208,6.83,6.83,0,0,1-1.589-2.388,10.065,10.065,0,0,1-.7-2.609A9.294,9.294,0,0,1,585.182,553.589Zm10.377-17.05a.228.228,0,0,1,.136-.34l2.873-1.219a.228.228,0,0,1,.338.139l5.037,11.862a1.519,1.519,0,0,0,.7.877,1.3,1.3,0,0,0,.99-.1l.645-.275a.882.882,0,0,1,.864.043,2.282,2.282,0,0,1,.732,1.059,2.032,2.032,0,0,1,.251,1.219,1,1,0,0,1-.619.574l-2.362,1a2.955,2.955,0,0,1-2.449.177,3.687,3.687,0,0,1-1.609-2.012Zm13.165,13.326a.913.913,0,0,1-.855-.019,2.036,2.036,0,0,1-.7-.987,2.349,2.349,0,0,1-.255-1.232.884.884,0,0,1,.582-.656l5.933-2.518a4.67,4.67,0,0,0,.9-.479,1.09,1.09,0,0,0,.424-.563,1.537,1.537,0,0,0,.019-.756,5.572,5.572,0,0,0-.349-1.05,4.218,4.218,0,0,0-.531-.918,2.458,2.458,0,0,0-.762-.665,2.268,2.268,0,0,0-1.007-.279,2.854,2.854,0,0,0-1.256.266,3.264,3.264,0,0,0-1.237.877,5.361,5.361,0,0,0-.782,1.221.238.238,0,0,1-.325.165l-2.131-1.1c-.206-.082-.279-.193-.225-.329a8.583,8.583,0,0,1,1.336-2.176,6.417,6.417,0,0,1,2.469-1.7,7.279,7.279,0,0,1,2.8-.652,5.145,5.145,0,0,1,2.265.479,5.091,5.091,0,0,1,1.73,1.383,8.487,8.487,0,0,1,1.221,2.049,9.716,9.716,0,0,1,.762,2.557,3.85,3.85,0,0,1-.167,1.806,2.83,2.83,0,0,1-.957,1.269,7.621,7.621,0,0,1-1.628.916Zm-1.08-14.25a.228.228,0,0,1-.34-.136l-1-2.345a.229.229,0,0,1,.138-.34l2.964-1.258a.23.23,0,0,1,.342.136l.994,2.345a.23.23,0,0,1-.136.34Zm26.984,9.04a.231.231,0,0,1-.342-.139l-1.024-2.414a.232.232,0,0,1,.136-.342l2.752-1.167a6.114,6.114,0,0,0,.836-.424,1.433,1.433,0,0,0,.713-1.347,3.271,3.271,0,0,0-.3-1.13l-1,.427a19.252,19.252,0,0,1-2.642.922,5.036,5.036,0,0,1-2.237.117,3.671,3.671,0,0,1-1.86-.987,8.7,8.7,0,0,1-2.174-5.19,4.992,4.992,0,0,1,.455-2.2,4.811,4.811,0,0,1,1.282-1.646,7.317,7.317,0,0,1,1.832-1.117,8.191,8.191,0,0,1,2.126-.591,4.706,4.706,0,0,1,2.048.16,4.517,4.517,0,0,1,1.838,1.167,7.515,7.515,0,0,1,1.511,2.393l2.367,5.574a4.833,4.833,0,0,1,.275,3.835,5.411,5.411,0,0,1-3.1,2.614Zm.561-12.178q-1.007-2.368-2.9-1.568a1.9,1.9,0,0,0-1.2,1.3,3.224,3.224,0,0,0,.271,2.031c.372.879.808,1.384,1.308,1.52a2.5,2.5,0,0,0,1.659-.182l1.843-.782-.985-2.319Z" transform="translate(67.564 111.411)" fill="#db0055"/><g transform="translate(479.866 518.191)"><path d="M457.736,510.152l-3.478,1.548-11.715-8.092,4.944,11.106-3.475,1.548L436.5,499.385l3.478-1.548,11.732,8.109-4.952-11.126,3.467-1.544Z" transform="translate(-436.498 -446.527)" fill="#db0055"/><path d="M447.013,502.612a8.221,8.221,0,0,1-.762-3.651,5.784,5.784,0,0,1,1.061-3.181,6.62,6.62,0,0,1,2.78-2.194,6.253,6.253,0,0,1,4.835-.292,6.831,6.831,0,0,1,3.67,3.421l.4.847a7.182,7.182,0,0,1,.45,5.348,6.839,6.839,0,0,1-8.651,3.859,7.29,7.29,0,0,1-3.722-4.01Zm3.454-1.256a5.146,5.146,0,0,0,1.89,2.436,2.645,2.645,0,0,0,3.831-1.693,5.617,5.617,0,0,0-.648-3.293,5.063,5.063,0,0,0-1.892-2.41,2.423,2.423,0,0,0-2.354-.106,2.391,2.391,0,0,0-1.475,1.8A5.73,5.73,0,0,0,450.467,501.357Z" transform="translate(-425.138 -446.921)" fill="#db0055"/><path d="M469.71,493.284a8.218,8.218,0,0,1,.751,5.227,4.614,4.614,0,0,1-2.774,3.324,4.28,4.28,0,0,1-3.662.048l2.633,5.911-3.352,1.494-7.728-17.366,3.105-1.381.663,1.176a4.321,4.321,0,0,1,2.527-2.876,4.656,4.656,0,0,1,4.367.113,8.429,8.429,0,0,1,3.391,4.157Zm-3.456,1.247a5.413,5.413,0,0,0-1.823-2.425,2.206,2.206,0,0,0-2.224-.147,2.4,2.4,0,0,0-1.633,2.172l2.287,5.134a2.441,2.441,0,0,0,2.743.262Q468,498.461,466.254,494.531Z" transform="translate(-414.262 -452.265)" fill="#db0055"/><path d="M474.526,498.03a4.159,4.159,0,0,1-.838-.972,4.433,4.433,0,0,1-2.562,2.761,4.875,4.875,0,0,1-3.529.3,3.77,3.77,0,0,1-2.408-2.15,3.89,3.89,0,0,1,.117-3.72,7.985,7.985,0,0,1,3.792-2.977l1.542-.689-.32-.719a2.254,2.254,0,0,0-1.065-1.189,1.924,1.924,0,0,0-1.641.1,2.2,2.2,0,0,0-1.145,1,1.51,1.51,0,0,0,.013,1.33l-3.35,1.49a3.7,3.7,0,0,1-.225-2.315,4.862,4.862,0,0,1,1.256-2.3,7.556,7.556,0,0,1,2.523-1.754,5.975,5.975,0,0,1,4.2-.474,4.461,4.461,0,0,1,2.819,2.668l2.421,5.435a6.548,6.548,0,0,0,1.7,2.479l.089.2Zm-3.809-1.1a3.158,3.158,0,0,0,1.221-.94,2.371,2.371,0,0,0,.531-1.3l-.959-2.154-1.251.557q-2.514,1.117-1.9,2.928l.076.2a1.477,1.477,0,0,0,.9.838A1.876,1.876,0,0,0,470.717,496.934Z" transform="translate(-405.83 -455.535)" fill="#db0055"/><path d="M477.149,485.906a10.456,10.456,0,0,0-1.249.444,2.682,2.682,0,0,0-1.916,2.4l3.651,8.2-3.35,1.494-5.582-12.54,3.164-1.412.76,1.453a3.39,3.39,0,0,1,2.022-2.969,3.937,3.937,0,0,1,1.113-.316Z" transform="translate(-398.969 -458.897)" fill="#db0055"/><path d="M485.475,493.155a4.08,4.08,0,0,1-.838-.974,4.438,4.438,0,0,1-2.56,2.763,4.887,4.887,0,0,1-3.529.3,3.758,3.758,0,0,1-2.408-2.152,3.88,3.88,0,0,1,.115-3.718,7.967,7.967,0,0,1,3.792-2.977l1.542-.691-.323-.719A2.246,2.246,0,0,0,480.2,483.8a1.93,1.93,0,0,0-1.641.1,2.2,2.2,0,0,0-1.146,1,1.5,1.5,0,0,0,.015,1.33l-3.35,1.488a3.689,3.689,0,0,1-.227-2.313,4.849,4.849,0,0,1,1.254-2.3,7.593,7.593,0,0,1,2.525-1.756,5.981,5.981,0,0,1,4.2-.472,4.454,4.454,0,0,1,2.821,2.668l2.419,5.435a6.584,6.584,0,0,0,1.7,2.479l.087.2Zm-3.809-1.1a3.141,3.141,0,0,0,1.221-.942,2.368,2.368,0,0,0,.533-1.3l-.961-2.152-1.252.554q-2.514,1.121-1.9,2.93l.076.2a1.482,1.482,0,0,0,.9.838A1.886,1.886,0,0,0,481.666,492.059Z" transform="translate(-393.069 -461.216)" fill="#db0055"/><path d="M495.059,484.275a8.3,8.3,0,0,1,.805,5.268,4.662,4.662,0,0,1-2.843,3.287,4.272,4.272,0,0,1-3.954-.115l.442,1.4-3.012,1.347-7.927-17.806,3.35-1.492,2.845,6.388a4.171,4.171,0,0,1,2.445-2.713,4.693,4.693,0,0,1,4.348.084,8.314,8.314,0,0,1,3.417,4.166Zm-3.46,1.247a5.426,5.426,0,0,0-1.838-2.507,2.22,2.22,0,0,0-2.185-.078,2.422,2.422,0,0,0-1.62,2.291l2.2,4.95a2.451,2.451,0,0,0,2.813.329,2.26,2.26,0,0,0,1.42-2.549A8.976,8.976,0,0,0,491.6,485.523Z" transform="translate(-387.469 -466.469)" fill="#db0055"/><path d="M496.986,488.252a6.745,6.745,0,0,1-5.245.307,6.584,6.584,0,0,1-3.74-3.737l-.145-.323a8.323,8.323,0,0,1-.775-3.7,5.907,5.907,0,0,1,1.046-3.218,6.377,6.377,0,0,1,2.7-2.165,5.709,5.709,0,0,1,4.772-.18,7.234,7.234,0,0,1,3.527,3.943l.609,1.371-7.988,3.551a3.386,3.386,0,0,0,1.858,1.535,3.228,3.228,0,0,0,2.4-.178,3.953,3.953,0,0,0,2.4-2.748l2.466,1.107a5.511,5.511,0,0,1-1.3,2.572A7.3,7.3,0,0,1,496.986,488.252Zm-4.972-10.134a2.292,2.292,0,0,0-1.314,1.394,3.821,3.821,0,0,0,.065,2.289l4.662-2.077-.121-.266A2.733,2.733,0,0,0,493.933,478,2.373,2.373,0,0,0,492.014,478.118Z" transform="translate(-377.556 -468.068)" fill="#db0055"/><path d="M495.957,474.056l.747,1.4a4.8,4.8,0,0,1,2.858-3.285,3.987,3.987,0,0,1,3.486-.149,5.973,5.973,0,0,1,2.557,3.057l3.605,8.1-3.35,1.492-3.568-8.02a2.379,2.379,0,0,0-1.156-1.338,2.257,2.257,0,0,0-1.754.2,2.53,2.53,0,0,0-1.585,2.15l3.939,8.843L498.386,488l-5.584-12.54Z" transform="translate(-370.884 -471.687)" fill="#db0055"/></g><g transform="translate(475.622 535.639)"><path d="M455.776,524.16l-3.48,1.546-11.712-8.09,4.943,11.106-3.475,1.548-7.514-16.877,3.478-1.55,11.732,8.111-4.954-11.128,3.469-1.542Z" transform="translate(-434.538 -447.651)" fill="#db0055"/><path d="M445.053,516.618a8.144,8.144,0,0,1-.762-3.649,5.767,5.767,0,0,1,1.061-3.181,6.628,6.628,0,0,1,2.78-2.2,6.261,6.261,0,0,1,4.835-.29,6.82,6.82,0,0,1,3.668,3.421l.407.849a7.177,7.177,0,0,1,.45,5.346,6.831,6.831,0,0,1-8.651,3.857,7.272,7.272,0,0,1-3.722-4.008Zm3.454-1.256a5.126,5.126,0,0,0,1.89,2.436,2.645,2.645,0,0,0,3.831-1.691,5.617,5.617,0,0,0-.648-3.294,5.093,5.093,0,0,0-1.892-2.412,2.435,2.435,0,0,0-2.354-.106,2.387,2.387,0,0,0-1.472,1.8A5.678,5.678,0,0,0,448.507,515.363Z" transform="translate(-423.178 -448.045)" fill="#db0055"/><path d="M462.569,513.48a2.4,2.4,0,0,0,1.278-1.182,1.946,1.946,0,0,0,0-1.626l3.144-1.394a4.723,4.723,0,0,1,.344,2.644,5.053,5.053,0,0,1-1.141,2.479,6.427,6.427,0,0,1-2.362,1.754,5.953,5.953,0,0,1-5,.178,7.406,7.406,0,0,1-3.657-4.032l-.1-.219a7.324,7.324,0,0,1-.517-5.312,5.887,5.887,0,0,1,3.462-3.61,5.767,5.767,0,0,1,4.37-.342,5.183,5.183,0,0,1,3.029,2.923l-3.142,1.4a2.536,2.536,0,0,0-1.312-1.321,2.445,2.445,0,0,0-3.187,1.708,5.384,5.384,0,0,0,.634,3.036l.154.349a5.518,5.518,0,0,0,1.832,2.52A2.247,2.247,0,0,0,462.569,513.48Z" transform="translate(-411.551 -453.188)" fill="#db0055"/><path d="M461.319,509.373a8.116,8.116,0,0,1-.76-3.644,5.741,5.741,0,0,1,1.063-3.181,6.574,6.574,0,0,1,2.778-2.2,6.242,6.242,0,0,1,4.835-.29,6.815,6.815,0,0,1,3.67,3.421l.4.844a7.161,7.161,0,0,1,.451,5.348,6.837,6.837,0,0,1-8.651,3.859,7.323,7.323,0,0,1-3.722-4.008Zm3.456-1.252a5.133,5.133,0,0,0,1.89,2.434,2.644,2.644,0,0,0,3.833-1.691,5.619,5.619,0,0,0-.65-3.294,5.084,5.084,0,0,0-1.893-2.412,2.431,2.431,0,0,0-2.352-.108,2.4,2.4,0,0,0-1.477,1.806A5.727,5.727,0,0,0,464.775,508.121Z" transform="translate(-404.221 -456.486)" fill="#db0055"/><path d="M476.9,512.868l-3.363,1.5-7.925-17.806,3.361-1.5Z" transform="translate(-398.32 -461.892)" fill="#db0055"/><path d="M471.5,504.844a8.142,8.142,0,0,1-.762-3.649,5.733,5.733,0,0,1,1.063-3.179,6.608,6.608,0,0,1,2.778-2.2,6.262,6.262,0,0,1,4.835-.292,6.823,6.823,0,0,1,3.67,3.421l.4.851a7.166,7.166,0,0,1,.451,5.346A6.835,6.835,0,0,1,475.289,509a7.306,7.306,0,0,1-3.722-4.01Zm3.456-1.256a5.124,5.124,0,0,0,1.89,2.436,2.643,2.643,0,0,0,3.828-1.691,5.591,5.591,0,0,0-.647-3.3,5.086,5.086,0,0,0-1.893-2.41,2.434,2.434,0,0,0-2.354-.106,2.389,2.389,0,0,0-1.472,1.8A5.679,5.679,0,0,0,474.956,503.588Z" transform="translate(-392.359 -461.768)" fill="#db0055"/><path d="M489.368,504.186a4.593,4.593,0,0,1-2.759,3.036,4.348,4.348,0,0,1-3.594.212,5.433,5.433,0,0,1-2.6-2.914l-3.657-8.218,3.35-1.492,3.612,8.111q.87,1.962,2.657,1.167a2.641,2.641,0,0,0,1.812-2.228l-3.956-8.887,3.363-1.5,5.582,12.54-3.153,1.4Z" transform="translate(-385.333 -466.071)" fill="#db0055"/><path d="M491.915,492.463a10.691,10.691,0,0,0-1.247.444,2.694,2.694,0,0,0-1.921,2.4l3.655,8.2L489.052,505l-5.582-12.544,3.164-1.408.756,1.455a3.394,3.394,0,0,1,2.027-2.969,3.755,3.755,0,0,1,1.111-.314Z" transform="translate(-377.515 -468.698)" fill="#db0055"/><path d="M487.424,488.707a1.807,1.807,0,0,1-.048-1.466,2.383,2.383,0,0,1,2.741-1.219,1.934,1.934,0,0,1,1.1,2.495,2.1,2.1,0,0,1-1.146,1.091,2.075,2.075,0,0,1-1.579.119A1.792,1.792,0,0,1,487.424,488.707Zm10.589,14.2-3.363,1.5-5.584-12.544,3.363-1.5Z" transform="translate(-373.118 -472.551)" fill="#db0055"/><path d="M494.57,487.808l.749,1.4a4.782,4.782,0,0,1,2.856-3.287,3.988,3.988,0,0,1,3.486-.152,5.973,5.973,0,0,1,2.557,3.057l3.608,8.1-3.35,1.492-3.571-8.018a2.392,2.392,0,0,0-1.152-1.342,2.27,2.27,0,0,0-1.758.2,2.524,2.524,0,0,0-1.583,2.15l3.937,8.848L497,501.75l-5.582-12.54Z" transform="translate(-368.254 -473.109)" fill="#db0055"/><path d="M499.645,493.216a8.023,8.023,0,0,1-.695-5.258,4.864,4.864,0,0,1,2.917-3.41,4.281,4.281,0,0,1,3.841-.015l-.388-1.243,3.036-1.353,5.4,12.124a5.862,5.862,0,0,1,.528,3.194,5.237,5.237,0,0,1-1.277,2.791,8.041,8.041,0,0,1-2.893,2.051,7.492,7.492,0,0,1-2.936.647,5.218,5.218,0,0,1-2.613-.537l.576-2.7a4.3,4.3,0,0,0,3.662.05,3.152,3.152,0,0,0,1.758-1.635,2.944,2.944,0,0,0-.158-2.356l-.3-.673a4.25,4.25,0,0,1-2.466,2.67,4.851,4.851,0,0,1-4.441-.141,8.038,8.038,0,0,1-3.486-4.069Zm3.46-1.239a5.006,5.006,0,0,0,1.875,2.369,2.38,2.38,0,0,0,2.31.134,2.55,2.55,0,0,0,1.68-2.124l-2.354-5.281a2.541,2.541,0,0,0-2.681-.186,2.4,2.4,0,0,0-1.455,1.832A5.654,5.654,0,0,0,503.105,491.978Z" transform="translate(-359.692 -477.19)" fill="#db0055"/><path d="M515.185,488.877a1.18,1.18,0,0,0-1.039-.693,7.551,7.551,0,0,0-2.233.236q-4.895,1.056-6.169-1.81a3.778,3.778,0,0,1,.145-3.4,6.13,6.13,0,0,1,3.125-2.733,6.567,6.567,0,0,1,4.318-.574,3.878,3.878,0,0,1,2.733,2.282l-3.35,1.492a1.768,1.768,0,0,0-.992-.983,2.156,2.156,0,0,0-1.657.177,2.192,2.192,0,0,0-1.141.964,1.317,1.317,0,0,0-.028,1.18,1.125,1.125,0,0,0,.927.665,5.974,5.974,0,0,0,2.042-.2,15.922,15.922,0,0,1,2.358-.381q3.092-.2,4.157,2.2a3.578,3.578,0,0,1-.236,3.43,6.96,6.96,0,0,1-3.328,2.752,7.25,7.25,0,0,1-3.049.684,5.105,5.105,0,0,1-2.6-.689,3.906,3.906,0,0,1-1.639-1.806l3.177-1.412a1.918,1.918,0,0,0,1.269,1.074,2.876,2.876,0,0,0,1.858-.258,2.668,2.668,0,0,0,1.293-1.016A1.24,1.24,0,0,0,515.185,488.877Z" transform="translate(-351.951 -479.745)" fill="#db0055"/></g><g transform="translate(520.11 574.607)"><path d="M476.323,528.15l-3.48,1.548-11.712-8.092,4.943,11.1-3.475,1.548-7.516-16.877,3.478-1.548,11.734,8.109-4.952-11.126,3.465-1.544Z" transform="translate(-455.083 -481.971)" fill="#db0055"/><path d="M465.6,520.606a8.106,8.106,0,0,1-.762-3.647,5.768,5.768,0,0,1,1.061-3.183,6.639,6.639,0,0,1,2.78-2.193,6.252,6.252,0,0,1,4.835-.292,6.826,6.826,0,0,1,3.668,3.421l.407.849a7.187,7.187,0,0,1,.45,5.346,6.84,6.84,0,0,1-8.651,3.861,7.313,7.313,0,0,1-3.722-4.01Zm3.454-1.254a5.147,5.147,0,0,0,1.89,2.436,2.645,2.645,0,0,0,3.831-1.693,5.6,5.6,0,0,0-.648-3.294,5.073,5.073,0,0,0-1.892-2.41,2.434,2.434,0,0,0-2.354-.108,2.393,2.393,0,0,0-1.475,1.806A5.7,5.7,0,0,0,469.053,519.353Z" transform="translate(-443.723 -482.366)" fill="#db0055"/><path d="M484.429,515.707a1.181,1.181,0,0,0-1.039-.7,7.645,7.645,0,0,0-2.235.236q-4.892,1.056-6.165-1.808a3.775,3.775,0,0,1,.143-3.406,6.118,6.118,0,0,1,3.125-2.731,6.575,6.575,0,0,1,4.32-.576,3.877,3.877,0,0,1,2.73,2.285l-3.35,1.49a1.77,1.77,0,0,0-.992-.981,2.145,2.145,0,0,0-1.656.175,2.2,2.2,0,0,0-1.141.966,1.331,1.331,0,0,0-.028,1.18,1.124,1.124,0,0,0,.925.665,5.943,5.943,0,0,0,2.044-.2,16.154,16.154,0,0,1,2.36-.379q3.086-.2,4.155,2.191a3.582,3.582,0,0,1-.236,3.432,6.935,6.935,0,0,1-3.33,2.752,7.274,7.274,0,0,1-3.049.686,5.138,5.138,0,0,1-2.6-.689,3.922,3.922,0,0,1-1.637-1.806l3.177-1.414a1.9,1.9,0,0,0,1.269,1.074,2.86,2.86,0,0,0,1.858-.258,2.665,2.665,0,0,0,1.293-1.013A1.241,1.241,0,0,0,484.429,515.707Z" transform="translate(-432.279 -487.447)" fill="#db0055"/><path d="M481.788,513.4a8.14,8.14,0,0,1-.764-3.646,5.782,5.782,0,0,1,1.063-3.183,6.593,6.593,0,0,1,2.78-2.193,6.247,6.247,0,0,1,4.833-.292,6.824,6.824,0,0,1,3.67,3.421l.4.849a7.167,7.167,0,0,1,.45,5.346,6.833,6.833,0,0,1-8.649,3.859,7.309,7.309,0,0,1-3.724-4.01Zm3.456-1.254a5.112,5.112,0,0,0,1.888,2.434,2.639,2.639,0,0,0,3.828-1.691,5.6,5.6,0,0,0-.645-3.294,5.089,5.089,0,0,0-1.895-2.41,2.424,2.424,0,0,0-2.352-.108,2.4,2.4,0,0,0-1.475,1.806A5.709,5.709,0,0,0,485.244,512.146Z" transform="translate(-424.859 -490.765)" fill="#db0055"/><path d="M499.323,513.261a3.994,3.994,0,0,1-.838-.974,4.44,4.44,0,0,1-2.562,2.765,4.88,4.88,0,0,1-3.527.292,3.757,3.757,0,0,1-2.41-2.15,3.88,3.88,0,0,1,.117-3.718,8,8,0,0,1,3.792-2.979l1.542-.684-.321-.719a2.263,2.263,0,0,0-1.065-1.193,1.917,1.917,0,0,0-1.641.106,2.171,2.171,0,0,0-1.146,1,1.5,1.5,0,0,0,.015,1.325l-3.352,1.494a3.69,3.69,0,0,1-.225-2.317,4.88,4.88,0,0,1,1.251-2.3,7.668,7.668,0,0,1,2.525-1.756,6,6,0,0,1,4.2-.472,4.461,4.461,0,0,1,2.819,2.668l2.421,5.435a6.566,6.566,0,0,0,1.7,2.479l.087.2Zm-3.809-1.1a3.167,3.167,0,0,0,1.221-.937,2.382,2.382,0,0,0,.533-1.3l-.959-2.155-1.252.557q-2.52,1.121-1.905,2.934l.076.2a1.467,1.467,0,0,0,.9.836A1.866,1.866,0,0,0,495.514,512.163Z" transform="translate(-417.176 -494.201)" fill="#db0055"/><path d="M507.632,502.671a8.247,8.247,0,0,1,.751,5.227,4.62,4.62,0,0,1-2.776,3.326,4.276,4.276,0,0,1-3.659.048l2.631,5.909-3.35,1.492-7.73-17.362,3.107-1.384.661,1.176a4.322,4.322,0,0,1,2.527-2.873,4.655,4.655,0,0,1,4.37.11,8.454,8.454,0,0,1,3.391,4.155Zm-3.458,1.247a5.428,5.428,0,0,0-1.823-2.425,2.211,2.211,0,0,0-2.224-.147,2.4,2.4,0,0,0-1.63,2.172l2.284,5.134a2.439,2.439,0,0,0,2.744.264Q505.922,507.851,504.174,503.919Z" transform="translate(-410.315 -497.741)" fill="#db0055"/></g></g></svg>