<svg width="269" height="9" viewBox="0 0 269 9" fill="none" xmlns="http://www.w3.org/2000/svg">
<path d="M3.37061 7H2.30713V1.86279L0.738281 2.39893V1.49805L3.23438 0.57959H3.37061V7ZM6.32812 5.875C6.52734 5.875 6.68115 5.93213 6.78955 6.04639C6.89795 6.15771 6.95215 6.29834 6.95215 6.46826C6.95215 6.63525 6.89795 6.77441 6.78955 6.88574C6.68115 6.99414 6.52734 7.04834 6.32812 7.04834C6.1377 7.04834 5.98682 6.99414 5.87549 6.88574C5.76416 6.77734 5.7085 6.63818 5.7085 6.46826C5.7085 6.29834 5.7627 6.15771 5.87109 6.04639C5.97949 5.93213 6.13184 5.875 6.32812 5.875ZM12.7749 5.60693L14.4009 0.601562H15.6226L13.3198 7H12.2432L9.94922 0.601562H11.1665L12.7749 5.60693ZM19.002 6.53418C18.6885 6.90332 18.2432 7.08789 17.666 7.08789C17.1504 7.08789 16.7593 6.93701 16.4927 6.63525C16.229 6.3335 16.0972 5.89697 16.0972 5.32568V2.24512H17.165V5.3125C17.165 5.91602 17.4155 6.21777 17.9165 6.21777C18.4351 6.21777 18.7852 6.03174 18.9668 5.65967V2.24512H20.0347V7H19.0283L19.002 6.53418ZM22.2583 7H21.1904V0.25H22.2583V7ZM25.1016 5.64648L26.1079 2.24512H27.2109L25.563 7H24.6357L22.9746 2.24512H24.082L25.1016 5.64648ZM27.6108 4.57861C27.6108 4.11279 27.7031 3.69385 27.8877 3.32178C28.0723 2.94678 28.3315 2.65967 28.6655 2.46045C28.9995 2.2583 29.3833 2.15723 29.8169 2.15723C30.4585 2.15723 30.9785 2.36377 31.377 2.77686C31.7783 3.18994 31.9951 3.73779 32.0273 4.42041L32.0317 4.6709C32.0317 5.13965 31.9409 5.55859 31.7593 5.92773C31.5806 6.29688 31.3228 6.58252 30.9858 6.78467C30.6519 6.98682 30.2651 7.08789 29.8257 7.08789C29.1548 7.08789 28.6172 6.86523 28.2129 6.41992C27.8115 5.97168 27.6108 5.37549 27.6108 4.63135V4.57861ZM28.6787 4.6709C28.6787 5.16016 28.7798 5.54395 28.9819 5.82227C29.1841 6.09766 29.4653 6.23535 29.8257 6.23535C30.186 6.23535 30.4658 6.09473 30.665 5.81348C30.8672 5.53223 30.9683 5.12061 30.9683 4.57861C30.9683 4.09814 30.8643 3.71729 30.6562 3.43604C30.4512 3.15479 30.1714 3.01416 29.8169 3.01416C29.4683 3.01416 29.1914 3.15332 28.9863 3.43164C28.7812 3.70703 28.6787 4.12012 28.6787 4.6709ZM34.541 5.64648L35.5474 2.24512H36.6504L35.0024 7H34.0752L32.4141 2.24512H33.5215L34.541 5.64648ZM40.0913 7C40.0444 6.90918 40.0034 6.76123 39.9683 6.55615C39.6284 6.91064 39.2124 7.08789 38.7202 7.08789C38.2427 7.08789 37.853 6.95166 37.5513 6.6792C37.2495 6.40674 37.0986 6.06982 37.0986 5.66846C37.0986 5.16162 37.2861 4.77344 37.6611 4.50391C38.0391 4.23145 38.5781 4.09521 39.2783 4.09521H39.9331V3.7832C39.9331 3.53711 39.8643 3.34082 39.7266 3.19434C39.5889 3.04492 39.3794 2.97021 39.0981 2.97021C38.855 2.97021 38.6558 3.03174 38.5005 3.15479C38.3452 3.2749 38.2676 3.42871 38.2676 3.61621H37.1997C37.1997 3.35547 37.2861 3.1123 37.459 2.88672C37.6318 2.6582 37.8662 2.47949 38.1621 2.35059C38.4609 2.22168 38.7935 2.15723 39.1597 2.15723C39.7163 2.15723 40.1602 2.29785 40.4912 2.5791C40.8223 2.85742 40.9922 3.25 41.001 3.75684V5.90137C41.001 6.3291 41.061 6.67041 41.1812 6.92529V7H40.0913ZM38.918 6.23096C39.1289 6.23096 39.3267 6.17969 39.5112 6.07715C39.6987 5.97461 39.8394 5.83691 39.9331 5.66406V4.76758H39.3574C38.9619 4.76758 38.6646 4.83643 38.4653 4.97412C38.2661 5.11182 38.1665 5.30664 38.1665 5.55859C38.1665 5.76367 38.2339 5.92773 38.3687 6.05078C38.5063 6.1709 38.6895 6.23096 38.918 6.23096ZM41.9326 4.5874C41.9326 3.84912 42.1055 3.26025 42.4512 2.8208C42.7998 2.37842 43.2612 2.15723 43.8354 2.15723C44.3774 2.15723 44.8037 2.34619 45.1143 2.72412L45.1626 2.24512H46.125V6.85498C46.125 7.479 45.9302 7.97119 45.5405 8.33154C45.1538 8.69189 44.6309 8.87207 43.9717 8.87207C43.623 8.87207 43.2817 8.79883 42.9478 8.65234C42.6167 8.50879 42.3647 8.31982 42.1919 8.08545L42.6973 7.44385C43.0254 7.8335 43.4297 8.02832 43.9102 8.02832C44.2646 8.02832 44.5444 7.93164 44.7495 7.73828C44.9546 7.54785 45.0571 7.2666 45.0571 6.89453V6.57373C44.7495 6.9165 44.3394 7.08789 43.8267 7.08789C43.27 7.08789 42.8145 6.8667 42.46 6.42432C42.1084 5.98193 41.9326 5.36963 41.9326 4.5874ZM42.9961 4.67969C42.9961 5.15723 43.0928 5.53369 43.2861 5.80908C43.4824 6.08154 43.7534 6.21777 44.0991 6.21777C44.5298 6.21777 44.8491 6.0332 45.0571 5.66406V3.57227C44.855 3.21191 44.5386 3.03174 44.1079 3.03174C43.7563 3.03174 43.4824 3.1709 43.2861 3.44922C43.0928 3.72754 42.9961 4.1377 42.9961 4.67969ZM48.3618 7H47.2939V2.24512H48.3618V7ZM47.228 1.01025C47.228 0.846191 47.2793 0.709961 47.3818 0.601562C47.4873 0.493164 47.6367 0.438965 47.8301 0.438965C48.0234 0.438965 48.1729 0.493164 48.2783 0.601562C48.3838 0.709961 48.4365 0.846191 48.4365 1.01025C48.4365 1.17139 48.3838 1.30615 48.2783 1.41455C48.1729 1.52002 48.0234 1.57275 47.8301 1.57275C47.6367 1.57275 47.4873 1.52002 47.3818 1.41455C47.2793 1.30615 47.228 1.17139 47.228 1.01025ZM50.5195 2.24512L50.5503 2.79443C50.9019 2.36963 51.3633 2.15723 51.9346 2.15723C52.9248 2.15723 53.4287 2.72412 53.4463 3.85791V7H52.3784V3.91943C52.3784 3.61768 52.3125 3.39502 52.1807 3.25146C52.0518 3.10498 51.8394 3.03174 51.5435 3.03174C51.1128 3.03174 50.792 3.22656 50.5811 3.61621V7H49.5132V2.24512H50.5195ZM57.3794 7C57.3325 6.90918 57.2915 6.76123 57.2563 6.55615C56.9165 6.91064 56.5005 7.08789 56.0083 7.08789C55.5308 7.08789 55.1411 6.95166 54.8394 6.6792C54.5376 6.40674 54.3867 6.06982 54.3867 5.66846C54.3867 5.16162 54.5742 4.77344 54.9492 4.50391C55.3271 4.23145 55.8662 4.09521 56.5664 4.09521H57.2212V3.7832C57.2212 3.53711 57.1523 3.34082 57.0146 3.19434C56.877 3.04492 56.6675 2.97021 56.3862 2.97021C56.1431 2.97021 55.9438 3.03174 55.7886 3.15479C55.6333 3.2749 55.5557 3.42871 55.5557 3.61621H54.4878C54.4878 3.35547 54.5742 3.1123 54.7471 2.88672C54.9199 2.6582 55.1543 2.47949 55.4502 2.35059C55.749 2.22168 56.0815 2.15723 56.4478 2.15723C57.0044 2.15723 57.4482 2.29785 57.7793 2.5791C58.1104 2.85742 58.2803 3.25 58.2891 3.75684V5.90137C58.2891 6.3291 58.3491 6.67041 58.4692 6.92529V7H57.3794ZM56.2061 6.23096C56.417 6.23096 56.6147 6.17969 56.7993 6.07715C56.9868 5.97461 57.1274 5.83691 57.2212 5.66406V4.76758H56.6455C56.25 4.76758 55.9526 4.83643 55.7534 4.97412C55.5542 5.11182 55.4546 5.30664 55.4546 5.55859C55.4546 5.76367 55.522 5.92773 55.6567 6.05078C55.7944 6.1709 55.9775 6.23096 56.2061 6.23096ZM60.5435 7H59.4756V0.25H60.5435V7ZM65.9048 6.23535C66.1714 6.23535 66.3926 6.15771 66.5684 6.00244C66.7441 5.84717 66.8379 5.65527 66.8496 5.42676H67.856C67.8442 5.72266 67.752 5.99951 67.5791 6.25732C67.4062 6.51221 67.1719 6.71436 66.876 6.86377C66.5801 7.01318 66.2607 7.08789 65.918 7.08789C65.2529 7.08789 64.7256 6.87256 64.3359 6.44189C63.9463 6.01123 63.7515 5.4165 63.7515 4.65771V4.54785C63.7515 3.82422 63.9448 3.24561 64.3315 2.81201C64.7183 2.37549 65.2456 2.15723 65.9136 2.15723C66.479 2.15723 66.939 2.32275 67.2935 2.65381C67.6509 2.98193 67.8384 3.41406 67.856 3.9502H66.8496C66.8379 3.67773 66.7441 3.45361 66.5684 3.27783C66.3955 3.10205 66.1743 3.01416 65.9048 3.01416C65.5591 3.01416 65.2925 3.14014 65.105 3.39209C64.9175 3.64111 64.8223 4.02051 64.8193 4.53027V4.70166C64.8193 5.21729 64.9116 5.60254 65.0962 5.85742C65.2837 6.10938 65.5532 6.23535 65.9048 6.23535ZM71.5034 7C71.4565 6.90918 71.4155 6.76123 71.3804 6.55615C71.0405 6.91064 70.6245 7.08789 70.1323 7.08789C69.6548 7.08789 69.2651 6.95166 68.9634 6.6792C68.6616 6.40674 68.5107 6.06982 68.5107 5.66846C68.5107 5.16162 68.6982 4.77344 69.0732 4.50391C69.4512 4.23145 69.9902 4.09521 70.6904 4.09521H71.3452V3.7832C71.3452 3.53711 71.2764 3.34082 71.1387 3.19434C71.001 3.04492 70.7915 2.97021 70.5103 2.97021C70.2671 2.97021 70.0679 3.03174 69.9126 3.15479C69.7573 3.2749 69.6797 3.42871 69.6797 3.61621H68.6118C68.6118 3.35547 68.6982 3.1123 68.8711 2.88672C69.0439 2.6582 69.2783 2.47949 69.5742 2.35059C69.873 2.22168 70.2056 2.15723 70.5718 2.15723C71.1284 2.15723 71.5723 2.29785 71.9033 2.5791C72.2344 2.85742 72.4043 3.25 72.4131 3.75684V5.90137C72.4131 6.3291 72.4731 6.67041 72.5933 6.92529V7H71.5034ZM70.3301 6.23096C70.541 6.23096 70.7388 6.17969 70.9233 6.07715C71.1108 5.97461 71.2515 5.83691 71.3452 5.66406V4.76758H70.7695C70.374 4.76758 70.0767 4.83643 69.8774 4.97412C69.6782 5.11182 69.5786 5.30664 69.5786 5.55859C69.5786 5.76367 69.646 5.92773 69.7808 6.05078C69.9185 6.1709 70.1016 6.23096 70.3301 6.23096ZM74.5225 2.24512L74.5532 2.79443C74.9048 2.36963 75.3662 2.15723 75.9375 2.15723C76.9277 2.15723 77.4316 2.72412 77.4492 3.85791V7H76.3813V3.91943C76.3813 3.61768 76.3154 3.39502 76.1836 3.25146C76.0547 3.10498 75.8423 3.03174 75.5464 3.03174C75.1157 3.03174 74.7949 3.22656 74.584 3.61621V7H73.5161V2.24512H74.5225ZM78.3413 4.5874C78.3413 3.85498 78.5112 3.26758 78.8511 2.8252C79.1909 2.37988 79.6465 2.15723 80.2178 2.15723C80.7217 2.15723 81.1289 2.33301 81.4395 2.68457V0.25H82.5073V7H81.5405L81.4878 6.50781C81.1685 6.89453 80.7422 7.08789 80.209 7.08789C79.6523 7.08789 79.2012 6.86377 78.8555 6.41553C78.5127 5.96729 78.3413 5.35791 78.3413 4.5874ZM79.4092 4.67969C79.4092 5.16309 79.5015 5.54102 79.686 5.81348C79.8735 6.08301 80.1387 6.21777 80.4814 6.21777C80.918 6.21777 81.2373 6.02295 81.4395 5.6333V3.60303C81.2432 3.22217 80.9268 3.03174 80.4902 3.03174C80.1445 3.03174 79.8779 3.16943 79.6904 3.44482C79.5029 3.71729 79.4092 4.12891 79.4092 4.67969ZM84.7573 7H83.6895V2.24512H84.7573V7ZM83.6235 1.01025C83.6235 0.846191 83.6748 0.709961 83.7773 0.601562C83.8828 0.493164 84.0322 0.438965 84.2256 0.438965C84.4189 0.438965 84.5684 0.493164 84.6738 0.601562C84.7793 0.709961 84.832 0.846191 84.832 1.01025C84.832 1.17139 84.7793 1.30615 84.6738 1.41455C84.5684 1.52002 84.4189 1.57275 84.2256 1.57275C84.0322 1.57275 83.8828 1.52002 83.7773 1.41455C83.6748 1.30615 83.6235 1.17139 83.6235 1.01025ZM85.7241 4.5874C85.7241 3.85498 85.894 3.26758 86.2339 2.8252C86.5737 2.37988 87.0293 2.15723 87.6006 2.15723C88.1045 2.15723 88.5117 2.33301 88.8223 2.68457V0.25H89.8901V7H88.9233L88.8706 6.50781C88.5513 6.89453 88.125 7.08789 87.5918 7.08789C87.0352 7.08789 86.584 6.86377 86.2383 6.41553C85.8955 5.96729 85.7241 5.35791 85.7241 4.5874ZM86.792 4.67969C86.792 5.16309 86.8843 5.54102 87.0688 5.81348C87.2563 6.08301 87.5215 6.21777 87.8643 6.21777C88.3008 6.21777 88.6201 6.02295 88.8223 5.6333V3.60303C88.626 3.22217 88.3096 3.03174 87.873 3.03174C87.5273 3.03174 87.2607 3.16943 87.0732 3.44482C86.8857 3.71729 86.792 4.12891 86.792 4.67969ZM90.8042 4.57861C90.8042 4.11279 90.8965 3.69385 91.0811 3.32178C91.2656 2.94678 91.5249 2.65967 91.8589 2.46045C92.1929 2.2583 92.5767 2.15723 93.0103 2.15723C93.6519 2.15723 94.1719 2.36377 94.5703 2.77686C94.9717 3.18994 95.1885 3.73779 95.2207 4.42041L95.2251 4.6709C95.2251 5.13965 95.1343 5.55859 94.9526 5.92773C94.7739 6.29688 94.5161 6.58252 94.1792 6.78467C93.8452 6.98682 93.4585 7.08789 93.019 7.08789C92.3481 7.08789 91.8105 6.86523 91.4062 6.41992C91.0049 5.97168 90.8042 5.37549 90.8042 4.63135V4.57861ZM91.8721 4.6709C91.8721 5.16016 91.9731 5.54395 92.1753 5.82227C92.3774 6.09766 92.6587 6.23535 93.019 6.23535C93.3794 6.23535 93.6592 6.09473 93.8584 5.81348C94.0605 5.53223 94.1616 5.12061 94.1616 4.57861C94.1616 4.09814 94.0576 3.71729 93.8496 3.43604C93.6445 3.15479 93.3647 3.01416 93.0103 3.01416C92.6616 3.01416 92.3848 3.15332 92.1797 3.43164C91.9746 3.70703 91.8721 4.12012 91.8721 4.6709ZM98.7935 5.70801C98.7935 5.51758 98.7144 5.37256 98.5562 5.27295C98.4009 5.17334 98.1416 5.08545 97.7783 5.00928C97.415 4.93311 97.1118 4.83643 96.8687 4.71924C96.3354 4.46143 96.0688 4.08789 96.0688 3.59863C96.0688 3.18848 96.2417 2.8457 96.5874 2.57031C96.9331 2.29492 97.3726 2.15723 97.9058 2.15723C98.4741 2.15723 98.9326 2.29785 99.2812 2.5791C99.6328 2.86035 99.8086 3.2251 99.8086 3.67334H98.7407C98.7407 3.46826 98.6646 3.29834 98.5122 3.16357C98.3599 3.02588 98.1577 2.95703 97.9058 2.95703C97.6714 2.95703 97.4795 3.01123 97.3301 3.11963C97.1836 3.22803 97.1104 3.37305 97.1104 3.55469C97.1104 3.71875 97.1792 3.84619 97.3169 3.93701C97.4546 4.02783 97.7329 4.12012 98.1519 4.21387C98.5708 4.30469 98.8989 4.41455 99.1362 4.54346C99.3765 4.66943 99.5537 4.82178 99.668 5.00049C99.7852 5.1792 99.8438 5.396 99.8438 5.65088C99.8438 6.07861 99.6665 6.42578 99.312 6.69238C98.9575 6.95605 98.4932 7.08789 97.9189 7.08789C97.5293 7.08789 97.1821 7.01758 96.8774 6.87695C96.5728 6.73633 96.3354 6.54297 96.1655 6.29688C95.9956 6.05078 95.9106 5.78564 95.9106 5.50146H96.9478C96.9624 5.75342 97.0576 5.94824 97.2334 6.08594C97.4092 6.2207 97.6421 6.28809 97.9321 6.28809C98.2134 6.28809 98.4272 6.23535 98.5737 6.12988C98.7202 6.02148 98.7935 5.88086 98.7935 5.70801ZM101.914 7H100.846V2.24512H101.914V7ZM100.78 1.01025C100.78 0.846191 100.831 0.709961 100.934 0.601562C101.039 0.493164 101.188 0.438965 101.382 0.438965C101.575 0.438965 101.725 0.493164 101.83 0.601562C101.936 0.709961 101.988 0.846191 101.988 1.01025C101.988 1.17139 101.936 1.30615 101.83 1.41455C101.725 1.52002 101.575 1.57275 101.382 1.57275C101.188 1.57275 101.039 1.52002 100.934 1.41455C100.831 1.30615 100.78 1.17139 100.78 1.01025ZM105.746 5.70801C105.746 5.51758 105.667 5.37256 105.508 5.27295C105.353 5.17334 105.094 5.08545 104.73 5.00928C104.367 4.93311 104.064 4.83643 103.821 4.71924C103.288 4.46143 103.021 4.08789 103.021 3.59863C103.021 3.18848 103.194 2.8457 103.54 2.57031C103.885 2.29492 104.325 2.15723 104.858 2.15723C105.426 2.15723 105.885 2.29785 106.233 2.5791C106.585 2.86035 106.761 3.2251 106.761 3.67334H105.693C105.693 3.46826 105.617 3.29834 105.464 3.16357C105.312 3.02588 105.11 2.95703 104.858 2.95703C104.624 2.95703 104.432 3.01123 104.282 3.11963C104.136 3.22803 104.062 3.37305 104.062 3.55469C104.062 3.71875 104.131 3.84619 104.269 3.93701C104.407 4.02783 104.685 4.12012 105.104 4.21387C105.523 4.30469 105.851 4.41455 106.088 4.54346C106.329 4.66943 106.506 4.82178 106.62 5.00049C106.737 5.1792 106.796 5.396 106.796 5.65088C106.796 6.07861 106.619 6.42578 106.264 6.69238C105.91 6.95605 105.445 7.08789 104.871 7.08789C104.481 7.08789 104.134 7.01758 103.83 6.87695C103.525 6.73633 103.288 6.54297 103.118 6.29688C102.948 6.05078 102.863 5.78564 102.863 5.50146H103.9C103.915 5.75342 104.01 5.94824 104.186 6.08594C104.361 6.2207 104.594 6.28809 104.884 6.28809C105.166 6.28809 105.379 6.23535 105.526 6.12988C105.672 6.02148 105.746 5.88086 105.746 5.70801ZM107.881 8.44141L107.306 8.09863C107.476 7.83203 107.591 7.59912 107.653 7.3999C107.717 7.20361 107.751 7.00293 107.754 6.79785V5.96729H108.716L108.712 6.73633C108.709 7.04688 108.63 7.35742 108.475 7.66797C108.322 7.98145 108.125 8.23926 107.881 8.44141ZM112.43 0.601562H113.537V5.08838C113.537 5.70068 113.345 6.18701 112.961 6.54736C112.581 6.90771 112.077 7.08789 111.45 7.08789C110.782 7.08789 110.266 6.91943 109.903 6.58252C109.54 6.24561 109.358 5.77686 109.358 5.17627H110.465C110.465 5.51611 110.549 5.77246 110.716 5.94531C110.886 6.11523 111.13 6.2002 111.45 6.2002C111.749 6.2002 111.986 6.10205 112.162 5.90576C112.34 5.70654 112.43 5.43262 112.43 5.08398V0.601562ZM117.549 7C117.502 6.90918 117.461 6.76123 117.426 6.55615C117.086 6.91064 116.67 7.08789 116.178 7.08789C115.701 7.08789 115.311 6.95166 115.009 6.6792C114.708 6.40674 114.557 6.06982 114.557 5.66846C114.557 5.16162 114.744 4.77344 115.119 4.50391C115.497 4.23145 116.036 4.09521 116.736 4.09521H117.391V3.7832C117.391 3.53711 117.322 3.34082 117.185 3.19434C117.047 3.04492 116.837 2.97021 116.556 2.97021C116.313 2.97021 116.114 3.03174 115.958 3.15479C115.803 3.2749 115.726 3.42871 115.726 3.61621H114.658C114.658 3.35547 114.744 3.1123 114.917 2.88672C115.09 2.6582 115.324 2.47949 115.62 2.35059C115.919 2.22168 116.251 2.15723 116.618 2.15723C117.174 2.15723 117.618 2.29785 117.949 2.5791C118.28 2.85742 118.45 3.25 118.459 3.75684V5.90137C118.459 6.3291 118.519 6.67041 118.639 6.92529V7H117.549ZM116.376 6.23096C116.587 6.23096 116.785 6.17969 116.969 6.07715C117.157 5.97461 117.297 5.83691 117.391 5.66406V4.76758H116.815C116.42 4.76758 116.123 4.83643 115.923 4.97412C115.724 5.11182 115.625 5.30664 115.625 5.55859C115.625 5.76367 115.692 5.92773 115.827 6.05078C115.964 6.1709 116.147 6.23096 116.376 6.23096ZM121.531 6.23535C121.797 6.23535 122.019 6.15771 122.194 6.00244C122.37 5.84717 122.464 5.65527 122.476 5.42676H123.482C123.47 5.72266 123.378 5.99951 123.205 6.25732C123.032 6.51221 122.798 6.71436 122.502 6.86377C122.206 7.01318 121.887 7.08789 121.544 7.08789C120.879 7.08789 120.352 6.87256 119.962 6.44189C119.572 6.01123 119.377 5.4165 119.377 4.65771V4.54785C119.377 3.82422 119.571 3.24561 119.958 2.81201C120.344 2.37549 120.872 2.15723 121.54 2.15723C122.105 2.15723 122.565 2.32275 122.919 2.65381C123.277 2.98193 123.464 3.41406 123.482 3.9502H122.476C122.464 3.67773 122.37 3.45361 122.194 3.27783C122.021 3.10205 121.8 3.01416 121.531 3.01416C121.185 3.01416 120.918 3.14014 120.731 3.39209C120.543 3.64111 120.448 4.02051 120.445 4.53027V4.70166C120.445 5.21729 120.538 5.60254 120.722 5.85742C120.91 6.10938 121.179 6.23535 121.531 6.23535ZM125.833 4.96094L125.358 5.44873V7H124.291V0.25H125.358V4.14355L125.692 3.72607L127.006 2.24512H128.29L126.523 4.22705L128.479 7H127.244L125.833 4.96094ZM131.335 7V0.601562H133.225C133.79 0.601562 134.291 0.727539 134.728 0.979492C135.167 1.23145 135.507 1.58887 135.747 2.05176C135.987 2.51465 136.107 3.04492 136.107 3.64258V3.96338C136.107 4.56982 135.986 5.10303 135.743 5.56299C135.502 6.02295 135.158 6.37744 134.71 6.62646C134.265 6.87549 133.753 7 133.176 7H131.335ZM132.447 1.49805V6.1123H133.172C133.755 6.1123 134.202 5.93066 134.512 5.56738C134.826 5.20117 134.985 4.67676 134.991 3.99414V3.63818C134.991 2.94385 134.84 2.41357 134.539 2.04736C134.237 1.68115 133.799 1.49805 133.225 1.49805H132.447ZM142.8 5.35205C142.8 5.0708 142.701 4.854 142.501 4.70166C142.305 4.54932 141.949 4.39551 141.434 4.24023C140.918 4.08496 140.508 3.91211 140.203 3.72168C139.62 3.35547 139.329 2.87793 139.329 2.28906C139.329 1.77344 139.538 1.34863 139.957 1.01465C140.379 0.680664 140.925 0.513672 141.596 0.513672C142.042 0.513672 142.438 0.595703 142.787 0.759766C143.136 0.923828 143.41 1.1582 143.609 1.46289C143.808 1.76465 143.908 2.1001 143.908 2.46924H142.8C142.8 2.13525 142.695 1.87451 142.484 1.68701C142.276 1.49658 141.977 1.40137 141.587 1.40137C141.224 1.40137 140.941 1.479 140.739 1.63428C140.54 1.78955 140.44 2.00635 140.44 2.28467C140.44 2.51904 140.549 2.71533 140.766 2.87354C140.982 3.02881 141.34 3.18115 141.838 3.33057C142.336 3.47705 142.736 3.64551 143.038 3.83594C143.339 4.02344 143.561 4.24023 143.701 4.48633C143.842 4.72949 143.912 5.01514 143.912 5.34326C143.912 5.87646 143.707 6.30127 143.297 6.61768C142.89 6.93115 142.336 7.08789 141.636 7.08789C141.173 7.08789 140.747 7.00293 140.357 6.83301C139.97 6.66016 139.668 6.42285 139.452 6.12109C139.238 5.81934 139.131 5.46777 139.131 5.06641H140.243C140.243 5.42969 140.363 5.71094 140.603 5.91016C140.843 6.10938 141.188 6.20898 141.636 6.20898C142.022 6.20898 142.312 6.13135 142.506 5.97607C142.702 5.81787 142.8 5.60986 142.8 5.35205ZM144.584 4.57861C144.584 4.11279 144.677 3.69385 144.861 3.32178C145.046 2.94678 145.305 2.65967 145.639 2.46045C145.973 2.2583 146.357 2.15723 146.791 2.15723C147.432 2.15723 147.952 2.36377 148.351 2.77686C148.752 3.18994 148.969 3.73779 149.001 4.42041L149.005 4.6709C149.005 5.13965 148.915 5.55859 148.733 5.92773C148.554 6.29688 148.296 6.58252 147.959 6.78467C147.625 6.98682 147.239 7.08789 146.799 7.08789C146.128 7.08789 145.591 6.86523 145.187 6.41992C144.785 5.97168 144.584 5.37549 144.584 4.63135V4.57861ZM145.652 4.6709C145.652 5.16016 145.753 5.54395 145.956 5.82227C146.158 6.09766 146.439 6.23535 146.799 6.23535C147.16 6.23535 147.439 6.09473 147.639 5.81348C147.841 5.53223 147.942 5.12061 147.942 4.57861C147.942 4.09814 147.838 3.71729 147.63 3.43604C147.425 3.15479 147.145 3.01416 146.791 3.01416C146.442 3.01416 146.165 3.15332 145.96 3.43164C145.755 3.70703 145.652 4.12012 145.652 4.6709ZM154.081 4.6709C154.081 5.40918 153.916 5.99658 153.584 6.43311C153.256 6.86963 152.804 7.08789 152.227 7.08789C151.67 7.08789 151.236 6.88721 150.926 6.48584L150.873 7H149.906V0.25H150.974V2.70215C151.282 2.33887 151.696 2.15723 152.218 2.15723C152.798 2.15723 153.253 2.37256 153.584 2.80322C153.916 3.23389 154.081 3.83594 154.081 4.60938V4.6709ZM153.013 4.57861C153.013 4.06299 152.922 3.67627 152.741 3.41846C152.559 3.16064 152.295 3.03174 151.95 3.03174C151.487 3.03174 151.162 3.23389 150.974 3.63818V5.59814C151.165 6.01123 151.493 6.21777 151.958 6.21777C152.292 6.21777 152.55 6.09326 152.732 5.84424C152.914 5.59521 153.007 5.21875 153.013 4.71484V4.57861ZM157.074 7.08789C156.397 7.08789 155.848 6.87549 155.426 6.45068C155.007 6.02295 154.797 5.45459 154.797 4.74561V4.61377C154.797 4.13916 154.888 3.71582 155.07 3.34375C155.254 2.96875 155.512 2.67725 155.843 2.46924C156.174 2.26123 156.543 2.15723 156.951 2.15723C157.598 2.15723 158.098 2.36377 158.449 2.77686C158.804 3.18994 158.981 3.77441 158.981 4.53027V4.96094H155.874C155.906 5.35352 156.037 5.66406 156.265 5.89258C156.497 6.12109 156.787 6.23535 157.135 6.23535C157.625 6.23535 158.023 6.0376 158.331 5.64209L158.906 6.19141C158.716 6.47559 158.461 6.69678 158.142 6.85498C157.825 7.01025 157.469 7.08789 157.074 7.08789ZM156.946 3.01416C156.653 3.01416 156.416 3.1167 156.234 3.32178C156.056 3.52686 155.941 3.8125 155.892 4.17871H157.926V4.09961C157.903 3.74219 157.808 3.47266 157.641 3.29102C157.474 3.10645 157.242 3.01416 156.946 3.01416ZM160.95 7H159.882V0.25H160.95V7ZM162.782 5.875C162.981 5.875 163.135 5.93213 163.244 6.04639C163.352 6.15771 163.406 6.29834 163.406 6.46826C163.406 6.63525 163.352 6.77441 163.244 6.88574C163.135 6.99414 162.981 7.04834 162.782 7.04834C162.592 7.04834 162.441 6.99414 162.33 6.88574C162.218 6.77734 162.163 6.63818 162.163 6.46826C162.163 6.29834 162.217 6.15771 162.325 6.04639C162.434 5.93213 162.586 5.875 162.782 5.875ZM165.845 6.1123H168.75V7H164.733V0.601562H165.845V6.1123ZM172.34 7C172.293 6.90918 172.252 6.76123 172.217 6.55615C171.877 6.91064 171.461 7.08789 170.969 7.08789C170.492 7.08789 170.102 6.95166 169.8 6.6792C169.499 6.40674 169.348 6.06982 169.348 5.66846C169.348 5.16162 169.535 4.77344 169.91 4.50391C170.288 4.23145 170.827 4.09521 171.527 4.09521H172.182V3.7832C172.182 3.53711 172.113 3.34082 171.976 3.19434C171.838 3.04492 171.628 2.97021 171.347 2.97021C171.104 2.97021 170.905 3.03174 170.75 3.15479C170.594 3.2749 170.517 3.42871 170.517 3.61621H169.449C169.449 3.35547 169.535 3.1123 169.708 2.88672C169.881 2.6582 170.115 2.47949 170.411 2.35059C170.71 2.22168 171.042 2.15723 171.409 2.15723C171.965 2.15723 172.409 2.29785 172.74 2.5791C173.071 2.85742 173.241 3.25 173.25 3.75684V5.90137C173.25 6.3291 173.31 6.67041 173.43 6.92529V7H172.34ZM171.167 6.23096C171.378 6.23096 171.576 6.17969 171.76 6.07715C171.948 5.97461 172.088 5.83691 172.182 5.66406V4.76758H171.606C171.211 4.76758 170.914 4.83643 170.714 4.97412C170.515 5.11182 170.416 5.30664 170.416 5.55859C170.416 5.76367 170.483 5.92773 170.618 6.05078C170.755 6.1709 170.938 6.23096 171.167 6.23096ZM175.359 2.24512L175.39 2.79443C175.742 2.36963 176.203 2.15723 176.774 2.15723C177.765 2.15723 178.269 2.72412 178.286 3.85791V7H177.218V3.91943C177.218 3.61768 177.152 3.39502 177.021 3.25146C176.892 3.10498 176.679 3.03174 176.383 3.03174C175.953 3.03174 175.632 3.22656 175.421 3.61621V7H174.353V2.24512H175.359ZM181.332 6.23535C181.598 6.23535 181.819 6.15771 181.995 6.00244C182.171 5.84717 182.265 5.65527 182.276 5.42676H183.283C183.271 5.72266 183.179 5.99951 183.006 6.25732C182.833 6.51221 182.599 6.71436 182.303 6.86377C182.007 7.01318 181.688 7.08789 181.345 7.08789C180.68 7.08789 180.152 6.87256 179.763 6.44189C179.373 6.01123 179.178 5.4165 179.178 4.65771V4.54785C179.178 3.82422 179.372 3.24561 179.758 2.81201C180.145 2.37549 180.672 2.15723 181.34 2.15723C181.906 2.15723 182.366 2.32275 182.72 2.65381C183.078 2.98193 183.265 3.41406 183.283 3.9502H182.276C182.265 3.67773 182.171 3.45361 181.995 3.27783C181.822 3.10205 181.601 3.01416 181.332 3.01416C180.986 3.01416 180.719 3.14014 180.532 3.39209C180.344 3.64111 180.249 4.02051 180.246 4.53027V4.70166C180.246 5.21729 180.338 5.60254 180.523 5.85742C180.71 6.10938 180.98 6.23535 181.332 6.23535ZM186.183 7.08789C185.506 7.08789 184.957 6.87549 184.535 6.45068C184.116 6.02295 183.907 5.45459 183.907 4.74561V4.61377C183.907 4.13916 183.998 3.71582 184.179 3.34375C184.364 2.96875 184.622 2.67725 184.953 2.46924C185.284 2.26123 185.653 2.15723 186.06 2.15723C186.708 2.15723 187.207 2.36377 187.559 2.77686C187.913 3.18994 188.09 3.77441 188.09 4.53027V4.96094H184.983C185.016 5.35352 185.146 5.66406 185.375 5.89258C185.606 6.12109 185.896 6.23535 186.245 6.23535C186.734 6.23535 187.132 6.0376 187.44 5.64209L188.016 6.19141C187.825 6.47559 187.57 6.69678 187.251 6.85498C186.935 7.01025 186.579 7.08789 186.183 7.08789ZM186.056 3.01416C185.763 3.01416 185.525 3.1167 185.344 3.32178C185.165 3.52686 185.051 3.8125 185.001 4.17871H187.036V4.09961C187.012 3.74219 186.917 3.47266 186.75 3.29102C186.583 3.10645 186.352 3.01416 186.056 3.01416ZM190.261 1.08936V2.24512H191.101V3.03613H190.261V5.69043C190.261 5.87207 190.296 6.00391 190.367 6.08594C190.44 6.16504 190.569 6.20459 190.753 6.20459C190.876 6.20459 191.001 6.18994 191.127 6.16064V6.98682C190.884 7.0542 190.649 7.08789 190.424 7.08789C189.604 7.08789 189.193 6.63525 189.193 5.72998V3.03613H188.411V2.24512H189.193V1.08936H190.261ZM198.396 7H194.093V6.26611L196.225 3.94141C196.532 3.59863 196.75 3.31299 196.879 3.08447C197.011 2.85303 197.077 2.62158 197.077 2.39014C197.077 2.08545 196.991 1.83936 196.818 1.65186C196.648 1.46436 196.418 1.37061 196.128 1.37061C195.782 1.37061 195.514 1.47607 195.324 1.68701C195.133 1.89795 195.038 2.18652 195.038 2.55273H193.97C193.97 2.16309 194.058 1.81299 194.234 1.50244C194.413 1.18896 194.666 0.945801 194.994 0.772949C195.325 0.600098 195.706 0.513672 196.137 0.513672C196.758 0.513672 197.247 0.67041 197.604 0.983887C197.965 1.29443 198.145 1.7251 198.145 2.27588C198.145 2.59521 198.054 2.93066 197.873 3.28223C197.694 3.63086 197.399 4.02783 196.989 4.47314L195.425 6.14746H198.396V7ZM203.379 4.30615C203.379 5.22607 203.206 5.92041 202.86 6.38916C202.518 6.85498 201.995 7.08789 201.292 7.08789C200.6 7.08789 200.079 6.86084 199.727 6.40674C199.378 5.94971 199.2 5.27441 199.191 4.38086V3.27344C199.191 2.35352 199.362 1.66357 199.705 1.20361C200.051 0.743652 200.577 0.513672 201.283 0.513672C201.983 0.513672 202.504 0.737793 202.847 1.18604C203.193 1.63428 203.37 2.30518 203.379 3.19873V4.30615ZM202.311 3.11084C202.311 2.51025 202.229 2.0708 202.065 1.79248C201.901 1.51123 201.64 1.37061 201.283 1.37061C200.934 1.37061 200.678 1.50391 200.514 1.77051C200.35 2.03418 200.263 2.44727 200.254 3.00977V4.45996C200.254 5.05762 200.338 5.50293 200.505 5.7959C200.672 6.08887 200.934 6.23535 201.292 6.23535C201.634 6.23535 201.888 6.10059 202.052 5.83105C202.216 5.55859 202.302 5.13379 202.311 4.55664V3.11084ZM208.494 4.30615C208.494 5.22607 208.321 5.92041 207.976 6.38916C207.633 6.85498 207.11 7.08789 206.407 7.08789C205.715 7.08789 205.194 6.86084 204.842 6.40674C204.494 5.94971 204.315 5.27441 204.306 4.38086V3.27344C204.306 2.35352 204.478 1.66357 204.82 1.20361C205.166 0.743652 205.692 0.513672 206.398 0.513672C207.098 0.513672 207.62 0.737793 207.962 1.18604C208.308 1.63428 208.485 2.30518 208.494 3.19873V4.30615ZM207.426 3.11084C207.426 2.51025 207.344 2.0708 207.18 1.79248C207.016 1.51123 206.755 1.37061 206.398 1.37061C206.049 1.37061 205.793 1.50391 205.629 1.77051C205.465 2.03418 205.378 2.44727 205.37 3.00977V4.45996C205.37 5.05762 205.453 5.50293 205.62 5.7959C205.787 6.08887 206.049 6.23535 206.407 6.23535C206.75 6.23535 207.003 6.10059 207.167 5.83105C207.331 5.55859 207.417 5.13379 207.426 4.55664V3.11084ZM213.697 1.19482L211.14 7H210.019L212.572 1.4585H209.263V0.601562H213.697V1.19482ZM215.174 2.14404C215.373 2.14404 215.527 2.20117 215.635 2.31543C215.744 2.42676 215.798 2.56738 215.798 2.7373C215.798 2.9043 215.744 3.04346 215.635 3.15479C215.527 3.26318 215.373 3.31738 215.174 3.31738C214.983 3.31738 214.833 3.26318 214.721 3.15479C214.61 3.04639 214.554 2.90723 214.554 2.7373C214.554 2.56738 214.608 2.42676 214.717 2.31543C214.825 2.20117 214.978 2.14404 215.174 2.14404ZM214.853 8.44141L214.277 8.09863C214.447 7.83203 214.563 7.59912 214.625 7.3999C214.689 7.20361 214.723 7.00293 214.726 6.79785V5.96729H215.688L215.684 6.73633C215.681 7.04688 215.602 7.35742 215.446 7.66797C215.294 7.98145 215.096 8.23926 214.853 8.44141ZM220.175 3.31299H220.825C221.153 3.31006 221.413 3.2251 221.603 3.05811C221.796 2.89111 221.893 2.64941 221.893 2.33301C221.893 2.02832 221.812 1.79248 221.651 1.62549C221.493 1.45557 221.25 1.37061 220.922 1.37061C220.635 1.37061 220.399 1.4541 220.214 1.62109C220.03 1.78516 219.938 2.00049 219.938 2.26709H218.87C218.87 1.93896 218.956 1.64014 219.129 1.37061C219.305 1.10107 219.548 0.891602 219.858 0.742188C220.172 0.589844 220.522 0.513672 220.909 0.513672C221.547 0.513672 222.048 0.674805 222.412 0.99707C222.778 1.31641 222.961 1.76172 222.961 2.33301C222.961 2.62012 222.869 2.89111 222.684 3.146C222.502 3.39795 222.267 3.58838 221.977 3.71729C222.328 3.8374 222.595 4.02637 222.776 4.28418C222.961 4.54199 223.053 4.84961 223.053 5.20703C223.053 5.78125 222.855 6.23828 222.46 6.57812C222.067 6.91797 221.55 7.08789 220.909 7.08789C220.293 7.08789 219.79 6.92383 219.397 6.5957C219.004 6.26758 218.808 5.83105 218.808 5.28613H219.876C219.876 5.56738 219.97 5.7959 220.157 5.97168C220.348 6.14746 220.603 6.23535 220.922 6.23535C221.253 6.23535 221.514 6.14746 221.704 5.97168C221.895 5.7959 221.99 5.54102 221.99 5.20703C221.99 4.87012 221.89 4.61084 221.691 4.4292C221.492 4.24756 221.196 4.15674 220.803 4.15674H220.175V3.31299ZM227.377 0.570801V1.4541H227.246C226.648 1.46289 226.17 1.62695 225.813 1.94629C225.456 2.26562 225.243 2.71826 225.176 3.3042C225.519 2.94385 225.957 2.76367 226.49 2.76367C227.055 2.76367 227.5 2.96289 227.826 3.36133C228.154 3.75977 228.318 4.27393 228.318 4.90381C228.318 5.5542 228.126 6.08154 227.742 6.48584C227.361 6.88721 226.86 7.08789 226.239 7.08789C225.601 7.08789 225.082 6.85205 224.684 6.38037C224.288 5.90869 224.09 5.29053 224.09 4.52588V4.16113C224.09 3.03906 224.363 2.16016 224.908 1.52441C225.456 0.888672 226.242 0.570801 227.268 0.570801H227.377ZM226.23 3.625C225.996 3.625 225.781 3.69092 225.584 3.82275C225.391 3.95459 225.249 4.13037 225.158 4.3501V4.67529C225.158 5.1499 225.258 5.52783 225.457 5.80908C225.656 6.0874 225.914 6.22656 226.23 6.22656C226.547 6.22656 226.797 6.10791 226.982 5.87061C227.167 5.6333 227.259 5.32129 227.259 4.93457C227.259 4.54785 227.165 4.23291 226.978 3.98975C226.79 3.74658 226.541 3.625 226.23 3.625ZM232.198 4.32373C231.841 4.70166 231.423 4.89062 230.946 4.89062C230.383 4.89062 229.935 4.69434 229.601 4.30176C229.267 3.90625 229.1 3.3877 229.1 2.74609C229.1 2.32422 229.185 1.94189 229.355 1.59912C229.525 1.25635 229.767 0.989746 230.08 0.799316C230.394 0.608887 230.757 0.513672 231.17 0.513672C231.814 0.513672 232.326 0.753906 232.704 1.23438C233.082 1.71484 233.271 2.35791 233.271 3.16357V3.4624C233.271 4.6167 233.01 5.49707 232.488 6.10352C231.967 6.70996 231.189 7.01758 230.155 7.02637H230.027V6.14307H230.181C230.811 6.13428 231.294 5.9834 231.631 5.69043C231.968 5.39453 232.157 4.93896 232.198 4.32373ZM231.17 4.05566C231.384 4.05566 231.584 3.99414 231.772 3.87109C231.959 3.74805 232.104 3.57812 232.207 3.36133V2.94385C232.207 2.47217 232.11 2.09277 231.917 1.80566C231.724 1.51855 231.473 1.375 231.166 1.375C230.858 1.375 230.612 1.50244 230.427 1.75732C230.246 2.00928 230.155 2.32861 230.155 2.71533C230.155 3.1167 230.247 3.44043 230.432 3.68652C230.616 3.93262 230.862 4.05566 231.17 4.05566ZM234.998 5.875C235.197 5.875 235.351 5.93213 235.459 6.04639C235.567 6.15771 235.622 6.29834 235.622 6.46826C235.622 6.63525 235.567 6.77441 235.459 6.88574C235.351 6.99414 235.197 7.04834 234.998 7.04834C234.807 7.04834 234.656 6.99414 234.545 6.88574C234.434 6.77734 234.378 6.63818 234.378 6.46826C234.378 6.29834 234.432 6.15771 234.541 6.04639C234.649 5.93213 234.801 5.875 234.998 5.875ZM234.998 2.14404C235.197 2.14404 235.351 2.20117 235.459 2.31543C235.567 2.42676 235.622 2.56738 235.622 2.7373C235.622 2.9043 235.567 3.04346 235.459 3.15479C235.351 3.26318 235.197 3.31738 234.998 3.31738C234.807 3.31738 234.656 3.26318 234.545 3.15479C234.434 3.04639 234.378 2.90723 234.378 2.7373C234.378 2.56738 234.432 2.42676 234.541 2.31543C234.649 2.20117 234.801 2.14404 234.998 2.14404ZM239.568 7H238.504V1.86279L236.936 2.39893V1.49805L239.432 0.57959H239.568V7ZM244.819 4.32373C244.462 4.70166 244.044 4.89062 243.567 4.89062C243.004 4.89062 242.556 4.69434 242.222 4.30176C241.888 3.90625 241.721 3.3877 241.721 2.74609C241.721 2.32422 241.806 1.94189 241.976 1.59912C242.146 1.25635 242.388 0.989746 242.701 0.799316C243.015 0.608887 243.378 0.513672 243.791 0.513672C244.436 0.513672 244.947 0.753906 245.325 1.23438C245.703 1.71484 245.892 2.35791 245.892 3.16357V3.4624C245.892 4.6167 245.631 5.49707 245.109 6.10352C244.588 6.70996 243.81 7.01758 242.776 7.02637H242.648V6.14307H242.802C243.432 6.13428 243.916 5.9834 244.252 5.69043C244.589 5.39453 244.778 4.93896 244.819 4.32373ZM243.791 4.05566C244.005 4.05566 244.206 3.99414 244.393 3.87109C244.581 3.74805 244.726 3.57812 244.828 3.36133V2.94385C244.828 2.47217 244.731 2.09277 244.538 1.80566C244.345 1.51855 244.094 1.375 243.787 1.375C243.479 1.375 243.233 1.50244 243.048 1.75732C242.867 2.00928 242.776 2.32861 242.776 2.71533C242.776 3.1167 242.868 3.44043 243.053 3.68652C243.237 3.93262 243.483 4.05566 243.791 4.05566ZM250.229 0.570801V1.4541H250.097C249.5 1.46289 249.022 1.62695 248.665 1.94629C248.307 2.26562 248.095 2.71826 248.027 3.3042C248.37 2.94385 248.808 2.76367 249.341 2.76367C249.907 2.76367 250.352 2.96289 250.677 3.36133C251.005 3.75977 251.169 4.27393 251.169 4.90381C251.169 5.5542 250.978 6.08154 250.594 6.48584C250.213 6.88721 249.712 7.08789 249.091 7.08789C248.452 7.08789 247.934 6.85205 247.535 6.38037C247.14 5.90869 246.942 5.29053 246.942 4.52588V4.16113C246.942 3.03906 247.214 2.16016 247.759 1.52441C248.307 0.888672 249.094 0.570801 250.119 0.570801H250.229ZM249.082 3.625C248.848 3.625 248.632 3.69092 248.436 3.82275C248.243 3.95459 248.101 4.13037 248.01 4.3501V4.67529C248.01 5.1499 248.109 5.52783 248.309 5.80908C248.508 6.0874 248.766 6.22656 249.082 6.22656C249.398 6.22656 249.649 6.10791 249.833 5.87061C250.018 5.6333 250.11 5.32129 250.11 4.93457C250.11 4.54785 250.017 4.23291 249.829 3.98975C249.642 3.74658 249.393 3.625 249.082 3.625ZM254.914 7H253.85V1.86279L252.281 2.39893V1.49805L254.777 0.57959H254.914V7ZM259.277 4.71045H256.97V3.84912H259.277V4.71045ZM264.349 1.19482L261.791 7H260.67L263.224 1.4585H259.915V0.601562H264.349V1.19482ZM268.097 7H267.034V1.86279L265.465 2.39893V1.49805L267.961 0.57959H268.097V7Z" fill="#F180B2"/>
</svg>
