<svg width="283" height="39" viewBox="0 0 283 39" fill="none" xmlns="http://www.w3.org/2000/svg">
<path d="M17.8916 11.0205H12.9346L11.8975 14H9.58594L14.4199 1.20312H16.415L21.2578 14H18.9375L17.8916 11.0205ZM13.5586 9.22754H17.2676L15.4131 3.91895L13.5586 9.22754ZM24.0703 4.49023L24.1318 5.58887C24.835 4.73926 25.7578 4.31445 26.9004 4.31445C28.8809 4.31445 29.8887 5.44824 29.9238 7.71582V14H27.7881V7.83887C27.7881 7.23535 27.6562 6.79004 27.3926 6.50293C27.1348 6.20996 26.71 6.06348 26.1182 6.06348C25.2568 6.06348 24.6152 6.45312 24.1934 7.23242V14H22.0576V4.49023H24.0703ZM42.2725 14C42.1787 13.8184 42.0967 13.5225 42.0264 13.1123C41.3467 13.8213 40.5146 14.1758 39.5303 14.1758C38.5752 14.1758 37.7959 13.9033 37.1924 13.3584C36.5889 12.8135 36.2871 12.1396 36.2871 11.3369C36.2871 10.3232 36.6621 9.54688 37.4121 9.00781C38.168 8.46289 39.2461 8.19043 40.6465 8.19043H41.9561V7.56641C41.9561 7.07422 41.8184 6.68164 41.543 6.38867C41.2676 6.08984 40.8486 5.94043 40.2861 5.94043C39.7998 5.94043 39.4014 6.06348 39.0908 6.30957C38.7803 6.5498 38.625 6.85742 38.625 7.23242H36.4893C36.4893 6.71094 36.6621 6.22461 37.0078 5.77344C37.3535 5.31641 37.8223 4.95898 38.4141 4.70117C39.0117 4.44336 39.6768 4.31445 40.4092 4.31445C41.5225 4.31445 42.4102 4.5957 43.0723 5.1582C43.7344 5.71484 44.0742 6.5 44.0918 7.51367V11.8027C44.0918 12.6582 44.2119 13.3408 44.4521 13.8506V14H42.2725ZM39.9258 12.4619C40.3477 12.4619 40.7432 12.3594 41.1123 12.1543C41.4873 11.9492 41.7686 11.6738 41.9561 11.3281V9.53516H40.8047C40.0137 9.53516 39.4189 9.67285 39.0205 9.94824C38.6221 10.2236 38.4229 10.6133 38.4229 11.1172C38.4229 11.5273 38.5576 11.8555 38.8271 12.1016C39.1025 12.3418 39.4688 12.4619 39.9258 12.4619ZM45.9287 9.1748C45.9287 7.70996 46.2686 6.53516 46.9482 5.65039C47.6279 4.75977 48.5391 4.31445 49.6816 4.31445C50.6895 4.31445 51.5039 4.66602 52.125 5.36914V0.5H54.2607V14H52.3271L52.2217 13.0156C51.583 13.7891 50.7305 14.1758 49.6641 14.1758C48.5508 14.1758 47.6484 13.7275 46.957 12.8311C46.2715 11.9346 45.9287 10.7158 45.9287 9.1748ZM48.0645 9.35938C48.0645 10.3262 48.249 11.082 48.6182 11.627C48.9932 12.166 49.5234 12.4355 50.209 12.4355C51.082 12.4355 51.7207 12.0459 52.125 11.2666V7.20605C51.7324 6.44434 51.0996 6.06348 50.2266 6.06348C49.5352 6.06348 49.002 6.33887 48.627 6.88965C48.252 7.43457 48.0645 8.25781 48.0645 9.35938ZM59.8418 11.293L61.8545 4.49023H64.0605L60.7646 14H58.9102L55.5879 4.49023H57.8027L59.8418 11.293ZM70.9424 14C70.8486 13.8184 70.7666 13.5225 70.6963 13.1123C70.0166 13.8213 69.1846 14.1758 68.2002 14.1758C67.2451 14.1758 66.4658 13.9033 65.8623 13.3584C65.2588 12.8135 64.957 12.1396 64.957 11.3369C64.957 10.3232 65.332 9.54688 66.082 9.00781C66.8379 8.46289 67.916 8.19043 69.3164 8.19043H70.626V7.56641C70.626 7.07422 70.4883 6.68164 70.2129 6.38867C69.9375 6.08984 69.5186 5.94043 68.9561 5.94043C68.4697 5.94043 68.0713 6.06348 67.7607 6.30957C67.4502 6.5498 67.2949 6.85742 67.2949 7.23242H65.1592C65.1592 6.71094 65.332 6.22461 65.6777 5.77344C66.0234 5.31641 66.4922 4.95898 67.084 4.70117C67.6816 4.44336 68.3467 4.31445 69.0791 4.31445C70.1924 4.31445 71.0801 4.5957 71.7422 5.1582C72.4043 5.71484 72.7441 6.5 72.7617 7.51367V11.8027C72.7617 12.6582 72.8818 13.3408 73.1221 13.8506V14H70.9424ZM68.5957 12.4619C69.0176 12.4619 69.4131 12.3594 69.7822 12.1543C70.1572 11.9492 70.4385 11.6738 70.626 11.3281V9.53516H69.4746C68.6836 9.53516 68.0889 9.67285 67.6904 9.94824C67.292 10.2236 67.0928 10.6133 67.0928 11.1172C67.0928 11.5273 67.2275 11.8555 67.4971 12.1016C67.7725 12.3418 68.1387 12.4619 68.5957 12.4619ZM76.9805 4.49023L77.042 5.58887C77.7451 4.73926 78.668 4.31445 79.8105 4.31445C81.791 4.31445 82.7988 5.44824 82.834 7.71582V14H80.6982V7.83887C80.6982 7.23535 80.5664 6.79004 80.3027 6.50293C80.0449 6.20996 79.6201 6.06348 79.0283 6.06348C78.167 6.06348 77.5254 6.45312 77.1035 7.23242V14H74.9678V4.49023H76.9805ZM88.9248 12.4707C89.458 12.4707 89.9004 12.3154 90.252 12.0049C90.6035 11.6943 90.791 11.3105 90.8145 10.8535H92.8271C92.8037 11.4453 92.6191 11.999 92.2734 12.5146C91.9277 13.0244 91.459 13.4287 90.8672 13.7275C90.2754 14.0264 89.6367 14.1758 88.9512 14.1758C87.6211 14.1758 86.5664 13.7451 85.7871 12.8838C85.0078 12.0225 84.6182 10.833 84.6182 9.31543V9.0957C84.6182 7.64844 85.0049 6.49121 85.7783 5.62402C86.5518 4.75098 87.6064 4.31445 88.9424 4.31445C90.0732 4.31445 90.9932 4.64551 91.7021 5.30762C92.417 5.96387 92.792 6.82812 92.8271 7.90039H90.8145C90.791 7.35547 90.6035 6.90723 90.252 6.55566C89.9062 6.2041 89.4639 6.02832 88.9248 6.02832C88.2334 6.02832 87.7002 6.28027 87.3252 6.78418C86.9502 7.28223 86.7598 8.04102 86.7539 9.06055V9.40332C86.7539 10.4346 86.9385 11.2051 87.3076 11.7148C87.6826 12.2188 88.2217 12.4707 88.9248 12.4707ZM98.6279 14.1758C97.2744 14.1758 96.1758 13.751 95.332 12.9014C94.4941 12.0459 94.0752 10.9092 94.0752 9.49121V9.22754C94.0752 8.27832 94.2568 7.43164 94.6201 6.6875C94.9893 5.9375 95.5049 5.35449 96.167 4.93848C96.8291 4.52246 97.5674 4.31445 98.3818 4.31445C99.6768 4.31445 100.676 4.72754 101.379 5.55371C102.088 6.37988 102.442 7.54883 102.442 9.06055V9.92188H96.2285C96.293 10.707 96.5537 11.3281 97.0107 11.7852C97.4736 12.2422 98.0537 12.4707 98.751 12.4707C99.7295 12.4707 100.526 12.0752 101.142 11.2842L102.293 12.3828C101.912 12.9512 101.402 13.3936 100.764 13.71C100.131 14.0205 99.4189 14.1758 98.6279 14.1758ZM98.373 6.02832C97.7871 6.02832 97.3125 6.2334 96.9492 6.64355C96.5918 7.05371 96.3633 7.625 96.2637 8.35742H100.333V8.19922C100.286 7.48438 100.096 6.94531 99.7617 6.58203C99.4277 6.21289 98.9648 6.02832 98.373 6.02832ZM103.708 9.1748C103.708 7.70996 104.048 6.53516 104.728 5.65039C105.407 4.75977 106.318 4.31445 107.461 4.31445C108.469 4.31445 109.283 4.66602 109.904 5.36914V0.5H112.04V14H110.106L110.001 13.0156C109.362 13.7891 108.51 14.1758 107.443 14.1758C106.33 14.1758 105.428 13.7275 104.736 12.8311C104.051 11.9346 103.708 10.7158 103.708 9.1748ZM105.844 9.35938C105.844 10.3262 106.028 11.082 106.397 11.627C106.772 12.166 107.303 12.4355 107.988 12.4355C108.861 12.4355 109.5 12.0459 109.904 11.2666V7.20605C109.512 6.44434 108.879 6.06348 108.006 6.06348C107.314 6.06348 106.781 6.33887 106.406 6.88965C106.031 7.43457 105.844 8.25781 105.844 9.35938ZM119.502 14V6.07227H118.052V4.49023H119.502V3.62012C119.502 2.56543 119.795 1.75098 120.381 1.17676C120.967 0.602539 121.787 0.31543 122.842 0.31543C123.217 0.31543 123.615 0.368164 124.037 0.473633L123.984 2.14355C123.75 2.09668 123.478 2.07324 123.167 2.07324C122.147 2.07324 121.638 2.59766 121.638 3.64648V4.49023H123.571V6.07227H121.638V14H119.502ZM124.731 9.15723C124.731 8.22559 124.916 7.3877 125.285 6.64355C125.654 5.89355 126.173 5.31934 126.841 4.9209C127.509 4.5166 128.276 4.31445 129.144 4.31445C130.427 4.31445 131.467 4.72754 132.264 5.55371C133.066 6.37988 133.5 7.47559 133.564 8.84082L133.573 9.3418C133.573 10.2793 133.392 11.1172 133.028 11.8555C132.671 12.5938 132.155 13.165 131.481 13.5693C130.813 13.9736 130.04 14.1758 129.161 14.1758C127.819 14.1758 126.744 13.7305 125.936 12.8398C125.133 11.9434 124.731 10.751 124.731 9.2627V9.15723ZM126.867 9.3418C126.867 10.3203 127.069 11.0879 127.474 11.6445C127.878 12.1953 128.44 12.4707 129.161 12.4707C129.882 12.4707 130.441 12.1895 130.84 11.627C131.244 11.0645 131.446 10.2412 131.446 9.15723C131.446 8.19629 131.238 7.43457 130.822 6.87207C130.412 6.30957 129.853 6.02832 129.144 6.02832C128.446 6.02832 127.893 6.30664 127.482 6.86328C127.072 7.41406 126.867 8.24023 126.867 9.3418ZM140.358 6.44141C140.077 6.39453 139.787 6.37109 139.488 6.37109C138.51 6.37109 137.851 6.74609 137.511 7.49609V14H135.375V4.49023H137.414L137.467 5.55371C137.982 4.72754 138.697 4.31445 139.611 4.31445C139.916 4.31445 140.168 4.35547 140.367 4.4375L140.358 6.44141ZM143.716 4.49023L143.777 5.4834C144.445 4.7041 145.359 4.31445 146.52 4.31445C147.791 4.31445 148.661 4.80078 149.13 5.77344C149.821 4.80078 150.794 4.31445 152.048 4.31445C153.097 4.31445 153.876 4.60449 154.386 5.18457C154.901 5.76465 155.165 6.62012 155.177 7.75098V14H153.041V7.8125C153.041 7.20898 152.909 6.7666 152.646 6.48535C152.382 6.2041 151.945 6.06348 151.336 6.06348C150.85 6.06348 150.451 6.19531 150.141 6.45898C149.836 6.7168 149.622 7.05664 149.499 7.47852L149.508 14H147.372V7.74219C147.343 6.62305 146.771 6.06348 145.658 6.06348C144.803 6.06348 144.196 6.41211 143.839 7.10938V14H141.703V4.49023H143.716ZM163.131 13.0684C162.504 13.8066 161.613 14.1758 160.459 14.1758C159.428 14.1758 158.646 13.874 158.112 13.2705C157.585 12.667 157.321 11.7939 157.321 10.6514V4.49023H159.457V10.625C159.457 11.832 159.958 12.4355 160.96 12.4355C161.997 12.4355 162.697 12.0635 163.061 11.3193V4.49023H165.196V14H163.184L163.131 13.0684ZM169.644 14H167.508V0.5H169.644V14ZM177.659 14C177.565 13.8184 177.483 13.5225 177.413 13.1123C176.733 13.8213 175.901 14.1758 174.917 14.1758C173.962 14.1758 173.183 13.9033 172.579 13.3584C171.976 12.8135 171.674 12.1396 171.674 11.3369C171.674 10.3232 172.049 9.54688 172.799 9.00781C173.555 8.46289 174.633 8.19043 176.033 8.19043H177.343V7.56641C177.343 7.07422 177.205 6.68164 176.93 6.38867C176.654 6.08984 176.235 5.94043 175.673 5.94043C175.187 5.94043 174.788 6.06348 174.478 6.30957C174.167 6.5498 174.012 6.85742 174.012 7.23242H171.876C171.876 6.71094 172.049 6.22461 172.395 5.77344C172.74 5.31641 173.209 4.95898 173.801 4.70117C174.398 4.44336 175.063 4.31445 175.796 4.31445C176.909 4.31445 177.797 4.5957 178.459 5.1582C179.121 5.71484 179.461 6.5 179.479 7.51367V11.8027C179.479 12.6582 179.599 13.3408 179.839 13.8506V14H177.659ZM175.312 12.4619C175.734 12.4619 176.13 12.3594 176.499 12.1543C176.874 11.9492 177.155 11.6738 177.343 11.3281V9.53516H176.191C175.4 9.53516 174.806 9.67285 174.407 9.94824C174.009 10.2236 173.81 10.6133 173.81 11.1172C173.81 11.5273 173.944 11.8555 174.214 12.1016C174.489 12.3418 174.855 12.4619 175.312 12.4619ZM185.798 9.1748C185.798 7.70996 186.138 6.53516 186.817 5.65039C187.497 4.75977 188.408 4.31445 189.551 4.31445C190.559 4.31445 191.373 4.66602 191.994 5.36914V0.5H194.13V14H192.196L192.091 13.0156C191.452 13.7891 190.6 14.1758 189.533 14.1758C188.42 14.1758 187.518 13.7275 186.826 12.8311C186.141 11.9346 185.798 10.7158 185.798 9.1748ZM187.934 9.35938C187.934 10.3262 188.118 11.082 188.487 11.627C188.862 12.166 189.393 12.4355 190.078 12.4355C190.951 12.4355 191.59 12.0459 191.994 11.2666V7.20605C191.602 6.44434 190.969 6.06348 190.096 6.06348C189.404 6.06348 188.871 6.33887 188.496 6.88965C188.121 7.43457 187.934 8.25781 187.934 9.35938ZM200.546 14.1758C199.192 14.1758 198.094 13.751 197.25 12.9014C196.412 12.0459 195.993 10.9092 195.993 9.49121V9.22754C195.993 8.27832 196.175 7.43164 196.538 6.6875C196.907 5.9375 197.423 5.35449 198.085 4.93848C198.747 4.52246 199.485 4.31445 200.3 4.31445C201.595 4.31445 202.594 4.72754 203.297 5.55371C204.006 6.37988 204.36 7.54883 204.36 9.06055V9.92188H198.146C198.211 10.707 198.472 11.3281 198.929 11.7852C199.392 12.2422 199.972 12.4707 200.669 12.4707C201.647 12.4707 202.444 12.0752 203.06 11.2842L204.211 12.3828C203.83 12.9512 203.32 13.3936 202.682 13.71C202.049 14.0205 201.337 14.1758 200.546 14.1758ZM200.291 6.02832C199.705 6.02832 199.23 6.2334 198.867 6.64355C198.51 7.05371 198.281 7.625 198.182 8.35742H202.251V8.19922C202.204 7.48438 202.014 6.94531 201.68 6.58203C201.346 6.21289 200.883 6.02832 200.291 6.02832ZM209.256 11.293L211.269 4.49023H213.475L210.179 14H208.324L205.002 4.49023H207.217L209.256 11.293ZM218.88 14.1758C217.526 14.1758 216.428 13.751 215.584 12.9014C214.746 12.0459 214.327 10.9092 214.327 9.49121V9.22754C214.327 8.27832 214.509 7.43164 214.872 6.6875C215.241 5.9375 215.757 5.35449 216.419 4.93848C217.081 4.52246 217.819 4.31445 218.634 4.31445C219.929 4.31445 220.928 4.72754 221.631 5.55371C222.34 6.37988 222.694 7.54883 222.694 9.06055V9.92188H216.48C216.545 10.707 216.806 11.3281 217.263 11.7852C217.726 12.2422 218.306 12.4707 219.003 12.4707C219.981 12.4707 220.778 12.0752 221.394 11.2842L222.545 12.3828C222.164 12.9512 221.654 13.3936 221.016 13.71C220.383 14.0205 219.671 14.1758 218.88 14.1758ZM218.625 6.02832C218.039 6.02832 217.564 6.2334 217.201 6.64355C216.844 7.05371 216.615 7.625 216.516 8.35742H220.585V8.19922C220.538 7.48438 220.348 6.94531 220.014 6.58203C219.68 6.21289 219.217 6.02832 218.625 6.02832ZM226.632 14H224.496V0.5H226.632V14ZM228.565 9.15723C228.565 8.22559 228.75 7.3877 229.119 6.64355C229.488 5.89355 230.007 5.31934 230.675 4.9209C231.343 4.5166 232.11 4.31445 232.978 4.31445C234.261 4.31445 235.301 4.72754 236.098 5.55371C236.9 6.37988 237.334 7.47559 237.398 8.84082L237.407 9.3418C237.407 10.2793 237.226 11.1172 236.862 11.8555C236.505 12.5938 235.989 13.165 235.315 13.5693C234.647 13.9736 233.874 14.1758 232.995 14.1758C231.653 14.1758 230.578 13.7305 229.77 12.8398C228.967 11.9434 228.565 10.751 228.565 9.2627V9.15723ZM230.701 9.3418C230.701 10.3203 230.903 11.0879 231.308 11.6445C231.712 12.1953 232.274 12.4707 232.995 12.4707C233.716 12.4707 234.275 12.1895 234.674 11.627C235.078 11.0645 235.28 10.2412 235.28 9.15723C235.28 8.19629 235.072 7.43457 234.656 6.87207C234.246 6.30957 233.687 6.02832 232.978 6.02832C232.28 6.02832 231.727 6.30664 231.316 6.86328C230.906 7.41406 230.701 8.24023 230.701 9.3418ZM247.541 9.3418C247.541 10.8125 247.207 11.9873 246.539 12.8662C245.871 13.7393 244.975 14.1758 243.85 14.1758C242.807 14.1758 241.972 13.833 241.345 13.1475V17.6562H239.209V4.49023H241.178L241.266 5.45703C241.893 4.69531 242.745 4.31445 243.823 4.31445C244.983 4.31445 245.892 4.74805 246.548 5.61523C247.21 6.47656 247.541 7.6748 247.541 9.20996V9.3418ZM245.414 9.15723C245.414 8.20801 245.224 7.45508 244.843 6.89844C244.468 6.3418 243.929 6.06348 243.226 6.06348C242.353 6.06348 241.726 6.42383 241.345 7.14453V11.3633C241.731 12.1016 242.364 12.4707 243.243 12.4707C243.923 12.4707 244.453 12.1982 244.834 11.6533C245.221 11.1025 245.414 10.2705 245.414 9.15723ZM253.544 14.1758C252.19 14.1758 251.092 13.751 250.248 12.9014C249.41 12.0459 248.991 10.9092 248.991 9.49121V9.22754C248.991 8.27832 249.173 7.43164 249.536 6.6875C249.905 5.9375 250.421 5.35449 251.083 4.93848C251.745 4.52246 252.483 4.31445 253.298 4.31445C254.593 4.31445 255.592 4.72754 256.295 5.55371C257.004 6.37988 257.358 7.54883 257.358 9.06055V9.92188H251.145C251.209 10.707 251.47 11.3281 251.927 11.7852C252.39 12.2422 252.97 12.4707 253.667 12.4707C254.646 12.4707 255.442 12.0752 256.058 11.2842L257.209 12.3828C256.828 12.9512 256.318 13.3936 255.68 13.71C255.047 14.0205 254.335 14.1758 253.544 14.1758ZM253.289 6.02832C252.703 6.02832 252.229 6.2334 251.865 6.64355C251.508 7.05371 251.279 7.625 251.18 8.35742H255.249V8.19922C255.202 7.48438 255.012 6.94531 254.678 6.58203C254.344 6.21289 253.881 6.02832 253.289 6.02832ZM258.624 9.1748C258.624 7.70996 258.964 6.53516 259.644 5.65039C260.323 4.75977 261.234 4.31445 262.377 4.31445C263.385 4.31445 264.199 4.66602 264.82 5.36914V0.5H266.956V14H265.022L264.917 13.0156C264.278 13.7891 263.426 14.1758 262.359 14.1758C261.246 14.1758 260.344 13.7275 259.652 12.8311C258.967 11.9346 258.624 10.7158 258.624 9.1748ZM260.76 9.35938C260.76 10.3262 260.944 11.082 261.313 11.627C261.688 12.166 262.219 12.4355 262.904 12.4355C263.777 12.4355 264.416 12.0459 264.82 11.2666V7.20605C264.428 6.44434 263.795 6.06348 262.922 6.06348C262.23 6.06348 261.697 6.33887 261.322 6.88965C260.947 7.43457 260.76 8.25781 260.76 9.35938ZM8.61035 30.3418C8.61035 31.8184 8.2793 32.9932 7.61719 33.8662C6.96094 34.7393 6.05566 35.1758 4.90137 35.1758C3.78809 35.1758 2.9209 34.7744 2.2998 33.9717L2.19434 35H0.260742V21.5H2.39648V26.4043C3.01172 25.6777 3.84082 25.3145 4.88379 25.3145C6.04395 25.3145 6.95508 25.7451 7.61719 26.6064C8.2793 27.4678 8.61035 28.6719 8.61035 30.2188V30.3418ZM6.47461 30.1572C6.47461 29.126 6.29297 28.3525 5.92969 27.8369C5.56641 27.3213 5.03906 27.0635 4.34766 27.0635C3.42188 27.0635 2.77148 27.4678 2.39648 28.2764V32.1963C2.77734 33.0225 3.43359 33.4355 4.36523 33.4355C5.0332 33.4355 5.54883 33.1865 5.91211 32.6885C6.27539 32.1904 6.46289 31.4375 6.47461 30.4297V30.1572ZM13.6289 31.9414L15.5625 25.4902H17.8389L14.0596 36.4414C13.4795 38.041 12.4951 38.8408 11.1064 38.8408C10.7959 38.8408 10.4531 38.7881 10.0781 38.6826V37.0303L10.4824 37.0566C11.0215 37.0566 11.4258 36.957 11.6953 36.7578C11.9707 36.5645 12.1875 36.2363 12.3457 35.7734L12.6533 34.9561L9.31348 25.4902H11.6162L13.6289 31.9414ZM27.4629 33.4707C27.9961 33.4707 28.4385 33.3154 28.79 33.0049C29.1416 32.6943 29.3291 32.3105 29.3525 31.8535H31.3652C31.3418 32.4453 31.1572 32.999 30.8115 33.5146C30.4658 34.0244 29.9971 34.4287 29.4053 34.7275C28.8135 35.0264 28.1748 35.1758 27.4893 35.1758C26.1592 35.1758 25.1045 34.7451 24.3252 33.8838C23.5459 33.0225 23.1562 31.833 23.1562 30.3154V30.0957C23.1562 28.6484 23.543 27.4912 24.3164 26.624C25.0898 25.751 26.1445 25.3145 27.4805 25.3145C28.6113 25.3145 29.5312 25.6455 30.2402 26.3076C30.9551 26.9639 31.3301 27.8281 31.3652 28.9004H29.3525C29.3291 28.3555 29.1416 27.9072 28.79 27.5557C28.4443 27.2041 28.002 27.0283 27.4629 27.0283C26.7715 27.0283 26.2383 27.2803 25.8633 27.7842C25.4883 28.2822 25.2979 29.041 25.292 30.0605V30.4033C25.292 31.4346 25.4766 32.2051 25.8457 32.7148C26.2207 33.2188 26.7598 33.4707 27.4629 33.4707ZM32.5781 30.1572C32.5781 29.2256 32.7627 28.3877 33.1318 27.6436C33.501 26.8936 34.0195 26.3193 34.6875 25.9209C35.3555 25.5166 36.123 25.3145 36.9902 25.3145C38.2734 25.3145 39.3135 25.7275 40.1104 26.5537C40.9131 27.3799 41.3467 28.4756 41.4111 29.8408L41.4199 30.3418C41.4199 31.2793 41.2383 32.1172 40.875 32.8555C40.5176 33.5938 40.002 34.165 39.3281 34.5693C38.6602 34.9736 37.8867 35.1758 37.0078 35.1758C35.666 35.1758 34.5908 34.7305 33.7822 33.8398C32.9795 32.9434 32.5781 31.751 32.5781 30.2627V30.1572ZM34.7139 30.3418C34.7139 31.3203 34.916 32.0879 35.3203 32.6445C35.7246 33.1953 36.2871 33.4707 37.0078 33.4707C37.7285 33.4707 38.2881 33.1895 38.6865 32.627C39.0908 32.0645 39.293 31.2412 39.293 30.1572C39.293 29.1963 39.085 28.4346 38.6689 27.8721C38.2588 27.3096 37.6992 27.0283 36.9902 27.0283C36.293 27.0283 35.7393 27.3066 35.3291 27.8633C34.9189 28.4141 34.7139 29.2402 34.7139 30.3418ZM48.5566 32.416C48.5566 32.0352 48.3984 31.7451 48.082 31.5459C47.7715 31.3467 47.2529 31.1709 46.5264 31.0186C45.7998 30.8662 45.1934 30.6729 44.707 30.4385C43.6406 29.9229 43.1074 29.1758 43.1074 28.1973C43.1074 27.377 43.4531 26.6914 44.1445 26.1406C44.8359 25.5898 45.7148 25.3145 46.7812 25.3145C47.918 25.3145 48.835 25.5957 49.5322 26.1582C50.2354 26.7207 50.5869 27.4502 50.5869 28.3467H48.4512C48.4512 27.9365 48.2988 27.5967 47.9941 27.3271C47.6895 27.0518 47.2852 26.9141 46.7812 26.9141C46.3125 26.9141 45.9287 27.0225 45.6299 27.2393C45.3369 27.4561 45.1904 27.7461 45.1904 28.1094C45.1904 28.4375 45.3281 28.6924 45.6035 28.874C45.8789 29.0557 46.4355 29.2402 47.2734 29.4277C48.1113 29.6094 48.7676 29.8291 49.2422 30.0869C49.7227 30.3389 50.0771 30.6436 50.3057 31.001C50.54 31.3584 50.6572 31.792 50.6572 32.3018C50.6572 33.1572 50.3027 33.8516 49.5938 34.3848C48.8848 34.9121 47.9561 35.1758 46.8076 35.1758C46.0283 35.1758 45.334 35.0352 44.7246 34.7539C44.1152 34.4727 43.6406 34.0859 43.3008 33.5938C42.9609 33.1016 42.791 32.5713 42.791 32.0029H44.8652C44.8945 32.5068 45.085 32.8965 45.4365 33.1719C45.7881 33.4414 46.2539 33.5762 46.834 33.5762C47.3965 33.5762 47.8242 33.4707 48.1172 33.2598C48.4102 33.043 48.5566 32.7617 48.5566 32.416ZM54.5332 25.4902L54.5947 26.4834C55.2627 25.7041 56.1768 25.3145 57.3369 25.3145C58.6084 25.3145 59.4785 25.8008 59.9473 26.7734C60.6387 25.8008 61.6113 25.3145 62.8652 25.3145C63.9141 25.3145 64.6934 25.6045 65.2031 26.1846C65.7188 26.7646 65.9824 27.6201 65.9941 28.751V35H63.8584V28.8125C63.8584 28.209 63.7266 27.7666 63.4629 27.4854C63.1992 27.2041 62.7627 27.0635 62.1533 27.0635C61.667 27.0635 61.2686 27.1953 60.958 27.459C60.6533 27.7168 60.4395 28.0566 60.3164 28.4785L60.3252 35H58.1895V28.7422C58.1602 27.623 57.5889 27.0635 56.4756 27.0635C55.6201 27.0635 55.0137 27.4121 54.6562 28.1094V35H52.5205V25.4902H54.5332ZM72.375 35.1758C71.0215 35.1758 69.9229 34.751 69.0791 33.9014C68.2412 33.0459 67.8223 31.9092 67.8223 30.4912V30.2275C67.8223 29.2783 68.0039 28.4316 68.3672 27.6875C68.7363 26.9375 69.252 26.3545 69.9141 25.9385C70.5762 25.5225 71.3145 25.3145 72.1289 25.3145C73.4238 25.3145 74.4229 25.7275 75.126 26.5537C75.835 27.3799 76.1895 28.5488 76.1895 30.0605V30.9219H69.9756C70.04 31.707 70.3008 32.3281 70.7578 32.7852C71.2207 33.2422 71.8008 33.4707 72.498 33.4707C73.4766 33.4707 74.2734 33.0752 74.8887 32.2842L76.04 33.3828C75.6592 33.9512 75.1494 34.3936 74.5107 34.71C73.8779 35.0205 73.166 35.1758 72.375 35.1758ZM72.1201 27.0283C71.5342 27.0283 71.0596 27.2334 70.6963 27.6436C70.3389 28.0537 70.1104 28.625 70.0107 29.3574H74.0801V29.1992C74.0332 28.4844 73.8428 27.9453 73.5088 27.582C73.1748 27.2129 72.7119 27.0283 72.1201 27.0283ZM80.5312 23.1787V25.4902H82.21V27.0723H80.5312V32.3809C80.5312 32.7441 80.6016 33.0078 80.7422 33.1719C80.8887 33.3301 81.1465 33.4092 81.5156 33.4092C81.7617 33.4092 82.0107 33.3799 82.2627 33.3213V34.9736C81.7764 35.1084 81.3076 35.1758 80.8564 35.1758C79.2158 35.1758 78.3955 34.2705 78.3955 32.46V27.0723H76.8311V25.4902H78.3955V23.1787H80.5312ZM86.1211 35H83.9854V25.4902H86.1211V35ZM83.8535 23.0205C83.8535 22.6924 83.9561 22.4199 84.1611 22.2031C84.3721 21.9863 84.6709 21.8779 85.0576 21.8779C85.4443 21.8779 85.7432 21.9863 85.9541 22.2031C86.165 22.4199 86.2705 22.6924 86.2705 23.0205C86.2705 23.3428 86.165 23.6123 85.9541 23.8291C85.7432 24.04 85.4443 24.1455 85.0576 24.1455C84.6709 24.1455 84.3721 24.04 84.1611 23.8291C83.9561 23.6123 83.8535 23.3428 83.8535 23.0205ZM92.3613 33.4707C92.8945 33.4707 93.3369 33.3154 93.6885 33.0049C94.04 32.6943 94.2275 32.3105 94.251 31.8535H96.2637C96.2402 32.4453 96.0557 32.999 95.71 33.5146C95.3643 34.0244 94.8955 34.4287 94.3037 34.7275C93.7119 35.0264 93.0732 35.1758 92.3877 35.1758C91.0576 35.1758 90.0029 34.7451 89.2236 33.8838C88.4443 33.0225 88.0547 31.833 88.0547 30.3154V30.0957C88.0547 28.6484 88.4414 27.4912 89.2148 26.624C89.9883 25.751 91.043 25.3145 92.3789 25.3145C93.5098 25.3145 94.4297 25.6455 95.1387 26.3076C95.8535 26.9639 96.2285 27.8281 96.2637 28.9004H94.251C94.2275 28.3555 94.04 27.9072 93.6885 27.5557C93.3428 27.2041 92.9004 27.0283 92.3613 27.0283C91.6699 27.0283 91.1367 27.2803 90.7617 27.7842C90.3867 28.2822 90.1963 29.041 90.1904 30.0605V30.4033C90.1904 31.4346 90.375 32.2051 90.7441 32.7148C91.1191 33.2188 91.6582 33.4707 92.3613 33.4707ZM103.207 32.416C103.207 32.0352 103.049 31.7451 102.732 31.5459C102.422 31.3467 101.903 31.1709 101.177 31.0186C100.45 30.8662 99.8438 30.6729 99.3574 30.4385C98.291 29.9229 97.7578 29.1758 97.7578 28.1973C97.7578 27.377 98.1035 26.6914 98.7949 26.1406C99.4863 25.5898 100.365 25.3145 101.432 25.3145C102.568 25.3145 103.485 25.5957 104.183 26.1582C104.886 26.7207 105.237 27.4502 105.237 28.3467H103.102C103.102 27.9365 102.949 27.5967 102.645 27.3271C102.34 27.0518 101.936 26.9141 101.432 26.9141C100.963 26.9141 100.579 27.0225 100.28 27.2393C99.9873 27.4561 99.8408 27.7461 99.8408 28.1094C99.8408 28.4375 99.9785 28.6924 100.254 28.874C100.529 29.0557 101.086 29.2402 101.924 29.4277C102.762 29.6094 103.418 29.8291 103.893 30.0869C104.373 30.3389 104.728 30.6436 104.956 31.001C105.19 31.3584 105.308 31.792 105.308 32.3018C105.308 33.1572 104.953 33.8516 104.244 34.3848C103.535 34.9121 102.606 35.1758 101.458 35.1758C100.679 35.1758 99.9844 35.0352 99.375 34.7539C98.7656 34.4727 98.291 34.0859 97.9512 33.5938C97.6113 33.1016 97.4414 32.5713 97.4414 32.0029H99.5156C99.5449 32.5068 99.7354 32.8965 100.087 33.1719C100.438 33.4414 100.904 33.5762 101.484 33.5762C102.047 33.5762 102.475 33.4707 102.768 33.2598C103.061 33.043 103.207 32.7617 103.207 32.416ZM117.34 35C117.246 34.8184 117.164 34.5225 117.094 34.1123C116.414 34.8213 115.582 35.1758 114.598 35.1758C113.643 35.1758 112.863 34.9033 112.26 34.3584C111.656 33.8135 111.354 33.1396 111.354 32.3369C111.354 31.3232 111.729 30.5469 112.479 30.0078C113.235 29.4629 114.313 29.1904 115.714 29.1904H117.023V28.5664C117.023 28.0742 116.886 27.6816 116.61 27.3887C116.335 27.0898 115.916 26.9404 115.354 26.9404C114.867 26.9404 114.469 27.0635 114.158 27.3096C113.848 27.5498 113.692 27.8574 113.692 28.2324H111.557C111.557 27.7109 111.729 27.2246 112.075 26.7734C112.421 26.3164 112.89 25.959 113.481 25.7012C114.079 25.4434 114.744 25.3145 115.477 25.3145C116.59 25.3145 117.478 25.5957 118.14 26.1582C118.802 26.7148 119.142 27.5 119.159 28.5137V32.8027C119.159 33.6582 119.279 34.3408 119.52 34.8506V35H117.34ZM114.993 33.4619C115.415 33.4619 115.811 33.3594 116.18 33.1543C116.555 32.9492 116.836 32.6738 117.023 32.3281V30.5352H115.872C115.081 30.5352 114.486 30.6729 114.088 30.9482C113.689 31.2236 113.49 31.6133 113.49 32.1172C113.49 32.5273 113.625 32.8555 113.895 33.1016C114.17 33.3418 114.536 33.4619 114.993 33.4619ZM123.378 25.4902L123.439 26.5889C124.143 25.7393 125.065 25.3145 126.208 25.3145C128.188 25.3145 129.196 26.4482 129.231 28.7158V35H127.096V28.8389C127.096 28.2354 126.964 27.79 126.7 27.5029C126.442 27.21 126.018 27.0635 125.426 27.0635C124.564 27.0635 123.923 27.4531 123.501 28.2324V35H121.365V25.4902H123.378ZM131.016 30.1748C131.016 28.71 131.355 27.5352 132.035 26.6504C132.715 25.7598 133.626 25.3145 134.769 25.3145C135.776 25.3145 136.591 25.666 137.212 26.3691V21.5H139.348V35H137.414L137.309 34.0156C136.67 34.7891 135.817 35.1758 134.751 35.1758C133.638 35.1758 132.735 34.7275 132.044 33.8311C131.358 32.9346 131.016 31.7158 131.016 30.1748ZM133.151 30.3594C133.151 31.3262 133.336 32.082 133.705 32.627C134.08 33.166 134.61 33.4355 135.296 33.4355C136.169 33.4355 136.808 33.0459 137.212 32.2666V28.2061C136.819 27.4443 136.187 27.0635 135.313 27.0635C134.622 27.0635 134.089 27.3389 133.714 27.8896C133.339 28.4346 133.151 29.2578 133.151 30.3594ZM151.389 32.416C151.389 32.0352 151.23 31.7451 150.914 31.5459C150.604 31.3467 150.085 31.1709 149.358 31.0186C148.632 30.8662 148.025 30.6729 147.539 30.4385C146.473 29.9229 145.939 29.1758 145.939 28.1973C145.939 27.377 146.285 26.6914 146.977 26.1406C147.668 25.5898 148.547 25.3145 149.613 25.3145C150.75 25.3145 151.667 25.5957 152.364 26.1582C153.067 26.7207 153.419 27.4502 153.419 28.3467H151.283C151.283 27.9365 151.131 27.5967 150.826 27.3271C150.521 27.0518 150.117 26.9141 149.613 26.9141C149.145 26.9141 148.761 27.0225 148.462 27.2393C148.169 27.4561 148.022 27.7461 148.022 28.1094C148.022 28.4375 148.16 28.6924 148.436 28.874C148.711 29.0557 149.268 29.2402 150.105 29.4277C150.943 29.6094 151.6 29.8291 152.074 30.0869C152.555 30.3389 152.909 30.6436 153.138 31.001C153.372 31.3584 153.489 31.792 153.489 32.3018C153.489 33.1572 153.135 33.8516 152.426 34.3848C151.717 34.9121 150.788 35.1758 149.64 35.1758C148.86 35.1758 148.166 35.0352 147.557 34.7539C146.947 34.4727 146.473 34.0859 146.133 33.5938C145.793 33.1016 145.623 32.5713 145.623 32.0029H147.697C147.727 32.5068 147.917 32.8965 148.269 33.1719C148.62 33.4414 149.086 33.5762 149.666 33.5762C150.229 33.5762 150.656 33.4707 150.949 33.2598C151.242 33.043 151.389 32.7617 151.389 32.416ZM158.446 30.9219L157.497 31.8975V35H155.361V21.5H157.497V29.2871L158.165 28.4521L160.793 25.4902H163.359L159.826 29.4541L163.737 35H161.268L158.446 30.9219ZM167.033 35H164.897V25.4902H167.033V35ZM164.766 23.0205C164.766 22.6924 164.868 22.4199 165.073 22.2031C165.284 21.9863 165.583 21.8779 165.97 21.8779C166.356 21.8779 166.655 21.9863 166.866 22.2031C167.077 22.4199 167.183 22.6924 167.183 23.0205C167.183 23.3428 167.077 23.6123 166.866 23.8291C166.655 24.04 166.356 24.1455 165.97 24.1455C165.583 24.1455 165.284 24.04 165.073 23.8291C164.868 23.6123 164.766 23.3428 164.766 23.0205ZM171.349 25.4902L171.41 26.5889C172.113 25.7393 173.036 25.3145 174.179 25.3145C176.159 25.3145 177.167 26.4482 177.202 28.7158V35H175.066V28.8389C175.066 28.2354 174.935 27.79 174.671 27.5029C174.413 27.21 173.988 27.0635 173.396 27.0635C172.535 27.0635 171.894 27.4531 171.472 28.2324V35H169.336V25.4902H171.349ZM187.775 33.4707C188.309 33.4707 188.751 33.3154 189.103 33.0049C189.454 32.6943 189.642 32.3105 189.665 31.8535H191.678C191.654 32.4453 191.47 32.999 191.124 33.5146C190.778 34.0244 190.31 34.4287 189.718 34.7275C189.126 35.0264 188.487 35.1758 187.802 35.1758C186.472 35.1758 185.417 34.7451 184.638 33.8838C183.858 33.0225 183.469 31.833 183.469 30.3154V30.0957C183.469 28.6484 183.855 27.4912 184.629 26.624C185.402 25.751 186.457 25.3145 187.793 25.3145C188.924 25.3145 189.844 25.6455 190.553 26.3076C191.268 26.9639 191.643 27.8281 191.678 28.9004H189.665C189.642 28.3555 189.454 27.9072 189.103 27.5557C188.757 27.2041 188.314 27.0283 187.775 27.0283C187.084 27.0283 186.551 27.2803 186.176 27.7842C185.801 28.2822 185.61 29.041 185.604 30.0605V30.4033C185.604 31.4346 185.789 32.2051 186.158 32.7148C186.533 33.2188 187.072 33.4707 187.775 33.4707ZM198.973 35C198.879 34.8184 198.797 34.5225 198.727 34.1123C198.047 34.8213 197.215 35.1758 196.23 35.1758C195.275 35.1758 194.496 34.9033 193.893 34.3584C193.289 33.8135 192.987 33.1396 192.987 32.3369C192.987 31.3232 193.362 30.5469 194.112 30.0078C194.868 29.4629 195.946 29.1904 197.347 29.1904H198.656V28.5664C198.656 28.0742 198.519 27.6816 198.243 27.3887C197.968 27.0898 197.549 26.9404 196.986 26.9404C196.5 26.9404 196.102 27.0635 195.791 27.3096C195.48 27.5498 195.325 27.8574 195.325 28.2324H193.189C193.189 27.7109 193.362 27.2246 193.708 26.7734C194.054 26.3164 194.522 25.959 195.114 25.7012C195.712 25.4434 196.377 25.3145 197.109 25.3145C198.223 25.3145 199.11 25.5957 199.772 26.1582C200.435 26.7148 200.774 27.5 200.792 28.5137V32.8027C200.792 33.6582 200.912 34.3408 201.152 34.8506V35H198.973ZM196.626 33.4619C197.048 33.4619 197.443 33.3594 197.812 33.1543C198.188 32.9492 198.469 32.6738 198.656 32.3281V30.5352H197.505C196.714 30.5352 196.119 30.6729 195.721 30.9482C195.322 31.2236 195.123 31.6133 195.123 32.1172C195.123 32.5273 195.258 32.8555 195.527 33.1016C195.803 33.3418 196.169 33.4619 196.626 33.4619ZM208.008 27.4414C207.727 27.3945 207.437 27.3711 207.138 27.3711C206.159 27.3711 205.5 27.7461 205.16 28.4961V35H203.024V25.4902H205.063L205.116 26.5537C205.632 25.7275 206.347 25.3145 207.261 25.3145C207.565 25.3145 207.817 25.3555 208.017 25.4375L208.008 27.4414ZM213.369 35.1758C212.016 35.1758 210.917 34.751 210.073 33.9014C209.235 33.0459 208.816 31.9092 208.816 30.4912V30.2275C208.816 29.2783 208.998 28.4316 209.361 27.6875C209.73 26.9375 210.246 26.3545 210.908 25.9385C211.57 25.5225 212.309 25.3145 213.123 25.3145C214.418 25.3145 215.417 25.7275 216.12 26.5537C216.829 27.3799 217.184 28.5488 217.184 30.0605V30.9219H210.97C211.034 31.707 211.295 32.3281 211.752 32.7852C212.215 33.2422 212.795 33.4707 213.492 33.4707C214.471 33.4707 215.268 33.0752 215.883 32.2842L217.034 33.3828C216.653 33.9512 216.144 34.3936 215.505 34.71C214.872 35.0205 214.16 35.1758 213.369 35.1758ZM213.114 27.0283C212.528 27.0283 212.054 27.2334 211.69 27.6436C211.333 28.0537 211.104 28.625 211.005 29.3574H215.074V29.1992C215.027 28.4844 214.837 27.9453 214.503 27.582C214.169 27.2129 213.706 27.0283 213.114 27.0283ZM227.52 35.1758C226.166 35.1758 225.067 34.751 224.224 33.9014C223.386 33.0459 222.967 31.9092 222.967 30.4912V30.2275C222.967 29.2783 223.148 28.4316 223.512 27.6875C223.881 26.9375 224.396 26.3545 225.059 25.9385C225.721 25.5225 226.459 25.3145 227.273 25.3145C228.568 25.3145 229.567 25.7275 230.271 26.5537C230.979 27.3799 231.334 28.5488 231.334 30.0605V30.9219H225.12C225.185 31.707 225.445 32.3281 225.902 32.7852C226.365 33.2422 226.945 33.4707 227.643 33.4707C228.621 33.4707 229.418 33.0752 230.033 32.2842L231.185 33.3828C230.804 33.9512 230.294 34.3936 229.655 34.71C229.022 35.0205 228.311 35.1758 227.52 35.1758ZM227.265 27.0283C226.679 27.0283 226.204 27.2334 225.841 27.6436C225.483 28.0537 225.255 28.625 225.155 29.3574H229.225V29.1992C229.178 28.4844 228.987 27.9453 228.653 27.582C228.319 27.2129 227.856 27.0283 227.265 27.0283ZM236.414 28.6191L238.225 25.4902H240.598L237.688 30.1748L240.694 35H238.339L236.44 31.748L234.551 35H232.178L235.184 30.1748L232.283 25.4902H234.639L236.414 28.6191ZM250.38 30.3418C250.38 31.8125 250.046 32.9873 249.378 33.8662C248.71 34.7393 247.813 35.1758 246.688 35.1758C245.646 35.1758 244.811 34.833 244.184 34.1475V38.6562H242.048V25.4902H244.017L244.104 26.457C244.731 25.6953 245.584 25.3145 246.662 25.3145C247.822 25.3145 248.73 25.748 249.387 26.6152C250.049 27.4766 250.38 28.6748 250.38 30.21V30.3418ZM248.253 30.1572C248.253 29.208 248.062 28.4551 247.682 27.8984C247.307 27.3418 246.768 27.0635 246.064 27.0635C245.191 27.0635 244.564 27.4238 244.184 28.1445V32.3633C244.57 33.1016 245.203 33.4707 246.082 33.4707C246.762 33.4707 247.292 33.1982 247.673 32.6533C248.06 32.1025 248.253 31.2705 248.253 30.1572ZM256.383 35.1758C255.029 35.1758 253.931 34.751 253.087 33.9014C252.249 33.0459 251.83 31.9092 251.83 30.4912V30.2275C251.83 29.2783 252.012 28.4316 252.375 27.6875C252.744 26.9375 253.26 26.3545 253.922 25.9385C254.584 25.5225 255.322 25.3145 256.137 25.3145C257.432 25.3145 258.431 25.7275 259.134 26.5537C259.843 27.3799 260.197 28.5488 260.197 30.0605V30.9219H253.983C254.048 31.707 254.309 32.3281 254.766 32.7852C255.229 33.2422 255.809 33.4707 256.506 33.4707C257.484 33.4707 258.281 33.0752 258.896 32.2842L260.048 33.3828C259.667 33.9512 259.157 34.3936 258.519 34.71C257.886 35.0205 257.174 35.1758 256.383 35.1758ZM256.128 27.0283C255.542 27.0283 255.067 27.2334 254.704 27.6436C254.347 28.0537 254.118 28.625 254.019 29.3574H258.088V29.1992C258.041 28.4844 257.851 27.9453 257.517 27.582C257.183 27.2129 256.72 27.0283 256.128 27.0283ZM266.842 27.4414C266.561 27.3945 266.271 27.3711 265.972 27.3711C264.993 27.3711 264.334 27.7461 263.994 28.4961V35H261.858V25.4902H263.897L263.95 26.5537C264.466 25.7275 265.181 25.3145 266.095 25.3145C266.399 25.3145 266.651 25.3555 266.851 25.4375L266.842 27.4414ZM271.307 23.1787V25.4902H272.985V27.0723H271.307V32.3809C271.307 32.7441 271.377 33.0078 271.518 33.1719C271.664 33.3301 271.922 33.4092 272.291 33.4092C272.537 33.4092 272.786 33.3799 273.038 33.3213V34.9736C272.552 35.1084 272.083 35.1758 271.632 35.1758C269.991 35.1758 269.171 34.2705 269.171 32.46V27.0723H267.606V25.4902H269.171V23.1787H271.307ZM279.955 32.416C279.955 32.0352 279.797 31.7451 279.48 31.5459C279.17 31.3467 278.651 31.1709 277.925 31.0186C277.198 30.8662 276.592 30.6729 276.105 30.4385C275.039 29.9229 274.506 29.1758 274.506 28.1973C274.506 27.377 274.852 26.6914 275.543 26.1406C276.234 25.5898 277.113 25.3145 278.18 25.3145C279.316 25.3145 280.233 25.5957 280.931 26.1582C281.634 26.7207 281.985 27.4502 281.985 28.3467H279.85C279.85 27.9365 279.697 27.5967 279.393 27.3271C279.088 27.0518 278.684 26.9141 278.18 26.9141C277.711 26.9141 277.327 27.0225 277.028 27.2393C276.735 27.4561 276.589 27.7461 276.589 28.1094C276.589 28.4375 276.727 28.6924 277.002 28.874C277.277 29.0557 277.834 29.2402 278.672 29.4277C279.51 29.6094 280.166 29.8291 280.641 30.0869C281.121 30.3389 281.476 30.6436 281.704 31.001C281.938 31.3584 282.056 31.792 282.056 32.3018C282.056 33.1572 281.701 33.8516 280.992 34.3848C280.283 34.9121 279.354 35.1758 278.206 35.1758C277.427 35.1758 276.732 35.0352 276.123 34.7539C275.514 34.4727 275.039 34.0859 274.699 33.5938C274.359 33.1016 274.189 32.5713 274.189 32.0029H276.264C276.293 32.5068 276.483 32.8965 276.835 33.1719C277.187 33.4414 277.652 33.5762 278.232 33.5762C278.795 33.5762 279.223 33.4707 279.516 33.2598C279.809 33.043 279.955 32.7617 279.955 32.416Z" fill="#ED2771"/>
</svg>
