<svg width="180" height="52" viewBox="0 0 180 52" fill="none" xmlns="http://www.w3.org/2000/svg">
<path d="M24.8091 10.5205H30.5073V12H22.5679V10.7988L28.083 2.83008H22.6045V1.33594H30.3315V2.50781L24.8091 10.5205ZM38.3369 7.23926H33.957V10.5205H39.0767V12H32.104V1.33594H39.0254V2.83008H33.957V5.77441H38.3369V7.23926ZM42.4385 10.5205H47.2798V12H40.5854V1.33594H42.4385V10.5205ZM54.9336 7.23926H50.5537V10.5205H55.6733V12H48.7007V1.33594H55.6221V2.83008H50.5537V5.77441H54.9336V7.23926ZM62.7559 9.25342C62.7559 8.78467 62.5898 8.42334 62.2578 8.16943C61.9307 7.91553 61.3374 7.65918 60.478 7.40039C59.6187 7.1416 58.9351 6.85352 58.4272 6.53613C57.4556 5.92578 56.9697 5.12988 56.9697 4.14844C56.9697 3.28906 57.3188 2.58105 58.0171 2.02441C58.7202 1.46777 59.6309 1.18945 60.749 1.18945C61.4912 1.18945 62.1528 1.32617 62.7339 1.59961C63.3149 1.87305 63.7715 2.26367 64.1035 2.77148C64.4355 3.27441 64.6016 3.8335 64.6016 4.44873H62.7559C62.7559 3.89209 62.5801 3.45752 62.2285 3.14502C61.8818 2.82764 61.3838 2.66895 60.7344 2.66895C60.1289 2.66895 59.6577 2.79834 59.3208 3.05713C58.9888 3.31592 58.8228 3.67725 58.8228 4.14111C58.8228 4.53174 59.0034 4.85889 59.3647 5.12256C59.7261 5.38135 60.3218 5.63525 61.1519 5.88428C61.9819 6.12842 62.6484 6.40918 63.1514 6.72656C63.6543 7.03906 64.0229 7.40039 64.2573 7.81055C64.4917 8.21582 64.6089 8.69189 64.6089 9.23877C64.6089 10.1274 64.2671 10.8354 63.5835 11.3628C62.9048 11.8853 61.9819 12.1465 60.8149 12.1465C60.0435 12.1465 59.333 12.0049 58.6836 11.7217C58.0391 11.4336 57.5361 11.0381 57.1748 10.5352C56.8184 10.0322 56.6401 9.44629 56.6401 8.77734H58.4932C58.4932 9.38281 58.6934 9.85156 59.0938 10.1836C59.4941 10.5156 60.0679 10.6816 60.8149 10.6816C61.4595 10.6816 61.9429 10.5522 62.2651 10.2935C62.5923 10.0298 62.7559 9.68311 62.7559 9.25342ZM71.8086 9.25342C71.8086 8.78467 71.6426 8.42334 71.3105 8.16943C70.9834 7.91553 70.3901 7.65918 69.5308 7.40039C68.6714 7.1416 67.9878 6.85352 67.48 6.53613C66.5083 5.92578 66.0225 5.12988 66.0225 4.14844C66.0225 3.28906 66.3716 2.58105 67.0698 2.02441C67.7729 1.46777 68.6836 1.18945 69.8018 1.18945C70.5439 1.18945 71.2056 1.32617 71.7866 1.59961C72.3677 1.87305 72.8242 2.26367 73.1562 2.77148C73.4883 3.27441 73.6543 3.8335 73.6543 4.44873H71.8086C71.8086 3.89209 71.6328 3.45752 71.2812 3.14502C70.9346 2.82764 70.4365 2.66895 69.7871 2.66895C69.1816 2.66895 68.7104 2.79834 68.3735 3.05713C68.0415 3.31592 67.8755 3.67725 67.8755 4.14111C67.8755 4.53174 68.0562 4.85889 68.4175 5.12256C68.7788 5.38135 69.3745 5.63525 70.2046 5.88428C71.0347 6.12842 71.7012 6.40918 72.2041 6.72656C72.707 7.03906 73.0757 7.40039 73.3101 7.81055C73.5444 8.21582 73.6616 8.69189 73.6616 9.23877C73.6616 10.1274 73.3198 10.8354 72.6362 11.3628C71.9575 11.8853 71.0347 12.1465 69.8677 12.1465C69.0962 12.1465 68.3857 12.0049 67.7363 11.7217C67.0918 11.4336 66.5889 11.0381 66.2275 10.5352C65.8711 10.0322 65.6929 9.44629 65.6929 8.77734H67.5459C67.5459 9.38281 67.7461 9.85156 68.1465 10.1836C68.5469 10.5156 69.1206 10.6816 69.8677 10.6816C70.5122 10.6816 70.9956 10.5522 71.3179 10.2935C71.645 10.0298 71.8086 9.68311 71.8086 9.25342ZM81.5205 7.23926H77.1406V10.5205H82.2603V12H75.2876V1.33594H82.209V2.83008H77.1406V5.77441H81.5205V7.23926ZM83.3223 6.66064C83.3223 5.67432 83.5493 4.75879 84.0034 3.91406C84.4624 3.06934 85.0947 2.40527 85.9004 1.92188C86.7109 1.43359 87.585 1.18945 88.5225 1.18945C89.46 1.18945 90.3315 1.43359 91.1372 1.92188C91.9429 2.40527 92.5728 3.06934 93.0269 3.91406C93.4858 4.75879 93.7153 5.67432 93.7153 6.66064C93.7153 7.64697 93.4858 8.5625 93.0269 9.40723C92.5728 10.252 91.9453 10.9209 91.1445 11.4141C90.3438 11.9023 89.4697 12.1465 88.5225 12.1465C87.5801 12.1465 86.7061 11.9023 85.9004 11.4141C85.0996 10.9258 84.4697 10.2593 84.0107 9.41455C83.5518 8.56982 83.3223 7.65186 83.3223 6.66064ZM92.8218 6.66064C92.8218 5.8501 92.6387 5.09814 92.2725 4.40479C91.9062 3.70654 91.3887 3.1499 90.7197 2.73486C90.0508 2.31494 89.3184 2.10498 88.5225 2.10498C87.7461 2.10498 87.0234 2.30518 86.3545 2.70557C85.6904 3.10596 85.168 3.65771 84.7871 4.36084C84.4062 5.06396 84.2158 5.83057 84.2158 6.66064C84.2158 7.49072 84.4038 8.25732 84.7798 8.96045C85.1606 9.66357 85.6831 10.2202 86.3472 10.6304C87.0161 11.0356 87.7412 11.2383 88.5225 11.2383C89.3037 11.2383 90.0288 11.0308 90.6978 10.6157C91.3716 10.2007 91.894 9.6416 92.2651 8.93848C92.6362 8.23535 92.8218 7.47607 92.8218 6.66064ZM87.4678 7.21729V9.68555H86.3618V3.45996H88.4199C89.167 3.45996 89.7505 3.62598 90.1704 3.95801C90.5903 4.28516 90.8003 4.75391 90.8003 5.36426C90.8003 5.93555 90.5073 6.375 89.9214 6.68262C90.2388 6.82422 90.4609 7.03174 90.5879 7.30518C90.7148 7.57373 90.7783 7.9082 90.7783 8.30859C90.7783 8.7041 90.7856 8.98486 90.8003 9.15088C90.8198 9.31689 90.854 9.45605 90.9028 9.56836V9.68555H89.7676C89.7041 9.51953 89.6724 9.0459 89.6724 8.26465C89.6724 7.89355 89.5918 7.62744 89.4307 7.46631C89.2695 7.30029 89.001 7.21729 88.625 7.21729H87.4678ZM87.4678 6.23584H88.5151C88.8521 6.23584 89.1328 6.16016 89.3574 6.00879C89.5869 5.85742 89.7017 5.6499 89.7017 5.38623C89.7017 5.04443 89.6138 4.80273 89.438 4.66113C89.2671 4.51465 88.9546 4.43896 88.5005 4.43408H87.4678V6.23584ZM100.834 4.93945C101.416 4.26562 102.15 3.92871 103.039 3.92871C104.729 3.92871 105.585 4.89307 105.61 6.82178V12H103.83V6.8877C103.83 6.34082 103.71 5.95508 103.471 5.73047C103.237 5.50098 102.89 5.38623 102.431 5.38623C101.718 5.38623 101.186 5.70361 100.834 6.33838V12H99.0547V0.75H100.834V4.93945ZM112.15 12C112.072 11.8486 112.004 11.6021 111.945 11.2603C111.379 11.8511 110.686 12.1465 109.865 12.1465C109.069 12.1465 108.42 11.9194 107.917 11.4653C107.414 11.0112 107.163 10.4497 107.163 9.78076C107.163 8.93604 107.475 8.28906 108.1 7.83984C108.73 7.38574 109.628 7.15869 110.795 7.15869H111.887V6.63867C111.887 6.22852 111.772 5.90137 111.542 5.65723C111.313 5.4082 110.964 5.28369 110.495 5.28369C110.09 5.28369 109.758 5.38623 109.499 5.59131C109.24 5.7915 109.111 6.04785 109.111 6.36035H107.331C107.331 5.92578 107.475 5.52051 107.763 5.14453C108.051 4.76367 108.442 4.46582 108.935 4.25098C109.433 4.03613 109.987 3.92871 110.598 3.92871C111.525 3.92871 112.265 4.16309 112.817 4.63184C113.369 5.0957 113.652 5.75 113.667 6.59473V10.1689C113.667 10.8818 113.767 11.4507 113.967 11.8755V12H112.15ZM110.195 10.7183C110.546 10.7183 110.876 10.6328 111.184 10.4619C111.496 10.291 111.73 10.0615 111.887 9.77344V8.2793H110.927C110.268 8.2793 109.772 8.39404 109.44 8.62354C109.108 8.85303 108.942 9.17773 108.942 9.59766C108.942 9.93945 109.055 10.2129 109.279 10.418C109.509 10.6182 109.814 10.7183 110.195 10.7183ZM119.973 9.84668C119.973 9.5293 119.841 9.2876 119.577 9.12158C119.318 8.95557 118.886 8.80908 118.281 8.68213C117.675 8.55518 117.17 8.39404 116.765 8.19873C115.876 7.76904 115.432 7.14648 115.432 6.33105C115.432 5.64746 115.72 5.07617 116.296 4.61719C116.872 4.1582 117.604 3.92871 118.493 3.92871C119.44 3.92871 120.205 4.16309 120.786 4.63184C121.372 5.10059 121.665 5.7085 121.665 6.45557H119.885C119.885 6.11377 119.758 5.83057 119.504 5.60596C119.25 5.37646 118.913 5.26172 118.493 5.26172C118.103 5.26172 117.783 5.35205 117.534 5.53271C117.29 5.71338 117.167 5.95508 117.167 6.25781C117.167 6.53125 117.282 6.74365 117.512 6.89502C117.741 7.04639 118.205 7.2002 118.903 7.35645C119.602 7.50781 120.148 7.69092 120.544 7.90576C120.944 8.11572 121.24 8.36963 121.43 8.66748C121.625 8.96533 121.723 9.32666 121.723 9.75146C121.723 10.4644 121.428 11.043 120.837 11.4873C120.246 11.9268 119.472 12.1465 118.515 12.1465C117.866 12.1465 117.287 12.0293 116.779 11.7949C116.271 11.5605 115.876 11.2383 115.593 10.8281C115.31 10.418 115.168 9.97607 115.168 9.50244H116.896C116.921 9.92236 117.08 10.2471 117.373 10.4766C117.666 10.7012 118.054 10.8135 118.537 10.8135C119.006 10.8135 119.362 10.7256 119.606 10.5498C119.851 10.3691 119.973 10.1348 119.973 9.84668ZM133.969 8.11816C133.969 9.34863 133.693 10.3276 133.142 11.0552C132.595 11.7827 131.84 12.1465 130.878 12.1465C129.951 12.1465 129.228 11.812 128.71 11.1431L128.623 12H127.011V0.75H128.791V4.83691C129.304 4.23145 129.995 3.92871 130.864 3.92871C131.831 3.92871 132.59 4.2876 133.142 5.00537C133.693 5.72314 133.969 6.72656 133.969 8.01562V8.11816ZM132.189 7.96436C132.189 7.10498 132.038 6.46045 131.735 6.03076C131.433 5.60107 130.993 5.38623 130.417 5.38623C129.646 5.38623 129.104 5.72314 128.791 6.39697V9.66357C129.108 10.3521 129.655 10.6963 130.432 10.6963C130.988 10.6963 131.418 10.4888 131.721 10.0737C132.023 9.65869 132.18 9.03125 132.189 8.19141V7.96436ZM138.957 12.1465C137.829 12.1465 136.914 11.7925 136.21 11.0845C135.512 10.3716 135.163 9.42432 135.163 8.24268V8.02295C135.163 7.23193 135.314 6.52637 135.617 5.90625C135.925 5.28125 136.354 4.79541 136.906 4.44873C137.458 4.10205 138.073 3.92871 138.752 3.92871C139.831 3.92871 140.664 4.27295 141.25 4.96143C141.84 5.6499 142.136 6.62402 142.136 7.88379V8.60156H136.958C137.011 9.25586 137.229 9.77344 137.609 10.1543C137.995 10.5352 138.479 10.7256 139.06 10.7256C139.875 10.7256 140.539 10.396 141.052 9.73682L142.011 10.6523C141.694 11.126 141.269 11.4946 140.737 11.7583C140.209 12.0171 139.616 12.1465 138.957 12.1465ZM138.745 5.35693C138.256 5.35693 137.861 5.52783 137.558 5.86963C137.26 6.21143 137.07 6.6875 136.987 7.29785H140.378V7.16602C140.339 6.57031 140.18 6.12109 139.902 5.81836C139.624 5.51074 139.238 5.35693 138.745 5.35693ZM147.014 12.1465C145.886 12.1465 144.97 11.7925 144.267 11.0845C143.569 10.3716 143.22 9.42432 143.22 8.24268V8.02295C143.22 7.23193 143.371 6.52637 143.674 5.90625C143.981 5.28125 144.411 4.79541 144.963 4.44873C145.515 4.10205 146.13 3.92871 146.809 3.92871C147.888 3.92871 148.72 4.27295 149.306 4.96143C149.897 5.6499 150.192 6.62402 150.192 7.88379V8.60156H145.014C145.068 9.25586 145.285 9.77344 145.666 10.1543C146.052 10.5352 146.535 10.7256 147.116 10.7256C147.932 10.7256 148.596 10.396 149.108 9.73682L150.068 10.6523C149.75 11.126 149.326 11.4946 148.793 11.7583C148.266 12.0171 147.673 12.1465 147.014 12.1465ZM146.801 5.35693C146.313 5.35693 145.917 5.52783 145.615 5.86963C145.317 6.21143 145.126 6.6875 145.043 7.29785H148.435V7.16602C148.396 6.57031 148.237 6.12109 147.958 5.81836C147.68 5.51074 147.294 5.35693 146.801 5.35693ZM153.232 4.0752L153.283 4.99072C153.869 4.28271 154.638 3.92871 155.59 3.92871C157.241 3.92871 158.081 4.87354 158.11 6.76318V12H156.33V6.86572C156.33 6.36279 156.22 5.9917 156 5.75244C155.786 5.5083 155.432 5.38623 154.938 5.38623C154.221 5.38623 153.686 5.71094 153.334 6.36035V12H151.555V4.0752H153.232ZM19.0669 25.979C19.0669 24.7583 19.3501 23.7793 19.9165 23.042C20.4829 22.2998 21.2422 21.9287 22.1943 21.9287C23.0342 21.9287 23.7129 22.2217 24.2305 22.8076V18.75H26.0103V30H24.3989L24.311 29.1797C23.7788 29.8242 23.0684 30.1465 22.1797 30.1465C21.252 30.1465 20.5 29.7729 19.9238 29.0259C19.3525 28.2788 19.0669 27.2632 19.0669 25.979ZM20.8467 26.1328C20.8467 26.9385 21.0005 27.5684 21.3081 28.0225C21.6206 28.4717 22.0625 28.6963 22.6338 28.6963C23.3613 28.6963 23.8936 28.3716 24.2305 27.7222V24.3384C23.9033 23.7036 23.376 23.3862 22.6484 23.3862C22.0723 23.3862 21.6279 23.6157 21.3154 24.0747C21.0029 24.5288 20.8467 25.2148 20.8467 26.1328ZM31.3569 30.1465C30.229 30.1465 29.3135 29.7925 28.6104 29.0845C27.9121 28.3716 27.563 27.4243 27.563 26.2427V26.0229C27.563 25.2319 27.7144 24.5264 28.0171 23.9062C28.3247 23.2812 28.7544 22.7954 29.3062 22.4487C29.8579 22.1021 30.4731 21.9287 31.1519 21.9287C32.231 21.9287 33.0635 22.2729 33.6494 22.9614C34.2402 23.6499 34.5356 24.624 34.5356 25.8838V26.6016H29.3574C29.4111 27.2559 29.6284 27.7734 30.0093 28.1543C30.395 28.5352 30.8784 28.7256 31.4595 28.7256C32.2749 28.7256 32.939 28.396 33.4517 27.7368L34.4111 28.6523C34.0938 29.126 33.6689 29.4946 33.1367 29.7583C32.6094 30.0171 32.0161 30.1465 31.3569 30.1465ZM31.1445 23.3569C30.6562 23.3569 30.2607 23.5278 29.958 23.8696C29.6602 24.2114 29.4697 24.6875 29.3867 25.2979H32.7778V25.166C32.7388 24.5703 32.5801 24.1211 32.3018 23.8184C32.0234 23.5107 31.6377 23.3569 31.1445 23.3569ZM40.3657 27.8467C40.3657 27.5293 40.2339 27.2876 39.9702 27.1216C39.7114 26.9556 39.2793 26.8091 38.6738 26.6821C38.0684 26.5552 37.563 26.394 37.1577 26.1987C36.269 25.769 35.8247 25.1465 35.8247 24.3311C35.8247 23.6475 36.1128 23.0762 36.689 22.6172C37.2651 22.1582 37.9976 21.9287 38.8862 21.9287C39.8335 21.9287 40.5977 22.1631 41.1787 22.6318C41.7646 23.1006 42.0576 23.7085 42.0576 24.4556H40.2778C40.2778 24.1138 40.1509 23.8306 39.897 23.606C39.6431 23.3765 39.3062 23.2617 38.8862 23.2617C38.4956 23.2617 38.1758 23.3521 37.9268 23.5327C37.6826 23.7134 37.5605 23.9551 37.5605 24.2578C37.5605 24.5312 37.6753 24.7437 37.9048 24.895C38.1343 25.0464 38.5981 25.2002 39.2964 25.3564C39.9946 25.5078 40.5415 25.6909 40.937 25.9058C41.3374 26.1157 41.6328 26.3696 41.8232 26.6675C42.0186 26.9653 42.1162 27.3267 42.1162 27.7515C42.1162 28.4644 41.8208 29.043 41.23 29.4873C40.6392 29.9268 39.8652 30.1465 38.9082 30.1465C38.2588 30.1465 37.6802 30.0293 37.1724 29.7949C36.6646 29.5605 36.269 29.2383 35.9858 28.8281C35.7026 28.418 35.561 27.9761 35.561 27.5024H37.2896C37.314 27.9224 37.4727 28.2471 37.7656 28.4766C38.0586 28.7012 38.4468 28.8135 38.9302 28.8135C39.3989 28.8135 39.7554 28.7256 39.9995 28.5498C40.2437 28.3691 40.3657 28.1348 40.3657 27.8467ZM45.5659 30H43.7861V22.0752H45.5659V30ZM43.6763 20.0171C43.6763 19.7437 43.7617 19.5166 43.9326 19.3359C44.1084 19.1553 44.3574 19.0649 44.6797 19.0649C45.002 19.0649 45.251 19.1553 45.4268 19.3359C45.6025 19.5166 45.6904 19.7437 45.6904 20.0171C45.6904 20.2856 45.6025 20.5103 45.4268 20.6909C45.251 20.8667 45.002 20.9546 44.6797 20.9546C44.3574 20.9546 44.1084 20.8667 43.9326 20.6909C43.7617 20.5103 43.6763 20.2856 43.6763 20.0171ZM47.1992 25.979C47.1992 24.7485 47.4873 23.7671 48.0635 23.0347C48.6445 22.2974 49.4136 21.9287 50.3706 21.9287C51.2739 21.9287 51.9844 22.2437 52.502 22.8735L52.5825 22.0752H54.1865V29.7583C54.1865 30.7983 53.8618 31.6187 53.2124 32.2192C52.5679 32.8198 51.6963 33.1201 50.5977 33.1201C50.0166 33.1201 49.4478 32.998 48.8911 32.7539C48.3394 32.5146 47.9194 32.1997 47.6313 31.8091L48.4736 30.7397C49.0205 31.3892 49.6943 31.7139 50.4951 31.7139C51.0859 31.7139 51.5522 31.5527 51.894 31.2305C52.2358 30.9131 52.4067 30.4443 52.4067 29.8242V29.2896C51.894 29.8608 51.2104 30.1465 50.356 30.1465C49.4282 30.1465 48.6689 29.7778 48.0781 29.0405C47.4922 28.3032 47.1992 27.2827 47.1992 25.979ZM48.9717 26.1328C48.9717 26.9287 49.1328 27.5562 49.4551 28.0151C49.7822 28.4692 50.2339 28.6963 50.8101 28.6963C51.5278 28.6963 52.0601 28.3887 52.4067 27.7734V24.2871C52.0698 23.6865 51.5425 23.3862 50.8247 23.3862C50.2388 23.3862 49.7822 23.6182 49.4551 24.082C49.1328 24.5459 48.9717 25.2295 48.9717 26.1328ZM57.6729 22.0752L57.7241 22.9907C58.3101 22.2827 59.0791 21.9287 60.0312 21.9287C61.6816 21.9287 62.5215 22.8735 62.5508 24.7632V30H60.771V24.8657C60.771 24.3628 60.6611 23.9917 60.4414 23.7524C60.2266 23.5083 59.8726 23.3862 59.3794 23.3862C58.6616 23.3862 58.127 23.7109 57.7754 24.3604V30H55.9956V22.0752H57.6729ZM67.8608 30.1465C66.7329 30.1465 65.8174 29.7925 65.1143 29.0845C64.416 28.3716 64.0669 27.4243 64.0669 26.2427V26.0229C64.0669 25.2319 64.2183 24.5264 64.521 23.9062C64.8286 23.2812 65.2583 22.7954 65.8101 22.4487C66.3618 22.1021 66.9771 21.9287 67.6558 21.9287C68.7349 21.9287 69.5674 22.2729 70.1533 22.9614C70.7441 23.6499 71.0396 24.624 71.0396 25.8838V26.6016H65.8613C65.915 27.2559 66.1323 27.7734 66.5132 28.1543C66.8989 28.5352 67.3823 28.7256 67.9634 28.7256C68.7788 28.7256 69.4429 28.396 69.9556 27.7368L70.915 28.6523C70.5977 29.126 70.1729 29.4946 69.6406 29.7583C69.1133 30.0171 68.52 30.1465 67.8608 30.1465ZM67.6484 23.3569C67.1602 23.3569 66.7646 23.5278 66.4619 23.8696C66.1641 24.2114 65.9736 24.6875 65.8906 25.2979H69.2817V25.166C69.2427 24.5703 69.084 24.1211 68.8057 23.8184C68.5273 23.5107 68.1416 23.3569 67.6484 23.3569ZM72.0942 25.979C72.0942 24.7583 72.3774 23.7793 72.9438 23.042C73.5103 22.2998 74.2695 21.9287 75.2217 21.9287C76.0615 21.9287 76.7402 22.2217 77.2578 22.8076V18.75H79.0376V30H77.4263L77.3384 29.1797C76.8062 29.8242 76.0957 30.1465 75.207 30.1465C74.2793 30.1465 73.5273 29.7729 72.9512 29.0259C72.3799 28.2788 72.0942 27.2632 72.0942 25.979ZM73.874 26.1328C73.874 26.9385 74.0278 27.5684 74.3354 28.0225C74.6479 28.4717 75.0898 28.6963 75.6611 28.6963C76.3887 28.6963 76.9209 28.3716 77.2578 27.7222V24.3384C76.9307 23.7036 76.4033 23.3862 75.6758 23.3862C75.0996 23.3862 74.6553 23.6157 74.3428 24.0747C74.0303 24.5288 73.874 25.2148 73.874 26.1328ZM86.8599 20.1489V22.0752H88.2588V23.3936H86.8599V27.8174C86.8599 28.1201 86.9185 28.3398 87.0356 28.4766C87.1577 28.6084 87.3726 28.6743 87.6802 28.6743C87.8853 28.6743 88.0928 28.6499 88.3027 28.6011V29.978C87.8975 30.0903 87.5068 30.1465 87.1309 30.1465C85.7637 30.1465 85.0801 29.3921 85.0801 27.8833V23.3936H83.7764V22.0752H85.0801V20.1489H86.8599ZM89.0718 25.9644C89.0718 25.188 89.2256 24.4897 89.5332 23.8696C89.8408 23.2446 90.2729 22.7661 90.8296 22.4341C91.3862 22.0972 92.0259 21.9287 92.7485 21.9287C93.8179 21.9287 94.6846 22.2729 95.3486 22.9614C96.0176 23.6499 96.3789 24.563 96.4326 25.7007L96.4399 26.1182C96.4399 26.8994 96.2886 27.5977 95.9858 28.2129C95.688 28.8281 95.2583 29.3042 94.6968 29.6411C94.1401 29.978 93.4956 30.1465 92.7632 30.1465C91.645 30.1465 90.749 29.7754 90.0752 29.0332C89.4062 28.2861 89.0718 27.2925 89.0718 26.0522V25.9644ZM90.8516 26.1182C90.8516 26.9336 91.02 27.5732 91.3569 28.0371C91.6938 28.4961 92.1626 28.7256 92.7632 28.7256C93.3638 28.7256 93.8301 28.4912 94.1621 28.0225C94.499 27.5537 94.6675 26.8677 94.6675 25.9644C94.6675 25.1636 94.4941 24.5288 94.1475 24.0601C93.8057 23.5913 93.3394 23.3569 92.7485 23.3569C92.1675 23.3569 91.7061 23.5889 91.3643 24.0527C91.0225 24.5117 90.8516 25.2002 90.8516 26.1182ZM103.911 20.1489V22.0752H105.31V23.3936H103.911V27.8174C103.911 28.1201 103.969 28.3398 104.086 28.4766C104.208 28.6084 104.423 28.6743 104.731 28.6743C104.936 28.6743 105.144 28.6499 105.354 28.6011V29.978C104.948 30.0903 104.558 30.1465 104.182 30.1465C102.814 30.1465 102.131 29.3921 102.131 27.8833V23.3936H100.827V22.0752H102.131V20.1489H103.911ZM111.411 30C111.333 29.8486 111.264 29.6021 111.206 29.2603C110.639 29.8511 109.946 30.1465 109.125 30.1465C108.33 30.1465 107.68 29.9194 107.177 29.4653C106.674 29.0112 106.423 28.4497 106.423 27.7808C106.423 26.936 106.735 26.2891 107.36 25.8398C107.99 25.3857 108.889 25.1587 110.056 25.1587H111.147V24.6387C111.147 24.2285 111.032 23.9014 110.803 23.6572C110.573 23.4082 110.224 23.2837 109.755 23.2837C109.35 23.2837 109.018 23.3862 108.759 23.5913C108.5 23.7915 108.371 24.0479 108.371 24.3604H106.591C106.591 23.9258 106.735 23.5205 107.023 23.1445C107.312 22.7637 107.702 22.4658 108.195 22.251C108.693 22.0361 109.248 21.9287 109.858 21.9287C110.786 21.9287 111.525 22.1631 112.077 22.6318C112.629 23.0957 112.912 23.75 112.927 24.5947V28.1689C112.927 28.8818 113.027 29.4507 113.227 29.8755V30H111.411ZM109.455 28.7183C109.807 28.7183 110.136 28.6328 110.444 28.4619C110.756 28.291 110.991 28.0615 111.147 27.7734V26.2793H110.188C109.528 26.2793 109.033 26.394 108.701 26.6235C108.369 26.853 108.203 27.1777 108.203 27.5977C108.203 27.9395 108.315 28.2129 108.54 28.418C108.769 28.6182 109.074 28.7183 109.455 28.7183ZM117.365 26.6016L116.574 27.4146V30H114.794V18.75H116.574V25.2393L117.131 24.5435L119.321 22.0752H121.459L118.515 25.3784L121.774 30H119.716L117.365 26.6016ZM125.971 30.1465C124.843 30.1465 123.928 29.7925 123.225 29.0845C122.526 28.3716 122.177 27.4243 122.177 26.2427V26.0229C122.177 25.2319 122.329 24.5264 122.631 23.9062C122.939 23.2812 123.369 22.7954 123.92 22.4487C124.472 22.1021 125.087 21.9287 125.766 21.9287C126.845 21.9287 127.678 22.2729 128.264 22.9614C128.854 23.6499 129.15 24.624 129.15 25.8838V26.6016H123.972C124.025 27.2559 124.243 27.7734 124.624 28.1543C125.009 28.5352 125.493 28.7256 126.074 28.7256C126.889 28.7256 127.553 28.396 128.066 27.7368L129.025 28.6523C128.708 29.126 128.283 29.4946 127.751 29.7583C127.224 30.0171 126.63 30.1465 125.971 30.1465ZM125.759 23.3569C125.271 23.3569 124.875 23.5278 124.572 23.8696C124.274 24.2114 124.084 24.6875 124.001 25.2979H127.392V25.166C127.353 24.5703 127.194 24.1211 126.916 23.8184C126.638 23.5107 126.252 23.3569 125.759 23.3569ZM137.529 28.7256C137.973 28.7256 138.342 28.5962 138.635 28.3374C138.928 28.0786 139.084 27.7588 139.104 27.3779H140.781C140.761 27.8711 140.607 28.3325 140.319 28.7622C140.031 29.187 139.641 29.5239 139.147 29.7729C138.654 30.022 138.122 30.1465 137.551 30.1465C136.442 30.1465 135.563 29.7876 134.914 29.0698C134.265 28.3521 133.94 27.3608 133.94 26.0962V25.9131C133.94 24.707 134.262 23.7427 134.907 23.02C135.551 22.2925 136.43 21.9287 137.543 21.9287C138.486 21.9287 139.252 22.2046 139.843 22.7563C140.439 23.3032 140.751 24.0234 140.781 24.917H139.104C139.084 24.4629 138.928 24.0894 138.635 23.7964C138.347 23.5034 137.978 23.3569 137.529 23.3569C136.953 23.3569 136.508 23.5669 136.196 23.9868C135.883 24.4019 135.725 25.0342 135.72 25.8838V26.1694C135.72 27.0288 135.874 27.6709 136.181 28.0957C136.494 28.5156 136.943 28.7256 137.529 28.7256ZM146.86 30C146.782 29.8486 146.713 29.6021 146.655 29.2603C146.088 29.8511 145.395 30.1465 144.575 30.1465C143.779 30.1465 143.129 29.9194 142.626 29.4653C142.124 29.0112 141.872 28.4497 141.872 27.7808C141.872 26.936 142.185 26.2891 142.81 25.8398C143.439 25.3857 144.338 25.1587 145.505 25.1587H146.596V24.6387C146.596 24.2285 146.481 23.9014 146.252 23.6572C146.022 23.4082 145.673 23.2837 145.205 23.2837C144.799 23.2837 144.467 23.3862 144.208 23.5913C143.95 23.7915 143.82 24.0479 143.82 24.3604H142.041C142.041 23.9258 142.185 23.5205 142.473 23.1445C142.761 22.7637 143.151 22.4658 143.645 22.251C144.143 22.0361 144.697 21.9287 145.307 21.9287C146.235 21.9287 146.975 22.1631 147.526 22.6318C148.078 23.0957 148.361 23.75 148.376 24.5947V28.1689C148.376 28.8818 148.476 29.4507 148.676 29.8755V30H146.86ZM144.904 28.7183C145.256 28.7183 145.585 28.6328 145.893 28.4619C146.206 28.291 146.44 28.0615 146.596 27.7734V26.2793H145.637C144.978 26.2793 144.482 26.394 144.15 26.6235C143.818 26.853 143.652 27.1777 143.652 27.5977C143.652 27.9395 143.764 28.2129 143.989 28.418C144.218 28.6182 144.523 28.7183 144.904 28.7183ZM154.389 23.7012C154.155 23.6621 153.913 23.6426 153.664 23.6426C152.849 23.6426 152.299 23.9551 152.016 24.5801V30H150.236V22.0752H151.936L151.979 22.9614C152.409 22.2729 153.005 21.9287 153.767 21.9287C154.021 21.9287 154.23 21.9629 154.396 22.0312L154.389 23.7012ZM158.857 30.1465C157.729 30.1465 156.813 29.7925 156.11 29.0845C155.412 28.3716 155.063 27.4243 155.063 26.2427V26.0229C155.063 25.2319 155.214 24.5264 155.517 23.9062C155.825 23.2812 156.254 22.7954 156.806 22.4487C157.358 22.1021 157.973 21.9287 158.652 21.9287C159.731 21.9287 160.563 22.2729 161.149 22.9614C161.74 23.6499 162.036 24.624 162.036 25.8838V26.6016H156.857C156.911 27.2559 157.128 27.7734 157.509 28.1543C157.895 28.5352 158.378 28.7256 158.959 28.7256C159.775 28.7256 160.439 28.396 160.952 27.7368L161.911 28.6523C161.594 29.126 161.169 29.4946 160.637 29.7583C160.109 30.0171 159.516 30.1465 158.857 30.1465ZM158.645 23.3569C158.156 23.3569 157.761 23.5278 157.458 23.8696C157.16 24.2114 156.97 24.6875 156.887 25.2979H160.278V25.166C160.239 24.5703 160.08 24.1211 159.802 23.8184C159.523 23.5107 159.138 23.3569 158.645 23.3569ZM0.932129 43.9644C0.932129 43.188 1.08594 42.4897 1.39355 41.8696C1.70117 41.2446 2.1333 40.7661 2.68994 40.4341C3.24658 40.0972 3.88623 39.9287 4.60889 39.9287C5.67822 39.9287 6.54492 40.2729 7.20898 40.9614C7.87793 41.6499 8.23926 42.563 8.29297 43.7007L8.30029 44.1182C8.30029 44.8994 8.14893 45.5977 7.84619 46.2129C7.54834 46.8281 7.11865 47.3042 6.55713 47.6411C6.00049 47.978 5.35596 48.1465 4.62354 48.1465C3.50537 48.1465 2.60938 47.7754 1.93555 47.0332C1.2666 46.2861 0.932129 45.2925 0.932129 44.0522V43.9644ZM2.71191 44.1182C2.71191 44.9336 2.88037 45.5732 3.21729 46.0371C3.5542 46.4961 4.02295 46.7256 4.62354 46.7256C5.22412 46.7256 5.69043 46.4912 6.02246 46.0225C6.35938 45.5537 6.52783 44.8677 6.52783 43.9644C6.52783 43.1636 6.35449 42.5288 6.00781 42.0601C5.66602 41.5913 5.19971 41.3569 4.60889 41.3569C4.02783 41.3569 3.56641 41.5889 3.22461 42.0527C2.88281 42.5117 2.71191 43.2002 2.71191 44.1182ZM10.4316 48V41.3936H9.22314V40.0752H10.4316V39.3501C10.4316 38.4712 10.6758 37.7925 11.1641 37.314C11.6523 36.8354 12.3359 36.5962 13.2148 36.5962C13.5273 36.5962 13.8594 36.6401 14.2109 36.728L14.167 38.1196C13.9717 38.0806 13.7446 38.061 13.4858 38.061C12.6362 38.061 12.2114 38.498 12.2114 39.3721V40.0752H13.8228V41.3936H12.2114V48H10.4316ZM25.8198 45.5464L27.0796 40.0752H28.8154L26.6548 48H25.1899L23.4907 42.5581L21.8208 48H20.356L18.188 40.0752H19.9238L21.2056 45.4878L22.8315 40.0752H24.1719L25.8198 45.5464ZM29.6724 43.9644C29.6724 43.188 29.8262 42.4897 30.1338 41.8696C30.4414 41.2446 30.8735 40.7661 31.4302 40.4341C31.9868 40.0972 32.6265 39.9287 33.3491 39.9287C34.4185 39.9287 35.2852 40.2729 35.9492 40.9614C36.6182 41.6499 36.9795 42.563 37.0332 43.7007L37.0405 44.1182C37.0405 44.8994 36.8892 45.5977 36.5864 46.2129C36.2886 46.8281 35.8589 47.3042 35.2974 47.6411C34.7407 47.978 34.0962 48.1465 33.3638 48.1465C32.2456 48.1465 31.3496 47.7754 30.6758 47.0332C30.0068 46.2861 29.6724 45.2925 29.6724 44.0522V43.9644ZM31.4521 44.1182C31.4521 44.9336 31.6206 45.5732 31.9575 46.0371C32.2944 46.4961 32.7632 46.7256 33.3638 46.7256C33.9644 46.7256 34.4307 46.4912 34.7627 46.0225C35.0996 45.5537 35.2681 44.8677 35.2681 43.9644C35.2681 43.1636 35.0947 42.5288 34.748 42.0601C34.4062 41.5913 33.9399 41.3569 33.3491 41.3569C32.7681 41.3569 32.3066 41.5889 31.9648 42.0527C31.623 42.5117 31.4521 43.2002 31.4521 44.1182ZM40.2192 40.0752L40.2705 40.9028C40.8271 40.2534 41.5889 39.9287 42.5557 39.9287C43.6152 39.9287 44.3403 40.334 44.731 41.1445C45.3071 40.334 46.1177 39.9287 47.1626 39.9287C48.0366 39.9287 48.686 40.1704 49.1108 40.6538C49.5405 41.1372 49.7603 41.8501 49.77 42.7925V48H47.9902V42.8438C47.9902 42.3408 47.8804 41.9722 47.6606 41.7378C47.4409 41.5034 47.0771 41.3862 46.5693 41.3862C46.1641 41.3862 45.832 41.4961 45.5732 41.7158C45.3193 41.9307 45.1411 42.2139 45.0386 42.5654L45.0459 48H43.2661V42.7852C43.2417 41.8525 42.7656 41.3862 41.8379 41.3862C41.125 41.3862 40.6196 41.6768 40.3218 42.2578V48H38.542V40.0752H40.2192ZM55.0874 48.1465C53.9595 48.1465 53.0439 47.7925 52.3408 47.0845C51.6426 46.3716 51.2935 45.4243 51.2935 44.2427V44.0229C51.2935 43.2319 51.4448 42.5264 51.7476 41.9062C52.0552 41.2812 52.4849 40.7954 53.0366 40.4487C53.5884 40.1021 54.2036 39.9287 54.8823 39.9287C55.9614 39.9287 56.7939 40.2729 57.3799 40.9614C57.9707 41.6499 58.2661 42.624 58.2661 43.8838V44.6016H53.0879C53.1416 45.2559 53.3589 45.7734 53.7397 46.1543C54.1255 46.5352 54.6089 46.7256 55.1899 46.7256C56.0054 46.7256 56.6694 46.396 57.1821 45.7368L58.1416 46.6523C57.8242 47.126 57.3994 47.4946 56.8672 47.7583C56.3398 48.0171 55.7466 48.1465 55.0874 48.1465ZM54.875 41.3569C54.3867 41.3569 53.9912 41.5278 53.6885 41.8696C53.3906 42.2114 53.2002 42.6875 53.1172 43.2979H56.5083V43.166C56.4692 42.5703 56.3105 42.1211 56.0322 41.8184C55.7539 41.5107 55.3682 41.3569 54.875 41.3569ZM61.3057 40.0752L61.3569 40.9907C61.9429 40.2827 62.7119 39.9287 63.6641 39.9287C65.3145 39.9287 66.1543 40.8735 66.1836 42.7632V48H64.4038V42.8657C64.4038 42.3628 64.2939 41.9917 64.0742 41.7524C63.8594 41.5083 63.5054 41.3862 63.0122 41.3862C62.2944 41.3862 61.7598 41.7109 61.4082 42.3604V48H59.6284V40.0752H61.3057ZM67.4946 40.5L66.5864 39.936C67.0259 39.2964 67.2529 38.6201 67.2676 37.9072V36.75H68.8276V37.7607C68.8276 38.2637 68.6982 38.7715 68.4395 39.2842C68.1855 39.792 67.8706 40.1973 67.4946 40.5ZM73.1196 45.8467C73.1196 45.5293 72.9878 45.2876 72.7241 45.1216C72.4653 44.9556 72.0332 44.8091 71.4277 44.6821C70.8223 44.5552 70.3169 44.394 69.9116 44.1987C69.0229 43.769 68.5786 43.1465 68.5786 42.3311C68.5786 41.6475 68.8667 41.0762 69.4429 40.6172C70.019 40.1582 70.7515 39.9287 71.6401 39.9287C72.5874 39.9287 73.3516 40.1631 73.9326 40.6318C74.5186 41.1006 74.8115 41.7085 74.8115 42.4556H73.0317C73.0317 42.1138 72.9048 41.8306 72.6509 41.606C72.397 41.3765 72.0601 41.2617 71.6401 41.2617C71.2495 41.2617 70.9297 41.3521 70.6807 41.5327C70.4365 41.7134 70.3145 41.9551 70.3145 42.2578C70.3145 42.5312 70.4292 42.7437 70.6587 42.895C70.8882 43.0464 71.3521 43.2002 72.0503 43.3564C72.7485 43.5078 73.2954 43.6909 73.6909 43.9058C74.0913 44.1157 74.3867 44.3696 74.5771 44.6675C74.7725 44.9653 74.8701 45.3267 74.8701 45.7515C74.8701 46.4644 74.5747 47.043 73.9839 47.4873C73.3931 47.9268 72.6191 48.1465 71.6621 48.1465C71.0127 48.1465 70.4341 48.0293 69.9263 47.7949C69.4185 47.5605 69.0229 47.2383 68.7397 46.8281C68.4565 46.418 68.3149 45.9761 68.3149 45.5024H70.0435C70.0679 45.9224 70.2266 46.2471 70.5195 46.4766C70.8125 46.7012 71.2007 46.8135 71.6841 46.8135C72.1528 46.8135 72.5093 46.7256 72.7534 46.5498C72.9976 46.3691 73.1196 46.1348 73.1196 45.8467ZM82.0552 48H80.2754V40.0752H82.0552V48ZM80.1655 38.0171C80.1655 37.7437 80.251 37.5166 80.4219 37.3359C80.5977 37.1553 80.8467 37.0649 81.1689 37.0649C81.4912 37.0649 81.7402 37.1553 81.916 37.3359C82.0918 37.5166 82.1797 37.7437 82.1797 38.0171C82.1797 38.2856 82.0918 38.5103 81.916 38.6909C81.7402 38.8667 81.4912 38.9546 81.1689 38.9546C80.8467 38.9546 80.5977 38.8667 80.4219 38.6909C80.251 38.5103 80.1655 38.2856 80.1655 38.0171ZM85.6514 40.0752L85.7026 40.9907C86.2886 40.2827 87.0576 39.9287 88.0098 39.9287C89.6602 39.9287 90.5 40.8735 90.5293 42.7632V48H88.7495V42.8657C88.7495 42.3628 88.6396 41.9917 88.4199 41.7524C88.2051 41.5083 87.8511 41.3862 87.3579 41.3862C86.6401 41.3862 86.1055 41.7109 85.7539 42.3604V48H83.9741V40.0752H85.6514ZM94.5796 38.1489V40.0752H95.9785V41.3936H94.5796V45.8174C94.5796 46.1201 94.6382 46.3398 94.7554 46.4766C94.8774 46.6084 95.0923 46.6743 95.3999 46.6743C95.605 46.6743 95.8125 46.6499 96.0225 46.6011V47.978C95.6172 48.0903 95.2266 48.1465 94.8506 48.1465C93.4834 48.1465 92.7998 47.3921 92.7998 45.8833V41.3936H91.4961V40.0752H92.7998V38.1489H94.5796ZM99.2378 48H97.458V40.0752H99.2378V48ZM97.3481 38.0171C97.3481 37.7437 97.4336 37.5166 97.6045 37.3359C97.7803 37.1553 98.0293 37.0649 98.3516 37.0649C98.6738 37.0649 98.9229 37.1553 99.0986 37.3359C99.2744 37.5166 99.3623 37.7437 99.3623 38.0171C99.3623 38.2856 99.2744 38.5103 99.0986 38.6909C98.9229 38.8667 98.6738 38.9546 98.3516 38.9546C98.0293 38.9546 97.7803 38.8667 97.6045 38.6909C97.4336 38.5103 97.3481 38.2856 97.3481 38.0171ZM102.856 40.0752L102.907 40.9028C103.464 40.2534 104.226 39.9287 105.192 39.9287C106.252 39.9287 106.977 40.334 107.368 41.1445C107.944 40.334 108.754 39.9287 109.799 39.9287C110.673 39.9287 111.323 40.1704 111.748 40.6538C112.177 41.1372 112.397 41.8501 112.407 42.7925V48H110.627V42.8438C110.627 42.3408 110.517 41.9722 110.297 41.7378C110.078 41.5034 109.714 41.3862 109.206 41.3862C108.801 41.3862 108.469 41.4961 108.21 41.7158C107.956 41.9307 107.778 42.2139 107.675 42.5654L107.683 48H105.903V42.7852C105.878 41.8525 105.402 41.3862 104.475 41.3862C103.762 41.3862 103.256 41.6768 102.958 42.2578V48H101.179V40.0752H102.856ZM118.969 48C118.891 47.8486 118.823 47.6021 118.764 47.2603C118.198 47.8511 117.504 48.1465 116.684 48.1465C115.888 48.1465 115.239 47.9194 114.736 47.4653C114.233 47.0112 113.981 46.4497 113.981 45.7808C113.981 44.936 114.294 44.2891 114.919 43.8398C115.549 43.3857 116.447 43.1587 117.614 43.1587H118.706V42.6387C118.706 42.2285 118.591 41.9014 118.361 41.6572C118.132 41.4082 117.783 41.2837 117.314 41.2837C116.909 41.2837 116.577 41.3862 116.318 41.5913C116.059 41.7915 115.93 42.0479 115.93 42.3604H114.15C114.15 41.9258 114.294 41.5205 114.582 41.1445C114.87 40.7637 115.261 40.4658 115.754 40.251C116.252 40.0361 116.806 39.9287 117.417 39.9287C118.344 39.9287 119.084 40.1631 119.636 40.6318C120.188 41.0957 120.471 41.75 120.485 42.5947V46.1689C120.485 46.8818 120.585 47.4507 120.786 47.8755V48H118.969ZM117.014 46.7183C117.365 46.7183 117.695 46.6328 118.002 46.4619C118.315 46.291 118.549 46.0615 118.706 45.7734V44.2793H117.746C117.087 44.2793 116.591 44.394 116.259 44.6235C115.927 44.853 115.761 45.1777 115.761 45.5977C115.761 45.9395 115.874 46.2129 116.098 46.418C116.328 46.6182 116.633 46.7183 117.014 46.7183ZM124.58 38.1489V40.0752H125.979V41.3936H124.58V45.8174C124.58 46.1201 124.638 46.3398 124.755 46.4766C124.877 46.6084 125.092 46.6743 125.4 46.6743C125.605 46.6743 125.812 46.6499 126.022 46.6011V47.978C125.617 48.0903 125.227 48.1465 124.851 48.1465C123.483 48.1465 122.8 47.3921 122.8 45.8833V41.3936H121.496V40.0752H122.8V38.1489H124.58ZM130.834 48.1465C129.707 48.1465 128.791 47.7925 128.088 47.0845C127.39 46.3716 127.041 45.4243 127.041 44.2427V44.0229C127.041 43.2319 127.192 42.5264 127.495 41.9062C127.802 41.2812 128.232 40.7954 128.784 40.4487C129.335 40.1021 129.951 39.9287 130.629 39.9287C131.708 39.9287 132.541 40.2729 133.127 40.9614C133.718 41.6499 134.013 42.624 134.013 43.8838V44.6016H128.835C128.889 45.2559 129.106 45.7734 129.487 46.1543C129.873 46.5352 130.356 46.7256 130.937 46.7256C131.752 46.7256 132.417 46.396 132.929 45.7368L133.889 46.6523C133.571 47.126 133.146 47.4946 132.614 47.7583C132.087 48.0171 131.494 48.1465 130.834 48.1465ZM130.622 41.3569C130.134 41.3569 129.738 41.5278 129.436 41.8696C129.138 42.2114 128.947 42.6875 128.864 43.2979H132.255V43.166C132.216 42.5703 132.058 42.1211 131.779 41.8184C131.501 41.5107 131.115 41.3569 130.622 41.3569ZM143.286 41.7012C143.051 41.6621 142.81 41.6426 142.561 41.6426C141.745 41.6426 141.196 41.9551 140.913 42.5801V48H139.133V40.0752H140.832L140.876 40.9614C141.306 40.2729 141.901 39.9287 142.663 39.9287C142.917 39.9287 143.127 39.9629 143.293 40.0312L143.286 41.7012ZM147.753 48.1465C146.625 48.1465 145.71 47.7925 145.007 47.0845C144.309 46.3716 143.959 45.4243 143.959 44.2427V44.0229C143.959 43.2319 144.111 42.5264 144.414 41.9062C144.721 41.2812 145.151 40.7954 145.703 40.4487C146.254 40.1021 146.87 39.9287 147.548 39.9287C148.627 39.9287 149.46 40.2729 150.046 40.9614C150.637 41.6499 150.932 42.624 150.932 43.8838V44.6016H145.754C145.808 45.2559 146.025 45.7734 146.406 46.1543C146.792 46.5352 147.275 46.7256 147.856 46.7256C148.671 46.7256 149.335 46.396 149.848 45.7368L150.808 46.6523C150.49 47.126 150.065 47.4946 149.533 47.7583C149.006 48.0171 148.413 48.1465 147.753 48.1465ZM147.541 41.3569C147.053 41.3569 146.657 41.5278 146.354 41.8696C146.057 42.2114 145.866 42.6875 145.783 43.2979H149.174V43.166C149.135 42.5703 148.977 42.1211 148.698 41.8184C148.42 41.5107 148.034 41.3569 147.541 41.3569ZM152.009 43.979C152.009 42.7485 152.297 41.7671 152.873 41.0347C153.454 40.2974 154.223 39.9287 155.18 39.9287C156.083 39.9287 156.794 40.2437 157.312 40.8735L157.392 40.0752H158.996V47.7583C158.996 48.7983 158.671 49.6187 158.022 50.2192C157.377 50.8198 156.506 51.1201 155.407 51.1201C154.826 51.1201 154.257 50.998 153.701 50.7539C153.149 50.5146 152.729 50.1997 152.441 49.8091L153.283 48.7397C153.83 49.3892 154.504 49.7139 155.305 49.7139C155.896 49.7139 156.362 49.5527 156.704 49.2305C157.045 48.9131 157.216 48.4443 157.216 47.8242V47.2896C156.704 47.8608 156.02 48.1465 155.166 48.1465C154.238 48.1465 153.479 47.7778 152.888 47.0405C152.302 46.3032 152.009 45.2827 152.009 43.979ZM153.781 44.1328C153.781 44.9287 153.942 45.5562 154.265 46.0151C154.592 46.4692 155.043 46.6963 155.62 46.6963C156.337 46.6963 156.87 46.3887 157.216 45.7734V42.2871C156.879 41.6865 156.352 41.3862 155.634 41.3862C155.048 41.3862 154.592 41.6182 154.265 42.082C153.942 42.5459 153.781 43.2295 153.781 44.1328ZM162.724 48H160.944V40.0752H162.724V48ZM160.834 38.0171C160.834 37.7437 160.92 37.5166 161.091 37.3359C161.267 37.1553 161.516 37.0649 161.838 37.0649C162.16 37.0649 162.409 37.1553 162.585 37.3359C162.761 37.5166 162.849 37.7437 162.849 38.0171C162.849 38.2856 162.761 38.5103 162.585 38.6909C162.409 38.8667 162.16 38.9546 161.838 38.9546C161.516 38.9546 161.267 38.8667 161.091 38.6909C160.92 38.5103 160.834 38.2856 160.834 38.0171ZM164.335 43.9644C164.335 43.188 164.489 42.4897 164.797 41.8696C165.104 41.2446 165.537 40.7661 166.093 40.4341C166.65 40.0972 167.29 39.9287 168.012 39.9287C169.082 39.9287 169.948 40.2729 170.612 40.9614C171.281 41.6499 171.643 42.563 171.696 43.7007L171.704 44.1182C171.704 44.8994 171.552 45.5977 171.25 46.2129C170.952 46.8281 170.522 47.3042 169.96 47.6411C169.404 47.978 168.759 48.1465 168.027 48.1465C166.909 48.1465 166.013 47.7754 165.339 47.0332C164.67 46.2861 164.335 45.2925 164.335 44.0522V43.9644ZM166.115 44.1182C166.115 44.9336 166.284 45.5732 166.621 46.0371C166.958 46.4961 167.426 46.7256 168.027 46.7256C168.627 46.7256 169.094 46.4912 169.426 46.0225C169.763 45.5537 169.931 44.8677 169.931 43.9644C169.931 43.1636 169.758 42.5288 169.411 42.0601C169.069 41.5913 168.603 41.3569 168.012 41.3569C167.431 41.3569 166.97 41.5889 166.628 42.0527C166.286 42.5117 166.115 43.2002 166.115 44.1182ZM174.86 40.0752L174.912 40.9907C175.498 40.2827 176.267 39.9287 177.219 39.9287C178.869 39.9287 179.709 40.8735 179.738 42.7632V48H177.958V42.8657C177.958 42.3628 177.849 41.9917 177.629 41.7524C177.414 41.5083 177.06 41.3862 176.567 41.3862C175.849 41.3862 175.314 41.7109 174.963 42.3604V48H173.183V40.0752H174.86Z" fill="#ED2771"/>
</svg>
