<svg width="210" height="14" viewBox="0 0 210 14" fill="none" xmlns="http://www.w3.org/2000/svg">
<path d="M2.80176 11.2246H9.63965V13H0.112305V11.5586L6.73047 1.99609H0.15625V0.203125H9.42871V1.60938L2.80176 11.2246ZM19.0352 7.28711H13.7793V11.2246H19.9229V13H11.5557V0.203125H19.8613V1.99609H13.7793V5.5293H19.0352V7.28711ZM23.957 11.2246H29.7666V13H21.7334V0.203125H23.957V11.2246ZM38.9512 7.28711H33.6953V11.2246H39.8389V13H31.4717V0.203125H39.7773V1.99609H33.6953V5.5293H38.9512V7.28711ZM48.3379 9.7041C48.3379 9.1416 48.1387 8.70801 47.7402 8.40332C47.3477 8.09863 46.6357 7.79102 45.6045 7.48047C44.5732 7.16992 43.7529 6.82422 43.1436 6.44336C41.9775 5.71094 41.3945 4.75586 41.3945 3.57812C41.3945 2.54688 41.8135 1.69727 42.6514 1.0293C43.4951 0.361328 44.5879 0.0273438 45.9297 0.0273438C46.8203 0.0273438 47.6143 0.191406 48.3115 0.519531C49.0088 0.847656 49.5566 1.31641 49.9551 1.92578C50.3535 2.5293 50.5527 3.2002 50.5527 3.93848H48.3379C48.3379 3.27051 48.127 2.74902 47.7051 2.37402C47.2891 1.99316 46.6914 1.80273 45.9121 1.80273C45.1855 1.80273 44.6201 1.95801 44.2158 2.26855C43.8174 2.5791 43.6182 3.0127 43.6182 3.56934C43.6182 4.03809 43.835 4.43066 44.2686 4.74707C44.7021 5.05762 45.417 5.3623 46.4131 5.66113C47.4092 5.9541 48.209 6.29102 48.8125 6.67188C49.416 7.04688 49.8584 7.48047 50.1396 7.97266C50.4209 8.45898 50.5615 9.03027 50.5615 9.68652C50.5615 10.7529 50.1514 11.6025 49.3311 12.2354C48.5166 12.8623 47.4092 13.1758 46.0088 13.1758C45.083 13.1758 44.2305 13.0059 43.4512 12.666C42.6777 12.3203 42.0742 11.8457 41.6406 11.2422C41.2129 10.6387 40.999 9.93555 40.999 9.13281H43.2227C43.2227 9.85938 43.4629 10.4219 43.9434 10.8203C44.4238 11.2188 45.1123 11.418 46.0088 11.418C46.7822 11.418 47.3623 11.2627 47.749 10.9521C48.1416 10.6357 48.3379 10.2197 48.3379 9.7041ZM59.2012 9.7041C59.2012 9.1416 59.002 8.70801 58.6035 8.40332C58.2109 8.09863 57.499 7.79102 56.4678 7.48047C55.4365 7.16992 54.6162 6.82422 54.0068 6.44336C52.8408 5.71094 52.2578 4.75586 52.2578 3.57812C52.2578 2.54688 52.6768 1.69727 53.5146 1.0293C54.3584 0.361328 55.4512 0.0273438 56.793 0.0273438C57.6836 0.0273438 58.4775 0.191406 59.1748 0.519531C59.8721 0.847656 60.4199 1.31641 60.8184 1.92578C61.2168 2.5293 61.416 3.2002 61.416 3.93848H59.2012C59.2012 3.27051 58.9902 2.74902 58.5684 2.37402C58.1523 1.99316 57.5547 1.80273 56.7754 1.80273C56.0488 1.80273 55.4834 1.95801 55.0791 2.26855C54.6807 2.5791 54.4814 3.0127 54.4814 3.56934C54.4814 4.03809 54.6982 4.43066 55.1318 4.74707C55.5654 5.05762 56.2803 5.3623 57.2764 5.66113C58.2725 5.9541 59.0723 6.29102 59.6758 6.67188C60.2793 7.04688 60.7217 7.48047 61.0029 7.97266C61.2842 8.45898 61.4248 9.03027 61.4248 9.68652C61.4248 10.7529 61.0146 11.6025 60.1943 12.2354C59.3799 12.8623 58.2725 13.1758 56.8721 13.1758C55.9463 13.1758 55.0938 13.0059 54.3145 12.666C53.541 12.3203 52.9375 11.8457 52.5039 11.2422C52.0762 10.6387 51.8623 9.93555 51.8623 9.13281H54.0859C54.0859 9.85938 54.3262 10.4219 54.8066 10.8203C55.2871 11.2188 55.9756 11.418 56.8721 11.418C57.6455 11.418 58.2256 11.2627 58.6123 10.9521C59.0049 10.6357 59.2012 10.2197 59.2012 9.7041ZM70.8555 7.28711H65.5996V11.2246H71.7432V13H63.376V0.203125H71.6816V1.99609H65.5996V5.5293H70.8555V7.28711ZM73.0176 6.59277C73.0176 5.40918 73.29 4.31055 73.835 3.29688C74.3857 2.2832 75.1445 1.48633 76.1113 0.90625C77.084 0.320312 78.1328 0.0273438 79.2578 0.0273438C80.3828 0.0273438 81.4287 0.320312 82.3955 0.90625C83.3623 1.48633 84.1182 2.2832 84.6631 3.29688C85.2139 4.31055 85.4893 5.40918 85.4893 6.59277C85.4893 7.77637 85.2139 8.875 84.6631 9.88867C84.1182 10.9023 83.3652 11.7051 82.4043 12.2969C81.4434 12.8828 80.3945 13.1758 79.2578 13.1758C78.127 13.1758 77.0781 12.8828 76.1113 12.2969C75.1504 11.7109 74.3945 10.9111 73.8438 9.89746C73.293 8.88379 73.0176 7.78223 73.0176 6.59277ZM84.417 6.59277C84.417 5.62012 84.1973 4.71777 83.7578 3.88574C83.3184 3.04785 82.6973 2.37988 81.8945 1.88184C81.0918 1.37793 80.2129 1.12598 79.2578 1.12598C78.3262 1.12598 77.459 1.36621 76.6562 1.84668C75.8594 2.32715 75.2324 2.98926 74.7754 3.83301C74.3184 4.67676 74.0898 5.59668 74.0898 6.59277C74.0898 7.58887 74.3154 8.50879 74.7666 9.35254C75.2236 10.1963 75.8506 10.8643 76.6475 11.3564C77.4502 11.8428 78.3203 12.0859 79.2578 12.0859C80.1953 12.0859 81.0654 11.8369 81.8682 11.3389C82.6768 10.8408 83.3037 10.1699 83.749 9.32617C84.1943 8.48242 84.417 7.57129 84.417 6.59277ZM77.9922 7.26074V10.2227H76.665V2.75195H79.1348C80.0312 2.75195 80.7314 2.95117 81.2354 3.34961C81.7393 3.74219 81.9912 4.30469 81.9912 5.03711C81.9912 5.72266 81.6396 6.25 80.9365 6.61914C81.3174 6.78906 81.584 7.03809 81.7363 7.36621C81.8887 7.68848 81.9648 8.08984 81.9648 8.57031C81.9648 9.04492 81.9736 9.38184 81.9912 9.58105C82.0146 9.78027 82.0557 9.94727 82.1143 10.082V10.2227H80.752C80.6758 10.0234 80.6377 9.45508 80.6377 8.51758C80.6377 8.07227 80.541 7.75293 80.3477 7.55957C80.1543 7.36035 79.832 7.26074 79.3809 7.26074H77.9922ZM77.9922 6.08301H79.249C79.6533 6.08301 79.9902 5.99219 80.2598 5.81055C80.5352 5.62891 80.6729 5.37988 80.6729 5.06348C80.6729 4.65332 80.5674 4.36328 80.3564 4.19336C80.1514 4.01758 79.7764 3.92676 79.2314 3.9209H77.9922V6.08301ZM100.853 1.99609H96.8623V13H94.6562V1.99609H90.7012V0.203125H100.853V1.99609ZM112.507 6.93555C112.507 8.18945 112.29 9.29102 111.856 10.2402C111.423 11.1836 110.802 11.9102 109.993 12.4199C109.19 12.9238 108.265 13.1758 107.216 13.1758C106.179 13.1758 105.253 12.9238 104.438 12.4199C103.63 11.9102 103.003 11.1865 102.558 10.249C102.118 9.31152 101.896 8.23047 101.89 7.00586V6.28516C101.89 5.03711 102.109 3.93555 102.549 2.98047C102.994 2.02539 103.618 1.2959 104.421 0.791992C105.229 0.282227 106.155 0.0273438 107.198 0.0273438C108.241 0.0273438 109.164 0.279297 109.967 0.783203C110.775 1.28125 111.399 2.00195 111.839 2.94531C112.278 3.88281 112.501 4.97559 112.507 6.22363V6.93555ZM110.283 6.26758C110.283 4.84961 110.014 3.7627 109.475 3.00684C108.941 2.25098 108.183 1.87305 107.198 1.87305C106.237 1.87305 105.484 2.25098 104.939 3.00684C104.4 3.75684 104.125 4.82031 104.113 6.19727V6.93555C104.113 8.3418 104.386 9.42871 104.931 10.1963C105.481 10.9639 106.243 11.3477 107.216 11.3477C108.2 11.3477 108.956 10.9727 109.483 10.2227C110.017 9.47266 110.283 8.37695 110.283 6.93555V6.26758ZM116.945 11.2246H122.755V13H114.722V0.203125H116.945V11.2246ZM131.939 7.28711H126.684V11.2246H132.827V13H124.46V0.203125H132.766V1.99609H126.684V5.5293H131.939V7.28711ZM139.34 8.06934H136.861V13H134.638V0.203125H139.138C140.614 0.203125 141.754 0.53418 142.557 1.19629C143.359 1.8584 143.761 2.81641 143.761 4.07031C143.761 4.92578 143.553 5.64355 143.137 6.22363C142.727 6.79785 142.152 7.24023 141.414 7.55078L144.288 12.8857V13H141.906L139.34 8.06934ZM136.861 6.28516H139.146C139.896 6.28516 140.482 6.09766 140.904 5.72266C141.326 5.3418 141.537 4.82324 141.537 4.16699C141.537 3.48145 141.341 2.95117 140.948 2.57617C140.562 2.20117 139.981 2.00781 139.208 1.99609H136.861V6.28516ZM153.033 10.0205H148.076L147.039 13H144.728L149.562 0.203125H151.557L156.399 13H154.079L153.033 10.0205ZM148.7 8.22754H152.409L150.555 2.91895L148.7 8.22754ZM157.858 13V0.203125H162.244C163.691 0.203125 164.793 0.493164 165.549 1.07324C166.305 1.65332 166.683 2.51758 166.683 3.66602C166.683 4.25195 166.524 4.7793 166.208 5.24805C165.892 5.7168 165.429 6.08008 164.819 6.33789C165.511 6.52539 166.044 6.87988 166.419 7.40137C166.8 7.91699 166.99 8.53809 166.99 9.26465C166.99 10.4658 166.604 11.3887 165.83 12.0332C165.062 12.6777 163.961 13 162.525 13H157.858ZM160.082 7.22559V11.2246H162.552C163.249 11.2246 163.794 11.0518 164.187 10.7061C164.579 10.3604 164.775 9.87988 164.775 9.26465C164.775 7.93457 164.096 7.25488 162.736 7.22559H160.082ZM160.082 5.59082H162.262C162.953 5.59082 163.492 5.43555 163.879 5.125C164.271 4.80859 164.468 4.36328 164.468 3.78906C164.468 3.15625 164.286 2.69922 163.923 2.41797C163.565 2.13672 163.006 1.99609 162.244 1.99609H160.082V5.59082ZM171.561 13H169.346V0.203125H171.561V13ZM176.518 11.2246H182.327V13H174.294V0.203125H176.518V11.2246ZM186.379 13H184.164V0.203125H186.379V13ZM198.095 1.99609H194.104V13H191.898V1.99609H187.943V0.203125H198.095V1.99609ZM204.098 6.26758L207.042 0.203125H209.503L205.214 8.28906V13H202.981V8.28906L198.684 0.203125H201.153L204.098 6.26758Z" fill="#ED2771"/>
</svg>
