<svg width="235" height="22" viewBox="0 0 235 22" fill="none" xmlns="http://www.w3.org/2000/svg">
<path d="M43.4697 13.8359L45.4385 4.20312H47.6445L44.6914 17H42.5645L40.1299 7.65723L37.6426 17H35.5068L32.5537 4.20312H34.7598L36.7461 13.8184L39.1895 4.20312H41.0527L43.4697 13.8359ZM59.4307 17H57.2158V11.3135H51.4941V17H49.2705V4.20312H51.4941V9.5293H57.2158V4.20312H59.4307V17ZM69.3887 14.0205H64.4316L63.3945 17H61.083L65.917 4.20312H67.9121L72.7549 17H70.4346L69.3887 14.0205ZM65.0557 12.2275H68.7646L66.9102 6.91895L65.0557 12.2275ZM82.4053 5.99609H78.415V17H76.209V5.99609H72.2539V4.20312H82.4053V5.99609ZM90.3945 17H88.1797V4.20312H90.3945V17ZM99.8164 13.7041C99.8164 13.1416 99.6172 12.708 99.2188 12.4033C98.8262 12.0986 98.1143 11.791 97.083 11.4805C96.0518 11.1699 95.2314 10.8242 94.6221 10.4434C93.4561 9.71094 92.873 8.75586 92.873 7.57812C92.873 6.54688 93.292 5.69727 94.1299 5.0293C94.9736 4.36133 96.0664 4.02734 97.4082 4.02734C98.2988 4.02734 99.0928 4.19141 99.79 4.51953C100.487 4.84766 101.035 5.31641 101.434 5.92578C101.832 6.5293 102.031 7.2002 102.031 7.93848H99.8164C99.8164 7.27051 99.6055 6.74902 99.1836 6.37402C98.7676 5.99316 98.1699 5.80273 97.3906 5.80273C96.6641 5.80273 96.0986 5.95801 95.6943 6.26855C95.2959 6.5791 95.0967 7.0127 95.0967 7.56934C95.0967 8.03809 95.3135 8.43066 95.7471 8.74707C96.1807 9.05762 96.8955 9.3623 97.8916 9.66113C98.8877 9.9541 99.6875 10.291 100.291 10.6719C100.895 11.0469 101.337 11.4805 101.618 11.9727C101.899 12.459 102.04 13.0303 102.04 13.6865C102.04 14.7529 101.63 15.6025 100.81 16.2354C99.9951 16.8623 98.8877 17.1758 97.4873 17.1758C96.5615 17.1758 95.709 17.0059 94.9297 16.666C94.1562 16.3203 93.5527 15.8457 93.1191 15.2422C92.6914 14.6387 92.4775 13.9355 92.4775 13.1328H94.7012C94.7012 13.8594 94.9414 14.4219 95.4219 14.8203C95.9023 15.2188 96.5908 15.418 97.4873 15.418C98.2607 15.418 98.8408 15.2627 99.2275 14.9521C99.6201 14.6357 99.8164 14.2197 99.8164 13.7041ZM110.565 15.2246H117.403V17H107.876V15.5586L114.494 5.99609H107.92V4.20312H117.192V5.60938L110.565 15.2246ZM126.799 11.2871H121.543V15.2246H127.687V17H119.319V4.20312H127.625V5.99609H121.543V9.5293H126.799V11.2871ZM131.721 15.2246H137.53V17H129.497V4.20312H131.721V15.2246ZM146.715 11.2871H141.459V15.2246H147.603V17H139.235V4.20312H147.541V5.99609H141.459V9.5293H146.715V11.2871ZM156.102 13.7041C156.102 13.1416 155.902 12.708 155.504 12.4033C155.111 12.0986 154.399 11.791 153.368 11.4805C152.337 11.1699 151.517 10.8242 150.907 10.4434C149.741 9.71094 149.158 8.75586 149.158 7.57812C149.158 6.54688 149.577 5.69727 150.415 5.0293C151.259 4.36133 152.352 4.02734 153.693 4.02734C154.584 4.02734 155.378 4.19141 156.075 4.51953C156.772 4.84766 157.32 5.31641 157.719 5.92578C158.117 6.5293 158.316 7.2002 158.316 7.93848H156.102C156.102 7.27051 155.891 6.74902 155.469 6.37402C155.053 5.99316 154.455 5.80273 153.676 5.80273C152.949 5.80273 152.384 5.95801 151.979 6.26855C151.581 6.5791 151.382 7.0127 151.382 7.56934C151.382 8.03809 151.599 8.43066 152.032 8.74707C152.466 9.05762 153.181 9.3623 154.177 9.66113C155.173 9.9541 155.973 10.291 156.576 10.6719C157.18 11.0469 157.622 11.4805 157.903 11.9727C158.185 12.459 158.325 13.0303 158.325 13.6865C158.325 14.7529 157.915 15.6025 157.095 16.2354C156.28 16.8623 155.173 17.1758 153.772 17.1758C152.847 17.1758 151.994 17.0059 151.215 16.666C150.441 16.3203 149.838 15.8457 149.404 15.2422C148.977 14.6387 148.763 13.9355 148.763 13.1328H150.986C150.986 13.8594 151.227 14.4219 151.707 14.8203C152.188 15.2188 152.876 15.418 153.772 15.418C154.546 15.418 155.126 15.2627 155.513 14.9521C155.905 14.6357 156.102 14.2197 156.102 13.7041ZM166.965 13.7041C166.965 13.1416 166.766 12.708 166.367 12.4033C165.975 12.0986 165.263 11.791 164.231 11.4805C163.2 11.1699 162.38 10.8242 161.771 10.4434C160.604 9.71094 160.021 8.75586 160.021 7.57812C160.021 6.54688 160.44 5.69727 161.278 5.0293C162.122 4.36133 163.215 4.02734 164.557 4.02734C165.447 4.02734 166.241 4.19141 166.938 4.51953C167.636 4.84766 168.184 5.31641 168.582 5.92578C168.98 6.5293 169.18 7.2002 169.18 7.93848H166.965C166.965 7.27051 166.754 6.74902 166.332 6.37402C165.916 5.99316 165.318 5.80273 164.539 5.80273C163.812 5.80273 163.247 5.95801 162.843 6.26855C162.444 6.5791 162.245 7.0127 162.245 7.56934C162.245 8.03809 162.462 8.43066 162.896 8.74707C163.329 9.05762 164.044 9.3623 165.04 9.66113C166.036 9.9541 166.836 10.291 167.439 10.6719C168.043 11.0469 168.485 11.4805 168.767 11.9727C169.048 12.459 169.188 13.0303 169.188 13.6865C169.188 14.7529 168.778 15.6025 167.958 16.2354C167.144 16.8623 166.036 17.1758 164.636 17.1758C163.71 17.1758 162.857 17.0059 162.078 16.666C161.305 16.3203 160.701 15.8457 160.268 15.2422C159.84 14.6387 159.626 13.9355 159.626 13.1328H161.85C161.85 13.8594 162.09 14.4219 162.57 14.8203C163.051 15.2188 163.739 15.418 164.636 15.418C165.409 15.418 165.989 15.2627 166.376 14.9521C166.769 14.6357 166.965 14.2197 166.965 13.7041ZM178.619 11.2871H173.363V15.2246H179.507V17H171.14V4.20312H179.445V5.99609H173.363V9.5293H178.619V11.2871ZM180.781 10.5928C180.781 9.40918 181.054 8.31055 181.599 7.29688C182.149 6.2832 182.908 5.48633 183.875 4.90625C184.848 4.32031 185.896 4.02734 187.021 4.02734C188.146 4.02734 189.192 4.32031 190.159 4.90625C191.126 5.48633 191.882 6.2832 192.427 7.29688C192.978 8.31055 193.253 9.40918 193.253 10.5928C193.253 11.7764 192.978 12.875 192.427 13.8887C191.882 14.9023 191.129 15.7051 190.168 16.2969C189.207 16.8828 188.158 17.1758 187.021 17.1758C185.891 17.1758 184.842 16.8828 183.875 16.2969C182.914 15.7109 182.158 14.9111 181.607 13.8975C181.057 12.8838 180.781 11.7822 180.781 10.5928ZM192.181 10.5928C192.181 9.62012 191.961 8.71777 191.521 7.88574C191.082 7.04785 190.461 6.37988 189.658 5.88184C188.855 5.37793 187.977 5.12598 187.021 5.12598C186.09 5.12598 185.223 5.36621 184.42 5.84668C183.623 6.32715 182.996 6.98926 182.539 7.83301C182.082 8.67676 181.854 9.59668 181.854 10.5928C181.854 11.5889 182.079 12.5088 182.53 13.3525C182.987 14.1963 183.614 14.8643 184.411 15.3564C185.214 15.8428 186.084 16.0859 187.021 16.0859C187.959 16.0859 188.829 15.8369 189.632 15.3389C190.44 14.8408 191.067 14.1699 191.513 13.3262C191.958 12.4824 192.181 11.5713 192.181 10.5928ZM185.756 11.2607V14.2227H184.429V6.75195H186.898C187.795 6.75195 188.495 6.95117 188.999 7.34961C189.503 7.74219 189.755 8.30469 189.755 9.03711C189.755 9.72266 189.403 10.25 188.7 10.6191C189.081 10.7891 189.348 11.0381 189.5 11.3662C189.652 11.6885 189.729 12.0898 189.729 12.5703C189.729 13.0449 189.737 13.3818 189.755 13.5811C189.778 13.7803 189.819 13.9473 189.878 14.082V14.2227H188.516C188.439 14.0234 188.401 13.4551 188.401 12.5176C188.401 12.0723 188.305 11.7529 188.111 11.5596C187.918 11.3604 187.596 11.2607 187.145 11.2607H185.756ZM185.756 10.083H187.013C187.417 10.083 187.754 9.99219 188.023 9.81055C188.299 9.62891 188.437 9.37988 188.437 9.06348C188.437 8.65332 188.331 8.36328 188.12 8.19336C187.915 8.01758 187.54 7.92676 186.995 7.9209H185.756V10.083ZM197.19 13.2383C197.19 12.459 197.287 11.8379 197.48 11.375C197.674 10.9121 198.055 10.4053 198.623 9.85449C199.197 9.29785 199.561 8.90234 199.713 8.66797C199.947 8.31055 200.064 7.92383 200.064 7.50781C200.064 6.95703 199.927 6.53809 199.651 6.25098C199.382 5.95801 198.983 5.81152 198.456 5.81152C197.952 5.81152 197.545 5.95508 197.234 6.24219C196.93 6.52344 196.777 6.90723 196.777 7.39355H194.642C194.653 6.35645 195.005 5.53613 195.696 4.93262C196.394 4.3291 197.313 4.02734 198.456 4.02734C199.634 4.02734 200.551 4.32617 201.207 4.92383C201.869 5.52148 202.2 6.35645 202.2 7.42871C202.2 8.38379 201.755 9.32422 200.864 10.25L199.783 11.3135C199.396 11.7529 199.197 12.3945 199.186 13.2383H197.19ZM197.041 15.9717C197.041 15.626 197.149 15.3477 197.366 15.1367C197.583 14.9199 197.876 14.8115 198.245 14.8115C198.62 14.8115 198.916 14.9229 199.133 15.1455C199.35 15.3623 199.458 15.6377 199.458 15.9717C199.458 16.2939 199.353 16.5635 199.142 16.7803C198.931 16.9971 198.632 17.1055 198.245 17.1055C197.858 17.1055 197.56 16.9971 197.349 16.7803C197.144 16.5635 197.041 16.2939 197.041 15.9717Z" fill="#ED2771"/>
<path d="M25.075 11.5C25.5855 11.5 26.0752 11.2972 26.4362 10.9362C26.7972 10.5752 27 10.0855 27 9.575C27 9.10552 26.9075 8.64065 26.7279 8.20691C26.5482 7.77317 26.2849 7.37906 25.9529 7.04709C25.6209 6.71512 25.2268 6.45179 24.7931 6.27213C24.3594 6.09247 23.8945 6 23.425 6C22.9145 6 22.4248 6.20281 22.0638 6.56382C21.7028 6.92483 21.5 7.41446 21.5 7.925C21.5 7.41446 21.2972 6.92483 20.9362 6.56382C20.5752 6.20281 20.0855 6 19.575 6C18.6269 6 17.7175 6.37665 17.0471 7.04709C16.3767 7.71754 16 8.62685 16 9.575C16 10.0855 16.2028 10.5752 16.5638 10.9362C16.9248 11.2972 17.4145 11.5 17.925 11.5C17.4145 11.5 16.9248 11.7028 16.5638 12.0638C16.2028 12.4248 16 12.9145 16 13.425C16 13.8945 16.0925 14.3594 16.2721 14.7931C16.4518 15.2268 16.7151 15.6209 17.0471 15.9529C17.7175 16.6233 18.6269 17 19.575 17C20.0855 17 20.5752 16.7972 20.9362 16.4362C21.2972 16.0752 21.5 15.5855 21.5 15.075C21.5 15.5855 21.7028 16.0752 22.0638 16.4362C22.4248 16.7972 22.9145 17 23.425 17C23.8945 17 24.3594 16.9075 24.7931 16.7279C25.2268 16.5482 25.6209 16.2849 25.9529 15.9529C26.2849 15.6209 26.5482 15.2268 26.7279 14.7931C26.9075 14.3594 27 13.8945 27 13.425C27 12.9145 26.7972 12.4248 26.4362 12.0638C26.0752 11.7028 25.5855 11.5 25.075 11.5V11.5ZM21.5 13.7C20.9165 13.7 20.3569 13.4682 19.9444 13.0556C19.5318 12.6431 19.3 12.0835 19.3 11.5C19.3 10.9165 19.5318 10.3569 19.9444 9.94437C20.3569 9.53179 20.9165 9.3 21.5 9.3C22.0835 9.3 22.6431 9.53179 23.0556 9.94437C23.4682 10.3569 23.7 10.9165 23.7 11.5C23.7 12.0835 23.4682 12.6431 23.0556 13.0556C22.6431 13.4682 22.0835 13.7 21.5 13.7ZM22.875 11.5C22.875 11.8647 22.7301 12.2144 22.4723 12.4723C22.2144 12.7301 21.8647 12.875 21.5 12.875C21.1353 12.875 20.7856 12.7301 20.5277 12.4723C20.2699 12.2144 20.125 11.8647 20.125 11.5C20.125 11.1353 20.2699 10.7856 20.5277 10.5277C20.7856 10.2699 21.1353 10.125 21.5 10.125C21.8647 10.125 22.2144 10.2699 22.4723 10.5277C22.7301 10.7856 22.875 11.1353 22.875 11.5V11.5Z" fill="#ED2771"/>
</svg>
