<svg width="274" height="26" viewBox="0 0 274 26" fill="none" xmlns="http://www.w3.org/2000/svg">
<path d="M2.4502 8.71777H7.38867V10H0.507812V8.95898L5.2876 2.05273H0.539551V0.757812H7.23633V1.77344L2.4502 8.71777ZM14.1743 5.87402H10.3784V8.71777H14.8154V10H8.77246V0.757812H14.771V2.05273H10.3784V4.60449H14.1743V5.87402ZM17.729 8.71777H21.9248V10H16.123V0.757812H17.729V8.71777ZM28.5581 5.87402H24.7622V8.71777H29.1992V10H23.1562V0.757812H29.1548V2.05273H24.7622V4.60449H28.5581V5.87402ZM35.3374 7.61963C35.3374 7.21338 35.1935 6.90023 34.9058 6.68018C34.6222 6.46012 34.1081 6.23796 33.3633 6.01367C32.6185 5.78939 32.026 5.53971 31.5859 5.26465C30.7438 4.73568 30.3228 4.0459 30.3228 3.19531C30.3228 2.45052 30.6253 1.83691 31.2305 1.35449C31.8398 0.87207 32.6291 0.630859 33.5981 0.630859C34.2414 0.630859 34.8148 0.749349 35.3184 0.986328C35.8219 1.22331 36.2176 1.56185 36.5054 2.00195C36.7931 2.43783 36.937 2.92236 36.937 3.45557H35.3374C35.3374 2.97314 35.1851 2.59652 34.8804 2.32568C34.5799 2.05062 34.1483 1.91309 33.5854 1.91309C33.0607 1.91309 32.6523 2.02523 32.3604 2.24951C32.0726 2.4738 31.9287 2.78695 31.9287 3.18896C31.9287 3.52751 32.0853 3.81104 32.3984 4.03955C32.7116 4.26383 33.2279 4.48389 33.9473 4.69971C34.6667 4.9113 35.2443 5.15462 35.6802 5.42969C36.116 5.70052 36.4355 6.01367 36.6387 6.36914C36.8418 6.72038 36.9434 7.13298 36.9434 7.60693C36.9434 8.37712 36.6471 8.99072 36.0547 9.44775C35.4665 9.90055 34.6667 10.127 33.6553 10.127C32.9867 10.127 32.3709 10.0042 31.8081 9.75879C31.2495 9.50911 30.8136 9.16634 30.5005 8.73047C30.1916 8.2946 30.0371 7.78678 30.0371 7.20703H31.6431C31.6431 7.73177 31.8166 8.13802 32.1636 8.42578C32.5106 8.71354 33.0078 8.85742 33.6553 8.85742C34.2139 8.85742 34.6328 8.74528 34.9121 8.521C35.1956 8.29248 35.3374 7.99202 35.3374 7.61963ZM43.1831 7.61963C43.1831 7.21338 43.0392 6.90023 42.7515 6.68018C42.4679 6.46012 41.9538 6.23796 41.209 6.01367C40.4642 5.78939 39.8717 5.53971 39.4316 5.26465C38.5895 4.73568 38.1685 4.0459 38.1685 3.19531C38.1685 2.45052 38.471 1.83691 39.0762 1.35449C39.6855 0.87207 40.4748 0.630859 41.4438 0.630859C42.0871 0.630859 42.6605 0.749349 43.1641 0.986328C43.6676 1.22331 44.0633 1.56185 44.3511 2.00195C44.6388 2.43783 44.7827 2.92236 44.7827 3.45557H43.1831C43.1831 2.97314 43.0308 2.59652 42.7261 2.32568C42.4256 2.05062 41.994 1.91309 41.4312 1.91309C40.9064 1.91309 40.498 2.02523 40.2061 2.24951C39.9183 2.4738 39.7744 2.78695 39.7744 3.18896C39.7744 3.52751 39.931 3.81104 40.2441 4.03955C40.5573 4.26383 41.0736 4.48389 41.793 4.69971C42.5124 4.9113 43.09 5.15462 43.5259 5.42969C43.9618 5.70052 44.2812 6.01367 44.4844 6.36914C44.6875 6.72038 44.7891 7.13298 44.7891 7.60693C44.7891 8.37712 44.4928 8.99072 43.9004 9.44775C43.3122 9.90055 42.5124 10.127 41.501 10.127C40.8324 10.127 40.2166 10.0042 39.6538 9.75879C39.0952 9.50911 38.6593 9.16634 38.3462 8.73047C38.0373 8.2946 37.8828 7.78678 37.8828 7.20703H39.4888C39.4888 7.73177 39.6623 8.13802 40.0093 8.42578C40.3563 8.71354 40.8535 8.85742 41.501 8.85742C42.0596 8.85742 42.4785 8.74528 42.7578 8.521C43.0413 8.29248 43.1831 7.99202 43.1831 7.61963ZM51.6001 5.87402H47.8042V8.71777H52.2412V10H46.1982V0.757812H52.1968V2.05273H47.8042V4.60449H51.6001V5.87402ZM53.1616 5.37256C53.1616 4.51774 53.3584 3.72428 53.752 2.99219C54.1497 2.26009 54.6978 1.68457 55.396 1.26562C56.0985 0.842448 56.856 0.630859 57.6685 0.630859C58.481 0.630859 59.2363 0.842448 59.9346 1.26562C60.6328 1.68457 61.1787 2.26009 61.5723 2.99219C61.9701 3.72428 62.1689 4.51774 62.1689 5.37256C62.1689 6.22738 61.9701 7.02083 61.5723 7.75293C61.1787 8.48503 60.6349 9.06478 59.9409 9.49219C59.2469 9.91536 58.4894 10.127 57.6685 10.127C56.8517 10.127 56.0942 9.91536 55.396 9.49219C54.702 9.06901 54.1561 8.49137 53.7583 7.75928C53.3605 7.02718 53.1616 6.23161 53.1616 5.37256ZM61.3945 5.37256C61.3945 4.67008 61.2358 4.01839 60.9185 3.41748C60.6011 2.81234 60.1525 2.32992 59.5728 1.97021C58.993 1.60628 58.3582 1.42432 57.6685 1.42432C56.9956 1.42432 56.3693 1.59782 55.7896 1.94482C55.214 2.29183 54.7612 2.77002 54.4312 3.37939C54.1011 3.98877 53.936 4.65316 53.936 5.37256C53.936 6.09196 54.099 6.75635 54.4248 7.36572C54.7549 7.9751 55.2077 8.45752 55.7832 8.81299C56.363 9.16423 56.9914 9.33984 57.6685 9.33984C58.3455 9.33984 58.974 9.15999 59.5537 8.80029C60.1377 8.44059 60.5905 7.95605 60.9121 7.34668C61.2337 6.7373 61.3945 6.07926 61.3945 5.37256ZM56.7544 5.85498V7.99414H55.7959V2.59863H57.5796C58.2271 2.59863 58.7327 2.74251 59.0967 3.03027C59.4606 3.3138 59.6426 3.72005 59.6426 4.24902C59.6426 4.74414 59.3887 5.125 58.8809 5.3916C59.1559 5.51432 59.3485 5.69417 59.4585 5.93115C59.5685 6.1639 59.6235 6.45378 59.6235 6.80078C59.6235 7.14355 59.6299 7.38688 59.6426 7.53076C59.6595 7.67464 59.6891 7.79525 59.7314 7.89258V7.99414H58.7476C58.6925 7.85026 58.665 7.43978 58.665 6.7627C58.665 6.44108 58.5952 6.21045 58.4556 6.0708C58.3159 5.92692 58.0832 5.85498 57.7573 5.85498H56.7544ZM56.7544 5.00439H57.6621C57.9541 5.00439 58.1974 4.9388 58.3921 4.80762C58.591 4.67643 58.6904 4.49658 58.6904 4.26807C58.6904 3.97184 58.6143 3.76237 58.4619 3.63965C58.3138 3.5127 58.043 3.4471 57.6494 3.44287H56.7544V5.00439ZM69.0498 0.757812L71.7158 7.8418L74.3755 0.757812H76.4512V10H74.8516V6.95312L75.0103 2.87793L72.2808 10H71.1318L68.4087 2.88428L68.5674 6.95312V10H66.9678V0.757812H69.0498ZM85.7314 5.62012C85.7314 6.52572 85.5749 7.32129 85.2617 8.00684C84.9486 8.68815 84.5 9.21289 83.916 9.58105C83.3363 9.94499 82.6676 10.127 81.9102 10.127C81.1611 10.127 80.4925 9.94499 79.9043 9.58105C79.3203 9.21289 78.8675 8.69027 78.5459 8.01318C78.2285 7.3361 78.0677 6.55534 78.0635 5.6709V5.15039C78.0635 4.24902 78.2222 3.45345 78.5396 2.76367C78.8612 2.07389 79.3118 1.54704 79.8916 1.18311C80.4756 0.814941 81.1442 0.630859 81.8975 0.630859C82.6507 0.630859 83.3172 0.812826 83.897 1.17676C84.481 1.53646 84.9316 2.05697 85.249 2.73828C85.5664 3.41536 85.7272 4.20459 85.7314 5.10596V5.62012ZM84.1255 5.1377C84.1255 4.11361 83.9308 3.32861 83.5415 2.78271C83.1564 2.23682 82.6084 1.96387 81.8975 1.96387C81.2035 1.96387 80.6597 2.23682 80.2661 2.78271C79.8768 3.32438 79.6779 4.09245 79.6694 5.08691V5.62012C79.6694 6.63574 79.8662 7.42074 80.2598 7.9751C80.6576 8.52946 81.2077 8.80664 81.9102 8.80664C82.6211 8.80664 83.167 8.53581 83.5479 7.99414C83.9329 7.45247 84.1255 6.66113 84.1255 5.62012V5.1377ZM89.0259 10H87.4263V0.757812H89.0259V10ZM95.8306 7.61963C95.8306 7.21338 95.6867 6.90023 95.3989 6.68018C95.1154 6.46012 94.6012 6.23796 93.8564 6.01367C93.1117 5.78939 92.5192 5.53971 92.0791 5.26465C91.237 4.73568 90.8159 4.0459 90.8159 3.19531C90.8159 2.45052 91.1185 1.83691 91.7236 1.35449C92.333 0.87207 93.1222 0.630859 94.0913 0.630859C94.7345 0.630859 95.3079 0.749349 95.8115 0.986328C96.3151 1.22331 96.7108 1.56185 96.9985 2.00195C97.2863 2.43783 97.4302 2.92236 97.4302 3.45557H95.8306C95.8306 2.97314 95.6782 2.59652 95.3735 2.32568C95.0731 2.05062 94.6414 1.91309 94.0786 1.91309C93.5539 1.91309 93.1455 2.02523 92.8535 2.24951C92.5658 2.4738 92.4219 2.78695 92.4219 3.18896C92.4219 3.52751 92.5785 3.81104 92.8916 4.03955C93.2048 4.26383 93.721 4.48389 94.4404 4.69971C95.1598 4.9113 95.7375 5.15462 96.1733 5.42969C96.6092 5.70052 96.9287 6.01367 97.1318 6.36914C97.335 6.72038 97.4365 7.13298 97.4365 7.60693C97.4365 8.37712 97.1403 8.99072 96.5479 9.44775C95.9596 9.90055 95.1598 10.127 94.1484 10.127C93.4798 10.127 92.8641 10.0042 92.3013 9.75879C91.7427 9.50911 91.3068 9.16634 90.9937 8.73047C90.6847 8.2946 90.5303 7.78678 90.5303 7.20703H92.1362C92.1362 7.73177 92.3097 8.13802 92.6567 8.42578C93.0037 8.71354 93.501 8.85742 94.1484 8.85742C94.707 8.85742 95.126 8.74528 95.4053 8.521C95.6888 8.29248 95.8306 7.99202 95.8306 7.61963ZM105.523 2.05273H102.642V10H101.048V2.05273H98.1919V0.757812H105.523V2.05273ZM113.502 0.757812V6.93408C113.502 7.91585 113.187 8.6945 112.557 9.27002C111.93 9.84131 111.095 10.127 110.049 10.127C108.991 10.127 108.151 9.84554 107.529 9.28271C106.907 8.71566 106.596 7.93066 106.596 6.92773V0.757812H108.196V6.94043C108.196 7.55827 108.352 8.03011 108.666 8.35596C108.979 8.6818 109.44 8.84473 110.049 8.84473C111.285 8.84473 111.903 8.19303 111.903 6.88965V0.757812H113.502ZM118.619 6.43896H116.829V10H115.223V0.757812H118.473C119.539 0.757812 120.362 0.996908 120.942 1.4751C121.522 1.95329 121.812 2.64518 121.812 3.55078C121.812 4.16862 121.661 4.68701 121.361 5.10596C121.065 5.52067 120.65 5.84017 120.117 6.06445L122.192 9.91748V10H120.472L118.619 6.43896ZM116.829 5.15039H118.479C119.021 5.15039 119.444 5.01497 119.749 4.74414C120.053 4.46908 120.206 4.09456 120.206 3.62061C120.206 3.12549 120.064 2.74251 119.78 2.47168C119.501 2.20085 119.082 2.0612 118.523 2.05273H116.829V5.15039ZM125.03 10H123.43V0.757812H125.03V10ZM128.515 8.71777H133.453V10H126.572V8.95898L131.352 2.05273H126.604V0.757812H133.301V1.77344L128.515 8.71777ZM140.239 5.87402H136.443V8.71777H140.88V10H134.837V0.757812H140.835V2.05273H136.443V4.60449H140.239V5.87402ZM147.018 7.61963C147.018 7.21338 146.874 6.90023 146.586 6.68018C146.303 6.46012 145.789 6.23796 145.044 6.01367C144.299 5.78939 143.707 5.53971 143.267 5.26465C142.424 4.73568 142.003 4.0459 142.003 3.19531C142.003 2.45052 142.306 1.83691 142.911 1.35449C143.521 0.87207 144.31 0.630859 145.279 0.630859C145.922 0.630859 146.495 0.749349 146.999 0.986328C147.503 1.22331 147.898 1.56185 148.186 2.00195C148.474 2.43783 148.618 2.92236 148.618 3.45557H147.018C147.018 2.97314 146.866 2.59652 146.561 2.32568C146.261 2.05062 145.829 1.91309 145.266 1.91309C144.741 1.91309 144.333 2.02523 144.041 2.24951C143.753 2.4738 143.609 2.78695 143.609 3.18896C143.609 3.52751 143.766 3.81104 144.079 4.03955C144.392 4.26383 144.909 4.48389 145.628 4.69971C146.347 4.9113 146.925 5.15462 147.361 5.42969C147.797 5.70052 148.116 6.01367 148.319 6.36914C148.522 6.72038 148.624 7.13298 148.624 7.60693C148.624 8.37712 148.328 8.99072 147.735 9.44775C147.147 9.90055 146.347 10.127 145.336 10.127C144.667 10.127 144.052 10.0042 143.489 9.75879C142.93 9.50911 142.494 9.16634 142.181 8.73047C141.872 8.2946 141.718 7.78678 141.718 7.20703H143.324C143.324 7.73177 143.497 8.13802 143.844 8.42578C144.191 8.71354 144.688 8.85742 145.336 8.85742C145.895 8.85742 146.313 8.74528 146.593 8.521C146.876 8.29248 147.018 7.99202 147.018 7.61963ZM150.103 12.082L149.271 11.5869C149.517 11.2018 149.684 10.8654 149.773 10.5776C149.866 10.2941 149.915 10.0042 149.919 9.70801V8.5083H151.309L151.303 9.61914C151.299 10.0677 151.184 10.5163 150.96 10.9648C150.74 11.4176 150.454 11.79 150.103 12.082ZM160.958 7.61963C160.958 7.21338 160.814 6.90023 160.526 6.68018C160.242 6.46012 159.728 6.23796 158.983 6.01367C158.239 5.78939 157.646 5.53971 157.206 5.26465C156.364 4.73568 155.943 4.0459 155.943 3.19531C155.943 2.45052 156.245 1.83691 156.851 1.35449C157.46 0.87207 158.249 0.630859 159.218 0.630859C159.861 0.630859 160.435 0.749349 160.938 0.986328C161.442 1.22331 161.838 1.56185 162.125 2.00195C162.413 2.43783 162.557 2.92236 162.557 3.45557H160.958C160.958 2.97314 160.805 2.59652 160.5 2.32568C160.2 2.05062 159.768 1.91309 159.206 1.91309C158.681 1.91309 158.272 2.02523 157.98 2.24951C157.693 2.4738 157.549 2.78695 157.549 3.18896C157.549 3.52751 157.705 3.81104 158.019 4.03955C158.332 4.26383 158.848 4.48389 159.567 4.69971C160.287 4.9113 160.864 5.15462 161.3 5.42969C161.736 5.70052 162.056 6.01367 162.259 6.36914C162.462 6.72038 162.563 7.13298 162.563 7.60693C162.563 8.37712 162.267 8.99072 161.675 9.44775C161.087 9.90055 160.287 10.127 159.275 10.127C158.607 10.127 157.991 10.0042 157.428 9.75879C156.87 9.50911 156.434 9.16634 156.121 8.73047C155.812 8.2946 155.657 7.78678 155.657 7.20703H157.263C157.263 7.73177 157.437 8.13802 157.784 8.42578C158.131 8.71354 158.628 8.85742 159.275 8.85742C159.834 8.85742 160.253 8.74528 160.532 8.521C160.816 8.29248 160.958 7.99202 160.958 7.61963ZM171.349 5.62012C171.349 6.52572 171.192 7.32129 170.879 8.00684C170.566 8.68815 170.117 9.21289 169.533 9.58105C168.953 9.94499 168.285 10.127 167.527 10.127C166.778 10.127 166.11 9.94499 165.521 9.58105C164.938 9.21289 164.485 8.69027 164.163 8.01318C163.846 7.3361 163.685 6.55534 163.681 5.6709V5.15039C163.681 4.24902 163.839 3.45345 164.157 2.76367C164.478 2.07389 164.929 1.54704 165.509 1.18311C166.093 0.814941 166.761 0.630859 167.515 0.630859C168.268 0.630859 168.934 0.812826 169.514 1.17676C170.098 1.53646 170.549 2.05697 170.866 2.73828C171.184 3.41536 171.344 4.20459 171.349 5.10596V5.62012ZM169.743 5.1377C169.743 4.11361 169.548 3.32861 169.159 2.78271C168.774 2.23682 168.226 1.96387 167.515 1.96387C166.821 1.96387 166.277 2.23682 165.883 2.78271C165.494 3.32438 165.295 4.09245 165.287 5.08691V5.62012C165.287 6.63574 165.483 7.42074 165.877 7.9751C166.275 8.52946 166.825 8.80664 167.527 8.80664C168.238 8.80664 168.784 8.53581 169.165 7.99414C169.55 7.45247 169.743 6.66113 169.743 5.62012V5.1377ZM180.324 5.62012C180.324 6.52572 180.168 7.32129 179.854 8.00684C179.541 8.68815 179.093 9.21289 178.509 9.58105C177.929 9.94499 177.26 10.127 176.503 10.127C175.754 10.127 175.085 9.94499 174.497 9.58105C173.913 9.21289 173.46 8.69027 173.139 8.01318C172.821 7.3361 172.66 6.55534 172.656 5.6709V5.15039C172.656 4.24902 172.815 3.45345 173.132 2.76367C173.454 2.07389 173.905 1.54704 174.484 1.18311C175.068 0.814941 175.737 0.630859 176.49 0.630859C177.243 0.630859 177.91 0.812826 178.49 1.17676C179.074 1.53646 179.524 2.05697 179.842 2.73828C180.159 3.41536 180.32 4.20459 180.324 5.10596V5.62012ZM178.718 5.1377C178.718 4.11361 178.524 3.32861 178.134 2.78271C177.749 2.23682 177.201 1.96387 176.49 1.96387C175.796 1.96387 175.252 2.23682 174.859 2.78271C174.47 3.32438 174.271 4.09245 174.262 5.08691V5.62012C174.262 6.63574 174.459 7.42074 174.853 7.9751C175.25 8.52946 175.8 8.80664 176.503 8.80664C177.214 8.80664 177.76 8.53581 178.141 7.99414C178.526 7.45247 178.718 6.66113 178.718 5.62012V5.1377ZM188.056 2.05273H185.174V10H183.581V2.05273H180.724V0.757812H188.056V2.05273ZM196.612 10H195.013V5.89307H190.88V10H189.274V0.757812H190.88V4.60449H195.013V0.757812H196.612V10ZM203.918 5.87402H200.123V8.71777H204.56V10H198.517V0.757812H204.515V2.05273H200.123V4.60449H203.918V5.87402ZM210.698 7.61963C210.698 7.21338 210.554 6.90023 210.266 6.68018C209.983 6.46012 209.468 6.23796 208.724 6.01367C207.979 5.78939 207.386 5.53971 206.946 5.26465C206.104 4.73568 205.683 4.0459 205.683 3.19531C205.683 2.45052 205.986 1.83691 206.591 1.35449C207.2 0.87207 207.989 0.630859 208.958 0.630859C209.602 0.630859 210.175 0.749349 210.679 0.986328C211.182 1.22331 211.578 1.56185 211.866 2.00195C212.153 2.43783 212.297 2.92236 212.297 3.45557H210.698C210.698 2.97314 210.545 2.59652 210.241 2.32568C209.94 2.05062 209.509 1.91309 208.946 1.91309C208.421 1.91309 208.013 2.02523 207.721 2.24951C207.433 2.4738 207.289 2.78695 207.289 3.18896C207.289 3.52751 207.446 3.81104 207.759 4.03955C208.072 4.26383 208.588 4.48389 209.308 4.69971C210.027 4.9113 210.605 5.15462 211.041 5.42969C211.476 5.70052 211.796 6.01367 211.999 6.36914C212.202 6.72038 212.304 7.13298 212.304 7.60693C212.304 8.37712 212.007 8.99072 211.415 9.44775C210.827 9.90055 210.027 10.127 209.016 10.127C208.347 10.127 207.731 10.0042 207.168 9.75879C206.61 9.50911 206.174 9.16634 205.861 8.73047C205.552 8.2946 205.397 7.78678 205.397 7.20703H207.003C207.003 7.73177 207.177 8.13802 207.524 8.42578C207.871 8.71354 208.368 8.85742 209.016 8.85742C209.574 8.85742 209.993 8.74528 210.272 8.521C210.556 8.29248 210.698 7.99202 210.698 7.61963ZM222.124 7.84814H218.543L217.794 10H216.125L219.616 0.757812H221.057L224.555 10H222.879L222.124 7.84814ZM218.994 6.55322H221.673L220.333 2.71924L218.994 6.55322ZM232.94 10H231.334L227.214 3.44287V10H225.608V0.757812H227.214L231.347 7.34033V0.757812H232.94V10ZM234.838 10V0.757812H237.567C238.384 0.757812 239.108 0.939779 239.738 1.30371C240.373 1.66764 240.864 2.18392 241.211 2.85254C241.558 3.52116 241.731 4.28711 241.731 5.15039V5.61377C241.731 6.48975 241.556 7.25993 241.205 7.92432C240.858 8.5887 240.36 9.10075 239.713 9.46045C239.07 9.82015 238.331 10 237.498 10H234.838ZM236.444 2.05273V8.71777H237.491C238.333 8.71777 238.979 8.4554 239.427 7.93066C239.88 7.40169 240.111 6.64421 240.119 5.6582V5.14404C240.119 4.14111 239.901 3.37516 239.465 2.84619C239.029 2.31722 238.397 2.05273 237.567 2.05273H236.444ZM2.54541 21.5659V25H0.939453V15.7578H4.4751C5.50765 15.7578 6.3265 16.0265 6.93164 16.564C7.54102 17.1014 7.8457 17.8123 7.8457 18.6968C7.8457 19.6024 7.54736 20.307 6.95068 20.8105C6.35824 21.3141 5.52669 21.5659 4.45605 21.5659H2.54541ZM2.54541 20.2773H4.4751C5.04639 20.2773 5.48226 20.144 5.78271 19.8774C6.08317 19.6066 6.2334 19.2173 6.2334 18.7095C6.2334 18.2101 6.08105 17.8123 5.77637 17.5161C5.47168 17.2157 5.05273 17.0612 4.51953 17.0527H2.54541V20.2773ZM12.6509 21.439H10.8608V25H9.25488V15.7578H12.5049C13.5713 15.7578 14.3944 15.9969 14.9741 16.4751C15.5539 16.9533 15.8438 17.6452 15.8438 18.5508C15.8438 19.1686 15.6935 19.687 15.3931 20.106C15.0968 20.5207 14.6821 20.8402 14.1489 21.0645L16.2246 24.9175V25H14.5044L12.6509 21.439ZM10.8608 20.1504H12.5112C13.0529 20.1504 13.4761 20.015 13.7808 19.7441C14.0854 19.4691 14.2378 19.0946 14.2378 18.6206C14.2378 18.1255 14.096 17.7425 13.8125 17.4717C13.5332 17.2008 13.1143 17.0612 12.5557 17.0527H10.8608V20.1504ZM22.769 20.874H18.9731V23.7178H23.4102V25H17.3672V15.7578H23.3657V17.0527H18.9731V19.6045H22.769V20.874ZM27.9741 22.9878L30.3228 15.7578H32.0874L28.7612 25H27.2061L23.8926 15.7578H25.6509L27.9741 22.9878ZM38.5366 20.874H34.7407V23.7178H39.1777V25H33.1348V15.7578H39.1333V17.0527H34.7407V19.6045H38.5366V20.874ZM47.8169 25H46.2109L42.0913 18.4429V25H40.4854V15.7578H42.0913L46.2236 22.3403V15.7578H47.8169V25ZM56.2021 17.0527H53.3203V25H51.7271V17.0527H48.8706V15.7578H56.2021V17.0527ZM62.1499 22.6196C62.1499 22.2134 62.006 21.9002 61.7183 21.6802C61.4347 21.4601 60.9206 21.238 60.1758 21.0137C59.431 20.7894 58.8385 20.5397 58.3984 20.2646C57.5563 19.7357 57.1353 19.0459 57.1353 18.1953C57.1353 17.4505 57.4378 16.8369 58.043 16.3545C58.6523 15.8721 59.4416 15.6309 60.4106 15.6309C61.0539 15.6309 61.6273 15.7493 62.1309 15.9863C62.6344 16.2233 63.0301 16.5618 63.3179 17.002C63.6056 17.4378 63.7495 17.9224 63.7495 18.4556H62.1499C62.1499 17.9731 61.9976 17.5965 61.6929 17.3257C61.3924 17.0506 60.9608 16.9131 60.3979 16.9131C59.8732 16.9131 59.4648 17.0252 59.1729 17.2495C58.8851 17.4738 58.7412 17.7869 58.7412 18.189C58.7412 18.5275 58.8978 18.811 59.2109 19.0396C59.5241 19.2638 60.0404 19.4839 60.7598 19.6997C61.4792 19.9113 62.0568 20.1546 62.4927 20.4297C62.9285 20.7005 63.248 21.0137 63.4512 21.3691C63.6543 21.7204 63.7559 22.133 63.7559 22.6069C63.7559 23.3771 63.4596 23.9907 62.8672 24.4478C62.279 24.9006 61.4792 25.127 60.4678 25.127C59.7992 25.127 59.1834 25.0042 58.6206 24.7588C58.062 24.5091 57.6261 24.1663 57.313 23.7305C57.0041 23.2946 56.8496 22.7868 56.8496 22.207H58.4556C58.4556 22.7318 58.6291 23.138 58.9761 23.4258C59.3231 23.7135 59.8203 23.8574 60.4678 23.8574C61.0264 23.8574 61.4453 23.7453 61.7246 23.521C62.0081 23.2925 62.1499 22.992 62.1499 22.6196ZM74.6992 17.0527H71.8174V25H70.2241V17.0527H67.3677V15.7578H74.6992V17.0527ZM83.2559 25H81.6562V20.8931H77.5239V25H75.918V15.7578H77.5239V19.6045H81.6562V15.7578H83.2559V25ZM90.562 20.874H86.7661V23.7178H91.2031V25H85.1602V15.7578H91.1587V17.0527H86.7661V19.6045H90.562V20.874ZM100.921 22.8481H97.3413L96.5923 25H94.9229L98.4141 15.7578H99.855L103.353 25H101.677L100.921 22.8481ZM97.792 21.5532H100.471L99.1313 17.7192L97.792 21.5532ZM106.012 21.5659V25H104.406V15.7578H107.942C108.974 15.7578 109.793 16.0265 110.398 16.564C111.008 17.1014 111.312 17.8123 111.312 18.6968C111.312 19.6024 111.014 20.307 110.417 20.8105C109.825 21.3141 108.993 21.5659 107.923 21.5659H106.012ZM106.012 20.2773H107.942C108.513 20.2773 108.949 20.144 109.25 19.8774C109.55 19.6066 109.7 19.2173 109.7 18.7095C109.7 18.2101 109.548 17.8123 109.243 17.5161C108.938 17.2157 108.52 17.0612 107.986 17.0527H106.012V20.2773ZM114.328 21.5659V25H112.722V15.7578H116.257C117.29 15.7578 118.109 16.0265 118.714 16.564C119.323 17.1014 119.628 17.8123 119.628 18.6968C119.628 19.6024 119.33 20.307 118.733 20.8105C118.14 21.3141 117.309 21.5659 116.238 21.5659H114.328ZM114.328 20.2773H116.257C116.829 20.2773 117.264 20.144 117.565 19.8774C117.865 19.6066 118.016 19.2173 118.016 18.7095C118.016 18.2101 117.863 17.8123 117.559 17.5161C117.254 17.2157 116.835 17.0612 116.302 17.0527H114.328V20.2773ZM126.439 20.874H122.643V23.7178H127.08V25H121.037V15.7578H127.036V17.0527H122.643V19.6045H126.439V20.874ZM133.561 22.8481H129.981L129.232 25H127.562L131.054 15.7578H132.495L135.992 25H134.316L133.561 22.8481ZM130.432 21.5532H133.11L131.771 17.7192L130.432 21.5532ZM140.442 21.439H138.652V25H137.046V15.7578H140.296C141.362 15.7578 142.185 15.9969 142.765 16.4751C143.345 16.9533 143.635 17.6452 143.635 18.5508C143.635 19.1686 143.485 19.687 143.184 20.106C142.888 20.5207 142.473 20.8402 141.94 21.0645L144.016 24.9175V25H142.295L140.442 21.439ZM138.652 20.1504H140.302C140.844 20.1504 141.267 20.015 141.572 19.7441C141.876 19.4691 142.029 19.0946 142.029 18.6206C142.029 18.1255 141.887 17.7425 141.604 17.4717C141.324 17.2008 140.905 17.0612 140.347 17.0527H138.652V20.1504ZM150.332 22.8481H146.751L146.002 25H144.333L147.824 15.7578H149.265L152.763 25H151.087L150.332 22.8481ZM147.202 21.5532H149.881L148.542 17.7192L147.202 21.5532ZM161.148 25H159.542L155.422 18.4429V25H153.816V15.7578H155.422L159.555 22.3403V15.7578H161.148V25ZM170.098 21.9912C170.005 22.9772 169.641 23.7474 169.006 24.3018C168.372 24.8519 167.527 25.127 166.474 25.127C165.737 25.127 165.088 24.9535 164.525 24.6064C163.966 24.2552 163.535 23.758 163.23 23.1147C162.925 22.4715 162.767 21.7246 162.754 20.874V20.0107C162.754 19.139 162.908 18.3709 163.217 17.7065C163.526 17.0422 163.968 16.5301 164.544 16.1704C165.124 15.8107 165.792 15.6309 166.55 15.6309C167.57 15.6309 168.391 15.908 169.013 16.4624C169.635 17.0168 169.997 17.7996 170.098 18.811H168.499C168.422 18.1466 168.228 17.6685 167.915 17.3765C167.606 17.0802 167.151 16.9321 166.55 16.9321C165.852 16.9321 165.314 17.1882 164.938 17.7002C164.565 18.208 164.375 18.9549 164.366 19.9409V20.7598C164.366 21.7585 164.544 22.5202 164.899 23.0449C165.259 23.5697 165.784 23.832 166.474 23.832C167.104 23.832 167.578 23.6903 167.896 23.4067C168.213 23.1232 168.414 22.6514 168.499 21.9912H170.098ZM176.941 20.874H173.145V23.7178H177.582V25H171.539V15.7578H177.538V17.0527H173.145V19.6045H176.941V20.874ZM189.503 20.6201C189.503 21.5257 189.346 22.3213 189.033 23.0068C188.72 23.6882 188.271 24.2129 187.688 24.5811C187.108 24.945 186.439 25.127 185.682 25.127C184.933 25.127 184.264 24.945 183.676 24.5811C183.092 24.2129 182.639 23.6903 182.317 23.0132C182 22.3361 181.839 21.5553 181.835 20.6709V20.1504C181.835 19.249 181.994 18.4535 182.311 17.7637C182.633 17.0739 183.083 16.547 183.663 16.1831C184.247 15.8149 184.916 15.6309 185.669 15.6309C186.422 15.6309 187.089 15.8128 187.668 16.1768C188.252 16.5365 188.703 17.057 189.021 17.7383C189.338 18.4154 189.499 19.2046 189.503 20.106V20.6201ZM187.897 20.1377C187.897 19.1136 187.702 18.3286 187.313 17.7827C186.928 17.2368 186.38 16.9639 185.669 16.9639C184.975 16.9639 184.431 17.2368 184.038 17.7827C183.648 18.3244 183.449 19.0924 183.441 20.0869V20.6201C183.441 21.6357 183.638 22.4207 184.031 22.9751C184.429 23.5295 184.979 23.8066 185.682 23.8066C186.393 23.8066 186.938 23.5358 187.319 22.9941C187.704 22.4525 187.897 21.6611 187.897 20.6201V20.1377ZM196.428 21.0835H192.708V25H191.103V15.7578H196.974V17.0527H192.708V19.8013H196.428V21.0835ZM203.182 25H201.583V15.7578H203.182V25ZM212.488 25H210.882L206.762 18.4429V25H205.156V15.7578H206.762L210.895 22.3403V15.7578H212.488V25ZM219.711 21.0835H215.992V25H214.386V15.7578H220.257V17.0527H215.992V19.8013H219.711V21.0835ZM226.935 20.874H223.139V23.7178H227.576V25H221.533V15.7578H227.532V17.0527H223.139V19.6045H226.935V20.874ZM235.936 21.9912C235.843 22.9772 235.479 23.7474 234.844 24.3018C234.209 24.8519 233.365 25.127 232.312 25.127C231.575 25.127 230.926 24.9535 230.363 24.6064C229.804 24.2552 229.373 23.758 229.068 23.1147C228.763 22.4715 228.604 21.7246 228.592 20.874V20.0107C228.592 19.139 228.746 18.3709 229.055 17.7065C229.364 17.0422 229.806 16.5301 230.382 16.1704C230.962 15.8107 231.63 15.6309 232.388 15.6309C233.408 15.6309 234.229 15.908 234.851 16.4624C235.473 17.0168 235.834 17.7996 235.936 18.811H234.336C234.26 18.1466 234.066 17.6685 233.752 17.3765C233.444 17.0802 232.989 16.9321 232.388 16.9321C231.689 16.9321 231.152 17.1882 230.775 17.7002C230.403 18.208 230.213 18.9549 230.204 19.9409V20.7598C230.204 21.7585 230.382 22.5202 230.737 23.0449C231.097 23.5697 231.622 23.832 232.312 23.832C232.942 23.832 233.416 23.6903 233.733 23.4067C234.051 23.1232 234.252 22.6514 234.336 21.9912H235.936ZM243.864 17.0527H240.982V25H239.389V17.0527H236.533V15.7578H243.864V17.0527ZM246.778 25H245.178V15.7578H246.778V25ZM256.128 20.6201C256.128 21.5257 255.971 22.3213 255.658 23.0068C255.345 23.6882 254.896 24.2129 254.312 24.5811C253.733 24.945 253.064 25.127 252.307 25.127C251.558 25.127 250.889 24.945 250.301 24.5811C249.717 24.2129 249.264 23.6903 248.942 23.0132C248.625 22.3361 248.464 21.5553 248.46 20.6709V20.1504C248.46 19.249 248.619 18.4535 248.936 17.7637C249.258 17.0739 249.708 16.547 250.288 16.1831C250.872 15.8149 251.541 15.6309 252.294 15.6309C253.047 15.6309 253.714 15.8128 254.293 16.1768C254.877 16.5365 255.328 17.057 255.646 17.7383C255.963 18.4154 256.124 19.2046 256.128 20.106V20.6201ZM254.522 20.1377C254.522 19.1136 254.327 18.3286 253.938 17.7827C253.553 17.2368 253.005 16.9639 252.294 16.9639C251.6 16.9639 251.056 17.2368 250.663 17.7827C250.273 18.3244 250.074 19.0924 250.066 20.0869V20.6201C250.066 21.6357 250.263 22.4207 250.656 22.9751C251.054 23.5295 251.604 23.8066 252.307 23.8066C253.018 23.8066 253.563 23.5358 253.944 22.9941C254.329 22.4525 254.522 21.6611 254.522 20.6201V20.1377ZM265.059 25H263.453L259.333 18.4429V25H257.728V15.7578H259.333L263.466 22.3403V15.7578H265.059V25ZM271.788 22.6196C271.788 22.2134 271.644 21.9002 271.356 21.6802C271.072 21.4601 270.558 21.238 269.813 21.0137C269.069 20.7894 268.476 20.5397 268.036 20.2646C267.194 19.7357 266.773 19.0459 266.773 18.1953C266.773 17.4505 267.076 16.8369 267.681 16.3545C268.29 15.8721 269.079 15.6309 270.048 15.6309C270.692 15.6309 271.265 15.7493 271.769 15.9863C272.272 16.2233 272.668 16.5618 272.956 17.002C273.243 17.4378 273.387 17.9224 273.387 18.4556H271.788C271.788 17.9731 271.635 17.5965 271.331 17.3257C271.03 17.0506 270.598 16.9131 270.036 16.9131C269.511 16.9131 269.103 17.0252 268.811 17.2495C268.523 17.4738 268.379 17.7869 268.379 18.189C268.379 18.5275 268.535 18.811 268.849 19.0396C269.162 19.2638 269.678 19.4839 270.397 19.6997C271.117 19.9113 271.694 20.1546 272.13 20.4297C272.566 20.7005 272.886 21.0137 273.089 21.3691C273.292 21.7204 273.394 22.133 273.394 22.6069C273.394 23.3771 273.097 23.9907 272.505 24.4478C271.917 24.9006 271.117 25.127 270.105 25.127C269.437 25.127 268.821 25.0042 268.258 24.7588C267.7 24.5091 267.264 24.1663 266.951 23.7305C266.642 23.2946 266.487 22.7868 266.487 22.207H268.093C268.093 22.7318 268.267 23.138 268.614 23.4258C268.961 23.7135 269.458 23.8574 270.105 23.8574C270.664 23.8574 271.083 23.7453 271.362 23.521C271.646 23.2925 271.788 22.992 271.788 22.6196Z" fill="#ED2771"/>
</svg>
