<svg width="238" height="53" viewBox="0 0 238 53" fill="none" xmlns="http://www.w3.org/2000/svg">
<path d="M5.65625 8.01367H2.35156L1.66016 10H0.119141L3.3418 1.46875H4.67188L7.90039 10H6.35352L5.65625 8.01367ZM2.76758 6.81836H5.24023L4.00391 3.2793L2.76758 6.81836ZM15.2773 8.27734C15.2773 8.02344 15.1719 7.83008 14.9609 7.69727C14.7539 7.56445 14.4082 7.44727 13.9238 7.3457C13.4395 7.24414 13.0352 7.11523 12.7109 6.95898C12 6.61523 11.6445 6.11719 11.6445 5.46484C11.6445 4.91797 11.875 4.46094 12.3359 4.09375C12.7969 3.72656 13.3828 3.54297 14.0938 3.54297C14.8516 3.54297 15.4629 3.73047 15.9277 4.10547C16.3965 4.48047 16.6309 4.9668 16.6309 5.56445H15.207C15.207 5.29102 15.1055 5.06445 14.9023 4.88477C14.6992 4.70117 14.4297 4.60938 14.0938 4.60938C13.7812 4.60938 13.5254 4.68164 13.3262 4.82617C13.1309 4.9707 13.0332 5.16406 13.0332 5.40625C13.0332 5.625 13.125 5.79492 13.3086 5.91602C13.4922 6.03711 13.8633 6.16016 14.4219 6.28516C14.9805 6.40625 15.418 6.55273 15.7344 6.72461C16.0547 6.89258 16.291 7.0957 16.4434 7.33398C16.5996 7.57227 16.6777 7.86133 16.6777 8.20117C16.6777 8.77148 16.4414 9.23438 15.9688 9.58984C15.4961 9.94141 14.877 10.1172 14.1113 10.1172C13.5918 10.1172 13.1289 10.0234 12.7227 9.83594C12.3164 9.64844 12 9.39062 11.7734 9.0625C11.5469 8.73438 11.4336 8.38086 11.4336 8.00195H12.8164C12.8359 8.33789 12.9629 8.59766 13.1973 8.78125C13.4316 8.96094 13.7422 9.05078 14.1289 9.05078C14.5039 9.05078 14.7891 8.98047 14.9844 8.83984C15.1797 8.69531 15.2773 8.50781 15.2773 8.27734ZM17.6562 6.77148C17.6562 6.15039 17.7793 5.5918 18.0254 5.0957C18.2715 4.5957 18.6172 4.21289 19.0625 3.94727C19.5078 3.67773 20.0195 3.54297 20.5977 3.54297C21.4531 3.54297 22.1465 3.81836 22.6777 4.36914C23.2129 4.91992 23.502 5.65039 23.5449 6.56055L23.5508 6.89453C23.5508 7.51953 23.4297 8.07812 23.1875 8.57031C22.9492 9.0625 22.6055 9.44336 22.1562 9.71289C21.7109 9.98242 21.1953 10.1172 20.6094 10.1172C19.7148 10.1172 18.998 9.82031 18.459 9.22656C17.9238 8.62891 17.6562 7.83398 17.6562 6.8418V6.77148ZM19.0801 6.89453C19.0801 7.54688 19.2148 8.05859 19.4844 8.42969C19.7539 8.79688 20.1289 8.98047 20.6094 8.98047C21.0898 8.98047 21.4629 8.79297 21.7285 8.41797C21.998 8.04297 22.1328 7.49414 22.1328 6.77148C22.1328 6.13086 21.9941 5.62305 21.7168 5.24805C21.4434 4.87305 21.0703 4.68555 20.5977 4.68555C20.1328 4.68555 19.7637 4.87109 19.4902 5.24219C19.2168 5.60938 19.0801 6.16016 19.0801 6.89453ZM28.543 10C28.4805 9.87891 28.4258 9.68164 28.3789 9.4082C27.9258 9.88086 27.3711 10.1172 26.7148 10.1172C26.0781 10.1172 25.5586 9.93555 25.1562 9.57227C24.7539 9.20898 24.5527 8.75977 24.5527 8.22461C24.5527 7.54883 24.8027 7.03125 25.3027 6.67188C25.8066 6.30859 26.5254 6.12695 27.459 6.12695H28.332V5.71094C28.332 5.38281 28.2402 5.12109 28.0566 4.92578C27.873 4.72656 27.5938 4.62695 27.2188 4.62695C26.8945 4.62695 26.6289 4.70898 26.4219 4.87305C26.2148 5.0332 26.1113 5.23828 26.1113 5.48828H24.6875C24.6875 5.14062 24.8027 4.81641 25.0332 4.51562C25.2637 4.21094 25.5762 3.97266 25.9707 3.80078C26.3691 3.62891 26.8125 3.54297 27.3008 3.54297C28.043 3.54297 28.6348 3.73047 29.0762 4.10547C29.5176 4.47656 29.7441 5 29.7559 5.67578V8.53516C29.7559 9.10547 29.8359 9.56055 29.9961 9.90039V10H28.543ZM26.9785 8.97461C27.2598 8.97461 27.5234 8.90625 27.7695 8.76953C28.0195 8.63281 28.207 8.44922 28.332 8.21875V7.02344H27.5645C27.0371 7.02344 26.6406 7.11523 26.375 7.29883C26.1094 7.48242 25.9766 7.74219 25.9766 8.07812C25.9766 8.35156 26.0664 8.57031 26.2461 8.73438C26.4297 8.89453 26.6738 8.97461 26.9785 8.97461ZM36.7988 6.89453C36.7988 7.875 36.5762 8.6582 36.1309 9.24414C35.6855 9.82617 35.0879 10.1172 34.3379 10.1172C33.6426 10.1172 33.0859 9.88867 32.668 9.43164V12.4375H31.2441V3.66016H32.5566L32.6152 4.30469C33.0332 3.79688 33.6016 3.54297 34.3203 3.54297C35.0938 3.54297 35.6992 3.83203 36.1367 4.41016C36.5781 4.98438 36.7988 5.7832 36.7988 6.80664V6.89453ZM35.3809 6.77148C35.3809 6.13867 35.2539 5.63672 35 5.26562C34.75 4.89453 34.3906 4.70898 33.9219 4.70898C33.3398 4.70898 32.9219 4.94922 32.668 5.42969V8.24219C32.9258 8.73438 33.3477 8.98047 33.9336 8.98047C34.3867 8.98047 34.7402 8.79883 34.9941 8.43555C35.252 8.06836 35.3809 7.51367 35.3809 6.77148ZM40.7715 6.94727H37.6953V5.79883H40.7715V6.94727ZM42.4473 10V4.71484H41.4805V3.66016H42.4473V3.08008C42.4473 2.37695 42.6426 1.83398 43.0332 1.45117C43.4238 1.06836 43.9707 0.876953 44.6738 0.876953C44.9238 0.876953 45.1895 0.912109 45.4707 0.982422L45.4355 2.0957C45.2793 2.06445 45.0977 2.04883 44.8906 2.04883C44.2109 2.04883 43.8711 2.39844 43.8711 3.09766V3.66016H45.1602V4.71484H43.8711V10H42.4473ZM49.5195 4.96094C49.332 4.92969 49.1387 4.91406 48.9395 4.91406C48.2871 4.91406 47.8477 5.16406 47.6211 5.66406V10H46.1973V3.66016H47.5566L47.5918 4.36914C47.9355 3.81836 48.4121 3.54297 49.0215 3.54297C49.2246 3.54297 49.3926 3.57031 49.5254 3.625L49.5195 4.96094ZM53.0938 10.1172C52.1914 10.1172 51.459 9.83398 50.8965 9.26758C50.3379 8.69727 50.0586 7.93945 50.0586 6.99414V6.81836C50.0586 6.18555 50.1797 5.62109 50.4219 5.125C50.668 4.625 51.0117 4.23633 51.4531 3.95898C51.8945 3.68164 52.3867 3.54297 52.9297 3.54297C53.793 3.54297 54.459 3.81836 54.9277 4.36914C55.4004 4.91992 55.6367 5.69922 55.6367 6.70703V7.28125H51.4941C51.5371 7.80469 51.7109 8.21875 52.0156 8.52344C52.3242 8.82812 52.7109 8.98047 53.1758 8.98047C53.8281 8.98047 54.3594 8.7168 54.7695 8.18945L55.5371 8.92188C55.2832 9.30078 54.9434 9.5957 54.5176 9.80664C54.0957 10.0137 53.6211 10.1172 53.0938 10.1172ZM52.9238 4.68555C52.5332 4.68555 52.2168 4.82227 51.9746 5.0957C51.7363 5.36914 51.584 5.75 51.5176 6.23828H54.2305V6.13281C54.1992 5.65625 54.0723 5.29688 53.8496 5.05469C53.627 4.80859 53.3184 4.68555 52.9238 4.68555ZM59.5391 10.1172C58.6367 10.1172 57.9043 9.83398 57.3418 9.26758C56.7832 8.69727 56.5039 7.93945 56.5039 6.99414V6.81836C56.5039 6.18555 56.625 5.62109 56.8672 5.125C57.1133 4.625 57.457 4.23633 57.8984 3.95898C58.3398 3.68164 58.832 3.54297 59.375 3.54297C60.2383 3.54297 60.9043 3.81836 61.373 4.36914C61.8457 4.91992 62.082 5.69922 62.082 6.70703V7.28125H57.9395C57.9824 7.80469 58.1562 8.21875 58.4609 8.52344C58.7695 8.82812 59.1562 8.98047 59.6211 8.98047C60.2734 8.98047 60.8047 8.7168 61.2148 8.18945L61.9824 8.92188C61.7285 9.30078 61.3887 9.5957 60.9629 9.80664C60.541 10.0137 60.0664 10.1172 59.5391 10.1172ZM59.3691 4.68555C58.9785 4.68555 58.6621 4.82227 58.4199 5.0957C58.1816 5.36914 58.0293 5.75 57.9629 6.23828H60.6758V6.13281C60.6445 5.65625 60.5176 5.29688 60.2949 5.05469C60.0723 4.80859 59.7637 4.68555 59.3691 4.68555ZM63.3945 11.9219L62.627 11.4648C62.8535 11.1094 63.0078 10.7988 63.0898 10.5332C63.1758 10.2715 63.2207 10.0039 63.2246 9.73047V8.62305H64.5078L64.502 9.64844C64.498 10.0625 64.3926 10.4766 64.1855 10.8906C63.9824 11.3086 63.7188 11.6523 63.3945 11.9219ZM74.3691 6.89453C74.3691 7.875 74.1465 8.6582 73.7012 9.24414C73.2559 9.82617 72.6582 10.1172 71.9082 10.1172C71.2129 10.1172 70.6562 9.88867 70.2383 9.43164V12.4375H68.8145V3.66016H70.127L70.1855 4.30469C70.6035 3.79688 71.1719 3.54297 71.8906 3.54297C72.6641 3.54297 73.2695 3.83203 73.707 4.41016C74.1484 4.98438 74.3691 5.7832 74.3691 6.80664V6.89453ZM72.9512 6.77148C72.9512 6.13867 72.8242 5.63672 72.5703 5.26562C72.3203 4.89453 71.9609 4.70898 71.4922 4.70898C70.9102 4.70898 70.4922 4.94922 70.2383 5.42969V8.24219C70.4961 8.73438 70.918 8.98047 71.5039 8.98047C71.957 8.98047 72.3105 8.79883 72.5645 8.43555C72.8223 8.06836 72.9512 7.51367 72.9512 6.77148ZM79.3672 10C79.3047 9.87891 79.25 9.68164 79.2031 9.4082C78.75 9.88086 78.1953 10.1172 77.5391 10.1172C76.9023 10.1172 76.3828 9.93555 75.9805 9.57227C75.5781 9.20898 75.377 8.75977 75.377 8.22461C75.377 7.54883 75.627 7.03125 76.127 6.67188C76.6309 6.30859 77.3496 6.12695 78.2832 6.12695H79.1562V5.71094C79.1562 5.38281 79.0645 5.12109 78.8809 4.92578C78.6973 4.72656 78.418 4.62695 78.043 4.62695C77.7188 4.62695 77.4531 4.70898 77.2461 4.87305C77.0391 5.0332 76.9355 5.23828 76.9355 5.48828H75.5117C75.5117 5.14062 75.627 4.81641 75.8574 4.51562C76.0879 4.21094 76.4004 3.97266 76.7949 3.80078C77.1934 3.62891 77.6367 3.54297 78.125 3.54297C78.8672 3.54297 79.459 3.73047 79.9004 4.10547C80.3418 4.47656 80.5684 5 80.5801 5.67578V8.53516C80.5801 9.10547 80.6602 9.56055 80.8203 9.90039V10H79.3672ZM77.8027 8.97461C78.084 8.97461 78.3477 8.90625 78.5938 8.76953C78.8438 8.63281 79.0312 8.44922 79.1562 8.21875V7.02344H78.3887C77.8613 7.02344 77.4648 7.11523 77.1992 7.29883C76.9336 7.48242 76.8008 7.74219 76.8008 8.07812C76.8008 8.35156 76.8906 8.57031 77.0703 8.73438C77.2539 8.89453 77.498 8.97461 77.8027 8.97461ZM85.3906 4.96094C85.2031 4.92969 85.0098 4.91406 84.8105 4.91406C84.1582 4.91406 83.7188 5.16406 83.4922 5.66406V10H82.0684V3.66016H83.4277L83.4629 4.36914C83.8066 3.81836 84.2832 3.54297 84.8926 3.54297C85.0957 3.54297 85.2637 3.57031 85.3965 3.625L85.3906 4.96094ZM89.9023 10C89.8398 9.87891 89.7852 9.68164 89.7383 9.4082C89.2852 9.88086 88.7305 10.1172 88.0742 10.1172C87.4375 10.1172 86.918 9.93555 86.5156 9.57227C86.1133 9.20898 85.9121 8.75977 85.9121 8.22461C85.9121 7.54883 86.1621 7.03125 86.6621 6.67188C87.166 6.30859 87.8848 6.12695 88.8184 6.12695H89.6914V5.71094C89.6914 5.38281 89.5996 5.12109 89.416 4.92578C89.2324 4.72656 88.9531 4.62695 88.5781 4.62695C88.2539 4.62695 87.9883 4.70898 87.7812 4.87305C87.5742 5.0332 87.4707 5.23828 87.4707 5.48828H86.0469C86.0469 5.14062 86.1621 4.81641 86.3926 4.51562C86.623 4.21094 86.9355 3.97266 87.3301 3.80078C87.7285 3.62891 88.1719 3.54297 88.6602 3.54297C89.4023 3.54297 89.9941 3.73047 90.4355 4.10547C90.877 4.47656 91.1035 5 91.1152 5.67578V8.53516C91.1152 9.10547 91.1953 9.56055 91.3555 9.90039V10H89.9023ZM88.3379 8.97461C88.6191 8.97461 88.8828 8.90625 89.1289 8.76953C89.3789 8.63281 89.5664 8.44922 89.6914 8.21875V7.02344H88.9238C88.3965 7.02344 88 7.11523 87.7344 7.29883C87.4688 7.48242 87.3359 7.74219 87.3359 8.07812C87.3359 8.35156 87.4258 8.57031 87.6055 8.73438C87.7891 8.89453 88.0332 8.97461 88.3379 8.97461ZM98.1699 6.89453C98.1699 7.87891 97.9492 8.66211 97.5078 9.24414C97.0703 9.82617 96.4668 10.1172 95.6973 10.1172C94.9551 10.1172 94.377 9.84961 93.9629 9.31445L93.8926 10H92.6035V1H94.0273V4.26953C94.4375 3.78516 94.9902 3.54297 95.6855 3.54297C96.459 3.54297 97.0664 3.83008 97.5078 4.4043C97.9492 4.97852 98.1699 5.78125 98.1699 6.8125V6.89453ZM96.7461 6.77148C96.7461 6.08398 96.625 5.56836 96.3828 5.22461C96.1406 4.88086 95.7891 4.70898 95.3281 4.70898C94.7109 4.70898 94.2773 4.97852 94.0273 5.51758V8.13086C94.2812 8.68164 94.7188 8.95703 95.3398 8.95703C95.7852 8.95703 96.1289 8.79102 96.3711 8.45898C96.6133 8.12695 96.7383 7.625 96.7461 6.95312V6.77148ZM102.16 10.1172C101.258 10.1172 100.525 9.83398 99.9629 9.26758C99.4043 8.69727 99.125 7.93945 99.125 6.99414V6.81836C99.125 6.18555 99.2461 5.62109 99.4883 5.125C99.7344 4.625 100.078 4.23633 100.52 3.95898C100.961 3.68164 101.453 3.54297 101.996 3.54297C102.859 3.54297 103.525 3.81836 103.994 4.36914C104.467 4.91992 104.703 5.69922 104.703 6.70703V7.28125H100.561C100.604 7.80469 100.777 8.21875 101.082 8.52344C101.391 8.82812 101.777 8.98047 102.242 8.98047C102.895 8.98047 103.426 8.7168 103.836 8.18945L104.604 8.92188C104.35 9.30078 104.01 9.5957 103.584 9.80664C103.162 10.0137 102.688 10.1172 102.16 10.1172ZM101.99 4.68555C101.6 4.68555 101.283 4.82227 101.041 5.0957C100.803 5.36914 100.65 5.75 100.584 6.23828H103.297V6.13281C103.266 5.65625 103.139 5.29688 102.916 5.05469C102.693 4.80859 102.385 4.68555 101.99 4.68555ZM107.135 3.66016L107.176 4.39258C107.645 3.82617 108.26 3.54297 109.021 3.54297C110.342 3.54297 111.014 4.29883 111.037 5.81055V10H109.613V5.89258C109.613 5.49023 109.525 5.19336 109.35 5.00195C109.178 4.80664 108.895 4.70898 108.5 4.70898C107.926 4.70898 107.498 4.96875 107.217 5.48828V10H105.793V3.66016H107.135ZM115.256 6.94727H112.18V5.79883H115.256V6.94727ZM116.932 10V4.71484H115.965V3.66016H116.932V3.08008C116.932 2.37695 117.127 1.83398 117.518 1.45117C117.908 1.06836 118.455 0.876953 119.158 0.876953C119.408 0.876953 119.674 0.912109 119.955 0.982422L119.92 2.0957C119.764 2.06445 119.582 2.04883 119.375 2.04883C118.695 2.04883 118.355 2.39844 118.355 3.09766V3.66016H119.645V4.71484H118.355V10H116.932ZM124.004 4.96094C123.816 4.92969 123.623 4.91406 123.424 4.91406C122.771 4.91406 122.332 5.16406 122.105 5.66406V10H120.682V3.66016H122.041L122.076 4.36914C122.42 3.81836 122.896 3.54297 123.506 3.54297C123.709 3.54297 123.877 3.57031 124.01 3.625L124.004 4.96094ZM127.578 10.1172C126.676 10.1172 125.943 9.83398 125.381 9.26758C124.822 8.69727 124.543 7.93945 124.543 6.99414V6.81836C124.543 6.18555 124.664 5.62109 124.906 5.125C125.152 4.625 125.496 4.23633 125.938 3.95898C126.379 3.68164 126.871 3.54297 127.414 3.54297C128.277 3.54297 128.943 3.81836 129.412 4.36914C129.885 4.91992 130.121 5.69922 130.121 6.70703V7.28125H125.979C126.021 7.80469 126.195 8.21875 126.5 8.52344C126.809 8.82812 127.195 8.98047 127.66 8.98047C128.312 8.98047 128.844 8.7168 129.254 8.18945L130.021 8.92188C129.768 9.30078 129.428 9.5957 129.002 9.80664C128.58 10.0137 128.105 10.1172 127.578 10.1172ZM127.408 4.68555C127.018 4.68555 126.701 4.82227 126.459 5.0957C126.221 5.36914 126.068 5.75 126.002 6.23828H128.715V6.13281C128.684 5.65625 128.557 5.29688 128.334 5.05469C128.111 4.80859 127.803 4.68555 127.408 4.68555ZM134.023 10.1172C133.121 10.1172 132.389 9.83398 131.826 9.26758C131.268 8.69727 130.988 7.93945 130.988 6.99414V6.81836C130.988 6.18555 131.109 5.62109 131.352 5.125C131.598 4.625 131.941 4.23633 132.383 3.95898C132.824 3.68164 133.316 3.54297 133.859 3.54297C134.723 3.54297 135.389 3.81836 135.857 4.36914C136.33 4.91992 136.566 5.69922 136.566 6.70703V7.28125H132.424C132.467 7.80469 132.641 8.21875 132.945 8.52344C133.254 8.82812 133.641 8.98047 134.105 8.98047C134.758 8.98047 135.289 8.7168 135.699 8.18945L136.467 8.92188C136.213 9.30078 135.873 9.5957 135.447 9.80664C135.025 10.0137 134.551 10.1172 134.023 10.1172ZM133.854 4.68555C133.463 4.68555 133.146 4.82227 132.904 5.0957C132.666 5.36914 132.514 5.75 132.447 6.23828H135.16V6.13281C135.129 5.65625 135.002 5.29688 134.779 5.05469C134.557 4.80859 134.248 4.68555 133.854 4.68555ZM143.27 8.98047C143.625 8.98047 143.92 8.87695 144.154 8.66992C144.389 8.46289 144.514 8.20703 144.529 7.90234H145.871C145.855 8.29688 145.732 8.66602 145.502 9.00977C145.271 9.34961 144.959 9.61914 144.564 9.81836C144.17 10.0176 143.744 10.1172 143.287 10.1172C142.4 10.1172 141.697 9.83008 141.178 9.25586C140.658 8.68164 140.398 7.88867 140.398 6.87695V6.73047C140.398 5.76562 140.656 4.99414 141.172 4.41602C141.688 3.83398 142.391 3.54297 143.281 3.54297C144.035 3.54297 144.648 3.76367 145.121 4.20508C145.598 4.64258 145.848 5.21875 145.871 5.93359H144.529C144.514 5.57031 144.389 5.27148 144.154 5.03711C143.924 4.80273 143.629 4.68555 143.27 4.68555C142.809 4.68555 142.453 4.85352 142.203 5.18945C141.953 5.52148 141.826 6.02734 141.822 6.70703V6.93555C141.822 7.62305 141.945 8.13672 142.191 8.47656C142.441 8.8125 142.801 8.98047 143.27 8.98047ZM148.461 10H147.037V1H148.461V10ZM152.809 10.1172C151.906 10.1172 151.174 9.83398 150.611 9.26758C150.053 8.69727 149.773 7.93945 149.773 6.99414V6.81836C149.773 6.18555 149.895 5.62109 150.137 5.125C150.383 4.625 150.727 4.23633 151.168 3.95898C151.609 3.68164 152.102 3.54297 152.645 3.54297C153.508 3.54297 154.174 3.81836 154.643 4.36914C155.115 4.91992 155.352 5.69922 155.352 6.70703V7.28125H151.209C151.252 7.80469 151.426 8.21875 151.73 8.52344C152.039 8.82812 152.426 8.98047 152.891 8.98047C153.543 8.98047 154.074 8.7168 154.484 8.18945L155.252 8.92188C154.998 9.30078 154.658 9.5957 154.232 9.80664C153.811 10.0137 153.336 10.1172 152.809 10.1172ZM152.639 4.68555C152.248 4.68555 151.932 4.82227 151.689 5.0957C151.451 5.36914 151.299 5.75 151.232 6.23828H153.945V6.13281C153.914 5.65625 153.787 5.29688 153.564 5.05469C153.342 4.80859 153.033 4.68555 152.639 4.68555ZM160.25 10C160.188 9.87891 160.133 9.68164 160.086 9.4082C159.633 9.88086 159.078 10.1172 158.422 10.1172C157.785 10.1172 157.266 9.93555 156.863 9.57227C156.461 9.20898 156.26 8.75977 156.26 8.22461C156.26 7.54883 156.51 7.03125 157.01 6.67188C157.514 6.30859 158.232 6.12695 159.166 6.12695H160.039V5.71094C160.039 5.38281 159.947 5.12109 159.764 4.92578C159.58 4.72656 159.301 4.62695 158.926 4.62695C158.602 4.62695 158.336 4.70898 158.129 4.87305C157.922 5.0332 157.818 5.23828 157.818 5.48828H156.395C156.395 5.14062 156.51 4.81641 156.74 4.51562C156.971 4.21094 157.283 3.97266 157.678 3.80078C158.076 3.62891 158.52 3.54297 159.008 3.54297C159.75 3.54297 160.342 3.73047 160.783 4.10547C161.225 4.47656 161.451 5 161.463 5.67578V8.53516C161.463 9.10547 161.543 9.56055 161.703 9.90039V10H160.25ZM158.686 8.97461C158.967 8.97461 159.23 8.90625 159.477 8.76953C159.727 8.63281 159.914 8.44922 160.039 8.21875V7.02344H159.271C158.744 7.02344 158.348 7.11523 158.082 7.29883C157.816 7.48242 157.684 7.74219 157.684 8.07812C157.684 8.35156 157.773 8.57031 157.953 8.73438C158.137 8.89453 158.381 8.97461 158.686 8.97461ZM164.275 3.66016L164.316 4.39258C164.785 3.82617 165.4 3.54297 166.162 3.54297C167.482 3.54297 168.154 4.29883 168.178 5.81055V10H166.754V5.89258C166.754 5.49023 166.666 5.19336 166.49 5.00195C166.318 4.80664 166.035 4.70898 165.641 4.70898C165.066 4.70898 164.639 4.96875 164.357 5.48828V10H162.934V3.66016H164.275ZM173.188 8.27734C173.188 8.02344 173.082 7.83008 172.871 7.69727C172.664 7.56445 172.318 7.44727 171.834 7.3457C171.35 7.24414 170.945 7.11523 170.621 6.95898C169.91 6.61523 169.555 6.11719 169.555 5.46484C169.555 4.91797 169.785 4.46094 170.246 4.09375C170.707 3.72656 171.293 3.54297 172.004 3.54297C172.762 3.54297 173.373 3.73047 173.838 4.10547C174.307 4.48047 174.541 4.9668 174.541 5.56445H173.117C173.117 5.29102 173.016 5.06445 172.812 4.88477C172.609 4.70117 172.34 4.60938 172.004 4.60938C171.691 4.60938 171.436 4.68164 171.236 4.82617C171.041 4.9707 170.943 5.16406 170.943 5.40625C170.943 5.625 171.035 5.79492 171.219 5.91602C171.402 6.03711 171.773 6.16016 172.332 6.28516C172.891 6.40625 173.328 6.55273 173.645 6.72461C173.965 6.89258 174.201 7.0957 174.354 7.33398C174.51 7.57227 174.588 7.86133 174.588 8.20117C174.588 8.77148 174.352 9.23438 173.879 9.58984C173.406 9.94141 172.787 10.1172 172.021 10.1172C171.502 10.1172 171.039 10.0234 170.633 9.83594C170.227 9.64844 169.91 9.39062 169.684 9.0625C169.457 8.73438 169.344 8.38086 169.344 8.00195H170.727C170.746 8.33789 170.873 8.59766 171.107 8.78125C171.342 8.96094 171.652 9.05078 172.039 9.05078C172.414 9.05078 172.699 8.98047 172.895 8.83984C173.09 8.69531 173.188 8.50781 173.188 8.27734ZM177.348 10H175.924V3.66016H177.348V10ZM175.836 2.01367C175.836 1.79492 175.904 1.61328 176.041 1.46875C176.182 1.32422 176.381 1.25195 176.639 1.25195C176.896 1.25195 177.096 1.32422 177.236 1.46875C177.377 1.61328 177.447 1.79492 177.447 2.01367C177.447 2.22852 177.377 2.4082 177.236 2.55273C177.096 2.69336 176.896 2.76367 176.639 2.76367C176.381 2.76367 176.182 2.69336 176.041 2.55273C175.904 2.4082 175.836 2.22852 175.836 2.01367ZM180.225 3.66016L180.266 4.39258C180.734 3.82617 181.35 3.54297 182.111 3.54297C183.432 3.54297 184.104 4.29883 184.127 5.81055V10H182.703V5.89258C182.703 5.49023 182.615 5.19336 182.439 5.00195C182.268 4.80664 181.984 4.70898 181.59 4.70898C181.016 4.70898 180.588 4.96875 180.307 5.48828V10H178.883V3.66016H180.225ZM185.334 6.7832C185.334 5.79883 185.564 5.01367 186.025 4.42773C186.49 3.83789 187.105 3.54297 187.871 3.54297C188.594 3.54297 189.162 3.79492 189.576 4.29883L189.641 3.66016H190.924V9.80664C190.924 10.6387 190.664 11.2949 190.145 11.7754C189.629 12.2559 188.932 12.4961 188.053 12.4961C187.588 12.4961 187.133 12.3984 186.688 12.2031C186.246 12.0117 185.91 11.7598 185.68 11.4473L186.354 10.5918C186.791 11.1113 187.33 11.3711 187.971 11.3711C188.443 11.3711 188.816 11.2422 189.09 10.9844C189.363 10.7305 189.5 10.3555 189.5 9.85938V9.43164C189.09 9.88867 188.543 10.1172 187.859 10.1172C187.117 10.1172 186.51 9.82227 186.037 9.23242C185.568 8.64258 185.334 7.82617 185.334 6.7832ZM186.752 6.90625C186.752 7.54297 186.881 8.04492 187.139 8.41211C187.4 8.77539 187.762 8.95703 188.223 8.95703C188.797 8.95703 189.223 8.71094 189.5 8.21875V5.42969C189.23 4.94922 188.809 4.70898 188.234 4.70898C187.766 4.70898 187.4 4.89453 187.139 5.26562C186.881 5.63672 186.752 6.18359 186.752 6.90625ZM198.934 8.27734C198.934 8.02344 198.828 7.83008 198.617 7.69727C198.41 7.56445 198.064 7.44727 197.58 7.3457C197.096 7.24414 196.691 7.11523 196.367 6.95898C195.656 6.61523 195.301 6.11719 195.301 5.46484C195.301 4.91797 195.531 4.46094 195.992 4.09375C196.453 3.72656 197.039 3.54297 197.75 3.54297C198.508 3.54297 199.119 3.73047 199.584 4.10547C200.053 4.48047 200.287 4.9668 200.287 5.56445H198.863C198.863 5.29102 198.762 5.06445 198.559 4.88477C198.355 4.70117 198.086 4.60938 197.75 4.60938C197.438 4.60938 197.182 4.68164 196.982 4.82617C196.787 4.9707 196.689 5.16406 196.689 5.40625C196.689 5.625 196.781 5.79492 196.965 5.91602C197.148 6.03711 197.52 6.16016 198.078 6.28516C198.637 6.40625 199.074 6.55273 199.391 6.72461C199.711 6.89258 199.947 7.0957 200.1 7.33398C200.256 7.57227 200.334 7.86133 200.334 8.20117C200.334 8.77148 200.098 9.23438 199.625 9.58984C199.152 9.94141 198.533 10.1172 197.768 10.1172C197.248 10.1172 196.785 10.0234 196.379 9.83594C195.973 9.64844 195.656 9.39062 195.43 9.0625C195.203 8.73438 195.09 8.38086 195.09 8.00195H196.473C196.492 8.33789 196.619 8.59766 196.854 8.78125C197.088 8.96094 197.398 9.05078 197.785 9.05078C198.16 9.05078 198.445 8.98047 198.641 8.83984C198.836 8.69531 198.934 8.50781 198.934 8.27734ZM201.312 6.77148C201.312 6.15039 201.436 5.5918 201.682 5.0957C201.928 4.5957 202.273 4.21289 202.719 3.94727C203.164 3.67773 203.676 3.54297 204.254 3.54297C205.109 3.54297 205.803 3.81836 206.334 4.36914C206.869 4.91992 207.158 5.65039 207.201 6.56055L207.207 6.89453C207.207 7.51953 207.086 8.07812 206.844 8.57031C206.605 9.0625 206.262 9.44336 205.812 9.71289C205.367 9.98242 204.852 10.1172 204.266 10.1172C203.371 10.1172 202.654 9.82031 202.115 9.22656C201.58 8.62891 201.312 7.83398 201.312 6.8418V6.77148ZM202.736 6.89453C202.736 7.54688 202.871 8.05859 203.141 8.42969C203.41 8.79688 203.785 8.98047 204.266 8.98047C204.746 8.98047 205.119 8.79297 205.385 8.41797C205.654 8.04297 205.789 7.49414 205.789 6.77148C205.789 6.13086 205.65 5.62305 205.373 5.24805C205.1 4.87305 204.727 4.68555 204.254 4.68555C203.789 4.68555 203.42 4.87109 203.146 5.24219C202.873 5.60938 202.736 6.16016 202.736 6.89453ZM209.926 10H208.502V1H209.926V10ZM215.322 9.37891C214.904 9.87109 214.311 10.1172 213.541 10.1172C212.854 10.1172 212.332 9.91602 211.977 9.51367C211.625 9.11133 211.449 8.5293 211.449 7.76758V3.66016H212.873V7.75C212.873 8.55469 213.207 8.95703 213.875 8.95703C214.566 8.95703 215.033 8.70898 215.275 8.21289V3.66016H216.699V10H215.357L215.322 9.37891ZM219.934 2.11914V3.66016H221.053V4.71484H219.934V8.25391C219.934 8.49609 219.98 8.67188 220.074 8.78125C220.172 8.88672 220.344 8.93945 220.59 8.93945C220.754 8.93945 220.92 8.91992 221.088 8.88086V9.98242C220.764 10.0723 220.451 10.1172 220.15 10.1172C219.057 10.1172 218.51 9.51367 218.51 8.30664V4.71484H217.467V3.66016H218.51V2.11914H219.934ZM223.66 10H222.236V3.66016H223.66V10ZM222.148 2.01367C222.148 1.79492 222.217 1.61328 222.354 1.46875C222.494 1.32422 222.693 1.25195 222.951 1.25195C223.209 1.25195 223.408 1.32422 223.549 1.46875C223.689 1.61328 223.76 1.79492 223.76 2.01367C223.76 2.22852 223.689 2.4082 223.549 2.55273C223.408 2.69336 223.209 2.76367 222.951 2.76367C222.693 2.76367 222.494 2.69336 222.354 2.55273C222.217 2.4082 222.148 2.22852 222.148 2.01367ZM224.949 6.77148C224.949 6.15039 225.072 5.5918 225.318 5.0957C225.564 4.5957 225.91 4.21289 226.355 3.94727C226.801 3.67773 227.312 3.54297 227.891 3.54297C228.746 3.54297 229.439 3.81836 229.971 4.36914C230.506 4.91992 230.795 5.65039 230.838 6.56055L230.844 6.89453C230.844 7.51953 230.723 8.07812 230.48 8.57031C230.242 9.0625 229.898 9.44336 229.449 9.71289C229.004 9.98242 228.488 10.1172 227.902 10.1172C227.008 10.1172 226.291 9.82031 225.752 9.22656C225.217 8.62891 224.949 7.83398 224.949 6.8418V6.77148ZM226.373 6.89453C226.373 7.54688 226.508 8.05859 226.777 8.42969C227.047 8.79688 227.422 8.98047 227.902 8.98047C228.383 8.98047 228.756 8.79297 229.021 8.41797C229.291 8.04297 229.426 7.49414 229.426 6.77148C229.426 6.13086 229.287 5.62305 229.01 5.24805C228.736 4.87305 228.363 4.68555 227.891 4.68555C227.426 4.68555 227.057 4.87109 226.783 5.24219C226.51 5.60938 226.373 6.16016 226.373 6.89453ZM233.369 3.66016L233.41 4.39258C233.879 3.82617 234.494 3.54297 235.256 3.54297C236.576 3.54297 237.248 4.29883 237.271 5.81055V10H235.848V5.89258C235.848 5.49023 235.76 5.19336 235.584 5.00195C235.412 4.80664 235.129 4.70898 234.734 4.70898C234.16 4.70898 233.732 4.96875 233.451 5.48828V10H232.027V3.66016H233.369ZM20.252 24V18.7148H19.2852V17.6602H20.252V17.0801C20.252 16.377 20.4473 15.834 20.8379 15.4512C21.2285 15.0684 21.7754 14.877 22.4785 14.877C22.7285 14.877 22.9941 14.9121 23.2754 14.9824L23.2402 16.0957C23.084 16.0645 22.9023 16.0488 22.6953 16.0488C22.0156 16.0488 21.6758 16.3984 21.6758 17.0977V17.6602H22.9648V18.7148H21.6758V24H20.252ZM23.7383 20.7715C23.7383 20.1504 23.8613 19.5918 24.1074 19.0957C24.3535 18.5957 24.6992 18.2129 25.1445 17.9473C25.5898 17.6777 26.1016 17.543 26.6797 17.543C27.5352 17.543 28.2285 17.8184 28.7598 18.3691C29.2949 18.9199 29.584 19.6504 29.627 20.5605L29.6328 20.8945C29.6328 21.5195 29.5117 22.0781 29.2695 22.5703C29.0312 23.0625 28.6875 23.4434 28.2383 23.7129C27.793 23.9824 27.2773 24.1172 26.6914 24.1172C25.7969 24.1172 25.0801 23.8203 24.541 23.2266C24.0059 22.6289 23.7383 21.834 23.7383 20.8418V20.7715ZM25.1621 20.8945C25.1621 21.5469 25.2969 22.0586 25.5664 22.4297C25.8359 22.7969 26.2109 22.9805 26.6914 22.9805C27.1719 22.9805 27.5449 22.793 27.8105 22.418C28.0801 22.043 28.2148 21.4941 28.2148 20.7715C28.2148 20.1309 28.0762 19.623 27.7988 19.248C27.5254 18.873 27.1523 18.6855 26.6797 18.6855C26.2148 18.6855 25.8457 18.8711 25.5723 19.2422C25.2988 19.6094 25.1621 20.1602 25.1621 20.8945ZM34.1562 18.9609C33.9688 18.9297 33.7754 18.9141 33.5762 18.9141C32.9238 18.9141 32.4844 19.1641 32.2578 19.6641V24H30.834V17.6602H32.1934L32.2285 18.3691C32.5723 17.8184 33.0488 17.543 33.6582 17.543C33.8613 17.543 34.0293 17.5703 34.1621 17.625L34.1562 18.9609ZM37.7773 20.7832C37.7773 19.8066 38.0039 19.0234 38.457 18.4336C38.9102 17.8398 39.5176 17.543 40.2793 17.543C40.9512 17.543 41.4941 17.7773 41.9082 18.2461V15H43.332V24H42.043L41.9727 23.3438C41.5469 23.8594 40.9785 24.1172 40.2676 24.1172C39.5254 24.1172 38.9238 23.8184 38.4629 23.2207C38.0059 22.623 37.7773 21.8105 37.7773 20.7832ZM39.2012 20.9062C39.2012 21.5508 39.3242 22.0547 39.5703 22.418C39.8203 22.7773 40.1738 22.957 40.6309 22.957C41.2129 22.957 41.6387 22.6973 41.9082 22.1777V19.4707C41.6465 18.9629 41.2246 18.709 40.6426 18.709C40.1816 18.709 39.8262 18.8926 39.5762 19.2598C39.3262 19.623 39.2012 20.1719 39.2012 20.9062ZM48.6055 24C48.543 23.8789 48.4883 23.6816 48.4414 23.4082C47.9883 23.8809 47.4336 24.1172 46.7773 24.1172C46.1406 24.1172 45.6211 23.9355 45.2188 23.5723C44.8164 23.209 44.6152 22.7598 44.6152 22.2246C44.6152 21.5488 44.8652 21.0312 45.3652 20.6719C45.8691 20.3086 46.5879 20.127 47.5215 20.127H48.3945V19.7109C48.3945 19.3828 48.3027 19.1211 48.1191 18.9258C47.9355 18.7266 47.6562 18.627 47.2812 18.627C46.957 18.627 46.6914 18.709 46.4844 18.873C46.2773 19.0332 46.1738 19.2383 46.1738 19.4883H44.75C44.75 19.1406 44.8652 18.8164 45.0957 18.5156C45.3262 18.2109 45.6387 17.9727 46.0332 17.8008C46.4316 17.6289 46.875 17.543 47.3633 17.543C48.1055 17.543 48.6973 17.7305 49.1387 18.1055C49.5801 18.4766 49.8066 19 49.8184 19.6758V22.5352C49.8184 23.1055 49.8984 23.5605 50.0586 23.9004V24H48.6055ZM47.041 22.9746C47.3223 22.9746 47.5859 22.9062 47.832 22.7695C48.082 22.6328 48.2695 22.4492 48.3945 22.2188V21.0234H47.627C47.0996 21.0234 46.7031 21.1152 46.4375 21.2988C46.1719 21.4824 46.0391 21.7422 46.0391 22.0781C46.0391 22.3516 46.1289 22.5703 46.3086 22.7344C46.4922 22.8945 46.7363 22.9746 47.041 22.9746ZM52.8242 24H51.4004V17.6602H52.8242V24ZM51.3125 16.0137C51.3125 15.7949 51.3809 15.6133 51.5176 15.4688C51.6582 15.3242 51.8574 15.252 52.1152 15.252C52.373 15.252 52.5723 15.3242 52.7129 15.4688C52.8535 15.6133 52.9238 15.7949 52.9238 16.0137C52.9238 16.2285 52.8535 16.4082 52.7129 16.5527C52.5723 16.6934 52.373 16.7637 52.1152 16.7637C51.8574 16.7637 51.6582 16.6934 51.5176 16.5527C51.3809 16.4082 51.3125 16.2285 51.3125 16.0137ZM55.8945 24H54.4707V15H55.8945V24ZM59.668 21.9609L60.957 17.6602H62.4746L59.9551 24.9609C59.5684 26.0273 58.9121 26.5605 57.9863 26.5605C57.7793 26.5605 57.5508 26.5254 57.3008 26.4551V25.3535L57.5703 25.3711C57.9297 25.3711 58.1992 25.3047 58.3789 25.1719C58.5625 25.043 58.707 24.8242 58.8125 24.5156L59.0176 23.9707L56.791 17.6602H58.3262L59.668 21.9609ZM67.8008 24H66.377V17.6602H67.8008V24ZM66.2891 16.0137C66.2891 15.7949 66.3574 15.6133 66.4941 15.4688C66.6348 15.3242 66.834 15.252 67.0918 15.252C67.3496 15.252 67.5488 15.3242 67.6895 15.4688C67.8301 15.6133 67.9004 15.7949 67.9004 16.0137C67.9004 16.2285 67.8301 16.4082 67.6895 16.5527C67.5488 16.6934 67.3496 16.7637 67.0918 16.7637C66.834 16.7637 66.6348 16.6934 66.4941 16.5527C66.3574 16.4082 66.2891 16.2285 66.2891 16.0137ZM70.6777 17.6602L70.7188 18.3926C71.1875 17.8262 71.8027 17.543 72.5645 17.543C73.8848 17.543 74.5566 18.2988 74.5801 19.8105V24H73.1562V19.8926C73.1562 19.4902 73.0684 19.1934 72.8926 19.002C72.7207 18.8066 72.4375 18.709 72.043 18.709C71.4688 18.709 71.041 18.9688 70.7598 19.4883V24H69.3359V17.6602H70.6777ZM77.8203 16.1191V17.6602H78.9395V18.7148H77.8203V22.2539C77.8203 22.4961 77.8672 22.6719 77.9609 22.7812C78.0586 22.8867 78.2305 22.9395 78.4766 22.9395C78.6406 22.9395 78.8066 22.9199 78.9746 22.8809V23.9824C78.6504 24.0723 78.3379 24.1172 78.0371 24.1172C76.9434 24.1172 76.3965 23.5137 76.3965 22.3066V18.7148H75.3535V17.6602H76.3965V16.1191H77.8203ZM81.5469 24H80.123V17.6602H81.5469V24ZM80.0352 16.0137C80.0352 15.7949 80.1035 15.6133 80.2402 15.4688C80.3809 15.3242 80.5801 15.252 80.8379 15.252C81.0957 15.252 81.2949 15.3242 81.4355 15.4688C81.5762 15.6133 81.6465 15.7949 81.6465 16.0137C81.6465 16.2285 81.5762 16.4082 81.4355 16.5527C81.2949 16.6934 81.0957 16.7637 80.8379 16.7637C80.5801 16.7637 80.3809 16.6934 80.2402 16.5527C80.1035 16.4082 80.0352 16.2285 80.0352 16.0137ZM84.4414 17.6602L84.4824 18.3223C84.9277 17.8027 85.5371 17.543 86.3105 17.543C87.1582 17.543 87.7383 17.8672 88.0508 18.5156C88.5117 17.8672 89.1602 17.543 89.9961 17.543C90.6953 17.543 91.2148 17.7363 91.5547 18.123C91.8984 18.5098 92.0742 19.0801 92.082 19.834V24H90.6582V19.875C90.6582 19.4727 90.5703 19.1777 90.3945 18.9902C90.2188 18.8027 89.9277 18.709 89.5215 18.709C89.1973 18.709 88.9316 18.7969 88.7246 18.9727C88.5215 19.1445 88.3789 19.3711 88.2969 19.6523L88.3027 24H86.8789V19.8281C86.8594 19.082 86.4785 18.709 85.7363 18.709C85.166 18.709 84.7617 18.9414 84.5234 19.4062V24H83.0996V17.6602H84.4414ZM97.332 24C97.2695 23.8789 97.2148 23.6816 97.168 23.4082C96.7148 23.8809 96.1602 24.1172 95.5039 24.1172C94.8672 24.1172 94.3477 23.9355 93.9453 23.5723C93.543 23.209 93.3418 22.7598 93.3418 22.2246C93.3418 21.5488 93.5918 21.0312 94.0918 20.6719C94.5957 20.3086 95.3145 20.127 96.248 20.127H97.1211V19.7109C97.1211 19.3828 97.0293 19.1211 96.8457 18.9258C96.6621 18.7266 96.3828 18.627 96.0078 18.627C95.6836 18.627 95.418 18.709 95.2109 18.873C95.0039 19.0332 94.9004 19.2383 94.9004 19.4883H93.4766C93.4766 19.1406 93.5918 18.8164 93.8223 18.5156C94.0527 18.2109 94.3652 17.9727 94.7598 17.8008C95.1582 17.6289 95.6016 17.543 96.0898 17.543C96.832 17.543 97.4238 17.7305 97.8652 18.1055C98.3066 18.4766 98.5332 19 98.5449 19.6758V22.5352C98.5449 23.1055 98.625 23.5605 98.7852 23.9004V24H97.332ZM95.7676 22.9746C96.0488 22.9746 96.3125 22.9062 96.5586 22.7695C96.8086 22.6328 96.9961 22.4492 97.1211 22.2188V21.0234H96.3535C95.8262 21.0234 95.4297 21.1152 95.1641 21.2988C94.8984 21.4824 94.7656 21.7422 94.7656 22.0781C94.7656 22.3516 94.8555 22.5703 95.0352 22.7344C95.2188 22.8945 95.4629 22.9746 95.7676 22.9746ZM101.82 16.1191V17.6602H102.939V18.7148H101.82V22.2539C101.82 22.4961 101.867 22.6719 101.961 22.7812C102.059 22.8867 102.23 22.9395 102.477 22.9395C102.641 22.9395 102.807 22.9199 102.975 22.8809V23.9824C102.65 24.0723 102.338 24.1172 102.037 24.1172C100.943 24.1172 100.396 23.5137 100.396 22.3066V18.7148H99.3535V17.6602H100.396V16.1191H101.82ZM106.824 24.1172C105.922 24.1172 105.189 23.834 104.627 23.2676C104.068 22.6973 103.789 21.9395 103.789 20.9941V20.8184C103.789 20.1855 103.91 19.6211 104.152 19.125C104.398 18.625 104.742 18.2363 105.184 17.959C105.625 17.6816 106.117 17.543 106.66 17.543C107.523 17.543 108.189 17.8184 108.658 18.3691C109.131 18.9199 109.367 19.6992 109.367 20.707V21.2812H105.225C105.268 21.8047 105.441 22.2188 105.746 22.5234C106.055 22.8281 106.441 22.9805 106.906 22.9805C107.559 22.9805 108.09 22.7168 108.5 22.1895L109.268 22.9219C109.014 23.3008 108.674 23.5957 108.248 23.8066C107.826 24.0137 107.352 24.1172 106.824 24.1172ZM106.654 18.6855C106.264 18.6855 105.947 18.8223 105.705 19.0957C105.467 19.3691 105.314 19.75 105.248 20.2383H107.961V20.1328C107.93 19.6562 107.803 19.2969 107.58 19.0547C107.357 18.8086 107.049 18.6855 106.654 18.6855ZM114.869 18.3516C115.334 17.8125 115.922 17.543 116.633 17.543C117.984 17.543 118.67 18.3145 118.689 19.8574V24H117.266V19.9102C117.266 19.4727 117.17 19.1641 116.979 18.9844C116.791 18.8008 116.514 18.709 116.146 18.709C115.576 18.709 115.15 18.9629 114.869 19.4707V24H113.445V15H114.869V18.3516ZM122.352 21.9609L123.641 17.6602H125.158L122.639 24.9609C122.252 26.0273 121.596 26.5605 120.67 26.5605C120.463 26.5605 120.234 26.5254 119.984 26.4551V25.3535L120.254 25.3711C120.613 25.3711 120.883 25.3047 121.062 25.1719C121.246 25.043 121.391 24.8242 121.496 24.5156L121.701 23.9707L119.475 17.6602H121.01L122.352 21.9609ZM125.65 20.7832C125.65 19.7988 125.881 19.0137 126.342 18.4277C126.807 17.8379 127.422 17.543 128.188 17.543C128.91 17.543 129.479 17.7949 129.893 18.2988L129.957 17.6602H131.24V23.8066C131.24 24.6387 130.98 25.2949 130.461 25.7754C129.945 26.2559 129.248 26.4961 128.369 26.4961C127.904 26.4961 127.449 26.3984 127.004 26.2031C126.562 26.0117 126.227 25.7598 125.996 25.4473L126.67 24.5918C127.107 25.1113 127.646 25.3711 128.287 25.3711C128.76 25.3711 129.133 25.2422 129.406 24.9844C129.68 24.7305 129.816 24.3555 129.816 23.8594V23.4316C129.406 23.8887 128.859 24.1172 128.176 24.1172C127.434 24.1172 126.826 23.8223 126.354 23.2324C125.885 22.6426 125.65 21.8262 125.65 20.7832ZM127.068 20.9062C127.068 21.543 127.197 22.0449 127.455 22.4121C127.717 22.7754 128.078 22.957 128.539 22.957C129.113 22.957 129.539 22.7109 129.816 22.2188V19.4297C129.547 18.9492 129.125 18.709 128.551 18.709C128.082 18.709 127.717 18.8945 127.455 19.2656C127.197 19.6367 127.068 20.1836 127.068 20.9062ZM134.223 24H132.799V17.6602H134.223V24ZM132.711 16.0137C132.711 15.7949 132.779 15.6133 132.916 15.4688C133.057 15.3242 133.256 15.252 133.514 15.252C133.771 15.252 133.971 15.3242 134.111 15.4688C134.252 15.6133 134.322 15.7949 134.322 16.0137C134.322 16.2285 134.252 16.4082 134.111 16.5527C133.971 16.6934 133.771 16.7637 133.514 16.7637C133.256 16.7637 133.057 16.6934 132.916 16.5527C132.779 16.4082 132.711 16.2285 132.711 16.0137ZM138.57 24.1172C137.668 24.1172 136.936 23.834 136.373 23.2676C135.814 22.6973 135.535 21.9395 135.535 20.9941V20.8184C135.535 20.1855 135.656 19.6211 135.898 19.125C136.145 18.625 136.488 18.2363 136.93 17.959C137.371 17.6816 137.863 17.543 138.406 17.543C139.27 17.543 139.936 17.8184 140.404 18.3691C140.877 18.9199 141.113 19.6992 141.113 20.707V21.2812H136.971C137.014 21.8047 137.188 22.2188 137.492 22.5234C137.801 22.8281 138.188 22.9805 138.652 22.9805C139.305 22.9805 139.836 22.7168 140.246 22.1895L141.014 22.9219C140.76 23.3008 140.42 23.5957 139.994 23.8066C139.572 24.0137 139.098 24.1172 138.57 24.1172ZM138.4 18.6855C138.01 18.6855 137.693 18.8223 137.451 19.0957C137.213 19.3691 137.061 19.75 136.994 20.2383H139.707V20.1328C139.676 19.6562 139.549 19.2969 139.326 19.0547C139.104 18.8086 138.795 18.6855 138.4 18.6855ZM143.545 17.6602L143.586 18.3926C144.055 17.8262 144.67 17.543 145.432 17.543C146.752 17.543 147.424 18.2988 147.447 19.8105V24H146.023V19.8926C146.023 19.4902 145.936 19.1934 145.76 19.002C145.588 18.8066 145.305 18.709 144.91 18.709C144.336 18.709 143.908 18.9688 143.627 19.4883V24H142.203V17.6602H143.545ZM151.695 24.1172C150.793 24.1172 150.061 23.834 149.498 23.2676C148.939 22.6973 148.66 21.9395 148.66 20.9941V20.8184C148.66 20.1855 148.781 19.6211 149.023 19.125C149.27 18.625 149.613 18.2363 150.055 17.959C150.496 17.6816 150.988 17.543 151.531 17.543C152.395 17.543 153.061 17.8184 153.529 18.3691C154.002 18.9199 154.238 19.6992 154.238 20.707V21.2812H150.096C150.139 21.8047 150.312 22.2188 150.617 22.5234C150.926 22.8281 151.312 22.9805 151.777 22.9805C152.43 22.9805 152.961 22.7168 153.371 22.1895L154.139 22.9219C153.885 23.3008 153.545 23.5957 153.119 23.8066C152.697 24.0137 152.223 24.1172 151.695 24.1172ZM151.525 18.6855C151.135 18.6855 150.818 18.8223 150.576 19.0957C150.338 19.3691 150.186 19.75 150.119 20.2383H152.832V20.1328C152.801 19.6562 152.674 19.2969 152.451 19.0547C152.229 18.8086 151.92 18.6855 151.525 18.6855ZM163.906 22.0371L164.914 17.6602H166.303L164.574 24H163.402L162.043 19.6465L160.707 24H159.535L157.801 17.6602H159.189L160.215 21.9902L161.516 17.6602H162.588L163.906 22.0371ZM168.77 24H167.346V17.6602H168.77V24ZM167.258 16.0137C167.258 15.7949 167.326 15.6133 167.463 15.4688C167.604 15.3242 167.803 15.252 168.061 15.252C168.318 15.252 168.518 15.3242 168.658 15.4688C168.799 15.6133 168.869 15.7949 168.869 16.0137C168.869 16.2285 168.799 16.4082 168.658 16.5527C168.518 16.6934 168.318 16.7637 168.061 16.7637C167.803 16.7637 167.604 16.6934 167.463 16.5527C167.326 16.4082 167.258 16.2285 167.258 16.0137ZM172.109 16.1191V17.6602H173.229V18.7148H172.109V22.2539C172.109 22.4961 172.156 22.6719 172.25 22.7812C172.348 22.8867 172.52 22.9395 172.766 22.9395C172.93 22.9395 173.096 22.9199 173.264 22.8809V23.9824C172.939 24.0723 172.627 24.1172 172.326 24.1172C171.232 24.1172 170.686 23.5137 170.686 22.3066V18.7148H169.643V17.6602H170.686V16.1191H172.109ZM175.725 18.3516C176.189 17.8125 176.777 17.543 177.488 17.543C178.84 17.543 179.525 18.3145 179.545 19.8574V24H178.121V19.9102C178.121 19.4727 178.025 19.1641 177.834 18.9844C177.646 18.8008 177.369 18.709 177.002 18.709C176.432 18.709 176.006 18.9629 175.725 19.4707V24H174.301V15H175.725V18.3516ZM187.531 22.2773C187.531 22.0234 187.426 21.8301 187.215 21.6973C187.008 21.5645 186.662 21.4473 186.178 21.3457C185.693 21.2441 185.289 21.1152 184.965 20.959C184.254 20.6152 183.898 20.1172 183.898 19.4648C183.898 18.918 184.129 18.4609 184.59 18.0938C185.051 17.7266 185.637 17.543 186.348 17.543C187.105 17.543 187.717 17.7305 188.182 18.1055C188.65 18.4805 188.885 18.9668 188.885 19.5645H187.461C187.461 19.291 187.359 19.0645 187.156 18.8848C186.953 18.7012 186.684 18.6094 186.348 18.6094C186.035 18.6094 185.779 18.6816 185.58 18.8262C185.385 18.9707 185.287 19.1641 185.287 19.4062C185.287 19.625 185.379 19.7949 185.562 19.916C185.746 20.0371 186.117 20.1602 186.676 20.2852C187.234 20.4062 187.672 20.5527 187.988 20.7246C188.309 20.8926 188.545 21.0957 188.697 21.334C188.854 21.5723 188.932 21.8613 188.932 22.2012C188.932 22.7715 188.695 23.2344 188.223 23.5898C187.75 23.9414 187.131 24.1172 186.365 24.1172C185.846 24.1172 185.383 24.0234 184.977 23.8359C184.57 23.6484 184.254 23.3906 184.027 23.0625C183.801 22.7344 183.688 22.3809 183.688 22.002H185.07C185.09 22.3379 185.217 22.5977 185.451 22.7812C185.686 22.9609 185.996 23.0508 186.383 23.0508C186.758 23.0508 187.043 22.9805 187.238 22.8398C187.434 22.6953 187.531 22.5078 187.531 22.2773ZM191.691 24H190.268V15H191.691V24ZM194.762 24H193.338V17.6602H194.762V24ZM193.25 16.0137C193.25 15.7949 193.318 15.6133 193.455 15.4688C193.596 15.3242 193.795 15.252 194.053 15.252C194.311 15.252 194.51 15.3242 194.65 15.4688C194.791 15.6133 194.861 15.7949 194.861 16.0137C194.861 16.2285 194.791 16.4082 194.65 16.5527C194.51 16.6934 194.311 16.7637 194.053 16.7637C193.795 16.7637 193.596 16.6934 193.455 16.5527C193.318 16.4082 193.25 16.2285 193.25 16.0137ZM196.068 20.7832C196.068 19.7988 196.299 19.0137 196.76 18.4277C197.225 17.8379 197.84 17.543 198.605 17.543C199.328 17.543 199.896 17.7949 200.311 18.2988L200.375 17.6602H201.658V23.8066C201.658 24.6387 201.398 25.2949 200.879 25.7754C200.363 26.2559 199.666 26.4961 198.787 26.4961C198.322 26.4961 197.867 26.3984 197.422 26.2031C196.98 26.0117 196.645 25.7598 196.414 25.4473L197.088 24.5918C197.525 25.1113 198.064 25.3711 198.705 25.3711C199.178 25.3711 199.551 25.2422 199.824 24.9844C200.098 24.7305 200.234 24.3555 200.234 23.8594V23.4316C199.824 23.8887 199.277 24.1172 198.594 24.1172C197.852 24.1172 197.244 23.8223 196.771 23.2324C196.303 22.6426 196.068 21.8262 196.068 20.7832ZM197.486 20.9062C197.486 21.543 197.615 22.0449 197.873 22.4121C198.135 22.7754 198.496 22.957 198.957 22.957C199.531 22.957 199.957 22.7109 200.234 22.2188V19.4297C199.965 18.9492 199.543 18.709 198.969 18.709C198.5 18.709 198.135 18.8945 197.873 19.2656C197.615 19.6367 197.486 20.1836 197.486 20.9062ZM204.529 18.3516C204.994 17.8125 205.582 17.543 206.293 17.543C207.645 17.543 208.33 18.3145 208.35 19.8574V24H206.926V19.9102C206.926 19.4727 206.83 19.1641 206.639 18.9844C206.451 18.8008 206.174 18.709 205.807 18.709C205.236 18.709 204.811 18.9629 204.529 19.4707V24H203.105V15H204.529V18.3516ZM211.578 16.1191V17.6602H212.697V18.7148H211.578V22.2539C211.578 22.4961 211.625 22.6719 211.719 22.7812C211.816 22.8867 211.988 22.9395 212.234 22.9395C212.398 22.9395 212.564 22.9199 212.732 22.8809V23.9824C212.408 24.0723 212.096 24.1172 211.795 24.1172C210.701 24.1172 210.154 23.5137 210.154 22.3066V18.7148H209.111V17.6602H210.154V16.1191H211.578ZM215.305 24H213.881V15H215.305V24ZM219.078 21.9609L220.367 17.6602H221.885L219.365 24.9609C218.979 26.0273 218.322 26.5605 217.396 26.5605C217.189 26.5605 216.961 26.5254 216.711 26.4551V25.3535L216.98 25.3711C217.34 25.3711 217.609 25.3047 217.789 25.1719C217.973 25.043 218.117 24.8242 218.223 24.5156L218.428 23.9707L216.201 17.6602H217.736L219.078 21.9609ZM16.6543 34.8945C16.6543 35.8789 16.4336 36.6621 15.9922 37.2441C15.5547 37.8262 14.9512 38.1172 14.1816 38.1172C13.4395 38.1172 12.8613 37.8496 12.4473 37.3145L12.377 38H11.0879V29H12.5117V32.2695C12.9219 31.7852 13.4746 31.543 14.1699 31.543C14.9434 31.543 15.5508 31.8301 15.9922 32.4043C16.4336 32.9785 16.6543 33.7812 16.6543 34.8125V34.8945ZM15.2305 34.7715C15.2305 34.084 15.1094 33.5684 14.8672 33.2246C14.625 32.8809 14.2734 32.709 13.8125 32.709C13.1953 32.709 12.7617 32.9785 12.5117 33.5176V36.1309C12.7656 36.6816 13.2031 36.957 13.8242 36.957C14.2695 36.957 14.6133 36.791 14.8555 36.459C15.0977 36.127 15.2227 35.625 15.2305 34.9531V34.7715ZM21.6406 38C21.5781 37.8789 21.5234 37.6816 21.4766 37.4082C21.0234 37.8809 20.4688 38.1172 19.8125 38.1172C19.1758 38.1172 18.6562 37.9355 18.2539 37.5723C17.8516 37.209 17.6504 36.7598 17.6504 36.2246C17.6504 35.5488 17.9004 35.0312 18.4004 34.6719C18.9043 34.3086 19.623 34.127 20.5566 34.127H21.4297V33.7109C21.4297 33.3828 21.3379 33.1211 21.1543 32.9258C20.9707 32.7266 20.6914 32.627 20.3164 32.627C19.9922 32.627 19.7266 32.709 19.5195 32.873C19.3125 33.0332 19.209 33.2383 19.209 33.4883H17.7852C17.7852 33.1406 17.9004 32.8164 18.1309 32.5156C18.3613 32.2109 18.6738 31.9727 19.0684 31.8008C19.4668 31.6289 19.9102 31.543 20.3984 31.543C21.1406 31.543 21.7324 31.7305 22.1738 32.1055C22.6152 32.4766 22.8418 33 22.8535 33.6758V36.5352C22.8535 37.1055 22.9336 37.5605 23.0938 37.9004V38H21.6406ZM20.0762 36.9746C20.3574 36.9746 20.6211 36.9062 20.8672 36.7695C21.1172 36.6328 21.3047 36.4492 21.4297 36.2188V35.0234H20.6621C20.1348 35.0234 19.7383 35.1152 19.4727 35.2988C19.207 35.4824 19.0742 35.7422 19.0742 36.0781C19.0742 36.3516 19.1641 36.5703 19.3438 36.7344C19.5273 36.8945 19.7715 36.9746 20.0762 36.9746ZM27.8984 36.2773C27.8984 36.0234 27.793 35.8301 27.582 35.6973C27.375 35.5645 27.0293 35.4473 26.5449 35.3457C26.0605 35.2441 25.6562 35.1152 25.332 34.959C24.6211 34.6152 24.2656 34.1172 24.2656 33.4648C24.2656 32.918 24.4961 32.4609 24.957 32.0938C25.418 31.7266 26.0039 31.543 26.7148 31.543C27.4727 31.543 28.084 31.7305 28.5488 32.1055C29.0176 32.4805 29.252 32.9668 29.252 33.5645H27.8281C27.8281 33.291 27.7266 33.0645 27.5234 32.8848C27.3203 32.7012 27.0508 32.6094 26.7148 32.6094C26.4023 32.6094 26.1465 32.6816 25.9473 32.8262C25.752 32.9707 25.6543 33.1641 25.6543 33.4062C25.6543 33.625 25.7461 33.7949 25.9297 33.916C26.1133 34.0371 26.4844 34.1602 27.043 34.2852C27.6016 34.4062 28.0391 34.5527 28.3555 34.7246C28.6758 34.8926 28.9121 35.0957 29.0645 35.334C29.2207 35.5723 29.2988 35.8613 29.2988 36.2012C29.2988 36.7715 29.0625 37.2344 28.5898 37.5898C28.1172 37.9414 27.498 38.1172 26.7324 38.1172C26.2129 38.1172 25.75 38.0234 25.3438 37.8359C24.9375 37.6484 24.6211 37.3906 24.3945 37.0625C24.168 36.7344 24.0547 36.3809 24.0547 36.002H25.4375C25.457 36.3379 25.584 36.5977 25.8184 36.7812C26.0527 36.9609 26.3633 37.0508 26.75 37.0508C27.125 37.0508 27.4102 36.9805 27.6055 36.8398C27.8008 36.6953 27.8984 36.5078 27.8984 36.2773ZM32.0586 38H30.6348V31.6602H32.0586V38ZM30.5469 30.0137C30.5469 29.7949 30.6152 29.6133 30.752 29.4688C30.8926 29.3242 31.0918 29.252 31.3496 29.252C31.6074 29.252 31.8066 29.3242 31.9473 29.4688C32.0879 29.6133 32.1582 29.7949 32.1582 30.0137C32.1582 30.2285 32.0879 30.4082 31.9473 30.5527C31.8066 30.6934 31.6074 30.7637 31.3496 30.7637C31.0918 30.7637 30.8926 30.6934 30.752 30.5527C30.6152 30.4082 30.5469 30.2285 30.5469 30.0137ZM36.2188 36.9805C36.5742 36.9805 36.8691 36.877 37.1035 36.6699C37.3379 36.4629 37.4629 36.207 37.4785 35.9023H38.8203C38.8047 36.2969 38.6816 36.666 38.4512 37.0098C38.2207 37.3496 37.9082 37.6191 37.5137 37.8184C37.1191 38.0176 36.6934 38.1172 36.2363 38.1172C35.3496 38.1172 34.6465 37.8301 34.127 37.2559C33.6074 36.6816 33.3477 35.8887 33.3477 34.877V34.7305C33.3477 33.7656 33.6055 32.9941 34.1211 32.416C34.6367 31.834 35.3398 31.543 36.2305 31.543C36.9844 31.543 37.5977 31.7637 38.0703 32.2051C38.5469 32.6426 38.7969 33.2188 38.8203 33.9336H37.4785C37.4629 33.5703 37.3379 33.2715 37.1035 33.0371C36.873 32.8027 36.5781 32.6855 36.2188 32.6855C35.7578 32.6855 35.4023 32.8535 35.1523 33.1895C34.9023 33.5215 34.7754 34.0273 34.7715 34.707V34.9355C34.7715 35.623 34.8945 36.1367 35.1406 36.4766C35.3906 36.8125 35.75 36.9805 36.2188 36.9805ZM48.4355 34.8945C48.4355 35.875 48.2129 36.6582 47.7676 37.2441C47.3223 37.8262 46.7246 38.1172 45.9746 38.1172C45.2793 38.1172 44.7227 37.8887 44.3047 37.4316V40.4375H42.8809V31.6602H44.1934L44.252 32.3047C44.6699 31.7969 45.2383 31.543 45.957 31.543C46.7305 31.543 47.3359 31.832 47.7734 32.4102C48.2148 32.9844 48.4355 33.7832 48.4355 34.8066V34.8945ZM47.0176 34.7715C47.0176 34.1387 46.8906 33.6367 46.6367 33.2656C46.3867 32.8945 46.0273 32.709 45.5586 32.709C44.9766 32.709 44.5586 32.9492 44.3047 33.4297V36.2422C44.5625 36.7344 44.9844 36.9805 45.5703 36.9805C46.0234 36.9805 46.377 36.7988 46.6309 36.4355C46.8887 36.0684 47.0176 35.5137 47.0176 34.7715ZM56.5566 38H55.0801V34.209H51.2656V38H49.7832V29.4688H51.2656V33.0195H55.0801V29.4688H56.5566V38ZM63.957 38.1172C63.0547 38.1172 62.3223 37.834 61.7598 37.2676C61.2012 36.6973 60.9219 35.9395 60.9219 34.9941V34.8184C60.9219 34.1855 61.043 33.6211 61.2852 33.125C61.5312 32.625 61.875 32.2363 62.3164 31.959C62.7578 31.6816 63.25 31.543 63.793 31.543C64.6562 31.543 65.3223 31.8184 65.791 32.3691C66.2637 32.9199 66.5 33.6992 66.5 34.707V35.2812H62.3574C62.4004 35.8047 62.5742 36.2188 62.8789 36.5234C63.1875 36.8281 63.5742 36.9805 64.0391 36.9805C64.6914 36.9805 65.2227 36.7168 65.6328 36.1895L66.4004 36.9219C66.1465 37.3008 65.8066 37.5957 65.3809 37.8066C64.959 38.0137 64.4844 38.1172 63.957 38.1172ZM63.7871 32.6855C63.3965 32.6855 63.0801 32.8223 62.8379 33.0957C62.5996 33.3691 62.4473 33.75 62.3809 34.2383H65.0938V34.1328C65.0625 33.6562 64.9355 33.2969 64.7129 33.0547C64.4902 32.8086 64.1816 32.6855 63.7871 32.6855ZM68.9316 31.6602L68.9727 32.3926C69.4414 31.8262 70.0566 31.543 70.8184 31.543C72.1387 31.543 72.8105 32.2988 72.834 33.8105V38H71.4102V33.8926C71.4102 33.4902 71.3223 33.1934 71.1465 33.002C70.9746 32.8066 70.6914 32.709 70.2969 32.709C69.7227 32.709 69.2949 32.9688 69.0137 33.4883V38H67.5898V31.6602H68.9316ZM77.6094 32.9609C77.4219 32.9297 77.2285 32.9141 77.0293 32.9141C76.377 32.9141 75.9375 33.1641 75.7109 33.6641V38H74.2871V31.6602H75.6465L75.6816 32.3691C76.0254 31.8184 76.502 31.543 77.1113 31.543C77.3145 31.543 77.4824 31.5703 77.6152 31.625L77.6094 32.9609ZM80.0234 38H78.5996V31.6602H80.0234V38ZM78.5117 30.0137C78.5117 29.7949 78.5801 29.6133 78.7168 29.4688C78.8574 29.3242 79.0566 29.252 79.3145 29.252C79.5723 29.252 79.7715 29.3242 79.9121 29.4688C80.0527 29.6133 80.123 29.7949 80.123 30.0137C80.123 30.2285 80.0527 30.4082 79.9121 30.5527C79.7715 30.6934 79.5723 30.7637 79.3145 30.7637C79.0566 30.7637 78.8574 30.6934 78.7168 30.5527C78.5801 30.4082 78.5117 30.2285 78.5117 30.0137ZM84.1836 36.9805C84.5391 36.9805 84.834 36.877 85.0684 36.6699C85.3027 36.4629 85.4277 36.207 85.4434 35.9023H86.7852C86.7695 36.2969 86.6465 36.666 86.416 37.0098C86.1855 37.3496 85.873 37.6191 85.4785 37.8184C85.084 38.0176 84.6582 38.1172 84.2012 38.1172C83.3145 38.1172 82.6113 37.8301 82.0918 37.2559C81.5723 36.6816 81.3125 35.8887 81.3125 34.877V34.7305C81.3125 33.7656 81.5703 32.9941 82.0859 32.416C82.6016 31.834 83.3047 31.543 84.1953 31.543C84.9492 31.543 85.5625 31.7637 86.0352 32.2051C86.5117 32.6426 86.7617 33.2188 86.7852 33.9336H85.4434C85.4277 33.5703 85.3027 33.2715 85.0684 33.0371C84.8379 32.8027 84.543 32.6855 84.1836 32.6855C83.7227 32.6855 83.3672 32.8535 83.1172 33.1895C82.8672 33.5215 82.7402 34.0273 82.7363 34.707V34.9355C82.7363 35.623 82.8594 36.1367 83.1055 36.4766C83.3555 36.8125 83.7148 36.9805 84.1836 36.9805ZM89.2637 32.3516C89.7285 31.8125 90.3164 31.543 91.0273 31.543C92.3789 31.543 93.0645 32.3145 93.084 33.8574V38H91.6602V33.9102C91.6602 33.4727 91.5645 33.1641 91.373 32.9844C91.1855 32.8008 90.9082 32.709 90.541 32.709C89.9707 32.709 89.5449 32.9629 89.2637 33.4707V38H87.8398V29H89.2637V32.3516ZM97.3203 38.1172C96.418 38.1172 95.6855 37.834 95.123 37.2676C94.5645 36.6973 94.2852 35.9395 94.2852 34.9941V34.8184C94.2852 34.1855 94.4062 33.6211 94.6484 33.125C94.8945 32.625 95.2383 32.2363 95.6797 31.959C96.1211 31.6816 96.6133 31.543 97.1562 31.543C98.0195 31.543 98.6855 31.8184 99.1543 32.3691C99.627 32.9199 99.8633 33.6992 99.8633 34.707V35.2812H95.7207C95.7637 35.8047 95.9375 36.2188 96.2422 36.5234C96.5508 36.8281 96.9375 36.9805 97.4023 36.9805C98.0547 36.9805 98.5859 36.7168 98.9961 36.1895L99.7637 36.9219C99.5098 37.3008 99.1699 37.5957 98.7441 37.8066C98.3223 38.0137 97.8477 38.1172 97.3203 38.1172ZM97.1504 32.6855C96.7598 32.6855 96.4434 32.8223 96.2012 33.0957C95.9629 33.3691 95.8105 33.75 95.7441 34.2383H98.457V34.1328C98.4258 33.6562 98.2988 33.2969 98.0762 33.0547C97.8535 32.8086 97.5449 32.6855 97.1504 32.6855ZM100.707 34.7832C100.707 33.8066 100.934 33.0234 101.387 32.4336C101.84 31.8398 102.447 31.543 103.209 31.543C103.881 31.543 104.424 31.7773 104.838 32.2461V29H106.262V38H104.973L104.902 37.3438C104.477 37.8594 103.908 38.1172 103.197 38.1172C102.455 38.1172 101.854 37.8184 101.393 37.2207C100.936 36.623 100.707 35.8105 100.707 34.7832ZM102.131 34.9062C102.131 35.5508 102.254 36.0547 102.5 36.418C102.75 36.7773 103.104 36.957 103.561 36.957C104.143 36.957 104.568 36.6973 104.838 36.1777V33.4707C104.576 32.9629 104.154 32.709 103.572 32.709C103.111 32.709 102.756 32.8926 102.506 33.2598C102.256 33.623 102.131 34.1719 102.131 34.9062ZM116.305 36.0371L117.312 31.6602H118.701L116.973 38H115.801L114.441 33.6465L113.105 38H111.934L110.199 31.6602H111.588L112.613 35.9902L113.914 31.6602H114.986L116.305 36.0371ZM121.168 38H119.744V31.6602H121.168V38ZM119.656 30.0137C119.656 29.7949 119.725 29.6133 119.861 29.4688C120.002 29.3242 120.201 29.252 120.459 29.252C120.717 29.252 120.916 29.3242 121.057 29.4688C121.197 29.6133 121.268 29.7949 121.268 30.0137C121.268 30.2285 121.197 30.4082 121.057 30.5527C120.916 30.6934 120.717 30.7637 120.459 30.7637C120.201 30.7637 120.002 30.6934 119.861 30.5527C119.725 30.4082 119.656 30.2285 119.656 30.0137ZM124.508 30.1191V31.6602H125.627V32.7148H124.508V36.2539C124.508 36.4961 124.555 36.6719 124.648 36.7812C124.746 36.8867 124.918 36.9395 125.164 36.9395C125.328 36.9395 125.494 36.9199 125.662 36.8809V37.9824C125.338 38.0723 125.025 38.1172 124.725 38.1172C123.631 38.1172 123.084 37.5137 123.084 36.3066V32.7148H122.041V31.6602H123.084V30.1191H124.508ZM128.123 32.3516C128.588 31.8125 129.176 31.543 129.887 31.543C131.238 31.543 131.924 32.3145 131.943 33.8574V38H130.52V33.9102C130.52 33.4727 130.424 33.1641 130.232 32.9844C130.045 32.8008 129.768 32.709 129.4 32.709C128.83 32.709 128.404 32.9629 128.123 33.4707V38H126.699V29H128.123V32.3516ZM141.939 34.8945C141.939 35.8789 141.719 36.6621 141.277 37.2441C140.84 37.8262 140.236 38.1172 139.467 38.1172C138.725 38.1172 138.146 37.8496 137.732 37.3145L137.662 38H136.373V29H137.797V32.2695C138.207 31.7852 138.76 31.543 139.455 31.543C140.229 31.543 140.836 31.8301 141.277 32.4043C141.719 32.9785 141.939 33.7812 141.939 34.8125V34.8945ZM140.516 34.7715C140.516 34.084 140.395 33.5684 140.152 33.2246C139.91 32.8809 139.559 32.709 139.098 32.709C138.48 32.709 138.047 32.9785 137.797 33.5176V36.1309C138.051 36.6816 138.488 36.957 139.109 36.957C139.555 36.957 139.898 36.791 140.141 36.459C140.383 36.127 140.508 35.625 140.516 34.9531V34.7715ZM146.979 37.3789C146.561 37.8711 145.967 38.1172 145.197 38.1172C144.51 38.1172 143.988 37.916 143.633 37.5137C143.281 37.1113 143.105 36.5293 143.105 35.7676V31.6602H144.529V35.75C144.529 36.5547 144.863 36.957 145.531 36.957C146.223 36.957 146.689 36.709 146.932 36.2129V31.6602H148.355V38H147.014L146.979 37.3789ZM153.125 32.9609C152.938 32.9297 152.744 32.9141 152.545 32.9141C151.893 32.9141 151.453 33.1641 151.227 33.6641V38H149.803V31.6602H151.162L151.197 32.3691C151.541 31.8184 152.018 31.543 152.627 31.543C152.83 31.543 152.998 31.5703 153.131 31.625L153.125 32.9609ZM153.641 34.7832C153.641 33.8066 153.867 33.0234 154.32 32.4336C154.773 31.8398 155.381 31.543 156.143 31.543C156.814 31.543 157.357 31.7773 157.771 32.2461V29H159.195V38H157.906L157.836 37.3438C157.41 37.8594 156.842 38.1172 156.131 38.1172C155.389 38.1172 154.787 37.8184 154.326 37.2207C153.869 36.623 153.641 35.8105 153.641 34.7832ZM155.064 34.9062C155.064 35.5508 155.188 36.0547 155.434 36.418C155.684 36.7773 156.037 36.957 156.494 36.957C157.076 36.957 157.502 36.6973 157.771 36.1777V33.4707C157.51 32.9629 157.088 32.709 156.506 32.709C156.045 32.709 155.689 32.8926 155.439 33.2598C155.189 33.623 155.064 34.1719 155.064 34.9062ZM160.414 34.7715C160.414 34.1504 160.537 33.5918 160.783 33.0957C161.029 32.5957 161.375 32.2129 161.82 31.9473C162.266 31.6777 162.777 31.543 163.355 31.543C164.211 31.543 164.904 31.8184 165.436 32.3691C165.971 32.9199 166.26 33.6504 166.303 34.5605L166.309 34.8945C166.309 35.5195 166.188 36.0781 165.945 36.5703C165.707 37.0625 165.363 37.4434 164.914 37.7129C164.469 37.9824 163.953 38.1172 163.367 38.1172C162.473 38.1172 161.756 37.8203 161.217 37.2266C160.682 36.6289 160.414 35.834 160.414 34.8418V34.7715ZM161.838 34.8945C161.838 35.5469 161.973 36.0586 162.242 36.4297C162.512 36.7969 162.887 36.9805 163.367 36.9805C163.848 36.9805 164.221 36.793 164.486 36.418C164.756 36.043 164.891 35.4941 164.891 34.7715C164.891 34.1309 164.752 33.623 164.475 33.248C164.201 32.873 163.828 32.6855 163.355 32.6855C162.891 32.6855 162.521 32.8711 162.248 33.2422C161.975 33.6094 161.838 34.1602 161.838 34.8945ZM170.117 36.9805C170.473 36.9805 170.768 36.877 171.002 36.6699C171.236 36.4629 171.361 36.207 171.377 35.9023H172.719C172.703 36.2969 172.58 36.666 172.35 37.0098C172.119 37.3496 171.807 37.6191 171.412 37.8184C171.018 38.0176 170.592 38.1172 170.135 38.1172C169.248 38.1172 168.545 37.8301 168.025 37.2559C167.506 36.6816 167.246 35.8887 167.246 34.877V34.7305C167.246 33.7656 167.504 32.9941 168.02 32.416C168.535 31.834 169.238 31.543 170.129 31.543C170.883 31.543 171.496 31.7637 171.969 32.2051C172.445 32.6426 172.695 33.2188 172.719 33.9336H171.377C171.361 33.5703 171.236 33.2715 171.002 33.0371C170.771 32.8027 170.477 32.6855 170.117 32.6855C169.656 32.6855 169.301 32.8535 169.051 33.1895C168.801 33.5215 168.674 34.0273 168.67 34.707V34.9355C168.67 35.623 168.793 36.1367 169.039 36.4766C169.289 36.8125 169.648 36.9805 170.117 36.9805ZM175.854 35.2812L175.221 35.9316V38H173.797V29H175.221V34.1914L175.666 33.6348L177.418 31.6602H179.129L176.773 34.3027L179.381 38H177.734L175.854 35.2812ZM180.266 39.9219L179.498 39.4648C179.725 39.1094 179.879 38.7988 179.961 38.5332C180.047 38.2715 180.092 38.0039 180.096 37.7305V36.623H181.379L181.373 37.6484C181.369 38.0625 181.264 38.4766 181.057 38.8906C180.854 39.3086 180.59 39.6523 180.266 39.9219ZM189.477 38C189.414 37.8789 189.359 37.6816 189.312 37.4082C188.859 37.8809 188.305 38.1172 187.648 38.1172C187.012 38.1172 186.492 37.9355 186.09 37.5723C185.688 37.209 185.486 36.7598 185.486 36.2246C185.486 35.5488 185.736 35.0312 186.236 34.6719C186.74 34.3086 187.459 34.127 188.393 34.127H189.266V33.7109C189.266 33.3828 189.174 33.1211 188.99 32.9258C188.807 32.7266 188.527 32.627 188.152 32.627C187.828 32.627 187.562 32.709 187.355 32.873C187.148 33.0332 187.045 33.2383 187.045 33.4883H185.621C185.621 33.1406 185.736 32.8164 185.967 32.5156C186.197 32.2109 186.51 31.9727 186.904 31.8008C187.303 31.6289 187.746 31.543 188.234 31.543C188.977 31.543 189.568 31.7305 190.01 32.1055C190.451 32.4766 190.678 33 190.689 33.6758V36.5352C190.689 37.1055 190.77 37.5605 190.93 37.9004V38H189.477ZM187.912 36.9746C188.193 36.9746 188.457 36.9062 188.703 36.7695C188.953 36.6328 189.141 36.4492 189.266 36.2188V35.0234H188.498C187.971 35.0234 187.574 35.1152 187.309 35.2988C187.043 35.4824 186.91 35.7422 186.91 36.0781C186.91 36.3516 187 36.5703 187.18 36.7344C187.363 36.8945 187.607 36.9746 187.912 36.9746ZM193.695 38H192.271V29H193.695V38ZM194.984 34.7715C194.984 34.1504 195.107 33.5918 195.354 33.0957C195.6 32.5957 195.945 32.2129 196.391 31.9473C196.836 31.6777 197.348 31.543 197.926 31.543C198.781 31.543 199.475 31.8184 200.006 32.3691C200.541 32.9199 200.83 33.6504 200.873 34.5605L200.879 34.8945C200.879 35.5195 200.758 36.0781 200.516 36.5703C200.277 37.0625 199.934 37.4434 199.484 37.7129C199.039 37.9824 198.523 38.1172 197.938 38.1172C197.043 38.1172 196.326 37.8203 195.787 37.2266C195.252 36.6289 194.984 35.834 194.984 34.8418V34.7715ZM196.408 34.8945C196.408 35.5469 196.543 36.0586 196.812 36.4297C197.082 36.7969 197.457 36.9805 197.938 36.9805C198.418 36.9805 198.791 36.793 199.057 36.418C199.326 36.043 199.461 35.4941 199.461 34.7715C199.461 34.1309 199.322 33.623 199.045 33.248C198.771 32.873 198.398 32.6855 197.926 32.6855C197.461 32.6855 197.092 32.8711 196.818 33.2422C196.545 33.6094 196.408 34.1602 196.408 34.8945ZM204.875 38.1172C203.973 38.1172 203.24 37.834 202.678 37.2676C202.119 36.6973 201.84 35.9395 201.84 34.9941V34.8184C201.84 34.1855 201.961 33.6211 202.203 33.125C202.449 32.625 202.793 32.2363 203.234 31.959C203.676 31.6816 204.168 31.543 204.711 31.543C205.574 31.543 206.24 31.8184 206.709 32.3691C207.182 32.9199 207.418 33.6992 207.418 34.707V35.2812H203.275C203.318 35.8047 203.492 36.2188 203.797 36.5234C204.105 36.8281 204.492 36.9805 204.957 36.9805C205.609 36.9805 206.141 36.7168 206.551 36.1895L207.318 36.9219C207.064 37.3008 206.725 37.5957 206.299 37.8066C205.877 38.0137 205.402 38.1172 204.875 38.1172ZM204.705 32.6855C204.314 32.6855 203.998 32.8223 203.756 33.0957C203.518 33.3691 203.365 33.75 203.299 34.2383H206.012V34.1328C205.98 33.6562 205.854 33.2969 205.631 33.0547C205.408 32.8086 205.1 32.6855 204.705 32.6855ZM213.752 36.1953L215.094 31.6602H216.564L214.367 38H213.131L210.916 31.6602H212.393L213.752 36.1953ZM220.168 38.1172C219.266 38.1172 218.533 37.834 217.971 37.2676C217.412 36.6973 217.133 35.9395 217.133 34.9941V34.8184C217.133 34.1855 217.254 33.6211 217.496 33.125C217.742 32.625 218.086 32.2363 218.527 31.959C218.969 31.6816 219.461 31.543 220.004 31.543C220.867 31.543 221.533 31.8184 222.002 32.3691C222.475 32.9199 222.711 33.6992 222.711 34.707V35.2812H218.568C218.611 35.8047 218.785 36.2188 219.09 36.5234C219.398 36.8281 219.785 36.9805 220.25 36.9805C220.902 36.9805 221.434 36.7168 221.844 36.1895L222.611 36.9219C222.357 37.3008 222.018 37.5957 221.592 37.8066C221.17 38.0137 220.695 38.1172 220.168 38.1172ZM219.998 32.6855C219.607 32.6855 219.291 32.8223 219.049 33.0957C218.811 33.3691 218.658 33.75 218.592 34.2383H221.305V34.1328C221.273 33.6562 221.146 33.2969 220.924 33.0547C220.701 32.8086 220.393 32.6855 219.998 32.6855ZM227.141 32.9609C226.953 32.9297 226.76 32.9141 226.561 32.9141C225.908 32.9141 225.469 33.1641 225.242 33.6641V38H223.818V31.6602H225.178L225.213 32.3691C225.557 31.8184 226.033 31.543 226.643 31.543C226.846 31.543 227.014 31.5703 227.146 31.625L227.141 32.9609ZM231.652 38C231.59 37.8789 231.535 37.6816 231.488 37.4082C231.035 37.8809 230.48 38.1172 229.824 38.1172C229.188 38.1172 228.668 37.9355 228.266 37.5723C227.863 37.209 227.662 36.7598 227.662 36.2246C227.662 35.5488 227.912 35.0312 228.412 34.6719C228.916 34.3086 229.635 34.127 230.568 34.127H231.441V33.7109C231.441 33.3828 231.35 33.1211 231.166 32.9258C230.982 32.7266 230.703 32.627 230.328 32.627C230.004 32.627 229.738 32.709 229.531 32.873C229.324 33.0332 229.221 33.2383 229.221 33.4883H227.797C227.797 33.1406 227.912 32.8164 228.143 32.5156C228.373 32.2109 228.686 31.9727 229.08 31.8008C229.479 31.6289 229.922 31.543 230.41 31.543C231.152 31.543 231.744 31.7305 232.186 32.1055C232.627 32.4766 232.854 33 232.865 33.6758V36.5352C232.865 37.1055 232.945 37.5605 233.105 37.9004V38H231.652ZM230.088 36.9746C230.369 36.9746 230.633 36.9062 230.879 36.7695C231.129 36.6328 231.316 36.4492 231.441 36.2188V35.0234H230.674C230.146 35.0234 229.75 35.1152 229.484 35.2988C229.219 35.4824 229.086 35.7422 229.086 36.0781C229.086 36.3516 229.176 36.5703 229.355 36.7344C229.539 36.8945 229.783 36.9746 230.088 36.9746ZM85.3379 52C85.2754 51.8789 85.2207 51.6816 85.1738 51.4082C84.7207 51.8809 84.166 52.1172 83.5098 52.1172C82.873 52.1172 82.3535 51.9355 81.9512 51.5723C81.5488 51.209 81.3477 50.7598 81.3477 50.2246C81.3477 49.5488 81.5977 49.0312 82.0977 48.6719C82.6016 48.3086 83.3203 48.127 84.2539 48.127H85.127V47.7109C85.127 47.3828 85.0352 47.1211 84.8516 46.9258C84.668 46.7266 84.3887 46.627 84.0137 46.627C83.6895 46.627 83.4238 46.709 83.2168 46.873C83.0098 47.0332 82.9062 47.2383 82.9062 47.4883H81.4824C81.4824 47.1406 81.5977 46.8164 81.8281 46.5156C82.0586 46.2109 82.3711 45.9727 82.7656 45.8008C83.1641 45.6289 83.6074 45.543 84.0957 45.543C84.8379 45.543 85.4297 45.7305 85.8711 46.1055C86.3125 46.4766 86.5391 47 86.5508 47.6758V50.5352C86.5508 51.1055 86.6309 51.5605 86.791 51.9004V52H85.3379ZM83.7734 50.9746C84.0547 50.9746 84.3184 50.9062 84.5645 50.7695C84.8145 50.6328 85.002 50.4492 85.127 50.2188V49.0234H84.3594C83.832 49.0234 83.4355 49.1152 83.1699 49.2988C82.9043 49.4824 82.7715 49.7422 82.7715 50.0781C82.7715 50.3516 82.8613 50.5703 83.041 50.7344C83.2246 50.8945 83.4688 50.9746 83.7734 50.9746ZM89.3633 45.6602L89.4043 46.3926C89.873 45.8262 90.4883 45.543 91.25 45.543C92.5703 45.543 93.2422 46.2988 93.2656 47.8105V52H91.8418V47.8926C91.8418 47.4902 91.7539 47.1934 91.5781 47.002C91.4062 46.8066 91.123 46.709 90.7285 46.709C90.1543 46.709 89.7266 46.9688 89.4453 47.4883V52H88.0215V45.6602H89.3633ZM94.4551 48.7832C94.4551 47.8066 94.6816 47.0234 95.1348 46.4336C95.5879 45.8398 96.1953 45.543 96.957 45.543C97.6289 45.543 98.1719 45.7773 98.5859 46.2461V43H100.01V52H98.7207L98.6504 51.3438C98.2246 51.8594 97.6562 52.1172 96.9453 52.1172C96.2031 52.1172 95.6016 51.8184 95.1406 51.2207C94.6836 50.623 94.4551 49.8105 94.4551 48.7832ZM95.8789 48.9062C95.8789 49.5508 96.002 50.0547 96.248 50.418C96.498 50.7773 96.8516 50.957 97.3086 50.957C97.8906 50.957 98.3164 50.6973 98.5859 50.1777V47.4707C98.3242 46.9629 97.9023 46.709 97.3203 46.709C96.8594 46.709 96.5039 46.8926 96.2539 47.2598C96.0039 47.623 95.8789 48.1719 95.8789 48.9062ZM107.088 50.9805C107.443 50.9805 107.738 50.877 107.973 50.6699C108.207 50.4629 108.332 50.207 108.348 49.9023H109.689C109.674 50.2969 109.551 50.666 109.32 51.0098C109.09 51.3496 108.777 51.6191 108.383 51.8184C107.988 52.0176 107.562 52.1172 107.105 52.1172C106.219 52.1172 105.516 51.8301 104.996 51.2559C104.477 50.6816 104.217 49.8887 104.217 48.877V48.7305C104.217 47.7656 104.475 46.9941 104.99 46.416C105.506 45.834 106.209 45.543 107.1 45.543C107.854 45.543 108.467 45.7637 108.939 46.2051C109.416 46.6426 109.666 47.2188 109.689 47.9336H108.348C108.332 47.5703 108.207 47.2715 107.973 47.0371C107.742 46.8027 107.447 46.6855 107.088 46.6855C106.627 46.6855 106.271 46.8535 106.021 47.1895C105.771 47.5215 105.645 48.0273 105.641 48.707V48.9355C105.641 49.623 105.764 50.1367 106.01 50.4766C106.26 50.8125 106.619 50.9805 107.088 50.9805ZM114.553 52C114.49 51.8789 114.436 51.6816 114.389 51.4082C113.936 51.8809 113.381 52.1172 112.725 52.1172C112.088 52.1172 111.568 51.9355 111.166 51.5723C110.764 51.209 110.562 50.7598 110.562 50.2246C110.562 49.5488 110.812 49.0312 111.312 48.6719C111.816 48.3086 112.535 48.127 113.469 48.127H114.342V47.7109C114.342 47.3828 114.25 47.1211 114.066 46.9258C113.883 46.7266 113.604 46.627 113.229 46.627C112.904 46.627 112.639 46.709 112.432 46.873C112.225 47.0332 112.121 47.2383 112.121 47.4883H110.697C110.697 47.1406 110.812 46.8164 111.043 46.5156C111.273 46.2109 111.586 45.9727 111.98 45.8008C112.379 45.6289 112.822 45.543 113.311 45.543C114.053 45.543 114.645 45.7305 115.086 46.1055C115.527 46.4766 115.754 47 115.766 47.6758V50.5352C115.766 51.1055 115.846 51.5605 116.006 51.9004V52H114.553ZM112.988 50.9746C113.27 50.9746 113.533 50.9062 113.779 50.7695C114.029 50.6328 114.217 50.4492 114.342 50.2188V49.0234H113.574C113.047 49.0234 112.65 49.1152 112.385 49.2988C112.119 49.4824 111.986 49.7422 111.986 50.0781C111.986 50.3516 112.076 50.5703 112.256 50.7344C112.439 50.8945 112.684 50.9746 112.988 50.9746ZM118.596 45.6602L118.637 46.3223C119.082 45.8027 119.691 45.543 120.465 45.543C121.312 45.543 121.893 45.8672 122.205 46.5156C122.666 45.8672 123.314 45.543 124.15 45.543C124.85 45.543 125.369 45.7363 125.709 46.123C126.053 46.5098 126.229 47.0801 126.236 47.834V52H124.812V47.875C124.812 47.4727 124.725 47.1777 124.549 46.9902C124.373 46.8027 124.082 46.709 123.676 46.709C123.352 46.709 123.086 46.7969 122.879 46.9727C122.676 47.1445 122.533 47.3711 122.451 47.6523L122.457 52H121.033V47.8281C121.014 47.082 120.633 46.709 119.891 46.709C119.32 46.709 118.916 46.9414 118.678 47.4062V52H117.254V45.6602H118.596ZM127.432 48.7715C127.432 48.1504 127.555 47.5918 127.801 47.0957C128.047 46.5957 128.393 46.2129 128.838 45.9473C129.283 45.6777 129.795 45.543 130.373 45.543C131.229 45.543 131.922 45.8184 132.453 46.3691C132.988 46.9199 133.277 47.6504 133.32 48.5605L133.326 48.8945C133.326 49.5195 133.205 50.0781 132.963 50.5703C132.725 51.0625 132.381 51.4434 131.932 51.7129C131.486 51.9824 130.971 52.1172 130.385 52.1172C129.49 52.1172 128.773 51.8203 128.234 51.2266C127.699 50.6289 127.432 49.834 127.432 48.8418V48.7715ZM128.855 48.8945C128.855 49.5469 128.99 50.0586 129.26 50.4297C129.529 50.7969 129.904 50.9805 130.385 50.9805C130.865 50.9805 131.238 50.793 131.504 50.418C131.773 50.043 131.908 49.4941 131.908 48.7715C131.908 48.1309 131.77 47.623 131.492 47.248C131.219 46.873 130.846 46.6855 130.373 46.6855C129.908 46.6855 129.539 46.8711 129.266 47.2422C128.992 47.6094 128.855 48.1602 128.855 48.8945ZM135.869 45.6602L135.91 46.3223C136.355 45.8027 136.965 45.543 137.738 45.543C138.586 45.543 139.166 45.8672 139.479 46.5156C139.939 45.8672 140.588 45.543 141.424 45.543C142.123 45.543 142.643 45.7363 142.982 46.123C143.326 46.5098 143.502 47.0801 143.51 47.834V52H142.086V47.875C142.086 47.4727 141.998 47.1777 141.822 46.9902C141.646 46.8027 141.355 46.709 140.949 46.709C140.625 46.709 140.359 46.7969 140.152 46.9727C139.949 47.1445 139.807 47.3711 139.725 47.6523L139.73 52H138.307V47.8281C138.287 47.082 137.906 46.709 137.164 46.709C136.594 46.709 136.189 46.9414 135.951 47.4062V52H134.527V45.6602H135.869ZM146.486 52H145.062V45.6602H146.486V52ZM144.975 44.0137C144.975 43.7949 145.043 43.6133 145.18 43.4688C145.32 43.3242 145.52 43.252 145.777 43.252C146.035 43.252 146.234 43.3242 146.375 43.4688C146.516 43.6133 146.586 43.7949 146.586 44.0137C146.586 44.2285 146.516 44.4082 146.375 44.5527C146.234 44.6934 146.035 44.7637 145.777 44.7637C145.52 44.7637 145.32 44.6934 145.18 44.5527C145.043 44.4082 144.975 44.2285 144.975 44.0137ZM149.557 52H148.133V43H149.557V52ZM153.904 52.1172C153.002 52.1172 152.27 51.834 151.707 51.2676C151.148 50.6973 150.869 49.9395 150.869 48.9941V48.8184C150.869 48.1855 150.99 47.6211 151.232 47.125C151.479 46.625 151.822 46.2363 152.264 45.959C152.705 45.6816 153.197 45.543 153.74 45.543C154.604 45.543 155.27 45.8184 155.738 46.3691C156.211 46.9199 156.447 47.6992 156.447 48.707V49.2812H152.305C152.348 49.8047 152.521 50.2188 152.826 50.5234C153.135 50.8281 153.521 50.9805 153.986 50.9805C154.639 50.9805 155.17 50.7168 155.58 50.1895L156.348 50.9219C156.094 51.3008 155.754 51.5957 155.328 51.8066C154.906 52.0137 154.432 52.1172 153.904 52.1172ZM153.734 46.6855C153.344 46.6855 153.027 46.8223 152.785 47.0957C152.547 47.3691 152.395 47.75 152.328 48.2383H155.041V48.1328C155.01 47.6562 154.883 47.2969 154.66 47.0547C154.438 46.8086 154.129 46.6855 153.734 46.6855ZM158.445 50.5C158.711 50.5 158.916 50.5762 159.061 50.7285C159.205 50.877 159.277 51.0645 159.277 51.291C159.277 51.5137 159.205 51.6992 159.061 51.8477C158.916 51.9922 158.711 52.0645 158.445 52.0645C158.191 52.0645 157.99 51.9922 157.842 51.8477C157.693 51.7031 157.619 51.5176 157.619 51.291C157.619 51.0645 157.691 50.877 157.836 50.7285C157.98 50.5762 158.184 50.5 158.445 50.5Z" fill="#F180B2"/>
</svg>
