<svg width="246" height="52" viewBox="0 0 246 52" fill="none" xmlns="http://www.w3.org/2000/svg">
<path d="M36.9287 8.06641L38.1318 2.17969H39.48L37.6753 10H36.3755L34.8877 4.29053L33.3677 10H32.0625L30.2578 2.17969H31.606L32.8198 8.05566L34.313 2.17969H35.4517L36.9287 8.06641ZM41.6338 4.82227C42.0599 4.32812 42.5988 4.08105 43.2505 4.08105C44.4894 4.08105 45.1178 4.78825 45.1357 6.20264V10H43.8306V6.25098C43.8306 5.84993 43.7428 5.56706 43.5674 5.40234C43.3955 5.23405 43.1413 5.1499 42.8047 5.1499C42.2819 5.1499 41.8916 5.38265 41.6338 5.84814V10H40.3286V1.75H41.6338V4.82227ZM46.2153 7.04053C46.2153 6.47119 46.3281 5.95915 46.5537 5.50439C46.7793 5.04606 47.0962 4.69515 47.5044 4.45166C47.9126 4.20459 48.3817 4.08105 48.9116 4.08105C49.6958 4.08105 50.3314 4.3335 50.8184 4.83838C51.3089 5.34326 51.5739 6.01286 51.6133 6.84717L51.6187 7.15332C51.6187 7.72624 51.5076 8.23828 51.2856 8.68945C51.0672 9.14062 50.7521 9.48975 50.3403 9.73682C49.9321 9.98389 49.4595 10.1074 48.9224 10.1074C48.1024 10.1074 47.4453 9.83529 46.9512 9.29102C46.4606 8.74316 46.2153 8.01449 46.2153 7.10498V7.04053ZM47.5205 7.15332C47.5205 7.7513 47.644 8.22038 47.8911 8.56055C48.1382 8.89714 48.4819 9.06543 48.9224 9.06543C49.3628 9.06543 49.7048 8.89355 49.9482 8.5498C50.1953 8.20605 50.3188 7.70296 50.3188 7.04053C50.3188 6.45329 50.1917 5.98779 49.9375 5.64404C49.6868 5.30029 49.3449 5.12842 48.9116 5.12842C48.4855 5.12842 48.1471 5.2985 47.8965 5.63867C47.6458 5.97526 47.5205 6.48014 47.5205 7.15332ZM56.8501 10H55.5449V4.18848H56.8501V10ZM55.4644 2.6792C55.4644 2.47868 55.527 2.31217 55.6523 2.17969C55.7812 2.0472 55.9639 1.98096 56.2002 1.98096C56.4365 1.98096 56.6191 2.0472 56.748 2.17969C56.877 2.31217 56.9414 2.47868 56.9414 2.6792C56.9414 2.87614 56.877 3.04085 56.748 3.17334C56.6191 3.30225 56.4365 3.3667 56.2002 3.3667C55.9639 3.3667 55.7812 3.30225 55.6523 3.17334C55.527 3.04085 55.4644 2.87614 55.4644 2.6792ZM61.5337 8.4209C61.5337 8.18815 61.437 8.0109 61.2437 7.88916C61.0539 7.76742 60.737 7.65999 60.293 7.56689C59.849 7.4738 59.4784 7.35563 59.1812 7.2124C58.5295 6.8973 58.2036 6.44076 58.2036 5.84277C58.2036 5.34147 58.4149 4.92253 58.8374 4.58594C59.2599 4.24935 59.797 4.08105 60.4487 4.08105C61.1434 4.08105 61.7038 4.25293 62.1299 4.59668C62.5596 4.94043 62.7744 5.38623 62.7744 5.93408H61.4692C61.4692 5.68343 61.3761 5.47575 61.1899 5.31104C61.0037 5.14274 60.7567 5.05859 60.4487 5.05859C60.1623 5.05859 59.9277 5.12484 59.7451 5.25732C59.5661 5.38981 59.4766 5.56706 59.4766 5.78906C59.4766 5.98958 59.5607 6.14535 59.729 6.25635C59.8973 6.36735 60.2375 6.48014 60.7495 6.59473C61.2616 6.70573 61.6626 6.84001 61.9526 6.99756C62.2463 7.15153 62.4629 7.33773 62.6025 7.55615C62.7458 7.77458 62.8174 8.03955 62.8174 8.35107C62.8174 8.87386 62.6007 9.29818 62.1675 9.62402C61.7342 9.94629 61.1667 10.1074 60.4648 10.1074C59.9886 10.1074 59.5643 10.0215 59.1919 9.84961C58.8195 9.67773 58.5295 9.44141 58.3218 9.14062C58.1141 8.83984 58.0103 8.51579 58.0103 8.16846H59.2778C59.2957 8.4764 59.4121 8.71452 59.627 8.88281C59.8418 9.04753 60.1265 9.12988 60.481 9.12988C60.8247 9.12988 61.0861 9.06543 61.2651 8.93652C61.4442 8.80404 61.5337 8.63216 61.5337 8.4209ZM68.0864 10H66.7812V4.18848H68.0864V10ZM66.7007 2.6792C66.7007 2.47868 66.7633 2.31217 66.8887 2.17969C67.0176 2.0472 67.2002 1.98096 67.4365 1.98096C67.6729 1.98096 67.8555 2.0472 67.9844 2.17969C68.1133 2.31217 68.1777 2.47868 68.1777 2.6792C68.1777 2.87614 68.1133 3.04085 67.9844 3.17334C67.8555 3.30225 67.6729 3.3667 67.4365 3.3667C67.2002 3.3667 67.0176 3.30225 66.8887 3.17334C66.7633 3.04085 66.7007 2.87614 66.7007 2.6792ZM71.1479 2.77588V4.18848H72.1738V5.15527H71.1479V8.39941C71.1479 8.62142 71.1909 8.78255 71.2769 8.88281C71.3664 8.97949 71.5239 9.02783 71.7495 9.02783C71.8999 9.02783 72.0521 9.00993 72.2061 8.97412V9.98389C71.9089 10.0662 71.6224 10.1074 71.3467 10.1074C70.3441 10.1074 69.8428 9.5542 69.8428 8.44775V5.15527H68.8867V4.18848H69.8428V2.77588H71.1479ZM76.374 10V5.15527H75.4878V4.18848H76.374V3.65674C76.374 3.01221 76.5531 2.51449 76.9111 2.16357C77.2692 1.81266 77.7705 1.63721 78.415 1.63721C78.6442 1.63721 78.8877 1.66943 79.1455 1.73389L79.1133 2.75439C78.9701 2.72575 78.8035 2.71143 78.6138 2.71143C77.9907 2.71143 77.6792 3.0319 77.6792 3.67285V4.18848H78.8608V5.15527H77.6792V10H76.374ZM79.5698 7.04053C79.5698 6.47119 79.6826 5.95915 79.9082 5.50439C80.1338 5.04606 80.4507 4.69515 80.8589 4.45166C81.2671 4.20459 81.7362 4.08105 82.2661 4.08105C83.0503 4.08105 83.6859 4.3335 84.1729 4.83838C84.6634 5.34326 84.9284 6.01286 84.9678 6.84717L84.9731 7.15332C84.9731 7.72624 84.8621 8.23828 84.6401 8.68945C84.4217 9.14062 84.1066 9.48975 83.6948 9.73682C83.2866 9.98389 82.814 10.1074 82.2769 10.1074C81.4569 10.1074 80.7998 9.83529 80.3057 9.29102C79.8151 8.74316 79.5698 8.01449 79.5698 7.10498V7.04053ZM80.875 7.15332C80.875 7.7513 80.9985 8.22038 81.2456 8.56055C81.4927 8.89714 81.8364 9.06543 82.2769 9.06543C82.7173 9.06543 83.0592 8.89355 83.3027 8.5498C83.5498 8.20605 83.6733 7.70296 83.6733 7.04053C83.6733 6.45329 83.5462 5.98779 83.292 5.64404C83.0413 5.30029 82.6994 5.12842 82.2661 5.12842C81.84 5.12842 81.5016 5.2985 81.251 5.63867C81.0003 5.97526 80.875 6.48014 80.875 7.15332ZM89.1196 5.38086C88.9478 5.35221 88.7705 5.33789 88.5879 5.33789C87.9899 5.33789 87.5871 5.56706 87.3794 6.02539V10H86.0742V4.18848H87.3203L87.3525 4.83838C87.6676 4.3335 88.1045 4.08105 88.6631 4.08105C88.8493 4.08105 89.0033 4.10612 89.125 4.15625L89.1196 5.38086ZM91.1553 7.70117C91.1553 7.22493 91.2144 6.84538 91.3325 6.5625C91.4507 6.27962 91.6834 5.96989 92.0308 5.6333C92.3817 5.29313 92.6037 5.05143 92.6968 4.9082C92.84 4.68978 92.9116 4.45345 92.9116 4.19922C92.9116 3.86263 92.8275 3.60661 92.6592 3.43115C92.4945 3.25212 92.251 3.1626 91.9287 3.1626C91.6208 3.1626 91.3719 3.25033 91.1821 3.42578C90.9959 3.59766 90.9028 3.83219 90.9028 4.12939H89.5977C89.6048 3.49561 89.8197 2.9943 90.2422 2.62549C90.6683 2.25667 91.2305 2.07227 91.9287 2.07227C92.6484 2.07227 93.2088 2.25488 93.6099 2.62012C94.0145 2.98535 94.2168 3.49561 94.2168 4.15088C94.2168 4.73454 93.9447 5.30924 93.4004 5.875L92.7397 6.5249C92.5034 6.79346 92.3817 7.18555 92.3745 7.70117H91.1553ZM91.064 9.37158C91.064 9.16032 91.1302 8.99023 91.2627 8.86133C91.3952 8.72884 91.5742 8.6626 91.7998 8.6626C92.029 8.6626 92.2098 8.73063 92.3423 8.8667C92.4748 8.99919 92.541 9.16748 92.541 9.37158C92.541 9.56852 92.4766 9.73324 92.3477 9.86572C92.2188 9.99821 92.0361 10.0645 91.7998 10.0645C91.5635 10.0645 91.3809 9.99821 91.252 9.86572C91.1266 9.73324 91.064 9.56852 91.064 9.37158Z" fill="#ED2771"/>
<path d="M30.7949 48V40.1797H33.4751C34.3595 40.1797 35.0327 40.3569 35.4946 40.7114C35.9565 41.0659 36.1875 41.5941 36.1875 42.2959C36.1875 42.654 36.0908 42.9762 35.8975 43.2627C35.7041 43.5492 35.4212 43.7712 35.0488 43.9287C35.4714 44.0433 35.7972 44.2599 36.0264 44.5786C36.2591 44.8937 36.3755 45.2733 36.3755 45.7173C36.3755 46.4513 36.1392 47.0153 35.6665 47.4092C35.1974 47.8031 34.5243 48 33.647 48H30.7949ZM32.1538 44.4712V46.915H33.6631C34.0892 46.915 34.4222 46.8094 34.6621 46.5981C34.902 46.3869 35.022 46.0933 35.022 45.7173C35.022 44.9045 34.6066 44.4891 33.7759 44.4712H32.1538ZM32.1538 43.4722H33.4858C33.9084 43.4722 34.2378 43.3773 34.4741 43.1875C34.714 42.9941 34.834 42.722 34.834 42.3711C34.834 41.9844 34.723 41.7051 34.501 41.5332C34.2826 41.3613 33.9406 41.2754 33.4751 41.2754H32.1538V43.4722ZM40.1675 48.1074C39.3403 48.1074 38.6689 47.8478 38.1533 47.3286C37.6413 46.8058 37.3853 46.1112 37.3853 45.2446V45.0835C37.3853 44.5034 37.4963 43.986 37.7183 43.5312C37.9438 43.0729 38.259 42.7166 38.6636 42.4624C39.0682 42.2082 39.5194 42.0811 40.0171 42.0811C40.8084 42.0811 41.4189 42.3335 41.8486 42.8384C42.2819 43.3433 42.4985 44.0576 42.4985 44.9814V45.5078H38.7012C38.7406 45.9876 38.8999 46.3672 39.1792 46.6465C39.4621 46.9258 39.8166 47.0654 40.2427 47.0654C40.8407 47.0654 41.3276 46.8237 41.7036 46.3403L42.4072 47.0117C42.1745 47.359 41.863 47.6294 41.4727 47.8228C41.0859 48.0125 40.6509 48.1074 40.1675 48.1074ZM40.0117 43.1284C39.6536 43.1284 39.3636 43.2537 39.1416 43.5044C38.9232 43.755 38.7835 44.1042 38.7227 44.5518H41.2095V44.4551C41.1808 44.0182 41.0645 43.6888 40.8604 43.4668C40.6562 43.2412 40.3734 43.1284 40.0117 43.1284ZM44.7275 42.1885L44.7651 42.8599C45.1948 42.3407 45.7588 42.0811 46.457 42.0811C47.6673 42.0811 48.2832 42.7739 48.3047 44.1597V48H46.9995V44.2349C46.9995 43.866 46.9189 43.5939 46.7578 43.4185C46.6003 43.2394 46.3407 43.1499 45.979 43.1499C45.4526 43.1499 45.0605 43.388 44.8027 43.8643V48H43.4976V42.1885H44.7275ZM52.1987 48.1074C51.3716 48.1074 50.7002 47.8478 50.1846 47.3286C49.6725 46.8058 49.4165 46.1112 49.4165 45.2446V45.0835C49.4165 44.5034 49.5275 43.986 49.7495 43.5312C49.9751 43.0729 50.2902 42.7166 50.6948 42.4624C51.0994 42.2082 51.5506 42.0811 52.0483 42.0811C52.8397 42.0811 53.4502 42.3335 53.8799 42.8384C54.3132 43.3433 54.5298 44.0576 54.5298 44.9814V45.5078H50.7324C50.7718 45.9876 50.9312 46.3672 51.2104 46.6465C51.4933 46.9258 51.8478 47.0654 52.2739 47.0654C52.8719 47.0654 53.3589 46.8237 53.7349 46.3403L54.4385 47.0117C54.2057 47.359 53.8942 47.6294 53.5039 47.8228C53.1172 48.0125 52.6821 48.1074 52.1987 48.1074ZM52.043 43.1284C51.6849 43.1284 51.3949 43.2537 51.1729 43.5044C50.9544 43.755 50.8148 44.1042 50.7539 44.5518H53.2407V44.4551C53.2121 44.0182 53.0957 43.6888 52.8916 43.4668C52.6875 43.2412 52.4046 43.1284 52.043 43.1284ZM55.894 48V43.1553H55.0078V42.1885H55.894V41.791C55.8976 41.3363 55.9943 40.946 56.1841 40.6201C56.3739 40.2943 56.6424 40.049 56.9897 39.8843C57.3371 39.7196 57.7542 39.6372 58.2412 39.6372C58.5277 39.6372 58.8016 39.6676 59.063 39.7285C59.328 39.7894 59.6019 39.8664 59.8848 39.9595L59.686 41.0391C59.1919 40.8672 58.7407 40.7812 58.3325 40.7812C57.9351 40.7812 57.6468 40.869 57.4678 41.0444C57.2887 41.2163 57.1992 41.4759 57.1992 41.8232V42.1885H58.3433V43.1553H57.1992V48H55.894ZM60.5024 48H59.1973V42.1885H60.5024V48ZM64.3374 47.0654C64.6632 47.0654 64.9336 46.9705 65.1484 46.7808C65.3633 46.591 65.4779 46.3564 65.4922 46.0771H66.7222C66.7078 46.4388 66.5951 46.7772 66.3838 47.0923C66.1725 47.4038 65.8861 47.6509 65.5244 47.8335C65.1628 48.0161 64.7725 48.1074 64.3535 48.1074C63.5407 48.1074 62.8962 47.8442 62.4199 47.3179C61.9437 46.7915 61.7056 46.0646 61.7056 45.1372V45.0029C61.7056 44.1185 61.9419 43.4113 62.4146 42.8813C62.8872 42.3478 63.5317 42.0811 64.3481 42.0811C65.0392 42.0811 65.6014 42.2834 66.0347 42.688C66.4715 43.089 66.7007 43.6172 66.7222 44.2725H65.4922C65.4779 43.9395 65.3633 43.6655 65.1484 43.4507C64.9372 43.2358 64.6668 43.1284 64.3374 43.1284C63.9149 43.1284 63.589 43.2824 63.3599 43.5903C63.1307 43.8947 63.0143 44.3584 63.0107 44.9814V45.1909C63.0107 45.8211 63.1235 46.292 63.3491 46.6035C63.5783 46.9115 63.9077 47.0654 64.3374 47.0654ZM69.0962 48H67.791V42.1885H69.0962V48ZM67.7104 40.6792C67.7104 40.4787 67.7731 40.3122 67.8984 40.1797C68.0273 40.0472 68.21 39.981 68.4463 39.981C68.6826 39.981 68.8652 40.0472 68.9941 40.1797C69.123 40.3122 69.1875 40.4787 69.1875 40.6792C69.1875 40.8761 69.123 41.0409 68.9941 41.1733C68.8652 41.3022 68.6826 41.3667 68.4463 41.3667C68.21 41.3667 68.0273 41.3022 67.8984 41.1733C67.7731 41.0409 67.7104 40.8761 67.7104 40.6792ZM73.9946 48C73.9373 47.889 73.8872 47.7082 73.8442 47.4575C73.4289 47.8908 72.9204 48.1074 72.3188 48.1074C71.7352 48.1074 71.259 47.9409 70.8901 47.6079C70.5213 47.2749 70.3369 46.8631 70.3369 46.3726C70.3369 45.7531 70.5661 45.2786 71.0244 44.9492C71.4863 44.6162 72.1452 44.4497 73.001 44.4497H73.8013V44.0684C73.8013 43.7676 73.7171 43.5277 73.5488 43.3486C73.3805 43.166 73.1245 43.0747 72.7808 43.0747C72.4836 43.0747 72.2401 43.1499 72.0503 43.3003C71.8605 43.4471 71.7656 43.6351 71.7656 43.8643H70.4604C70.4604 43.5456 70.5661 43.2484 70.7773 42.9727C70.9886 42.6934 71.2751 42.4749 71.6367 42.3174C72.002 42.1598 72.4084 42.0811 72.856 42.0811C73.5363 42.0811 74.0788 42.2529 74.4834 42.5967C74.888 42.9368 75.0957 43.4167 75.1064 44.0361V46.6572C75.1064 47.18 75.1799 47.5972 75.3267 47.9087V48H73.9946ZM72.5605 47.0601C72.8184 47.0601 73.0601 46.9974 73.2856 46.8721C73.5148 46.7467 73.6867 46.5785 73.8013 46.3672V45.2715H73.0977C72.6143 45.2715 72.2508 45.3556 72.0073 45.5239C71.7638 45.6922 71.6421 45.9303 71.6421 46.2383C71.6421 46.4889 71.7244 46.6895 71.8892 46.8398C72.0575 46.9867 72.2812 47.0601 72.5605 47.0601ZM77.8618 48H76.5566V39.75H77.8618V48ZM87.1162 45.1533C87.1162 46.0521 86.9121 46.77 86.5039 47.3071C86.0957 47.8407 85.5479 48.1074 84.8604 48.1074C84.223 48.1074 83.7127 47.8979 83.3296 47.479V50.2344H82.0244V42.1885H83.2275L83.2812 42.7793C83.6644 42.3138 84.1854 42.0811 84.8442 42.0811C85.5532 42.0811 86.1082 42.346 86.5093 42.876C86.9139 43.4023 87.1162 44.1346 87.1162 45.0728V45.1533ZM85.8164 45.0405C85.8164 44.4604 85.7 44.0003 85.4673 43.6602C85.2381 43.32 84.9087 43.1499 84.479 43.1499C83.9455 43.1499 83.5623 43.3701 83.3296 43.8105V46.3887C83.5659 46.8398 83.9526 47.0654 84.4897 47.0654C84.9051 47.0654 85.2292 46.8989 85.4619 46.5659C85.6982 46.2293 85.8164 45.7209 85.8164 45.0405ZM91.2681 43.3809C91.0962 43.3522 90.9189 43.3379 90.7363 43.3379C90.1383 43.3379 89.7355 43.5671 89.5278 44.0254V48H88.2227V42.1885H89.4688L89.501 42.8384C89.8161 42.3335 90.2529 42.0811 90.8115 42.0811C90.9977 42.0811 91.1517 42.1061 91.2734 42.1562L91.2681 43.3809ZM91.6548 45.0405C91.6548 44.4712 91.7676 43.9591 91.9932 43.5044C92.2188 43.0461 92.5356 42.6951 92.9438 42.4517C93.3521 42.2046 93.8211 42.0811 94.3511 42.0811C95.1353 42.0811 95.7708 42.3335 96.2578 42.8384C96.7484 43.3433 97.0133 44.0129 97.0527 44.8472L97.0581 45.1533C97.0581 45.7262 96.9471 46.2383 96.7251 46.6895C96.5067 47.1406 96.1916 47.4897 95.7798 47.7368C95.3716 47.9839 94.8989 48.1074 94.3618 48.1074C93.5418 48.1074 92.8848 47.8353 92.3906 47.291C91.9001 46.7432 91.6548 46.0145 91.6548 45.105V45.0405ZM92.96 45.1533C92.96 45.7513 93.0835 46.2204 93.3306 46.5605C93.5776 46.8971 93.9214 47.0654 94.3618 47.0654C94.8022 47.0654 95.1442 46.8936 95.3877 46.5498C95.6348 46.2061 95.7583 45.703 95.7583 45.0405C95.7583 44.4533 95.6312 43.9878 95.377 43.644C95.1263 43.3003 94.7843 43.1284 94.3511 43.1284C93.925 43.1284 93.5866 43.2985 93.3359 43.6387C93.0853 43.9753 92.96 44.4801 92.96 45.1533ZM103.251 45.1533C103.251 46.0521 103.047 46.77 102.639 47.3071C102.23 47.8407 101.683 48.1074 100.995 48.1074C100.358 48.1074 99.8475 47.8979 99.4644 47.479V50.2344H98.1592V42.1885H99.3623L99.416 42.7793C99.7992 42.3138 100.32 42.0811 100.979 42.0811C101.688 42.0811 102.243 42.346 102.644 42.876C103.049 43.4023 103.251 44.1346 103.251 45.0728V45.1533ZM101.951 45.0405C101.951 44.4604 101.835 44.0003 101.602 43.6602C101.373 43.32 101.043 43.1499 100.614 43.1499C100.08 43.1499 99.6971 43.3701 99.4644 43.8105V46.3887C99.7007 46.8398 100.087 47.0654 100.625 47.0654C101.04 47.0654 101.364 46.8989 101.597 46.5659C101.833 46.2293 101.951 45.7209 101.951 45.0405ZM106.919 48.1074C106.092 48.1074 105.421 47.8478 104.905 47.3286C104.393 46.8058 104.137 46.1112 104.137 45.2446V45.0835C104.137 44.5034 104.248 43.986 104.47 43.5312C104.696 43.0729 105.011 42.7166 105.416 42.4624C105.82 42.2082 106.271 42.0811 106.769 42.0811C107.56 42.0811 108.171 42.3335 108.601 42.8384C109.034 43.3433 109.25 44.0576 109.25 44.9814V45.5078H105.453C105.493 45.9876 105.652 46.3672 105.931 46.6465C106.214 46.9258 106.569 47.0654 106.995 47.0654C107.593 47.0654 108.08 46.8237 108.456 46.3403L109.159 47.0117C108.926 47.359 108.615 47.6294 108.225 47.8228C107.838 48.0125 107.403 48.1074 106.919 48.1074ZM106.764 43.1284C106.406 43.1284 106.116 43.2537 105.894 43.5044C105.675 43.755 105.535 44.1042 105.475 44.5518H107.961V44.4551C107.933 44.0182 107.816 43.6888 107.612 43.4668C107.408 43.2412 107.125 43.1284 106.764 43.1284ZM113.311 43.3809C113.139 43.3522 112.962 43.3379 112.779 43.3379C112.181 43.3379 111.778 43.5671 111.571 44.0254V48H110.266V42.1885H111.512L111.544 42.8384C111.859 42.3335 112.296 42.0811 112.854 42.0811C113.041 42.0811 113.195 42.1061 113.316 42.1562L113.311 43.3809ZM116.04 40.7759V42.1885H117.065V43.1553H116.04V46.3994C116.04 46.6214 116.083 46.7826 116.168 46.8828C116.258 46.9795 116.416 47.0278 116.641 47.0278C116.792 47.0278 116.944 47.0099 117.098 46.9741V47.9839C116.8 48.0662 116.514 48.1074 116.238 48.1074C115.236 48.1074 114.734 47.5542 114.734 46.4478V43.1553H113.778V42.1885H114.734V40.7759H116.04ZM119.456 48H118.15V42.1885H119.456V48ZM118.07 40.6792C118.07 40.4787 118.132 40.3122 118.258 40.1797C118.387 40.0472 118.569 39.981 118.806 39.981C119.042 39.981 119.225 40.0472 119.354 40.1797C119.482 40.3122 119.547 40.4787 119.547 40.6792C119.547 40.8761 119.482 41.0409 119.354 41.1733C119.225 41.3022 119.042 41.3667 118.806 41.3667C118.569 41.3667 118.387 41.3022 118.258 41.1733C118.132 41.0409 118.07 40.8761 118.07 40.6792ZM123.441 48.1074C122.614 48.1074 121.942 47.8478 121.427 47.3286C120.915 46.8058 120.659 46.1112 120.659 45.2446V45.0835C120.659 44.5034 120.77 43.986 120.992 43.5312C121.217 43.0729 121.532 42.7166 121.937 42.4624C122.342 42.2082 122.793 42.0811 123.291 42.0811C124.082 42.0811 124.692 42.3335 125.122 42.8384C125.555 43.3433 125.772 44.0576 125.772 44.9814V45.5078H121.975C122.014 45.9876 122.173 46.3672 122.453 46.6465C122.736 46.9258 123.09 47.0654 123.516 47.0654C124.114 47.0654 124.601 46.8237 124.977 46.3403L125.681 47.0117C125.448 47.359 125.136 47.6294 124.746 47.8228C124.359 48.0125 123.924 48.1074 123.441 48.1074ZM123.285 43.1284C122.927 43.1284 122.637 43.2537 122.415 43.5044C122.197 43.755 122.057 44.1042 121.996 44.5518H124.483V44.4551C124.454 44.0182 124.338 43.6888 124.134 43.4668C123.93 43.2412 123.647 43.1284 123.285 43.1284ZM130.047 46.4209C130.047 46.1882 129.951 46.0109 129.757 45.8892C129.568 45.7674 129.251 45.66 128.807 45.5669C128.363 45.4738 127.992 45.3556 127.695 45.2124C127.043 44.8973 126.717 44.4408 126.717 43.8428C126.717 43.3415 126.929 42.9225 127.351 42.5859C127.774 42.2493 128.311 42.0811 128.962 42.0811C129.657 42.0811 130.217 42.2529 130.644 42.5967C131.073 42.9404 131.288 43.3862 131.288 43.9341H129.983C129.983 43.6834 129.89 43.4757 129.704 43.311C129.517 43.1427 129.27 43.0586 128.962 43.0586C128.676 43.0586 128.441 43.1248 128.259 43.2573C128.08 43.3898 127.99 43.5671 127.99 43.7891C127.99 43.9896 128.074 44.1453 128.243 44.2563C128.411 44.3674 128.751 44.4801 129.263 44.5947C129.775 44.7057 130.176 44.84 130.466 44.9976C130.76 45.1515 130.977 45.3377 131.116 45.5562C131.259 45.7746 131.331 46.0396 131.331 46.3511C131.331 46.8739 131.114 47.2982 130.681 47.624C130.248 47.9463 129.68 48.1074 128.979 48.1074C128.502 48.1074 128.078 48.0215 127.706 47.8496C127.333 47.6777 127.043 47.4414 126.835 47.1406C126.628 46.8398 126.524 46.5158 126.524 46.1685H127.792C127.809 46.4764 127.926 46.7145 128.141 46.8828C128.355 47.0475 128.64 47.1299 128.995 47.1299C129.338 47.1299 129.6 47.0654 129.779 46.9365C129.958 46.804 130.047 46.6322 130.047 46.4209ZM134.967 45.0405C134.967 44.4712 135.08 43.9591 135.306 43.5044C135.531 43.0461 135.848 42.6951 136.256 42.4517C136.665 42.2046 137.134 42.0811 137.664 42.0811C138.448 42.0811 139.083 42.3335 139.57 42.8384C140.061 43.3433 140.326 44.0129 140.365 44.8472L140.371 45.1533C140.371 45.7262 140.26 46.2383 140.038 46.6895C139.819 47.1406 139.504 47.4897 139.092 47.7368C138.684 47.9839 138.211 48.1074 137.674 48.1074C136.854 48.1074 136.197 47.8353 135.703 47.291C135.213 46.7432 134.967 46.0145 134.967 45.105V45.0405ZM136.272 45.1533C136.272 45.7513 136.396 46.2204 136.643 46.5605C136.89 46.8971 137.234 47.0654 137.674 47.0654C138.115 47.0654 138.457 46.8936 138.7 46.5498C138.947 46.2061 139.071 45.703 139.071 45.0405C139.071 44.4533 138.944 43.9878 138.689 43.644C138.439 43.3003 138.097 43.1284 137.664 43.1284C137.237 43.1284 136.899 43.2985 136.648 43.6387C136.398 43.9753 136.272 44.4801 136.272 45.1533ZM141.934 48V43.1553H141.047V42.1885H141.934V41.6567C141.934 41.0122 142.113 40.5145 142.471 40.1636C142.829 39.8127 143.33 39.6372 143.975 39.6372C144.204 39.6372 144.447 39.6694 144.705 39.7339L144.673 40.7544C144.53 40.7257 144.363 40.7114 144.173 40.7114C143.55 40.7114 143.239 41.0319 143.239 41.6729V42.1885H144.42V43.1553H143.239V48H141.934ZM149.501 48H148.196V42.1885H149.501V48ZM148.116 40.6792C148.116 40.4787 148.178 40.3122 148.304 40.1797C148.433 40.0472 148.615 39.981 148.852 39.981C149.088 39.981 149.271 40.0472 149.399 40.1797C149.528 40.3122 149.593 40.4787 149.593 40.6792C149.593 40.8761 149.528 41.0409 149.399 41.1733C149.271 41.3022 149.088 41.3667 148.852 41.3667C148.615 41.3667 148.433 41.3022 148.304 41.1733C148.178 41.0409 148.116 40.8761 148.116 40.6792ZM152.139 42.1885L152.176 42.8599C152.606 42.3407 153.17 42.0811 153.868 42.0811C155.078 42.0811 155.694 42.7739 155.716 44.1597V48H154.411V44.2349C154.411 43.866 154.33 43.5939 154.169 43.4185C154.011 43.2394 153.752 43.1499 153.39 43.1499C152.864 43.1499 152.472 43.388 152.214 43.8643V48H150.909V42.1885H152.139ZM156.822 45.0513C156.822 44.1489 157.034 43.4292 157.456 42.8921C157.882 42.3514 158.446 42.0811 159.148 42.0811C159.81 42.0811 160.331 42.312 160.711 42.7739L160.77 42.1885H161.946V47.8228C161.946 48.5854 161.708 49.187 161.232 49.6274C160.759 50.0679 160.12 50.2881 159.314 50.2881C158.888 50.2881 158.471 50.1986 158.063 50.0195C157.658 49.8441 157.35 49.6131 157.139 49.3267L157.757 48.5425C158.158 49.0187 158.652 49.2568 159.239 49.2568C159.673 49.2568 160.014 49.1387 160.265 48.9023C160.516 48.6696 160.641 48.3258 160.641 47.8711V47.479C160.265 47.8979 159.764 48.1074 159.137 48.1074C158.457 48.1074 157.9 47.8371 157.467 47.2964C157.037 46.7557 156.822 46.0073 156.822 45.0513ZM158.122 45.1641C158.122 45.7477 158.24 46.2078 158.477 46.5444C158.716 46.8774 159.048 47.0439 159.47 47.0439C159.997 47.0439 160.387 46.8184 160.641 46.3672V43.8105C160.394 43.3701 160.007 43.1499 159.481 43.1499C159.051 43.1499 158.716 43.32 158.477 43.6602C158.24 44.0003 158.122 44.5016 158.122 45.1641ZM166.334 43.3809C166.163 43.3522 165.985 43.3379 165.803 43.3379C165.205 43.3379 164.802 43.5671 164.594 44.0254V48H163.289V42.1885H164.535L164.567 42.8384C164.882 42.3335 165.319 42.0811 165.878 42.0811C166.064 42.0811 166.218 42.1061 166.34 42.1562L166.334 43.3809ZM169.611 48.1074C168.784 48.1074 168.112 47.8478 167.597 47.3286C167.085 46.8058 166.829 46.1112 166.829 45.2446V45.0835C166.829 44.5034 166.94 43.986 167.162 43.5312C167.387 43.0729 167.702 42.7166 168.107 42.4624C168.512 42.2082 168.963 42.0811 169.46 42.0811C170.252 42.0811 170.862 42.3335 171.292 42.8384C171.725 43.3433 171.942 44.0576 171.942 44.9814V45.5078H168.145C168.184 45.9876 168.343 46.3672 168.623 46.6465C168.905 46.9258 169.26 47.0654 169.686 47.0654C170.284 47.0654 170.771 46.8237 171.147 46.3403L171.851 47.0117C171.618 47.359 171.306 47.6294 170.916 47.8228C170.529 48.0125 170.094 48.1074 169.611 48.1074ZM169.455 43.1284C169.097 43.1284 168.807 43.2537 168.585 43.5044C168.367 43.755 168.227 44.1042 168.166 44.5518H170.653V44.4551C170.624 44.0182 170.508 43.6888 170.304 43.4668C170.1 43.2412 169.817 43.1284 169.455 43.1284ZM172.715 45.0513C172.715 44.1561 172.923 43.4382 173.338 42.8975C173.754 42.3532 174.311 42.0811 175.009 42.0811C175.625 42.0811 176.122 42.2959 176.502 42.7256V39.75H177.807V48H176.625L176.561 47.3984C176.171 47.8711 175.65 48.1074 174.998 48.1074C174.318 48.1074 173.766 47.8335 173.344 47.2856C172.925 46.7378 172.715 45.993 172.715 45.0513ZM174.021 45.1641C174.021 45.7549 174.133 46.2168 174.359 46.5498C174.588 46.8792 174.912 47.0439 175.331 47.0439C175.865 47.0439 176.255 46.8058 176.502 46.3296V43.8481C176.262 43.3826 175.875 43.1499 175.342 43.1499C174.919 43.1499 174.593 43.3182 174.364 43.6548C174.135 43.9878 174.021 44.4909 174.021 45.1641ZM180.557 48H179.252V42.1885H180.557V48ZM179.171 40.6792C179.171 40.4787 179.234 40.3122 179.359 40.1797C179.488 40.0472 179.671 39.981 179.907 39.981C180.144 39.981 180.326 40.0472 180.455 40.1797C180.584 40.3122 180.648 40.4787 180.648 40.6792C180.648 40.8761 180.584 41.0409 180.455 41.1733C180.326 41.3022 180.144 41.3667 179.907 41.3667C179.671 41.3667 179.488 41.3022 179.359 41.1733C179.234 41.0409 179.171 40.8761 179.171 40.6792ZM184.542 48.1074C183.715 48.1074 183.044 47.8478 182.528 47.3286C182.016 46.8058 181.76 46.1112 181.76 45.2446V45.0835C181.76 44.5034 181.871 43.986 182.093 43.5312C182.319 43.0729 182.634 42.7166 183.039 42.4624C183.443 42.2082 183.894 42.0811 184.392 42.0811C185.183 42.0811 185.794 42.3335 186.224 42.8384C186.657 43.3433 186.874 44.0576 186.874 44.9814V45.5078H183.076C183.116 45.9876 183.275 46.3672 183.554 46.6465C183.837 46.9258 184.192 47.0654 184.618 47.0654C185.216 47.0654 185.703 46.8237 186.079 46.3403L186.782 47.0117C186.549 47.359 186.238 47.6294 185.848 47.8228C185.461 48.0125 185.026 48.1074 184.542 48.1074ZM184.387 43.1284C184.029 43.1284 183.739 43.2537 183.517 43.5044C183.298 43.755 183.159 44.1042 183.098 44.5518H185.584V44.4551C185.556 44.0182 185.439 43.6888 185.235 43.4668C185.031 43.2412 184.748 43.1284 184.387 43.1284ZM189.103 42.1885L189.14 42.8599C189.57 42.3407 190.134 42.0811 190.832 42.0811C192.042 42.0811 192.658 42.7739 192.68 44.1597V48H191.375V44.2349C191.375 43.866 191.294 43.5939 191.133 43.4185C190.975 43.2394 190.716 43.1499 190.354 43.1499C189.828 43.1499 189.436 43.388 189.178 43.8643V48H187.873V42.1885H189.103ZM195.65 40.7759V42.1885H196.676V43.1553H195.65V46.3994C195.65 46.6214 195.693 46.7826 195.779 46.8828C195.868 46.9795 196.026 47.0278 196.251 47.0278C196.402 47.0278 196.554 47.0099 196.708 46.9741V47.9839C196.411 48.0662 196.124 48.1074 195.849 48.1074C194.846 48.1074 194.345 47.5542 194.345 46.4478V43.1553H193.389V42.1885H194.345V40.7759H195.65ZM200.935 46.4209C200.935 46.1882 200.838 46.0109 200.645 45.8892C200.455 45.7674 200.138 45.66 199.694 45.5669C199.25 45.4738 198.88 45.3556 198.583 45.2124C197.931 44.8973 197.605 44.4408 197.605 43.8428C197.605 43.3415 197.816 42.9225 198.239 42.5859C198.661 42.2493 199.198 42.0811 199.85 42.0811C200.545 42.0811 201.105 42.2529 201.531 42.5967C201.961 42.9404 202.176 43.3862 202.176 43.9341H200.871C200.871 43.6834 200.778 43.4757 200.591 43.311C200.405 43.1427 200.158 43.0586 199.85 43.0586C199.564 43.0586 199.329 43.1248 199.146 43.2573C198.967 43.3898 198.878 43.5671 198.878 43.7891C198.878 43.9896 198.962 44.1453 199.13 44.2563C199.299 44.3674 199.639 44.4801 200.151 44.5947C200.663 44.7057 201.064 44.84 201.354 44.9976C201.648 45.1515 201.864 45.3377 202.004 45.5562C202.147 45.7746 202.219 46.0396 202.219 46.3511C202.219 46.8739 202.002 47.2982 201.569 47.624C201.136 47.9463 200.568 48.1074 199.866 48.1074C199.39 48.1074 198.966 48.0215 198.593 47.8496C198.221 47.6777 197.931 47.4414 197.723 47.1406C197.515 46.8398 197.412 46.5158 197.412 46.1685H198.679C198.697 46.4764 198.813 46.7145 199.028 46.8828C199.243 47.0475 199.528 47.1299 199.882 47.1299C200.226 47.1299 200.487 47.0654 200.667 46.9365C200.846 46.804 200.935 46.6322 200.935 46.4209Z" fill="#ED2771"/>
<path d="M36.3711 24.2422L37.4648 18.8906H38.6904L37.0498 26H35.8682L34.5156 20.8096L33.1338 26H31.9473L30.3066 18.8906H31.5322L32.6357 24.2324L33.9932 18.8906H35.0283L36.3711 24.2422ZM39.1006 23.3096C39.1006 22.792 39.2031 22.3265 39.4082 21.9131C39.6133 21.4964 39.9014 21.1774 40.2725 20.9561C40.6436 20.7314 41.07 20.6191 41.5518 20.6191C42.2646 20.6191 42.8424 20.8486 43.2852 21.3076C43.7311 21.7666 43.972 22.3753 44.0078 23.1338L44.0127 23.4121C44.0127 23.9329 43.9118 24.3984 43.71 24.8086C43.5114 25.2188 43.2249 25.5361 42.8506 25.7607C42.4795 25.9854 42.0498 26.0977 41.5615 26.0977C40.8161 26.0977 40.2188 25.8503 39.7695 25.3555C39.3236 24.8574 39.1006 24.195 39.1006 23.3682V23.3096ZM40.2871 23.4121C40.2871 23.9557 40.3994 24.3822 40.624 24.6914C40.8486 24.9974 41.1611 25.1504 41.5615 25.1504C41.9619 25.1504 42.2728 24.9941 42.4941 24.6816C42.7188 24.3691 42.8311 23.9118 42.8311 23.3096C42.8311 22.7757 42.7155 22.3525 42.4844 22.04C42.2565 21.7275 41.9456 21.5713 41.5518 21.5713C41.1644 21.5713 40.8568 21.7259 40.6289 22.0352C40.401 22.3411 40.2871 22.8001 40.2871 23.4121ZM46.1318 20.7168L46.166 21.2686C46.5371 20.8356 47.0449 20.6191 47.6895 20.6191C48.3958 20.6191 48.8792 20.8893 49.1396 21.4297C49.5238 20.8893 50.0641 20.6191 50.7607 20.6191C51.3434 20.6191 51.7764 20.7803 52.0596 21.1025C52.346 21.4248 52.4925 21.9001 52.499 22.5283V26H51.3125V22.5625C51.3125 22.2272 51.2393 21.9814 51.0928 21.8252C50.9463 21.6689 50.7038 21.5908 50.3652 21.5908C50.0951 21.5908 49.8737 21.6641 49.7012 21.8105C49.5319 21.9538 49.4131 22.1426 49.3447 22.377L49.3496 26H48.1631V22.5234C48.1468 21.9017 47.8294 21.5908 47.2109 21.5908C46.7357 21.5908 46.3988 21.7845 46.2002 22.1719V26H45.0137V20.7168H46.1318ZM56.0439 26.0977C55.292 26.0977 54.6816 25.8617 54.2129 25.3896C53.7474 24.9144 53.5146 24.2829 53.5146 23.4951V23.3486C53.5146 22.8213 53.6156 22.3509 53.8174 21.9375C54.0225 21.5208 54.3089 21.1969 54.6768 20.9658C55.0446 20.7347 55.4548 20.6191 55.9072 20.6191C56.6266 20.6191 57.1816 20.8486 57.5723 21.3076C57.9661 21.7666 58.1631 22.416 58.1631 23.2559V23.7344H54.7109C54.7467 24.1706 54.8916 24.5156 55.1455 24.7695C55.4027 25.0234 55.7249 25.1504 56.1123 25.1504C56.6559 25.1504 57.0986 24.9307 57.4404 24.4912L58.0801 25.1016C57.8685 25.4173 57.5853 25.6631 57.2305 25.8389C56.8789 26.0114 56.4834 26.0977 56.0439 26.0977ZM55.9023 21.5713C55.5768 21.5713 55.3132 21.6852 55.1113 21.9131C54.9128 22.141 54.7858 22.4583 54.7305 22.8652H56.9912V22.7773C56.9652 22.3802 56.8594 22.0807 56.6738 21.8789C56.4883 21.6738 56.2311 21.5713 55.9023 21.5713ZM60.1895 20.7168L60.2236 21.3271C60.6143 20.8551 61.127 20.6191 61.7617 20.6191C62.862 20.6191 63.4219 21.249 63.4414 22.5088V26H62.2549V22.5771C62.2549 22.2419 62.1816 21.9945 62.0352 21.835C61.8919 21.6722 61.6559 21.5908 61.3271 21.5908C60.8486 21.5908 60.4922 21.8073 60.2578 22.2402V26H59.0713V20.7168H60.1895ZM70.3018 26C70.2497 25.8991 70.2041 25.7347 70.165 25.5068C69.7874 25.9007 69.3252 26.0977 68.7783 26.0977C68.2477 26.0977 67.8148 25.9463 67.4795 25.6436C67.1442 25.3408 66.9766 24.9665 66.9766 24.5205C66.9766 23.9574 67.1849 23.526 67.6016 23.2266C68.0215 22.9238 68.6204 22.7725 69.3984 22.7725H70.126V22.4258C70.126 22.1523 70.0495 21.9342 69.8965 21.7715C69.7435 21.6055 69.5107 21.5225 69.1982 21.5225C68.9281 21.5225 68.7067 21.5908 68.5342 21.7275C68.3617 21.861 68.2754 22.0319 68.2754 22.2402H67.0889C67.0889 21.9505 67.1849 21.6803 67.377 21.4297C67.569 21.1758 67.8294 20.9772 68.1582 20.834C68.4902 20.6908 68.8597 20.6191 69.2666 20.6191C69.8851 20.6191 70.3783 20.7754 70.7461 21.0879C71.1139 21.3971 71.3027 21.8333 71.3125 22.3965V24.7793C71.3125 25.2546 71.3792 25.6338 71.5127 25.917V26H70.3018ZM68.998 25.1455C69.2324 25.1455 69.4521 25.0885 69.6572 24.9746C69.8656 24.8607 70.0218 24.7077 70.126 24.5156V23.5195H69.4863C69.0469 23.5195 68.7165 23.596 68.4951 23.749C68.2738 23.902 68.1631 24.1185 68.1631 24.3984C68.1631 24.6263 68.238 24.8086 68.3877 24.9453C68.5407 25.0788 68.7441 25.1455 68.998 25.1455ZM73.6562 20.7168L73.6904 21.3271C74.0811 20.8551 74.5938 20.6191 75.2285 20.6191C76.3288 20.6191 76.8887 21.249 76.9082 22.5088V26H75.7217V22.5771C75.7217 22.2419 75.6484 21.9945 75.502 21.835C75.3587 21.6722 75.1227 21.5908 74.7939 21.5908C74.3154 21.5908 73.959 21.8073 73.7246 22.2402V26H72.5381V20.7168H73.6562ZM77.8994 23.3193C77.8994 22.5055 78.0882 21.8529 78.4658 21.3613C78.8434 20.8665 79.3496 20.6191 79.9844 20.6191C80.5443 20.6191 80.9967 20.8145 81.3418 21.2051V18.5H82.5283V26H81.4541L81.3955 25.4531C81.0407 25.8828 80.5671 26.0977 79.9746 26.0977C79.3561 26.0977 78.8548 25.8486 78.4707 25.3506C78.0898 24.8525 77.8994 24.1755 77.8994 23.3193ZM79.0859 23.4219C79.0859 23.959 79.1885 24.3789 79.3936 24.6816C79.6019 24.9811 79.8965 25.1309 80.2773 25.1309C80.7624 25.1309 81.1172 24.9144 81.3418 24.4814V22.2256C81.1237 21.8024 80.7721 21.5908 80.2871 21.5908C79.903 21.5908 79.6068 21.7438 79.3984 22.0498C79.1901 22.3525 79.0859 22.8099 79.0859 23.4219ZM86.0488 23.3193C86.0488 22.499 86.2409 21.8447 86.625 21.3564C87.0124 20.8649 87.5251 20.6191 88.1631 20.6191C88.7653 20.6191 89.2389 20.8291 89.584 21.249L89.6377 20.7168H90.707V25.8389C90.707 26.5322 90.4906 27.0791 90.0576 27.4795C89.6279 27.8799 89.0469 28.0801 88.3145 28.0801C87.9271 28.0801 87.5479 27.9987 87.1768 27.8359C86.8089 27.6764 86.529 27.4665 86.3369 27.2061L86.8984 26.4932C87.263 26.9261 87.7122 27.1426 88.2461 27.1426C88.64 27.1426 88.9508 27.0352 89.1787 26.8203C89.4066 26.6087 89.5205 26.2962 89.5205 25.8828V25.5264C89.1787 25.9072 88.723 26.0977 88.1533 26.0977C87.5348 26.0977 87.0286 25.8519 86.6348 25.3604C86.2441 24.8688 86.0488 24.1885 86.0488 23.3193ZM87.2305 23.4219C87.2305 23.9525 87.3379 24.3708 87.5527 24.6768C87.7708 24.9795 88.0719 25.1309 88.4561 25.1309C88.9346 25.1309 89.2894 24.9258 89.5205 24.5156V22.1914C89.2959 21.791 88.9443 21.5908 88.4658 21.5908C88.0752 21.5908 87.7708 21.7454 87.5527 22.0547C87.3379 22.3639 87.2305 22.8197 87.2305 23.4219ZM93.1924 26H92.0059V20.7168H93.1924V26ZM91.9326 19.3447C91.9326 19.1624 91.9896 19.0111 92.1035 18.8906C92.2207 18.7702 92.3867 18.71 92.6016 18.71C92.8164 18.71 92.9824 18.7702 93.0996 18.8906C93.2168 19.0111 93.2754 19.1624 93.2754 19.3447C93.2754 19.5238 93.2168 19.6735 93.0996 19.7939C92.9824 19.9111 92.8164 19.9697 92.6016 19.9697C92.3867 19.9697 92.2207 19.9111 92.1035 19.7939C91.9896 19.6735 91.9326 19.5238 91.9326 19.3447ZM97.2549 21.8008C97.0986 21.7747 96.9375 21.7617 96.7715 21.7617C96.2279 21.7617 95.8617 21.9701 95.6729 22.3867V26H94.4863V20.7168H95.6191L95.6484 21.3076C95.9349 20.8486 96.332 20.6191 96.8398 20.6191C97.0091 20.6191 97.1491 20.6419 97.2598 20.6875L97.2549 21.8008ZM99.2666 26H98.0801V18.5H99.2666V26ZM103.524 24.5645C103.524 24.3529 103.437 24.1917 103.261 24.0811C103.088 23.9704 102.8 23.8727 102.396 23.7881C101.993 23.7035 101.656 23.596 101.386 23.4658C100.793 23.1794 100.497 22.7643 100.497 22.2207C100.497 21.765 100.689 21.3841 101.073 21.0781C101.457 20.7721 101.946 20.6191 102.538 20.6191C103.17 20.6191 103.679 20.7754 104.066 21.0879C104.457 21.4004 104.652 21.8057 104.652 22.3037H103.466C103.466 22.0758 103.381 21.887 103.212 21.7373C103.043 21.5843 102.818 21.5078 102.538 21.5078C102.278 21.5078 102.064 21.568 101.898 21.6885C101.736 21.8089 101.654 21.9701 101.654 22.1719C101.654 22.3542 101.731 22.4958 101.884 22.5967C102.037 22.6976 102.346 22.8001 102.812 22.9043C103.277 23.0052 103.642 23.1273 103.905 23.2705C104.172 23.4105 104.369 23.5798 104.496 23.7783C104.626 23.9769 104.691 24.2178 104.691 24.501C104.691 24.9762 104.494 25.362 104.101 25.6582C103.707 25.9512 103.191 26.0977 102.553 26.0977C102.12 26.0977 101.734 26.0195 101.396 25.8633C101.057 25.707 100.793 25.4922 100.604 25.2188C100.416 24.9453 100.321 24.6507 100.321 24.335H101.474C101.49 24.6149 101.596 24.8314 101.791 24.9844C101.986 25.1341 102.245 25.209 102.567 25.209C102.88 25.209 103.118 25.1504 103.28 25.0332C103.443 24.9128 103.524 24.7565 103.524 24.5645ZM107.997 23.3096C107.997 22.792 108.1 22.3265 108.305 21.9131C108.51 21.4964 108.798 21.1774 109.169 20.9561C109.54 20.7314 109.966 20.6191 110.448 20.6191C111.161 20.6191 111.739 20.8486 112.182 21.3076C112.628 21.7666 112.868 22.3753 112.904 23.1338L112.909 23.4121C112.909 23.9329 112.808 24.3984 112.606 24.8086C112.408 25.2188 112.121 25.5361 111.747 25.7607C111.376 25.9854 110.946 26.0977 110.458 26.0977C109.713 26.0977 109.115 25.8503 108.666 25.3555C108.22 24.8574 107.997 24.195 107.997 23.3682V23.3096ZM109.184 23.4121C109.184 23.9557 109.296 24.3822 109.521 24.6914C109.745 24.9974 110.058 25.1504 110.458 25.1504C110.858 25.1504 111.169 24.9941 111.391 24.6816C111.615 24.3691 111.728 23.9118 111.728 23.3096C111.728 22.7757 111.612 22.3525 111.381 22.04C111.153 21.7275 110.842 21.5713 110.448 21.5713C110.061 21.5713 109.753 21.7259 109.525 22.0352C109.298 22.3411 109.184 22.8001 109.184 23.4121ZM114.33 26V21.5957H113.524V20.7168H114.33V20.2334C114.33 19.6475 114.493 19.195 114.818 18.876C115.144 18.557 115.6 18.3975 116.186 18.3975C116.394 18.3975 116.615 18.4268 116.85 18.4854L116.82 19.4131C116.69 19.387 116.539 19.374 116.366 19.374C115.8 19.374 115.517 19.6654 115.517 20.248V20.7168H116.591V21.5957H115.517V26H114.33ZM123.104 26C123.052 25.8991 123.007 25.7347 122.968 25.5068C122.59 25.9007 122.128 26.0977 121.581 26.0977C121.05 26.0977 120.618 25.9463 120.282 25.6436C119.947 25.3408 119.779 24.9665 119.779 24.5205C119.779 23.9574 119.988 23.526 120.404 23.2266C120.824 22.9238 121.423 22.7725 122.201 22.7725H122.929V22.4258C122.929 22.1523 122.852 21.9342 122.699 21.7715C122.546 21.6055 122.313 21.5225 122.001 21.5225C121.731 21.5225 121.509 21.5908 121.337 21.7275C121.164 21.861 121.078 22.0319 121.078 22.2402H119.892C119.892 21.9505 119.988 21.6803 120.18 21.4297C120.372 21.1758 120.632 20.9772 120.961 20.834C121.293 20.6908 121.662 20.6191 122.069 20.6191C122.688 20.6191 123.181 20.7754 123.549 21.0879C123.917 21.3971 124.105 21.8333 124.115 22.3965V24.7793C124.115 25.2546 124.182 25.6338 124.315 25.917V26H123.104ZM121.801 25.1455C122.035 25.1455 122.255 25.0885 122.46 24.9746C122.668 24.8607 122.825 24.7077 122.929 24.5156V23.5195H122.289C121.85 23.5195 121.519 23.596 121.298 23.749C121.076 23.902 120.966 24.1185 120.966 24.3984C120.966 24.6263 121.041 24.8086 121.19 24.9453C121.343 25.0788 121.547 25.1455 121.801 25.1455ZM126.459 20.7168L126.493 21.3271C126.884 20.8551 127.396 20.6191 128.031 20.6191C129.132 20.6191 129.691 21.249 129.711 22.5088V26H128.524V22.5771C128.524 22.2419 128.451 21.9945 128.305 21.835C128.161 21.6722 127.925 21.5908 127.597 21.5908C127.118 21.5908 126.762 21.8073 126.527 22.2402V26H125.341V20.7168H126.459ZM132.772 24.3008L133.847 20.7168H135.111L133.012 26.8008C132.689 27.6895 132.143 28.1338 131.371 28.1338C131.199 28.1338 131.008 28.1045 130.8 28.0459V27.1279L131.024 27.1426C131.324 27.1426 131.549 27.0872 131.698 26.9766C131.851 26.8691 131.972 26.6868 132.06 26.4297L132.23 25.9756L130.375 20.7168H131.654L132.772 24.3008ZM141.444 26C141.392 25.8991 141.347 25.7347 141.308 25.5068C140.93 25.9007 140.468 26.0977 139.921 26.0977C139.39 26.0977 138.957 25.9463 138.622 25.6436C138.287 25.3408 138.119 24.9665 138.119 24.5205C138.119 23.9574 138.327 23.526 138.744 23.2266C139.164 22.9238 139.763 22.7725 140.541 22.7725H141.269V22.4258C141.269 22.1523 141.192 21.9342 141.039 21.7715C140.886 21.6055 140.653 21.5225 140.341 21.5225C140.071 21.5225 139.849 21.5908 139.677 21.7275C139.504 21.861 139.418 22.0319 139.418 22.2402H138.231C138.231 21.9505 138.327 21.6803 138.52 21.4297C138.712 21.1758 138.972 20.9772 139.301 20.834C139.633 20.6908 140.002 20.6191 140.409 20.6191C141.028 20.6191 141.521 20.7754 141.889 21.0879C142.257 21.3971 142.445 21.8333 142.455 22.3965V24.7793C142.455 25.2546 142.522 25.6338 142.655 25.917V26H141.444ZM140.141 25.1455C140.375 25.1455 140.595 25.0885 140.8 24.9746C141.008 24.8607 141.164 24.7077 141.269 24.5156V23.5195H140.629C140.189 23.5195 139.859 23.596 139.638 23.749C139.416 23.902 139.306 24.1185 139.306 24.3984C139.306 24.6263 139.381 24.8086 139.53 24.9453C139.683 25.0788 139.887 25.1455 140.141 25.1455ZM143.49 23.3193C143.49 22.499 143.682 21.8447 144.066 21.3564C144.454 20.8649 144.966 20.6191 145.604 20.6191C146.207 20.6191 146.68 20.8291 147.025 21.249L147.079 20.7168H148.148V25.8389C148.148 26.5322 147.932 27.0791 147.499 27.4795C147.069 27.8799 146.488 28.0801 145.756 28.0801C145.368 28.0801 144.989 27.9987 144.618 27.8359C144.25 27.6764 143.97 27.4665 143.778 27.2061L144.34 26.4932C144.704 26.9261 145.154 27.1426 145.688 27.1426C146.081 27.1426 146.392 27.0352 146.62 26.8203C146.848 26.6087 146.962 26.2962 146.962 25.8828V25.5264C146.62 25.9072 146.164 26.0977 145.595 26.0977C144.976 26.0977 144.47 25.8519 144.076 25.3604C143.686 24.8688 143.49 24.1885 143.49 23.3193ZM144.672 23.4219C144.672 23.9525 144.779 24.3708 144.994 24.6768C145.212 24.9795 145.513 25.1309 145.897 25.1309C146.376 25.1309 146.731 24.9258 146.962 24.5156V22.1914C146.737 21.791 146.386 21.5908 145.907 21.5908C145.517 21.5908 145.212 21.7454 144.994 22.0547C144.779 22.3639 144.672 22.8197 144.672 23.4219ZM151.698 26.0977C150.946 26.0977 150.336 25.8617 149.867 25.3896C149.402 24.9144 149.169 24.2829 149.169 23.4951V23.3486C149.169 22.8213 149.27 22.3509 149.472 21.9375C149.677 21.5208 149.963 21.1969 150.331 20.9658C150.699 20.7347 151.109 20.6191 151.562 20.6191C152.281 20.6191 152.836 20.8486 153.227 21.3076C153.62 21.7666 153.817 22.416 153.817 23.2559V23.7344H150.365C150.401 24.1706 150.546 24.5156 150.8 24.7695C151.057 25.0234 151.379 25.1504 151.767 25.1504C152.31 25.1504 152.753 24.9307 153.095 24.4912L153.734 25.1016C153.523 25.4173 153.24 25.6631 152.885 25.8389C152.533 26.0114 152.138 26.0977 151.698 26.0977ZM151.557 21.5713C151.231 21.5713 150.967 21.6852 150.766 21.9131C150.567 22.141 150.44 22.4583 150.385 22.8652H152.646V22.7773C152.619 22.3802 152.514 22.0807 152.328 21.8789C152.143 21.6738 151.885 21.5713 151.557 21.5713ZM155.482 24.75C155.704 24.75 155.875 24.8135 155.995 24.9404C156.116 25.0641 156.176 25.2204 156.176 25.4092C156.176 25.5947 156.116 25.7493 155.995 25.873C155.875 25.9935 155.704 26.0537 155.482 26.0537C155.271 26.0537 155.103 25.9935 154.979 25.873C154.856 25.7526 154.794 25.598 154.794 25.4092C154.794 25.2204 154.854 25.0641 154.975 24.9404C155.095 24.8135 155.264 24.75 155.482 24.75Z" fill="#F180B2"/>
<path d="M25.4541 6.22594C25.9372 6.51046 26.3156 6.90377 26.5894 7.40586C26.8631 7.90795 27 8.43515 27 8.98745C26.533 9.27197 26.0258 9.41841 25.4783 9.42678C24.9308 9.43515 24.4074 9.2887 23.9082 8.98745C23.7633 8.90377 23.6264 8.81172 23.4976 8.7113C23.5298 8.87866 23.5459 9.04603 23.5459 9.21339C23.5459 9.79916 23.405 10.3389 23.1232 10.8326C22.8414 11.3264 22.467 11.7155 22 12C21.533 11.7155 21.1586 11.3264 20.8768 10.8326C20.595 10.3389 20.4541 9.79916 20.4541 9.21339C20.4541 9.04603 20.4702 8.87866 20.5024 8.7113C20.3575 8.82845 20.2206 8.9205 20.0918 8.98745C19.5926 9.27197 19.0692 9.41423 18.5217 9.41423C17.9742 9.41423 17.467 9.27197 17 8.98745C17 8.41841 17.1369 7.88703 17.4106 7.39331C17.6844 6.89958 18.0628 6.50209 18.5459 6.20084C18.6747 6.13389 18.8196 6.06695 18.9807 6C18.8196 5.93305 18.6747 5.85774 18.5459 5.77406C18.0628 5.48954 17.6844 5.09623 17.4106 4.59414C17.1369 4.09205 17 3.56485 17 3.01255C17.467 2.72803 17.9742 2.58159 18.5217 2.57322C19.0692 2.56485 19.5926 2.7113 20.0918 3.01255C20.2206 3.0795 20.3575 3.17155 20.5024 3.2887C20.4702 3.12134 20.4541 2.95397 20.4541 2.78661C20.4541 2.20084 20.595 1.66109 20.8768 1.16736C21.1586 0.67364 21.533 0.284519 22 0C22.467 0.284519 22.8414 0.67364 23.1232 1.16736C23.405 1.66109 23.5459 2.20084 23.5459 2.78661C23.5459 2.95397 23.5298 3.12134 23.4976 3.2887C23.6425 3.17155 23.7794 3.0795 23.9082 3.01255C24.4074 2.7113 24.9308 2.56485 25.4783 2.57322C26.0258 2.58159 26.533 2.72803 27 3.01255C27 3.56485 26.8631 4.09205 26.5894 4.59414C26.3156 5.09623 25.9372 5.48954 25.4541 5.77406C25.3253 5.85774 25.1804 5.93305 25.0193 6C25.1804 6.06695 25.3253 6.14226 25.4541 6.22594ZM22 8.13389C22.5636 8.13389 23.0467 7.92469 23.4493 7.50628C23.8519 7.08787 24.0531 6.58577 24.0531 6C24.0531 5.41423 23.8519 4.91213 23.4493 4.49372C23.0467 4.07531 22.5636 3.86611 22 3.86611C21.4364 3.86611 20.9533 4.07531 20.5507 4.49372C20.1481 4.91213 19.9469 5.41423 19.9469 6C19.9469 6.58577 20.1481 7.08787 20.5507 7.50628C20.9533 7.92469 21.4364 8.13389 22 8.13389Z" fill="#ED2771"/>
<path d="M25.4541 44.2259C25.9372 44.5105 26.3156 44.9038 26.5894 45.4059C26.8631 45.9079 27 46.4351 27 46.9874C26.533 47.272 26.0258 47.4184 25.4783 47.4268C24.9308 47.4351 24.4074 47.2887 23.9082 46.9874C23.7633 46.9038 23.6264 46.8117 23.4976 46.7113C23.5298 46.8787 23.5459 47.046 23.5459 47.2134C23.5459 47.7992 23.405 48.3389 23.1232 48.8326C22.8414 49.3264 22.467 49.7155 22 50C21.533 49.7155 21.1586 49.3264 20.8768 48.8326C20.595 48.3389 20.4541 47.7992 20.4541 47.2134C20.4541 47.046 20.4702 46.8787 20.5024 46.7113C20.3575 46.8285 20.2206 46.9205 20.0918 46.9874C19.5926 47.272 19.0692 47.4142 18.5217 47.4142C17.9742 47.4142 17.467 47.272 17 46.9874C17 46.4184 17.1369 45.887 17.4106 45.3933C17.6844 44.8996 18.0628 44.5021 18.5459 44.2008C18.6747 44.1339 18.8196 44.0669 18.9807 44C18.8196 43.9331 18.6747 43.8577 18.5459 43.7741C18.0628 43.4895 17.6844 43.0962 17.4106 42.5941C17.1369 42.0921 17 41.5649 17 41.0126C17.467 40.728 17.9742 40.5816 18.5217 40.5732C19.0692 40.5649 19.5926 40.7113 20.0918 41.0126C20.2206 41.0795 20.3575 41.1715 20.5024 41.2887C20.4702 41.1213 20.4541 40.954 20.4541 40.7866C20.4541 40.2008 20.595 39.6611 20.8768 39.1674C21.1586 38.6736 21.533 38.2845 22 38C22.467 38.2845 22.8414 38.6736 23.1232 39.1674C23.405 39.6611 23.5459 40.2008 23.5459 40.7866C23.5459 40.954 23.5298 41.1213 23.4976 41.2887C23.6425 41.1715 23.7794 41.0795 23.9082 41.0126C24.4074 40.7113 24.9308 40.5649 25.4783 40.5732C26.0258 40.5816 26.533 40.728 27 41.0126C27 41.5649 26.8631 42.0921 26.5894 42.5941C26.3156 43.0962 25.9372 43.4895 25.4541 43.7741C25.3253 43.8577 25.1804 43.9331 25.0193 44C25.1804 44.0669 25.3253 44.1423 25.4541 44.2259ZM22 46.1339C22.5636 46.1339 23.0467 45.9247 23.4493 45.5063C23.8519 45.0879 24.0531 44.5858 24.0531 44C24.0531 43.4142 23.8519 42.9121 23.4493 42.4937C23.0467 42.0753 22.5636 41.8661 22 41.8661C21.4364 41.8661 20.9533 42.0753 20.5507 42.4937C20.1481 42.9121 19.9469 43.4142 19.9469 44C19.9469 44.5858 20.1481 45.0879 20.5507 45.5063C20.9533 45.9247 21.4364 46.1339 22 46.1339Z" fill="#ED2771"/>
</svg>
