<svg width="277" height="43" viewBox="0 0 277 43" fill="none" xmlns="http://www.w3.org/2000/svg">
<path d="M97.0815 2.05273H94.1997V10H92.6064V2.05273H89.75V0.757812H97.0815V2.05273ZM99.6714 3.88086C100.175 3.29688 100.812 3.00488 101.582 3.00488C103.046 3.00488 103.789 3.84066 103.81 5.51221V10H102.268V5.56934C102.268 5.09538 102.164 4.76107 101.957 4.56641C101.753 4.36751 101.453 4.26807 101.055 4.26807C100.437 4.26807 99.9761 4.54313 99.6714 5.09326V10H98.1289V0.25H99.6714V3.88086ZM108.399 10.127C107.422 10.127 106.628 9.82015 106.019 9.20654C105.414 8.5887 105.111 7.76774 105.111 6.74365V6.55322C105.111 5.86768 105.243 5.25618 105.505 4.71875C105.771 4.17708 106.144 3.75602 106.622 3.45557C107.1 3.15511 107.633 3.00488 108.222 3.00488C109.157 3.00488 109.878 3.30322 110.386 3.8999C110.898 4.49658 111.154 5.34082 111.154 6.43262V7.05469H106.667C106.713 7.62174 106.901 8.07031 107.231 8.40039C107.566 8.73047 107.985 8.89551 108.488 8.89551C109.195 8.89551 109.771 8.60986 110.215 8.03857L111.046 8.83203C110.771 9.24251 110.403 9.56201 109.942 9.79053C109.485 10.0148 108.971 10.127 108.399 10.127ZM108.215 4.24268C107.792 4.24268 107.449 4.39079 107.187 4.68701C106.929 4.98324 106.764 5.39583 106.692 5.9248H109.631V5.81055C109.597 5.29427 109.459 4.90495 109.218 4.64258C108.977 4.37598 108.643 4.24268 108.215 4.24268ZM118.416 8.89551C118.801 8.89551 119.121 8.78337 119.375 8.55908C119.628 8.3348 119.764 8.05762 119.781 7.72754H121.234C121.217 8.15495 121.084 8.55485 120.834 8.92725C120.585 9.29541 120.246 9.5874 119.819 9.80322C119.391 10.019 118.93 10.127 118.435 10.127C117.474 10.127 116.713 9.81592 116.15 9.19385C115.587 8.57178 115.306 7.71273 115.306 6.6167V6.45801C115.306 5.41276 115.585 4.57699 116.144 3.95068C116.702 3.32015 117.464 3.00488 118.429 3.00488C119.245 3.00488 119.91 3.24398 120.422 3.72217C120.938 4.19613 121.209 4.82031 121.234 5.59473H119.781C119.764 5.20117 119.628 4.87744 119.375 4.62354C119.125 4.36963 118.805 4.24268 118.416 4.24268C117.917 4.24268 117.532 4.42464 117.261 4.78857C116.99 5.14827 116.852 5.69629 116.848 6.43262V6.68018C116.848 7.42497 116.981 7.98145 117.248 8.34961C117.519 8.71354 117.908 8.89551 118.416 8.89551ZM122.11 6.50244C122.11 5.82959 122.244 5.22445 122.51 4.68701C122.777 4.14535 123.151 3.73063 123.634 3.44287C124.116 3.15088 124.671 3.00488 125.297 3.00488C126.224 3.00488 126.975 3.30322 127.55 3.8999C128.13 4.49658 128.443 5.28792 128.49 6.27393L128.496 6.63574C128.496 7.31283 128.365 7.91797 128.103 8.45117C127.844 8.98438 127.472 9.39697 126.985 9.68896C126.503 9.98096 125.944 10.127 125.31 10.127C124.34 10.127 123.564 9.80534 122.98 9.16211C122.4 8.51465 122.11 7.65348 122.11 6.57861V6.50244ZM123.653 6.63574C123.653 7.34245 123.799 7.89681 124.091 8.29883C124.383 8.69661 124.789 8.89551 125.31 8.89551C125.83 8.89551 126.234 8.69238 126.522 8.28613C126.814 7.87988 126.96 7.28532 126.96 6.50244C126.96 5.80843 126.81 5.2583 126.509 4.85205C126.213 4.4458 125.809 4.24268 125.297 4.24268C124.793 4.24268 124.393 4.44368 124.097 4.8457C123.801 5.24349 123.653 5.84017 123.653 6.63574ZM131.251 3.13184L131.295 3.84912C131.778 3.2863 132.438 3.00488 133.276 3.00488C134.194 3.00488 134.823 3.35612 135.161 4.05859C135.66 3.35612 136.363 3.00488 137.269 3.00488C138.026 3.00488 138.589 3.21436 138.957 3.6333C139.329 4.05225 139.52 4.67008 139.528 5.48682V10H137.986V5.53125C137.986 5.09538 137.891 4.77588 137.7 4.57275C137.51 4.36963 137.194 4.26807 136.754 4.26807C136.403 4.26807 136.115 4.36328 135.891 4.55371C135.671 4.73991 135.517 4.98535 135.428 5.29004L135.434 10H133.892V5.48047C133.87 4.6722 133.458 4.26807 132.654 4.26807C132.036 4.26807 131.598 4.51986 131.34 5.02344V10H129.797V3.13184H131.251ZM147.139 6.63574C147.139 7.70215 146.9 8.55062 146.422 9.18115C145.948 9.81169 145.294 10.127 144.46 10.127C143.656 10.127 143.03 9.83708 142.582 9.25732L142.505 10H141.109V0.25H142.651V3.79199C143.096 3.26725 143.694 3.00488 144.448 3.00488C145.286 3.00488 145.944 3.31592 146.422 3.93799C146.9 4.56006 147.139 5.42969 147.139 6.54688V6.63574ZM145.597 6.50244C145.597 5.75765 145.465 5.19906 145.203 4.82666C144.941 4.45426 144.56 4.26807 144.061 4.26807C143.392 4.26807 142.922 4.56006 142.651 5.14404V7.9751C142.926 8.57178 143.4 8.87012 144.073 8.87012C144.556 8.87012 144.928 8.69027 145.19 8.33057C145.453 7.97087 145.588 7.42708 145.597 6.69922V6.50244ZM150.078 10H148.536V3.13184H150.078V10ZM148.44 1.34814C148.44 1.11117 148.514 0.914388 148.663 0.757812C148.815 0.601237 149.031 0.522949 149.31 0.522949C149.589 0.522949 149.805 0.601237 149.958 0.757812C150.11 0.914388 150.186 1.11117 150.186 1.34814C150.186 1.58089 150.11 1.77555 149.958 1.93213C149.805 2.08447 149.589 2.16064 149.31 2.16064C149.031 2.16064 148.815 2.08447 148.663 1.93213C148.514 1.77555 148.44 1.58089 148.44 1.34814ZM153.195 3.13184L153.239 3.92529C153.747 3.31169 154.414 3.00488 155.239 3.00488C156.669 3.00488 157.397 3.82373 157.422 5.46143V10H155.88V5.55029C155.88 5.11442 155.785 4.79281 155.594 4.58545C155.408 4.37386 155.101 4.26807 154.674 4.26807C154.052 4.26807 153.588 4.54948 153.284 5.1123V10H151.741V3.13184H153.195ZM163.104 10C163.036 9.86882 162.977 9.65511 162.926 9.35889C162.435 9.87093 161.834 10.127 161.123 10.127C160.433 10.127 159.87 9.93018 159.435 9.53662C158.999 9.14307 158.781 8.65641 158.781 8.07666C158.781 7.34456 159.052 6.78385 159.593 6.39453C160.139 6.00098 160.918 5.8042 161.929 5.8042H162.875V5.35352C162.875 4.99805 162.776 4.71452 162.577 4.50293C162.378 4.28711 162.075 4.1792 161.669 4.1792C161.318 4.1792 161.03 4.26807 160.806 4.4458C160.581 4.6193 160.469 4.84147 160.469 5.1123H158.927C158.927 4.73568 159.052 4.38444 159.301 4.05859C159.551 3.72852 159.889 3.47038 160.317 3.28418C160.749 3.09798 161.229 3.00488 161.758 3.00488C162.562 3.00488 163.203 3.20801 163.681 3.61426C164.159 4.01628 164.405 4.58333 164.417 5.31543V8.41309C164.417 9.03092 164.504 9.52393 164.678 9.89209V10H163.104ZM161.409 8.88916C161.713 8.88916 161.999 8.8151 162.266 8.66699C162.536 8.51888 162.74 8.31999 162.875 8.07031V6.77539H162.043C161.472 6.77539 161.043 6.87484 160.755 7.07373C160.467 7.27262 160.323 7.55404 160.323 7.91797C160.323 8.21419 160.421 8.45117 160.615 8.62891C160.814 8.80241 161.079 8.88916 161.409 8.88916ZM167.966 1.4624V3.13184H169.178V4.27441H167.966V8.1084C167.966 8.37077 168.017 8.5612 168.118 8.67969C168.224 8.79395 168.41 8.85107 168.677 8.85107C168.854 8.85107 169.034 8.82992 169.216 8.7876V9.98096C168.865 10.0783 168.527 10.127 168.201 10.127C167.016 10.127 166.423 9.47314 166.423 8.16553V4.27441H165.293V3.13184H166.423V1.4624H167.966ZM172.003 10H170.46V3.13184H172.003V10ZM170.365 1.34814C170.365 1.11117 170.439 0.914388 170.587 0.757812C170.74 0.601237 170.956 0.522949 171.235 0.522949C171.514 0.522949 171.73 0.601237 171.882 0.757812C172.035 0.914388 172.111 1.11117 172.111 1.34814C172.111 1.58089 172.035 1.77555 171.882 1.93213C171.73 2.08447 171.514 2.16064 171.235 2.16064C170.956 2.16064 170.74 2.08447 170.587 1.93213C170.439 1.77555 170.365 1.58089 170.365 1.34814ZM173.399 6.50244C173.399 5.82959 173.533 5.22445 173.799 4.68701C174.066 4.14535 174.44 3.73063 174.923 3.44287C175.405 3.15088 175.96 3.00488 176.586 3.00488C177.513 3.00488 178.264 3.30322 178.839 3.8999C179.419 4.49658 179.732 5.28792 179.779 6.27393L179.785 6.63574C179.785 7.31283 179.654 7.91797 179.392 8.45117C179.133 8.98438 178.761 9.39697 178.274 9.68896C177.792 9.98096 177.233 10.127 176.599 10.127C175.63 10.127 174.853 9.80534 174.269 9.16211C173.689 8.51465 173.399 7.65348 173.399 6.57861V6.50244ZM174.942 6.63574C174.942 7.34245 175.088 7.89681 175.38 8.29883C175.672 8.69661 176.078 8.89551 176.599 8.89551C177.119 8.89551 177.523 8.69238 177.811 8.28613C178.103 7.87988 178.249 7.28532 178.249 6.50244C178.249 5.80843 178.099 5.2583 177.798 4.85205C177.502 4.4458 177.098 4.24268 176.586 4.24268C176.082 4.24268 175.682 4.44368 175.386 4.8457C175.09 5.24349 174.942 5.84017 174.942 6.63574ZM182.521 3.13184L182.565 3.92529C183.073 3.31169 183.74 3.00488 184.565 3.00488C185.995 3.00488 186.723 3.82373 186.749 5.46143V10H185.206V5.55029C185.206 5.11442 185.111 4.79281 184.92 4.58545C184.734 4.37386 184.427 4.26807 184 4.26807C183.378 4.26807 182.915 4.54948 182.61 5.1123V10H181.067V3.13184H182.521ZM0.882812 21.5024C0.882812 20.8296 1.01611 20.2244 1.28271 19.687C1.54932 19.1453 1.92383 18.7306 2.40625 18.4429C2.88867 18.1509 3.44303 18.0049 4.06934 18.0049C4.99609 18.0049 5.74723 18.3032 6.32275 18.8999C6.90251 19.4966 7.21566 20.2879 7.26221 21.2739L7.26855 21.6357C7.26855 22.3128 7.13737 22.918 6.875 23.4512C6.61686 23.9844 6.24447 24.397 5.75781 24.689C5.27539 24.981 4.7168 25.127 4.08203 25.127C3.11296 25.127 2.33643 24.8053 1.75244 24.1621C1.17269 23.5146 0.882812 22.6535 0.882812 21.5786V21.5024ZM2.42529 21.6357C2.42529 22.3424 2.57129 22.8968 2.86328 23.2988C3.15527 23.6966 3.56152 23.8955 4.08203 23.8955C4.60254 23.8955 5.00667 23.6924 5.29443 23.2861C5.58643 22.8799 5.73242 22.2853 5.73242 21.5024C5.73242 20.8084 5.58219 20.2583 5.28174 19.8521C4.98551 19.4458 4.58138 19.2427 4.06934 19.2427C3.56576 19.2427 3.16585 19.4437 2.86963 19.8457C2.5734 20.2435 2.42529 20.8402 2.42529 21.6357ZM9.11572 25V19.2744H8.06836V18.1318H9.11572V17.5034C9.11572 16.7417 9.32731 16.1535 9.75049 15.7388C10.1737 15.3241 10.7661 15.1167 11.5278 15.1167C11.7987 15.1167 12.0864 15.1548 12.3911 15.231L12.353 16.437C12.1838 16.4032 11.987 16.3862 11.7627 16.3862C11.0264 16.3862 10.6582 16.765 10.6582 17.5225V18.1318H12.0547V19.2744H10.6582V25H9.11572ZM18.104 19.6743H19.0435C19.5174 19.6701 19.8919 19.5474 20.167 19.3062C20.4463 19.0649 20.5859 18.7158 20.5859 18.2588C20.5859 17.8187 20.4696 17.478 20.2368 17.2368C20.0083 16.9914 19.6571 16.8687 19.1831 16.8687C18.7684 16.8687 18.4277 16.9893 18.1611 17.2305C17.8945 17.4674 17.7612 17.7785 17.7612 18.1636H16.2188C16.2188 17.6896 16.3436 17.258 16.5933 16.8687C16.8472 16.4793 17.1984 16.1768 17.647 15.9609C18.0998 15.7409 18.6055 15.6309 19.1641 15.6309C20.0866 15.6309 20.8102 15.8636 21.335 16.3291C21.8639 16.7904 22.1284 17.4336 22.1284 18.2588C22.1284 18.6735 21.9951 19.0649 21.7285 19.4331C21.4661 19.797 21.1255 20.0721 20.7065 20.2583C21.2144 20.4318 21.5994 20.7048 21.8618 21.0771C22.1284 21.4495 22.2617 21.8939 22.2617 22.4102C22.2617 23.2396 21.9761 23.8997 21.4048 24.3906C20.8377 24.8815 20.0908 25.127 19.1641 25.127C18.2754 25.127 17.5475 24.89 16.9805 24.416C16.4134 23.9421 16.1299 23.3115 16.1299 22.5244H17.6724C17.6724 22.9307 17.8078 23.2607 18.0786 23.5146C18.3537 23.7686 18.7218 23.8955 19.1831 23.8955C19.6613 23.8955 20.0379 23.7686 20.313 23.5146C20.5881 23.2607 20.7256 22.8926 20.7256 22.4102C20.7256 21.9235 20.5817 21.549 20.2939 21.2866C20.0062 21.0243 19.5788 20.8931 19.0117 20.8931H18.104V19.6743ZM28.6855 25H27.1431V18.1318H28.6855V25ZM27.0479 16.3481C27.0479 16.1112 27.1219 15.9144 27.27 15.7578C27.4224 15.6012 27.6382 15.5229 27.9175 15.5229C28.1968 15.5229 28.4126 15.6012 28.5649 15.7578C28.7173 15.9144 28.7935 16.1112 28.7935 16.3481C28.7935 16.5809 28.7173 16.7756 28.5649 16.9321C28.4126 17.0845 28.1968 17.1606 27.9175 17.1606C27.6382 17.1606 27.4224 17.0845 27.27 16.9321C27.1219 16.7756 27.0479 16.5809 27.0479 16.3481ZM31.8022 18.1318L31.8467 18.9253C32.3545 18.3117 33.021 18.0049 33.8462 18.0049C35.2765 18.0049 36.0044 18.8237 36.0298 20.4614V25H34.4873V20.5503C34.4873 20.1144 34.3921 19.7928 34.2017 19.5854C34.0155 19.3739 33.7087 19.2681 33.2812 19.2681C32.6592 19.2681 32.1958 19.5495 31.8911 20.1123V25H30.3486V18.1318H31.8022ZM37.3374 21.5151C37.3374 20.4487 37.5871 19.5981 38.0864 18.9634C38.59 18.3244 39.2565 18.0049 40.0859 18.0049C40.8688 18.0049 41.4845 18.2778 41.9331 18.8237L42.0029 18.1318H43.3931V24.7905C43.3931 25.6919 43.1117 26.4028 42.5488 26.9233C41.9902 27.4438 41.2349 27.7041 40.2827 27.7041C39.7791 27.7041 39.2861 27.5983 38.8037 27.3867C38.3255 27.1794 37.9616 26.9064 37.7119 26.5679L38.4419 25.6411C38.9159 26.2039 39.4998 26.4854 40.1938 26.4854C40.7059 26.4854 41.11 26.3457 41.4062 26.0664C41.7025 25.7913 41.8506 25.3851 41.8506 24.8477V24.3843C41.4062 24.8794 40.8138 25.127 40.0732 25.127C39.2692 25.127 38.6112 24.8075 38.0991 24.1685C37.5913 23.5295 37.3374 22.645 37.3374 21.5151ZM38.8735 21.6484C38.8735 22.3382 39.0132 22.882 39.2925 23.2798C39.576 23.6733 39.9674 23.8701 40.4668 23.8701C41.0889 23.8701 41.5501 23.6035 41.8506 23.0703V20.0488C41.5586 19.5283 41.1016 19.2681 40.4795 19.2681C39.9717 19.2681 39.576 19.4691 39.2925 19.8711C39.0132 20.2731 38.8735 20.8656 38.8735 21.6484ZM48.5791 19.541C48.376 19.5072 48.1665 19.4902 47.9507 19.4902C47.244 19.4902 46.7679 19.7611 46.5225 20.3027V25H44.98V18.1318H46.4526L46.4907 18.8999C46.8631 18.3032 47.3794 18.0049 48.0396 18.0049C48.2596 18.0049 48.4416 18.0345 48.5854 18.0938L48.5791 19.541ZM52.4512 25.127C51.4736 25.127 50.6802 24.8201 50.0708 24.2065C49.4657 23.5887 49.1631 22.7677 49.1631 21.7437V21.5532C49.1631 20.8677 49.2943 20.2562 49.5566 19.7188C49.8232 19.1771 50.1956 18.756 50.6738 18.4556C51.152 18.1551 51.6852 18.0049 52.2734 18.0049C53.2087 18.0049 53.9302 18.3032 54.438 18.8999C54.95 19.4966 55.2061 20.3408 55.2061 21.4326V22.0547H50.7183C50.7648 22.6217 50.9531 23.0703 51.2832 23.4004C51.6175 23.7305 52.0365 23.8955 52.54 23.8955C53.2467 23.8955 53.8223 23.6099 54.2666 23.0386L55.0981 23.832C54.8231 24.2425 54.4549 24.562 53.9937 24.7905C53.5366 25.0148 53.0225 25.127 52.4512 25.127ZM52.2671 19.2427C51.8439 19.2427 51.5011 19.3908 51.2388 19.687C50.9806 19.9832 50.8156 20.3958 50.7437 20.9248H53.6826V20.8105C53.6488 20.2943 53.5112 19.9049 53.27 19.6426C53.0288 19.376 52.6945 19.2427 52.2671 19.2427ZM56.1201 21.5151C56.1201 20.4572 56.3656 19.6087 56.8564 18.9697C57.3473 18.3265 58.0054 18.0049 58.8306 18.0049C59.5584 18.0049 60.1466 18.2588 60.5952 18.7666V15.25H62.1377V25H60.7412L60.665 24.2891C60.2038 24.8477 59.5881 25.127 58.8179 25.127C58.0138 25.127 57.3621 24.8032 56.8628 24.1558C56.3677 23.5083 56.1201 22.6281 56.1201 21.5151ZM57.6626 21.6484C57.6626 22.3467 57.7959 22.8926 58.0625 23.2861C58.3333 23.6755 58.7163 23.8701 59.2114 23.8701C59.842 23.8701 60.3032 23.5887 60.5952 23.0259V20.0933C60.3117 19.5431 59.8547 19.2681 59.2241 19.2681C58.7248 19.2681 58.3397 19.467 58.0688 19.8647C57.798 20.2583 57.6626 20.8529 57.6626 21.6484ZM65.3877 25H63.8452V18.1318H65.3877V25ZM63.75 16.3481C63.75 16.1112 63.8241 15.9144 63.9722 15.7578C64.1245 15.6012 64.3403 15.5229 64.6196 15.5229C64.8989 15.5229 65.1147 15.6012 65.2671 15.7578C65.4194 15.9144 65.4956 16.1112 65.4956 16.3481C65.4956 16.5809 65.4194 16.7756 65.2671 16.9321C65.1147 17.0845 64.8989 17.1606 64.6196 17.1606C64.3403 17.1606 64.1245 17.0845 63.9722 16.9321C63.8241 16.7756 63.75 16.5809 63.75 16.3481ZM70.0977 25.127C69.1201 25.127 68.3267 24.8201 67.7173 24.2065C67.1121 23.5887 66.8096 22.7677 66.8096 21.7437V21.5532C66.8096 20.8677 66.9408 20.2562 67.2031 19.7188C67.4697 19.1771 67.8421 18.756 68.3203 18.4556C68.7985 18.1551 69.3317 18.0049 69.9199 18.0049C70.8551 18.0049 71.5767 18.3032 72.0845 18.8999C72.5965 19.4966 72.8525 20.3408 72.8525 21.4326V22.0547H68.3647C68.4113 22.6217 68.5996 23.0703 68.9297 23.4004C69.264 23.7305 69.6829 23.8955 70.1865 23.8955C70.8932 23.8955 71.4688 23.6099 71.9131 23.0386L72.7446 23.832C72.4696 24.2425 72.1014 24.562 71.6401 24.7905C71.1831 25.0148 70.6689 25.127 70.0977 25.127ZM69.9136 19.2427C69.4904 19.2427 69.1476 19.3908 68.8853 19.687C68.6271 19.9832 68.4621 20.3958 68.3901 20.9248H71.3291V20.8105C71.2952 20.2943 71.1577 19.9049 70.9165 19.6426C70.6753 19.376 70.341 19.2427 69.9136 19.2427ZM75.4868 18.1318L75.5312 18.9253C76.0391 18.3117 76.7056 18.0049 77.5308 18.0049C78.9611 18.0049 79.689 18.8237 79.7144 20.4614V25H78.1719V20.5503C78.1719 20.1144 78.0767 19.7928 77.8862 19.5854C77.7 19.3739 77.3932 19.2681 76.9658 19.2681C76.3438 19.2681 75.8804 19.5495 75.5757 20.1123V25H74.0332V18.1318H75.4868ZM83.2246 16.4624V18.1318H84.437V19.2744H83.2246V23.1084C83.2246 23.3708 83.2754 23.5612 83.377 23.6797C83.4827 23.7939 83.6689 23.8511 83.9355 23.8511C84.1133 23.8511 84.2931 23.8299 84.4751 23.7876V24.981C84.1239 25.0783 83.7853 25.127 83.4595 25.127C82.2746 25.127 81.6821 24.4731 81.6821 23.1655V19.2744H80.5522V18.1318H81.6821V16.4624H83.2246ZM89.4707 23.1338C89.4707 22.8587 89.3564 22.6493 89.1279 22.5054C88.9036 22.3615 88.5291 22.2345 88.0044 22.1245C87.4797 22.0145 87.0417 21.8748 86.6904 21.7056C85.9202 21.3332 85.5352 20.7936 85.5352 20.0869C85.5352 19.4945 85.7848 18.9993 86.2842 18.6016C86.7835 18.2038 87.4183 18.0049 88.1885 18.0049C89.0094 18.0049 89.6717 18.208 90.1753 18.6143C90.6831 19.0205 90.937 19.5474 90.937 20.1948H89.3945C89.3945 19.8986 89.2845 19.6532 89.0645 19.4585C88.8444 19.2596 88.5524 19.1602 88.1885 19.1602C87.8499 19.1602 87.5728 19.2384 87.3569 19.395C87.1453 19.5516 87.0396 19.7611 87.0396 20.0234C87.0396 20.2604 87.139 20.4445 87.3379 20.5757C87.5368 20.7069 87.9388 20.8402 88.5439 20.9756C89.1491 21.1068 89.623 21.2655 89.9658 21.4517C90.3128 21.6336 90.5688 21.8537 90.7339 22.1118C90.9032 22.37 90.9878 22.6831 90.9878 23.0513C90.9878 23.6691 90.7318 24.1706 90.2197 24.5557C89.7077 24.9365 89.0369 25.127 88.2075 25.127C87.6447 25.127 87.1432 25.0254 86.7031 24.8223C86.263 24.6191 85.9202 24.3398 85.6748 23.9844C85.4294 23.6289 85.3066 23.2459 85.3066 22.8354H86.8047C86.8258 23.1994 86.9634 23.4808 87.2173 23.6797C87.4712 23.8743 87.8076 23.9717 88.2266 23.9717C88.6328 23.9717 88.9417 23.8955 89.1533 23.7432C89.3649 23.5866 89.4707 23.3835 89.4707 23.1338ZM99.6777 25C99.61 24.8688 99.5508 24.6551 99.5 24.3589C99.0091 24.8709 98.4082 25.127 97.6973 25.127C97.0075 25.127 96.4447 24.9302 96.0088 24.5366C95.5729 24.1431 95.355 23.6564 95.355 23.0767C95.355 22.3446 95.6258 21.7839 96.1675 21.3945C96.7134 21.001 97.492 20.8042 98.5034 20.8042H99.4492V20.3535C99.4492 19.998 99.3498 19.7145 99.1509 19.5029C98.952 19.2871 98.6494 19.1792 98.2432 19.1792C97.8919 19.1792 97.6042 19.2681 97.3799 19.4458C97.1556 19.6193 97.0435 19.8415 97.0435 20.1123H95.501C95.501 19.7357 95.6258 19.3844 95.8755 19.0586C96.1252 18.7285 96.4637 18.4704 96.8911 18.2842C97.3228 18.098 97.8031 18.0049 98.332 18.0049C99.1361 18.0049 99.7772 18.208 100.255 18.6143C100.734 19.0163 100.979 19.5833 100.992 20.3154V23.4131C100.992 24.0309 101.078 24.5239 101.252 24.8921V25H99.6777ZM97.9829 23.8892C98.2876 23.8892 98.5732 23.8151 98.8398 23.667C99.1107 23.5189 99.3138 23.32 99.4492 23.0703V21.7754H98.6177C98.0464 21.7754 97.6169 21.8748 97.3291 22.0737C97.0413 22.2726 96.8975 22.554 96.8975 22.918C96.8975 23.2142 96.9948 23.4512 97.1895 23.6289C97.3883 23.8024 97.6528 23.8892 97.9829 23.8892ZM104.248 25H102.706V15.25H104.248V25ZM107.574 25H106.032V15.25H107.574V25ZM108.971 21.5024C108.971 20.8296 109.104 20.2244 109.371 19.687C109.637 19.1453 110.012 18.7306 110.494 18.4429C110.977 18.1509 111.531 18.0049 112.157 18.0049C113.084 18.0049 113.835 18.3032 114.411 18.8999C114.99 19.4966 115.304 20.2879 115.35 21.2739L115.356 21.6357C115.356 22.3128 115.225 22.918 114.963 23.4512C114.705 23.9844 114.332 24.397 113.846 24.689C113.363 24.981 112.805 25.127 112.17 25.127C111.201 25.127 110.424 24.8053 109.84 24.1621C109.261 23.5146 108.971 22.6535 108.971 21.5786V21.5024ZM110.513 21.6357C110.513 22.3424 110.659 22.8968 110.951 23.2988C111.243 23.6966 111.649 23.8955 112.17 23.8955C112.69 23.8955 113.095 23.6924 113.382 23.2861C113.674 22.8799 113.82 22.2853 113.82 21.5024C113.82 20.8084 113.67 20.2583 113.37 19.8521C113.073 19.4458 112.669 19.2427 112.157 19.2427C111.654 19.2427 111.254 19.4437 110.958 19.8457C110.661 20.2435 110.513 20.8402 110.513 21.6357ZM122.694 22.8735L123.786 18.1318H125.291L123.418 25H122.148L120.676 20.2837L119.229 25H117.959L116.08 18.1318H117.584L118.695 22.8228L120.104 18.1318H121.266L122.694 22.8735ZM130.172 23.1338C130.172 22.8587 130.058 22.6493 129.829 22.5054C129.605 22.3615 129.23 22.2345 128.706 22.1245C128.181 22.0145 127.743 21.8748 127.392 21.7056C126.621 21.3332 126.236 20.7936 126.236 20.0869C126.236 19.4945 126.486 18.9993 126.985 18.6016C127.485 18.2038 128.119 18.0049 128.89 18.0049C129.711 18.0049 130.373 18.208 130.876 18.6143C131.384 19.0205 131.638 19.5474 131.638 20.1948H130.096C130.096 19.8986 129.986 19.6532 129.766 19.4585C129.546 19.2596 129.254 19.1602 128.89 19.1602C128.551 19.1602 128.274 19.2384 128.058 19.395C127.847 19.5516 127.741 19.7611 127.741 20.0234C127.741 20.2604 127.84 20.4445 128.039 20.5757C128.238 20.7069 128.64 20.8402 129.245 20.9756C129.85 21.1068 130.324 21.2655 130.667 21.4517C131.014 21.6336 131.27 21.8537 131.435 22.1118C131.604 22.37 131.689 22.6831 131.689 23.0513C131.689 23.6691 131.433 24.1706 130.921 24.5557C130.409 24.9365 129.738 25.127 128.909 25.127C128.346 25.127 127.844 25.0254 127.404 24.8223C126.964 24.6191 126.621 24.3398 126.376 23.9844C126.131 23.6289 126.008 23.2459 126.008 22.8354H127.506C127.527 23.1994 127.665 23.4808 127.918 23.6797C128.172 23.8743 128.509 23.9717 128.928 23.9717C129.334 23.9717 129.643 23.8955 129.854 23.7432C130.066 23.5866 130.172 23.3835 130.172 23.1338ZM140.379 25C140.311 24.8688 140.252 24.6551 140.201 24.3589C139.71 24.8709 139.109 25.127 138.398 25.127C137.709 25.127 137.146 24.9302 136.71 24.5366C136.274 24.1431 136.056 23.6564 136.056 23.0767C136.056 22.3446 136.327 21.7839 136.869 21.3945C137.415 21.001 138.193 20.8042 139.205 20.8042H140.15V20.3535C140.15 19.998 140.051 19.7145 139.852 19.5029C139.653 19.2871 139.351 19.1792 138.944 19.1792C138.593 19.1792 138.305 19.2681 138.081 19.4458C137.857 19.6193 137.745 19.8415 137.745 20.1123H136.202C136.202 19.7357 136.327 19.3844 136.577 19.0586C136.826 18.7285 137.165 18.4704 137.592 18.2842C138.024 18.098 138.504 18.0049 139.033 18.0049C139.837 18.0049 140.478 18.208 140.957 18.6143C141.435 19.0163 141.68 19.5833 141.693 20.3154V23.4131C141.693 24.0309 141.78 24.5239 141.953 24.8921V25H140.379ZM138.684 23.8892C138.989 23.8892 139.274 23.8151 139.541 23.667C139.812 23.5189 140.015 23.32 140.15 23.0703V21.7754H139.319C138.748 21.7754 138.318 21.8748 138.03 22.0737C137.743 22.2726 137.599 22.554 137.599 22.918C137.599 23.2142 137.696 23.4512 137.891 23.6289C138.09 23.8024 138.354 23.8892 138.684 23.8892ZM150.142 19.541C149.938 19.5072 149.729 19.4902 149.513 19.4902C148.806 19.4902 148.33 19.7611 148.085 20.3027V25H146.542V18.1318H148.015L148.053 18.8999C148.426 18.3032 148.942 18.0049 149.602 18.0049C149.822 18.0049 150.004 18.0345 150.148 18.0938L150.142 19.541ZM155.029 25C154.962 24.8688 154.902 24.6551 154.852 24.3589C154.361 24.8709 153.76 25.127 153.049 25.127C152.359 25.127 151.796 24.9302 151.36 24.5366C150.924 24.1431 150.707 23.6564 150.707 23.0767C150.707 22.3446 150.977 21.7839 151.519 21.3945C152.065 21.001 152.844 20.8042 153.855 20.8042H154.801V20.3535C154.801 19.998 154.701 19.7145 154.502 19.5029C154.304 19.2871 154.001 19.1792 153.595 19.1792C153.243 19.1792 152.956 19.2681 152.731 19.4458C152.507 19.6193 152.395 19.8415 152.395 20.1123H150.853C150.853 19.7357 150.977 19.3844 151.227 19.0586C151.477 18.7285 151.815 18.4704 152.243 18.2842C152.674 18.098 153.155 18.0049 153.684 18.0049C154.488 18.0049 155.129 18.208 155.607 18.6143C156.085 19.0163 156.331 19.5833 156.343 20.3154V23.4131C156.343 24.0309 156.43 24.5239 156.604 24.8921V25H155.029ZM153.334 23.8892C153.639 23.8892 153.925 23.8151 154.191 23.667C154.462 23.5189 154.665 23.32 154.801 23.0703V21.7754H153.969C153.398 21.7754 152.968 21.8748 152.681 22.0737C152.393 22.2726 152.249 22.554 152.249 22.918C152.249 23.2142 152.346 23.4512 152.541 23.6289C152.74 23.8024 153.004 23.8892 153.334 23.8892ZM163.973 21.6357C163.973 22.6979 163.732 23.5464 163.25 24.1812C162.767 24.8117 162.12 25.127 161.307 25.127C160.554 25.127 159.951 24.8794 159.498 24.3843V27.6406H157.956V18.1318H159.377L159.441 18.8301C159.894 18.2799 160.509 18.0049 161.288 18.0049C162.126 18.0049 162.782 18.318 163.256 18.9443C163.734 19.5664 163.973 20.4318 163.973 21.5405V21.6357ZM162.437 21.5024C162.437 20.8169 162.299 20.2731 162.024 19.8711C161.754 19.4691 161.364 19.2681 160.856 19.2681C160.226 19.2681 159.773 19.5283 159.498 20.0488V23.0957C159.777 23.6289 160.234 23.8955 160.869 23.8955C161.36 23.8955 161.743 23.6987 162.018 23.3052C162.297 22.9074 162.437 22.3065 162.437 21.5024ZM166.925 25H165.382V18.1318H166.925V25ZM165.287 16.3481C165.287 16.1112 165.361 15.9144 165.509 15.7578C165.662 15.6012 165.877 15.5229 166.157 15.5229C166.436 15.5229 166.652 15.6012 166.804 15.7578C166.957 15.9144 167.033 16.1112 167.033 16.3481C167.033 16.5809 166.957 16.7756 166.804 16.9321C166.652 17.0845 166.436 17.1606 166.157 17.1606C165.877 17.1606 165.662 17.0845 165.509 16.9321C165.361 16.7756 165.287 16.5809 165.287 16.3481ZM168.321 21.5151C168.321 20.4572 168.567 19.6087 169.058 18.9697C169.549 18.3265 170.207 18.0049 171.032 18.0049C171.76 18.0049 172.348 18.2588 172.796 18.7666V15.25H174.339V25H172.942L172.866 24.2891C172.405 24.8477 171.789 25.127 171.019 25.127C170.215 25.127 169.563 24.8032 169.064 24.1558C168.569 23.5083 168.321 22.6281 168.321 21.5151ZM169.864 21.6484C169.864 22.3467 169.997 22.8926 170.264 23.2861C170.535 23.6755 170.917 23.8701 171.413 23.8701C172.043 23.8701 172.504 23.5887 172.796 23.0259V20.0933C172.513 19.5431 172.056 19.2681 171.425 19.2681C170.926 19.2681 170.541 19.467 170.27 19.8647C169.999 20.2583 169.864 20.8529 169.864 21.6484ZM182.007 23.8955C182.392 23.8955 182.711 23.7834 182.965 23.5591C183.219 23.3348 183.355 23.0576 183.372 22.7275H184.825C184.808 23.1549 184.675 23.5549 184.425 23.9272C184.176 24.2954 183.837 24.5874 183.41 24.8032C182.982 25.019 182.521 25.127 182.026 25.127C181.065 25.127 180.304 24.8159 179.741 24.1938C179.178 23.5718 178.896 22.7127 178.896 21.6167V21.458C178.896 20.4128 179.176 19.577 179.734 18.9507C180.293 18.3201 181.055 18.0049 182.02 18.0049C182.836 18.0049 183.501 18.244 184.013 18.7222C184.529 19.1961 184.8 19.8203 184.825 20.5947H183.372C183.355 20.2012 183.219 19.8774 182.965 19.6235C182.716 19.3696 182.396 19.2427 182.007 19.2427C181.507 19.2427 181.122 19.4246 180.852 19.7886C180.581 20.1483 180.443 20.6963 180.439 21.4326V21.6802C180.439 22.425 180.572 22.9814 180.839 23.3496C181.11 23.7135 181.499 23.8955 182.007 23.8955ZM187.631 25H186.088V15.25H187.631V25ZM190.957 25H189.415V18.1318H190.957V25ZM189.319 16.3481C189.319 16.1112 189.393 15.9144 189.542 15.7578C189.694 15.6012 189.91 15.5229 190.189 15.5229C190.468 15.5229 190.684 15.6012 190.836 15.7578C190.989 15.9144 191.065 16.1112 191.065 16.3481C191.065 16.5809 190.989 16.7756 190.836 16.9321C190.684 17.0845 190.468 17.1606 190.189 17.1606C189.91 17.1606 189.694 17.0845 189.542 16.9321C189.393 16.7756 189.319 16.5809 189.319 16.3481ZM194.074 18.1318L194.118 18.9253C194.626 18.3117 195.292 18.0049 196.118 18.0049C197.548 18.0049 198.276 18.8237 198.301 20.4614V25H196.759V20.5503C196.759 20.1144 196.664 19.7928 196.473 19.5854C196.287 19.3739 195.98 19.2681 195.553 19.2681C194.931 19.2681 194.467 19.5495 194.163 20.1123V25H192.62V18.1318H194.074ZM201.52 25H199.977V18.1318H201.52V25ZM199.882 16.3481C199.882 16.1112 199.956 15.9144 200.104 15.7578C200.256 15.6012 200.472 15.5229 200.751 15.5229C201.031 15.5229 201.247 15.6012 201.399 15.7578C201.551 15.9144 201.627 16.1112 201.627 16.3481C201.627 16.5809 201.551 16.7756 201.399 16.9321C201.247 17.0845 201.031 17.1606 200.751 17.1606C200.472 17.1606 200.256 17.0845 200.104 16.9321C199.956 16.7756 199.882 16.5809 199.882 16.3481ZM206.026 23.8955C206.411 23.8955 206.731 23.7834 206.985 23.5591C207.239 23.3348 207.374 23.0576 207.391 22.7275H208.845C208.828 23.1549 208.694 23.5549 208.445 23.9272C208.195 24.2954 207.857 24.5874 207.429 24.8032C207.002 25.019 206.541 25.127 206.045 25.127C205.085 25.127 204.323 24.8159 203.76 24.1938C203.197 23.5718 202.916 22.7127 202.916 21.6167V21.458C202.916 20.4128 203.195 19.577 203.754 18.9507C204.312 18.3201 205.074 18.0049 206.039 18.0049C206.856 18.0049 207.52 18.244 208.032 18.7222C208.549 19.1961 208.819 19.8203 208.845 20.5947H207.391C207.374 20.2012 207.239 19.8774 206.985 19.6235C206.735 19.3696 206.416 19.2427 206.026 19.2427C205.527 19.2427 205.142 19.4246 204.871 19.7886C204.6 20.1483 204.463 20.6963 204.458 21.4326V21.6802C204.458 22.425 204.592 22.9814 204.858 23.3496C205.129 23.7135 205.519 23.8955 206.026 23.8955ZM214.113 25C214.046 24.8688 213.986 24.6551 213.936 24.3589C213.445 24.8709 212.844 25.127 212.133 25.127C211.443 25.127 210.88 24.9302 210.444 24.5366C210.008 24.1431 209.791 23.6564 209.791 23.0767C209.791 22.3446 210.061 21.7839 210.603 21.3945C211.149 21.001 211.928 20.8042 212.939 20.8042H213.885V20.3535C213.885 19.998 213.785 19.7145 213.586 19.5029C213.388 19.2871 213.085 19.1792 212.679 19.1792C212.327 19.1792 212.04 19.2681 211.815 19.4458C211.591 19.6193 211.479 19.8415 211.479 20.1123H209.937C209.937 19.7357 210.061 19.3844 210.311 19.0586C210.561 18.7285 210.899 18.4704 211.327 18.2842C211.758 18.098 212.239 18.0049 212.768 18.0049C213.572 18.0049 214.213 18.208 214.691 18.6143C215.169 19.0163 215.415 19.5833 215.427 20.3154V23.4131C215.427 24.0309 215.514 24.5239 215.688 24.8921V25H214.113ZM212.418 23.8892C212.723 23.8892 213.009 23.8151 213.275 23.667C213.546 23.5189 213.749 23.32 213.885 23.0703V21.7754H213.053C212.482 21.7754 212.052 21.8748 211.765 22.0737C211.477 22.2726 211.333 22.554 211.333 22.918C211.333 23.2142 211.43 23.4512 211.625 23.6289C211.824 23.8024 212.088 23.8892 212.418 23.8892ZM218.684 25H217.141V15.25H218.684V25ZM227.202 19.541C226.999 19.5072 226.79 19.4902 226.574 19.4902C225.867 19.4902 225.391 19.7611 225.146 20.3027V25H223.603V18.1318H225.076L225.114 18.8999C225.486 18.3032 226.002 18.0049 226.663 18.0049C226.883 18.0049 227.065 18.0345 227.208 18.0938L227.202 19.541ZM231.074 25.127C230.097 25.127 229.303 24.8201 228.694 24.2065C228.089 23.5887 227.786 22.7677 227.786 21.7437V21.5532C227.786 20.8677 227.917 20.2562 228.18 19.7188C228.446 19.1771 228.819 18.756 229.297 18.4556C229.775 18.1551 230.308 18.0049 230.896 18.0049C231.832 18.0049 232.553 18.3032 233.061 18.8999C233.573 19.4966 233.829 20.3408 233.829 21.4326V22.0547H229.341C229.388 22.6217 229.576 23.0703 229.906 23.4004C230.241 23.7305 230.66 23.8955 231.163 23.8955C231.87 23.8955 232.445 23.6099 232.89 23.0386L233.721 23.832C233.446 24.2425 233.078 24.562 232.617 24.7905C232.16 25.0148 231.646 25.127 231.074 25.127ZM230.89 19.2427C230.467 19.2427 230.124 19.3908 229.862 19.687C229.604 19.9832 229.439 20.3958 229.367 20.9248H232.306V20.8105C232.272 20.2943 232.134 19.9049 231.893 19.6426C231.652 19.376 231.318 19.2427 230.89 19.2427ZM238.882 23.1338C238.882 22.8587 238.768 22.6493 238.539 22.5054C238.315 22.3615 237.94 22.2345 237.416 22.1245C236.891 22.0145 236.453 21.8748 236.102 21.7056C235.331 21.3332 234.946 20.7936 234.946 20.0869C234.946 19.4945 235.196 18.9993 235.695 18.6016C236.195 18.2038 236.829 18.0049 237.6 18.0049C238.421 18.0049 239.083 18.208 239.586 18.6143C240.094 19.0205 240.348 19.5474 240.348 20.1948H238.806C238.806 19.8986 238.696 19.6532 238.476 19.4585C238.256 19.2596 237.964 19.1602 237.6 19.1602C237.261 19.1602 236.984 19.2384 236.768 19.395C236.556 19.5516 236.451 19.7611 236.451 20.0234C236.451 20.2604 236.55 20.4445 236.749 20.5757C236.948 20.7069 237.35 20.8402 237.955 20.9756C238.56 21.1068 239.034 21.2655 239.377 21.4517C239.724 21.6336 239.98 21.8537 240.145 22.1118C240.314 22.37 240.399 22.6831 240.399 23.0513C240.399 23.6691 240.143 24.1706 239.631 24.5557C239.119 24.9365 238.448 25.127 237.619 25.127C237.056 25.127 236.554 25.0254 236.114 24.8223C235.674 24.6191 235.331 24.3398 235.086 23.9844C234.84 23.6289 234.718 23.2459 234.718 22.8354H236.216C236.237 23.1994 236.375 23.4808 236.628 23.6797C236.882 23.8743 237.219 23.9717 237.638 23.9717C238.044 23.9717 238.353 23.8955 238.564 23.7432C238.776 23.5866 238.882 23.3835 238.882 23.1338ZM247.762 21.6357C247.762 22.6979 247.521 23.5464 247.039 24.1812C246.556 24.8117 245.909 25.127 245.096 25.127C244.343 25.127 243.74 24.8794 243.287 24.3843V27.6406H241.745V18.1318H243.167L243.23 18.8301C243.683 18.2799 244.299 18.0049 245.077 18.0049C245.915 18.0049 246.571 18.318 247.045 18.9443C247.523 19.5664 247.762 20.4318 247.762 21.5405V21.6357ZM246.226 21.5024C246.226 20.8169 246.089 20.2731 245.813 19.8711C245.543 19.4691 245.153 19.2681 244.646 19.2681C244.015 19.2681 243.562 19.5283 243.287 20.0488V23.0957C243.566 23.6289 244.023 23.8955 244.658 23.8955C245.149 23.8955 245.532 23.6987 245.807 23.3052C246.086 22.9074 246.226 22.3065 246.226 21.5024ZM248.784 21.5024C248.784 20.8296 248.917 20.2244 249.184 19.687C249.451 19.1453 249.825 18.7306 250.308 18.4429C250.79 18.1509 251.344 18.0049 251.971 18.0049C252.897 18.0049 253.649 18.3032 254.224 18.8999C254.804 19.4966 255.117 20.2879 255.164 21.2739L255.17 21.6357C255.17 22.3128 255.039 22.918 254.776 23.4512C254.518 23.9844 254.146 24.397 253.659 24.689C253.177 24.981 252.618 25.127 251.983 25.127C251.014 25.127 250.238 24.8053 249.654 24.1621C249.074 23.5146 248.784 22.6535 248.784 21.5786V21.5024ZM250.327 21.6357C250.327 22.3424 250.473 22.8968 250.765 23.2988C251.057 23.6966 251.463 23.8955 251.983 23.8955C252.504 23.8955 252.908 23.6924 253.196 23.2861C253.488 22.8799 253.634 22.2853 253.634 21.5024C253.634 20.8084 253.484 20.2583 253.183 19.8521C252.887 19.4458 252.483 19.2427 251.971 19.2427C251.467 19.2427 251.067 19.4437 250.771 19.8457C250.475 20.2435 250.327 20.8402 250.327 21.6357ZM257.906 18.1318L257.95 18.9253C258.458 18.3117 259.125 18.0049 259.95 18.0049C261.38 18.0049 262.108 18.8237 262.133 20.4614V25H260.591V20.5503C260.591 20.1144 260.496 19.7928 260.305 19.5854C260.119 19.3739 259.812 19.2681 259.385 19.2681C258.763 19.2681 258.299 19.5495 257.995 20.1123V25H256.452V18.1318H257.906ZM267.561 23.1338C267.561 22.8587 267.446 22.6493 267.218 22.5054C266.993 22.3615 266.619 22.2345 266.094 22.1245C265.569 22.0145 265.132 21.8748 264.78 21.7056C264.01 21.3332 263.625 20.7936 263.625 20.0869C263.625 19.4945 263.875 18.9993 264.374 18.6016C264.873 18.2038 265.508 18.0049 266.278 18.0049C267.099 18.0049 267.762 18.208 268.265 18.6143C268.773 19.0205 269.027 19.5474 269.027 20.1948H267.484C267.484 19.8986 267.374 19.6532 267.154 19.4585C266.934 19.2596 266.642 19.1602 266.278 19.1602C265.94 19.1602 265.663 19.2384 265.447 19.395C265.235 19.5516 265.129 19.7611 265.129 20.0234C265.129 20.2604 265.229 20.4445 265.428 20.5757C265.627 20.7069 266.029 20.8402 266.634 20.9756C267.239 21.1068 267.713 21.2655 268.056 21.4517C268.403 21.6336 268.659 21.8537 268.824 22.1118C268.993 22.37 269.078 22.6831 269.078 23.0513C269.078 23.6691 268.822 24.1706 268.31 24.5557C267.798 24.9365 267.127 25.127 266.297 25.127C265.735 25.127 265.233 25.0254 264.793 24.8223C264.353 24.6191 264.01 24.3398 263.765 23.9844C263.519 23.6289 263.396 23.2459 263.396 22.8354H264.895C264.916 23.1994 265.053 23.4808 265.307 23.6797C265.561 23.8743 265.897 23.9717 266.316 23.9717C266.723 23.9717 267.032 23.8955 267.243 23.7432C267.455 23.5866 267.561 23.3835 267.561 23.1338ZM273.451 25.127C272.474 25.127 271.68 24.8201 271.071 24.2065C270.466 23.5887 270.163 22.7677 270.163 21.7437V21.5532C270.163 20.8677 270.294 20.2562 270.557 19.7188C270.823 19.1771 271.196 18.756 271.674 18.4556C272.152 18.1551 272.685 18.0049 273.273 18.0049C274.209 18.0049 274.93 18.3032 275.438 18.8999C275.95 19.4966 276.206 20.3408 276.206 21.4326V22.0547H271.718C271.765 22.6217 271.953 23.0703 272.283 23.4004C272.618 23.7305 273.036 23.8955 273.54 23.8955C274.247 23.8955 274.822 23.6099 275.267 23.0386L276.098 23.832C275.823 24.2425 275.455 24.562 274.994 24.7905C274.537 25.0148 274.022 25.127 273.451 25.127ZM273.267 19.2427C272.844 19.2427 272.501 19.3908 272.239 19.687C271.981 19.9832 271.816 20.3958 271.744 20.9248H274.683V20.8105C274.649 20.2943 274.511 19.9049 274.27 19.6426C274.029 19.376 273.694 19.2427 273.267 19.2427ZM40.3735 36.5151C40.3735 35.4572 40.619 34.6087 41.1099 33.9697C41.6007 33.3265 42.2588 33.0049 43.084 33.0049C43.8118 33.0049 44.4001 33.2588 44.8486 33.7666V30.25H46.3911V40H44.9946L44.9185 39.2891C44.4572 39.8477 43.8415 40.127 43.0713 40.127C42.2673 40.127 41.6156 39.8032 41.1162 39.1558C40.6211 38.5083 40.3735 37.6281 40.3735 36.5151ZM41.916 36.6484C41.916 37.3467 42.0493 37.8926 42.3159 38.2861C42.5868 38.6755 42.9697 38.8701 43.4648 38.8701C44.0954 38.8701 44.5566 38.5887 44.8486 38.0259V35.0933C44.5651 34.5431 44.1081 34.2681 43.4775 34.2681C42.9782 34.2681 42.5931 34.467 42.3223 34.8647C42.0514 35.2583 41.916 35.8529 41.916 36.6484ZM51.0249 40.127C50.0474 40.127 49.2539 39.8201 48.6445 39.2065C48.0394 38.5887 47.7368 37.7677 47.7368 36.7437V36.5532C47.7368 35.8677 47.868 35.2562 48.1304 34.7188C48.397 34.1771 48.7694 33.756 49.2476 33.4556C49.7257 33.1551 50.259 33.0049 50.8472 33.0049C51.7824 33.0049 52.5039 33.3032 53.0117 33.8999C53.5238 34.4966 53.7798 35.3408 53.7798 36.4326V37.0547H49.292C49.3385 37.6217 49.5269 38.0703 49.8569 38.4004C50.1912 38.7305 50.6102 38.8955 51.1138 38.8955C51.8205 38.8955 52.396 38.6099 52.8403 38.0386L53.6719 38.832C53.3968 39.2425 53.0286 39.562 52.5674 39.7905C52.1104 40.0148 51.5962 40.127 51.0249 40.127ZM50.8408 34.2427C50.4176 34.2427 50.0749 34.3908 49.8125 34.687C49.5544 34.9832 49.3893 35.3958 49.3174 35.9248H52.2563V35.8105C52.2225 35.2943 52.085 34.9049 51.8438 34.6426C51.6025 34.376 51.2682 34.2427 50.8408 34.2427ZM56.4331 33.1318L56.4775 33.8491C56.96 33.2863 57.6201 33.0049 58.458 33.0049C59.3763 33.0049 60.0047 33.3561 60.3433 34.0586C60.8426 33.3561 61.5451 33.0049 62.4507 33.0049C63.2082 33.0049 63.771 33.2144 64.1392 33.6333C64.5116 34.0522 64.702 34.6701 64.7104 35.4868V40H63.168V35.5312C63.168 35.0954 63.0728 34.7759 62.8823 34.5728C62.6919 34.3696 62.3766 34.2681 61.9365 34.2681C61.5853 34.2681 61.2975 34.3633 61.0732 34.5537C60.8532 34.7399 60.6987 34.9854 60.6099 35.29L60.6162 40H59.0737V35.4805C59.0526 34.6722 58.64 34.2681 57.8359 34.2681C57.2181 34.2681 56.7801 34.5199 56.522 35.0234V40H54.9795V33.1318H56.4331ZM66.0054 36.5024C66.0054 35.8296 66.1387 35.2244 66.4053 34.687C66.6719 34.1453 67.0464 33.7306 67.5288 33.4429C68.0112 33.1509 68.5656 33.0049 69.1919 33.0049C70.1187 33.0049 70.8698 33.3032 71.4453 33.8999C72.0251 34.4966 72.3382 35.2879 72.3848 36.2739L72.3911 36.6357C72.3911 37.3128 72.2599 37.918 71.9976 38.4512C71.7394 38.9844 71.367 39.397 70.8804 39.689C70.3979 39.981 69.8394 40.127 69.2046 40.127C68.2355 40.127 67.459 39.8053 66.875 39.1621C66.2952 38.5146 66.0054 37.6535 66.0054 36.5786V36.5024ZM67.5479 36.6357C67.5479 37.3424 67.6938 37.8968 67.9858 38.2988C68.2778 38.6966 68.6841 38.8955 69.2046 38.8955C69.7251 38.8955 70.1292 38.6924 70.417 38.2861C70.709 37.8799 70.855 37.2853 70.855 36.5024C70.855 35.8084 70.7048 35.2583 70.4043 34.8521C70.1081 34.4458 69.7039 34.2427 69.1919 34.2427C68.6883 34.2427 68.2884 34.4437 67.9922 34.8457C67.696 35.2435 67.5479 35.8402 67.5479 36.6357ZM75.127 33.1318L75.1714 33.9253C75.6792 33.3117 76.3457 33.0049 77.1709 33.0049C78.6012 33.0049 79.3291 33.8237 79.3545 35.4614V40H77.812V35.5503C77.812 35.1144 77.7168 34.7928 77.5264 34.5854C77.3402 34.3739 77.0334 34.2681 76.606 34.2681C75.9839 34.2681 75.5205 34.5495 75.2158 35.1123V40H73.6733V33.1318H75.127ZM84.7817 38.1338C84.7817 37.8587 84.6675 37.6493 84.439 37.5054C84.2147 37.3615 83.8402 37.2345 83.3154 37.1245C82.7907 37.0145 82.3527 36.8748 82.0015 36.7056C81.2313 36.3332 80.8462 35.7936 80.8462 35.0869C80.8462 34.4945 81.0959 33.9993 81.5952 33.6016C82.0946 33.2038 82.7293 33.0049 83.4995 33.0049C84.3205 33.0049 84.9827 33.208 85.4863 33.6143C85.9941 34.0205 86.248 34.5474 86.248 35.1948H84.7056C84.7056 34.8986 84.5955 34.6532 84.3755 34.4585C84.1554 34.2596 83.8634 34.1602 83.4995 34.1602C83.161 34.1602 82.8838 34.2384 82.668 34.395C82.4564 34.5516 82.3506 34.7611 82.3506 35.0234C82.3506 35.2604 82.45 35.4445 82.6489 35.5757C82.8478 35.7069 83.2498 35.8402 83.855 35.9756C84.4601 36.1068 84.9341 36.2655 85.2769 36.4517C85.6239 36.6336 85.8799 36.8537 86.0449 37.1118C86.2142 37.37 86.2988 37.6831 86.2988 38.0513C86.2988 38.6691 86.0428 39.1706 85.5308 39.5557C85.0187 39.9365 84.348 40.127 83.5186 40.127C82.9557 40.127 82.4543 40.0254 82.0142 39.8223C81.5741 39.6191 81.2313 39.3398 80.9858 38.9844C80.7404 38.6289 80.6177 38.2459 80.6177 37.8354H82.1157C82.1369 38.1994 82.2744 38.4808 82.5283 38.6797C82.7822 38.8743 83.1187 38.9717 83.5376 38.9717C83.9438 38.9717 84.2528 38.8955 84.4644 38.7432C84.6759 38.5866 84.7817 38.3835 84.7817 38.1338ZM89.5806 31.4624V33.1318H90.793V34.2744H89.5806V38.1084C89.5806 38.3708 89.6313 38.5612 89.7329 38.6797C89.8387 38.7939 90.0249 38.8511 90.2915 38.8511C90.4692 38.8511 90.6491 38.8299 90.8311 38.7876V39.981C90.4798 40.0783 90.1413 40.127 89.8154 40.127C88.6305 40.127 88.0381 39.4731 88.0381 38.1655V34.2744H86.9082V33.1318H88.0381V31.4624H89.5806ZM95.5728 34.541C95.3696 34.5072 95.1602 34.4902 94.9443 34.4902C94.2376 34.4902 93.7616 34.7611 93.5161 35.3027V40H91.9736V33.1318H93.4463L93.4844 33.8999C93.8568 33.3032 94.373 33.0049 95.0332 33.0049C95.2533 33.0049 95.4352 33.0345 95.5791 33.0938L95.5728 34.541ZM100.46 40C100.393 39.8688 100.333 39.6551 100.283 39.3589C99.7918 39.8709 99.1909 40.127 98.48 40.127C97.7902 40.127 97.2274 39.9302 96.7915 39.5366C96.3556 39.1431 96.1377 38.6564 96.1377 38.0767C96.1377 37.3446 96.4085 36.7839 96.9502 36.3945C97.4961 36.001 98.2747 35.8042 99.2861 35.8042H100.232V35.3535C100.232 34.998 100.132 34.7145 99.9336 34.5029C99.7347 34.2871 99.4321 34.1792 99.0259 34.1792C98.6746 34.1792 98.3869 34.2681 98.1626 34.4458C97.9383 34.6193 97.8262 34.8415 97.8262 35.1123H96.2837C96.2837 34.7357 96.4085 34.3844 96.6582 34.0586C96.9079 33.7285 97.2464 33.4704 97.6738 33.2842C98.1055 33.098 98.5858 33.0049 99.1147 33.0049C99.9188 33.0049 100.56 33.208 101.038 33.6143C101.516 34.0163 101.762 34.5833 101.774 35.3154V38.4131C101.774 39.0309 101.861 39.5239 102.035 39.8921V40H100.46ZM98.7656 38.8892C99.0703 38.8892 99.356 38.8151 99.6226 38.667C99.8934 38.5189 100.097 38.32 100.232 38.0703V36.7754H99.4004C98.8291 36.7754 98.3996 36.8748 98.1118 37.0737C97.8241 37.2726 97.6802 37.554 97.6802 37.918C97.6802 38.2142 97.7775 38.4512 97.9722 38.6289C98.1711 38.8024 98.4355 38.8892 98.7656 38.8892ZM105.323 31.4624V33.1318H106.535V34.2744H105.323V38.1084C105.323 38.3708 105.374 38.5612 105.475 38.6797C105.581 38.7939 105.767 38.8511 106.034 38.8511C106.211 38.8511 106.391 38.8299 106.573 38.7876V39.981C106.222 40.0783 105.883 40.127 105.558 40.127C104.373 40.127 103.78 39.4731 103.78 38.1655V34.2744H102.65V33.1318H103.78V31.4624H105.323ZM110.744 40.127C109.766 40.127 108.973 39.8201 108.363 39.2065C107.758 38.5887 107.456 37.7677 107.456 36.7437V36.5532C107.456 35.8677 107.587 35.2562 107.849 34.7188C108.116 34.1771 108.488 33.756 108.966 33.4556C109.444 33.1551 109.978 33.0049 110.566 33.0049C111.501 33.0049 112.223 33.3032 112.73 33.8999C113.243 34.4966 113.499 35.3408 113.499 36.4326V37.0547H109.011C109.057 37.6217 109.246 38.0703 109.576 38.4004C109.91 38.7305 110.329 38.8955 110.833 38.8955C111.539 38.8955 112.115 38.6099 112.559 38.0386L113.391 38.832C113.116 39.2425 112.747 39.562 112.286 39.7905C111.829 40.0148 111.315 40.127 110.744 40.127ZM110.56 34.2427C110.136 34.2427 109.794 34.3908 109.531 34.687C109.273 34.9832 109.108 35.3958 109.036 35.9248H111.975V35.8105C111.941 35.2943 111.804 34.9049 111.562 34.6426C111.321 34.376 110.987 34.2427 110.56 34.2427ZM114.413 36.5151C114.413 35.4572 114.658 34.6087 115.149 33.9697C115.64 33.3265 116.298 33.0049 117.123 33.0049C117.851 33.0049 118.439 33.2588 118.888 33.7666V30.25H120.43V40H119.034L118.958 39.2891C118.496 39.8477 117.881 40.127 117.11 40.127C116.306 40.127 115.655 39.8032 115.155 39.1558C114.66 38.5083 114.413 37.6281 114.413 36.5151ZM115.955 36.6484C115.955 37.3467 116.088 37.8926 116.355 38.2861C116.626 38.6755 117.009 38.8701 117.504 38.8701C118.134 38.8701 118.596 38.5887 118.888 38.0259V35.0933C118.604 34.5431 118.147 34.2681 117.517 34.2681C117.017 34.2681 116.632 34.467 116.361 34.8647C116.09 35.2583 115.955 35.8529 115.955 36.6484ZM126.562 40H121.781V39.1846L124.149 36.6016C124.491 36.2207 124.734 35.9033 124.877 35.6494C125.023 35.3923 125.097 35.1351 125.097 34.8779C125.097 34.5394 125.001 34.266 124.809 34.0576C124.62 33.8493 124.364 33.7451 124.042 33.7451C123.658 33.7451 123.36 33.8623 123.148 34.0967C122.937 34.3311 122.831 34.6517 122.831 35.0586H121.645C121.645 34.6257 121.742 34.2367 121.938 33.8916C122.136 33.5433 122.418 33.2731 122.782 33.0811C123.15 32.889 123.573 32.793 124.052 32.793C124.742 32.793 125.285 32.9671 125.683 33.3154C126.083 33.6605 126.283 34.139 126.283 34.751C126.283 35.1058 126.182 35.4785 125.98 35.8691C125.782 36.2565 125.455 36.6976 124.999 37.1924L123.261 39.0527H126.562V40ZM135.064 40C134.996 39.8688 134.937 39.6551 134.886 39.3589C134.395 39.8709 133.794 40.127 133.083 40.127C132.394 40.127 131.831 39.9302 131.395 39.5366C130.959 39.1431 130.741 38.6564 130.741 38.0767C130.741 37.3446 131.012 36.7839 131.554 36.3945C132.1 36.001 132.878 35.8042 133.89 35.8042H134.835V35.3535C134.835 34.998 134.736 34.7145 134.537 34.5029C134.338 34.2871 134.036 34.1792 133.629 34.1792C133.278 34.1792 132.99 34.2681 132.766 34.4458C132.542 34.6193 132.43 34.8415 132.43 35.1123H130.887C130.887 34.7357 131.012 34.3844 131.262 34.0586C131.511 33.7285 131.85 33.4704 132.277 33.2842C132.709 33.098 133.189 33.0049 133.718 33.0049C134.522 33.0049 135.163 33.208 135.642 33.6143C136.12 34.0163 136.365 34.5833 136.378 35.3154V38.4131C136.378 39.0309 136.465 39.5239 136.638 39.8921V40H135.064ZM133.369 38.8892C133.674 38.8892 133.959 38.8151 134.226 38.667C134.497 38.5189 134.7 38.32 134.835 38.0703V36.7754H134.004C133.433 36.7754 133.003 36.8748 132.715 37.0737C132.428 37.2726 132.284 37.554 132.284 37.918C132.284 38.2142 132.381 38.4512 132.576 38.6289C132.775 38.8024 133.039 38.8892 133.369 38.8892ZM139.926 31.4624V33.1318H141.139V34.2744H139.926V38.1084C139.926 38.3708 139.977 38.5612 140.079 38.6797C140.184 38.7939 140.371 38.8511 140.637 38.8511C140.815 38.8511 140.995 38.8299 141.177 38.7876V39.981C140.826 40.0783 140.487 40.127 140.161 40.127C138.976 40.127 138.384 39.4731 138.384 38.1655V34.2744H137.254V33.1318H138.384V31.4624H139.926ZM147.245 34.6743H148.185C148.659 34.6701 149.033 34.5474 149.308 34.3062C149.587 34.0649 149.727 33.7158 149.727 33.2588C149.727 32.8187 149.611 32.478 149.378 32.2368C149.149 31.9914 148.798 31.8687 148.324 31.8687C147.91 31.8687 147.569 31.9893 147.302 32.2305C147.036 32.4674 146.902 32.7785 146.902 33.1636H145.36C145.36 32.6896 145.485 32.258 145.734 31.8687C145.988 31.4793 146.34 31.1768 146.788 30.9609C147.241 30.7409 147.747 30.6309 148.305 30.6309C149.228 30.6309 149.951 30.8636 150.476 31.3291C151.005 31.7904 151.27 32.4336 151.27 33.2588C151.27 33.6735 151.136 34.0649 150.87 34.4331C150.607 34.797 150.267 35.0721 149.848 35.2583C150.355 35.4318 150.741 35.7048 151.003 36.0771C151.27 36.4495 151.403 36.8939 151.403 37.4102C151.403 38.2396 151.117 38.8997 150.546 39.3906C149.979 39.8815 149.232 40.127 148.305 40.127C147.417 40.127 146.689 39.89 146.122 39.416C145.555 38.9421 145.271 38.3115 145.271 37.5244H146.813C146.813 37.9307 146.949 38.2607 147.22 38.5146C147.495 38.7686 147.863 38.8955 148.324 38.8955C148.802 38.8955 149.179 38.7686 149.454 38.5146C149.729 38.2607 149.867 37.8926 149.867 37.4102C149.867 36.9235 149.723 36.549 149.435 36.2866C149.147 36.0243 148.72 35.8931 148.153 35.8931H147.245V34.6743ZM153.91 38.375C154.198 38.375 154.42 38.4575 154.577 38.6226C154.733 38.7834 154.812 38.9865 154.812 39.2319C154.812 39.4731 154.733 39.6742 154.577 39.835C154.42 39.9915 154.198 40.0698 153.91 40.0698C153.635 40.0698 153.417 39.9915 153.256 39.835C153.096 39.6784 153.015 39.4774 153.015 39.2319C153.015 38.9865 153.093 38.7834 153.25 38.6226C153.407 38.4575 153.627 38.375 153.91 38.375ZM161.699 36.7056H162.848V37.9434H161.699V40H160.156V37.9434H156.164L156.119 37.0039L160.105 30.7578H161.699V36.7056ZM157.738 36.7056H160.156V32.8462L160.042 33.0493L157.738 36.7056ZM170.084 40H163.87V38.9399L166.948 35.582C167.393 35.0869 167.708 34.6743 167.894 34.3442C168.084 34.0099 168.18 33.6756 168.18 33.3413C168.18 32.9012 168.055 32.5457 167.805 32.2749C167.56 32.0041 167.228 31.8687 166.809 31.8687C166.309 31.8687 165.922 32.021 165.647 32.3257C165.372 32.6304 165.234 33.0472 165.234 33.5762H163.692C163.692 33.0133 163.819 32.5076 164.073 32.0591C164.331 31.6063 164.697 31.255 165.171 31.0054C165.649 30.7557 166.199 30.6309 166.821 30.6309C167.718 30.6309 168.425 30.8573 168.941 31.3101C169.462 31.7586 169.722 32.3807 169.722 33.1763C169.722 33.6375 169.591 34.1221 169.329 34.6299C169.07 35.1335 168.645 35.7069 168.053 36.3501L165.793 38.7686H170.084V40ZM174.807 34.2935H176.984V35.5566H174.807V38.0195H173.436V35.5566H171.169V34.2935H173.436V31.9004H174.807V34.2935ZM176.749 39.9937H171.36V38.7495H176.749V39.9937ZM187.68 40H181.465V38.9399L184.544 35.582C184.988 35.0869 185.304 34.6743 185.49 34.3442C185.68 34.0099 185.775 33.6756 185.775 33.3413C185.775 32.9012 185.651 32.5457 185.401 32.2749C185.155 32.0041 184.823 31.8687 184.404 31.8687C183.905 31.8687 183.518 32.021 183.243 32.3257C182.968 32.6304 182.83 33.0472 182.83 33.5762H181.288C181.288 33.0133 181.415 32.5076 181.668 32.0591C181.927 31.6063 182.293 31.255 182.767 31.0054C183.245 30.7557 183.795 30.6309 184.417 30.6309C185.314 30.6309 186.021 30.8573 186.537 31.3101C187.058 31.7586 187.318 32.3807 187.318 33.1763C187.318 33.6375 187.187 34.1221 186.924 34.6299C186.666 35.1335 186.241 35.7069 185.648 36.3501L183.389 38.7686H187.68V40ZM189.914 38.375C190.202 38.375 190.424 38.4575 190.581 38.6226C190.737 38.7834 190.815 38.9865 190.815 39.2319C190.815 39.4731 190.737 39.6742 190.581 39.835C190.424 39.9915 190.202 40.0698 189.914 40.0698C189.639 40.0698 189.421 39.9915 189.26 39.835C189.099 39.6784 189.019 39.4774 189.019 39.2319C189.019 38.9865 189.097 38.7834 189.254 38.6226C189.41 38.4575 189.631 38.375 189.914 38.375ZM198.636 31.6147L194.941 40H193.323L197.011 31.9956H192.231V30.7578H198.636V31.6147ZM205.091 36.7056H206.24V37.9434H205.091V40H203.549V37.9434H199.556L199.512 37.0039L203.498 30.7578H205.091V36.7056ZM201.13 36.7056H203.549V32.8462L203.435 33.0493L201.13 36.7056ZM210.309 36.5151C210.309 35.4572 210.555 34.6087 211.045 33.9697C211.536 33.3265 212.194 33.0049 213.02 33.0049C213.747 33.0049 214.336 33.2588 214.784 33.7666V30.25H216.327V40H214.93L214.854 39.2891C214.393 39.8477 213.777 40.127 213.007 40.127C212.203 40.127 211.551 39.8032 211.052 39.1558C210.557 38.5083 210.309 37.6281 210.309 36.5151ZM211.852 36.6484C211.852 37.3467 211.985 37.8926 212.251 38.2861C212.522 38.6755 212.905 38.8701 213.4 38.8701C214.031 38.8701 214.492 38.5887 214.784 38.0259V35.0933C214.501 34.5431 214.044 34.2681 213.413 34.2681C212.914 34.2681 212.529 34.467 212.258 34.8647C211.987 35.2583 211.852 35.8529 211.852 36.6484ZM222.04 40C221.972 39.8688 221.913 39.6551 221.862 39.3589C221.371 39.8709 220.77 40.127 220.059 40.127C219.369 40.127 218.806 39.9302 218.371 39.5366C217.935 39.1431 217.717 38.6564 217.717 38.0767C217.717 37.3446 217.988 36.7839 218.529 36.3945C219.075 36.001 219.854 35.8042 220.865 35.8042H221.811V35.3535C221.811 34.998 221.712 34.7145 221.513 34.5029C221.314 34.2871 221.011 34.1792 220.605 34.1792C220.254 34.1792 219.966 34.2681 219.742 34.4458C219.517 34.6193 219.405 34.8415 219.405 35.1123H217.863C217.863 34.7357 217.988 34.3844 218.237 34.0586C218.487 33.7285 218.826 33.4704 219.253 33.2842C219.685 33.098 220.165 33.0049 220.694 33.0049C221.498 33.0049 222.139 33.208 222.617 33.6143C223.095 34.0163 223.341 34.5833 223.354 35.3154V38.4131C223.354 39.0309 223.44 39.5239 223.614 39.8921V40H222.04ZM220.345 38.8892C220.649 38.8892 220.935 38.8151 221.202 38.667C221.472 38.5189 221.676 38.32 221.811 38.0703V36.7754H220.979C220.408 36.7754 219.979 36.8748 219.691 37.0737C219.403 37.2726 219.259 37.554 219.259 37.918C219.259 38.2142 219.357 38.4512 219.551 38.6289C219.75 38.8024 220.015 38.8892 220.345 38.8892ZM227.27 37.791L228.667 33.1318H230.311L227.581 41.041C227.162 42.1963 226.451 42.7739 225.448 42.7739C225.224 42.7739 224.976 42.7358 224.706 42.6597V41.4663L224.998 41.4854C225.387 41.4854 225.679 41.4134 225.874 41.2695C226.072 41.1299 226.229 40.8929 226.343 40.5586L226.565 39.9683L224.153 33.1318H225.816L227.27 37.791ZM235.052 38.1338C235.052 37.8587 234.938 37.6493 234.709 37.5054C234.485 37.3615 234.111 37.2345 233.586 37.1245C233.061 37.0145 232.623 36.8748 232.272 36.7056C231.502 36.3332 231.117 35.7936 231.117 35.0869C231.117 34.4945 231.366 33.9993 231.866 33.6016C232.365 33.2038 233 33.0049 233.77 33.0049C234.591 33.0049 235.253 33.208 235.757 33.6143C236.265 34.0205 236.519 34.5474 236.519 35.1948H234.976C234.976 34.8986 234.866 34.6532 234.646 34.4585C234.426 34.2596 234.134 34.1602 233.77 34.1602C233.431 34.1602 233.154 34.2384 232.938 34.395C232.727 34.5516 232.621 34.7611 232.621 35.0234C232.621 35.2604 232.721 35.4445 232.919 35.5757C233.118 35.7069 233.52 35.8402 234.125 35.9756C234.731 36.1068 235.205 36.2655 235.547 36.4517C235.894 36.6336 236.15 36.8537 236.315 37.1118C236.485 37.37 236.569 37.6831 236.569 38.0513C236.569 38.6691 236.313 39.1706 235.801 39.5557C235.289 39.9365 234.618 40.127 233.789 40.127C233.226 40.127 232.725 40.0254 232.285 39.8223C231.845 39.6191 231.502 39.3398 231.256 38.9844C231.011 38.6289 230.888 38.2459 230.888 37.8354H232.386C232.407 38.1994 232.545 38.4808 232.799 38.6797C233.053 38.8743 233.389 38.9717 233.808 38.9717C234.214 38.9717 234.523 38.8955 234.735 38.7432C234.946 38.5866 235.052 38.3835 235.052 38.1338Z" fill="#ED2771"/>
</svg>
