<svg xmlns="http://www.w3.org/2000/svg" width="61.609" height="47.909" viewBox="0 0 61.609 47.909"><path d="M29.987,14.682,10.268,30.923V48.451a1.711,1.711,0,0,0,1.711,1.711l11.985-.031a1.711,1.711,0,0,0,1.7-1.711V38.184a1.711,1.711,0,0,1,1.711-1.711h6.845a1.711,1.711,0,0,1,1.711,1.711V48.413a1.711,1.711,0,0,0,1.711,1.717l11.981.033a1.711,1.711,0,0,0,1.711-1.711V30.911L31.623,14.682A1.3,1.3,0,0,0,29.987,14.682ZM61.134,25.721l-8.941-7.37V3.537a1.283,1.283,0,0,0-1.283-1.283H44.92a1.283,1.283,0,0,0-1.283,1.283V11.3L34.061,3.425a5.134,5.134,0,0,0-6.524,0L.465,25.721a1.283,1.283,0,0,0-.171,1.807l2.727,3.315a1.283,1.283,0,0,0,1.809.174L29.987,10.3a1.3,1.3,0,0,1,1.636,0L56.781,31.018a1.283,1.283,0,0,0,1.807-.171l2.727-3.315a1.283,1.283,0,0,0-.182-1.811Z" transform="translate(0.001 -2.254)" fill="#95358d"/></svg>